M48
; DRILL file {KiCad 9.0.4} date 2025-08-25T23:50:36+0100
; FORMAT={-:-/ absolute / metric / decimal}
; #@! TF.CreationDate,2025-08-25T23:50:36+01:00
; #@! TF.GenerationSoftware,Kicad,Pcbnew,9.0.4
; #@! TF.FileFunction,Plated,1,4,PTH
FMAT,2
METRIC
; #@! TA.AperFunction,Plated,PTH,ViaDrill
T1C0.200
; #@! TA.AperFunction,Plated,PTH,ViaDrill
T2C0.300
%
G90
G05
T1
X141.0Y-88.5
X143.25Y-88.5
X143.5Y-90.5
X143.77Y-97.5
X144.0Y-100.0
X144.25Y-105.75
X145.0Y-88.5
X145.0Y-90.5
X145.0Y-92.0
X145.0Y-100.0
X145.25Y-93.475
X145.25Y-105.08
X146.5Y-92.0
X146.5Y-93.5
X146.5Y-100.0
X147.5Y-103.75
X147.75Y-88.5
X148.25Y-97.25
X149.0Y-98.75
X149.0Y-101.5
X149.5Y-97.25
X149.75Y-93.0
X150.0Y-88.5
X151.0Y-105.5
X151.75Y-97.5
X152.25Y-88.5
X152.65Y-95.6
X153.0Y-103.75
X153.0Y-107.075
X153.75Y-92.25
X154.75Y-101.0
X154.75Y-107.075
X155.0Y-88.5
X156.0Y-92.25
X156.0Y-94.75
X156.0Y-102.0
X156.0Y-105.5
X156.75Y-88.5
X159.0Y-88.5
T2
X141.945Y-92.38
X141.945Y-94.92
X141.945Y-97.46
X143.75Y-103.75
X145.25Y-95.025
X146.2Y-105.5
X146.5Y-101.5
X147.75Y-95.025
X147.75Y-105.5
X149.25Y-105.5
X152.05Y-101.05
X152.65Y-93.9
X153.0Y-105.425
X154.75Y-105.425
X154.85Y-95.6
X155.0Y-97.781
X155.0Y-99.686
X156.75Y-89.675
X158.11Y-94.92
M30
