%TF.GenerationSoftware,KiCad,Pcbnew,9.0.4*%
%TF.CreationDate,2025-08-25T23:50:36+01:00*%
%TF.ProjectId,smol-slime-xiao,736d6f6c-2d73-46c6-996d-652d7869616f,1.0*%
%TF.SameCoordinates,Original*%
%TF.FileFunction,Drillmap*%
%TF.FilePolarity,Positive*%
%FSLAX45Y45*%
G04 Gerber Fmt 4.5, Leading zero omitted, Abs format (unit mm)*
G04 Created by KiCad (PCBNEW 9.0.4) date 2025-08-25 23:50:36*
%MOMM*%
%LPD*%
G01*
G04 APERTURE LIST*
%ADD10C,0.050000*%
%ADD11C,0.200000*%
%ADD12C,0.100000*%
G04 APERTURE END LIST*
D10*
X14000000Y-8875000D02*
X14000000Y-10975000D01*
X14000000Y-8875000D02*
G75*
G02*
X14125000Y-8750000I125000J0D01*
G01*
X14125000Y-11100000D02*
X15875000Y-11100000D01*
X15875000Y-8750000D02*
G75*
G02*
X16000000Y-8875000I0J-125000D01*
G01*
X16000000Y-10975000D02*
G75*
G02*
X15875000Y-11100000I-125000J0D01*
G01*
X16000000Y-10975000D02*
X16000000Y-8875000D01*
X14125000Y-11100000D02*
G75*
G02*
X14000000Y-10975000I0J125000D01*
G01*
X15875000Y-8750000D02*
X14125000Y-8750000D01*
D11*
D12*
X14805000Y-8905000D02*
X14895000Y-8995000D01*
X14895000Y-8905000D02*
X14805000Y-8995000D01*
X15105000Y-8905000D02*
X15195000Y-8995000D01*
X15195000Y-8905000D02*
X15105000Y-8995000D01*
D11*
X14258277Y-11413984D02*
X14258277Y-11213984D01*
X14258277Y-11213984D02*
X14305896Y-11213984D01*
X14305896Y-11213984D02*
X14334467Y-11223508D01*
X14334467Y-11223508D02*
X14353515Y-11242555D01*
X14353515Y-11242555D02*
X14363039Y-11261603D01*
X14363039Y-11261603D02*
X14372562Y-11299698D01*
X14372562Y-11299698D02*
X14372562Y-11328269D01*
X14372562Y-11328269D02*
X14363039Y-11366365D01*
X14363039Y-11366365D02*
X14353515Y-11385412D01*
X14353515Y-11385412D02*
X14334467Y-11404460D01*
X14334467Y-11404460D02*
X14305896Y-11413984D01*
X14305896Y-11413984D02*
X14258277Y-11413984D01*
X14458277Y-11413984D02*
X14458277Y-11280650D01*
X14458277Y-11318746D02*
X14467801Y-11299698D01*
X14467801Y-11299698D02*
X14477324Y-11290174D01*
X14477324Y-11290174D02*
X14496372Y-11280650D01*
X14496372Y-11280650D02*
X14515420Y-11280650D01*
X14582086Y-11413984D02*
X14582086Y-11280650D01*
X14582086Y-11213984D02*
X14572562Y-11223508D01*
X14572562Y-11223508D02*
X14582086Y-11233031D01*
X14582086Y-11233031D02*
X14591610Y-11223508D01*
X14591610Y-11223508D02*
X14582086Y-11213984D01*
X14582086Y-11213984D02*
X14582086Y-11233031D01*
X14705896Y-11413984D02*
X14686848Y-11404460D01*
X14686848Y-11404460D02*
X14677324Y-11385412D01*
X14677324Y-11385412D02*
X14677324Y-11213984D01*
X14810658Y-11413984D02*
X14791610Y-11404460D01*
X14791610Y-11404460D02*
X14782086Y-11385412D01*
X14782086Y-11385412D02*
X14782086Y-11213984D01*
X15039229Y-11413984D02*
X15039229Y-11213984D01*
X15039229Y-11213984D02*
X15105896Y-11356841D01*
X15105896Y-11356841D02*
X15172562Y-11213984D01*
X15172562Y-11213984D02*
X15172562Y-11413984D01*
X15353515Y-11413984D02*
X15353515Y-11309222D01*
X15353515Y-11309222D02*
X15343991Y-11290174D01*
X15343991Y-11290174D02*
X15324943Y-11280650D01*
X15324943Y-11280650D02*
X15286848Y-11280650D01*
X15286848Y-11280650D02*
X15267801Y-11290174D01*
X15353515Y-11404460D02*
X15334467Y-11413984D01*
X15334467Y-11413984D02*
X15286848Y-11413984D01*
X15286848Y-11413984D02*
X15267801Y-11404460D01*
X15267801Y-11404460D02*
X15258277Y-11385412D01*
X15258277Y-11385412D02*
X15258277Y-11366365D01*
X15258277Y-11366365D02*
X15267801Y-11347317D01*
X15267801Y-11347317D02*
X15286848Y-11337793D01*
X15286848Y-11337793D02*
X15334467Y-11337793D01*
X15334467Y-11337793D02*
X15353515Y-11328269D01*
X15448753Y-11280650D02*
X15448753Y-11480650D01*
X15448753Y-11290174D02*
X15467801Y-11280650D01*
X15467801Y-11280650D02*
X15505896Y-11280650D01*
X15505896Y-11280650D02*
X15524943Y-11290174D01*
X15524943Y-11290174D02*
X15534467Y-11299698D01*
X15534467Y-11299698D02*
X15543991Y-11318746D01*
X15543991Y-11318746D02*
X15543991Y-11375888D01*
X15543991Y-11375888D02*
X15534467Y-11394936D01*
X15534467Y-11394936D02*
X15524943Y-11404460D01*
X15524943Y-11404460D02*
X15505896Y-11413984D01*
X15505896Y-11413984D02*
X15467801Y-11413984D01*
X15467801Y-11413984D02*
X15448753Y-11404460D01*
X15629705Y-11394936D02*
X15639229Y-11404460D01*
X15639229Y-11404460D02*
X15629705Y-11413984D01*
X15629705Y-11413984D02*
X15620182Y-11404460D01*
X15620182Y-11404460D02*
X15629705Y-11394936D01*
X15629705Y-11394936D02*
X15629705Y-11413984D01*
X15629705Y-11290174D02*
X15639229Y-11299698D01*
X15639229Y-11299698D02*
X15629705Y-11309222D01*
X15629705Y-11309222D02*
X15620182Y-11299698D01*
X15620182Y-11299698D02*
X15629705Y-11290174D01*
X15629705Y-11290174D02*
X15629705Y-11309222D01*
D12*
X13907500Y-11697500D02*
X13997500Y-11787500D01*
X13997500Y-11697500D02*
X13907500Y-11787500D01*
D11*
X14296372Y-11633984D02*
X14315420Y-11633984D01*
X14315420Y-11633984D02*
X14334467Y-11643508D01*
X14334467Y-11643508D02*
X14343991Y-11653031D01*
X14343991Y-11653031D02*
X14353515Y-11672079D01*
X14353515Y-11672079D02*
X14363039Y-11710174D01*
X14363039Y-11710174D02*
X14363039Y-11757793D01*
X14363039Y-11757793D02*
X14353515Y-11795888D01*
X14353515Y-11795888D02*
X14343991Y-11814936D01*
X14343991Y-11814936D02*
X14334467Y-11824460D01*
X14334467Y-11824460D02*
X14315420Y-11833984D01*
X14315420Y-11833984D02*
X14296372Y-11833984D01*
X14296372Y-11833984D02*
X14277324Y-11824460D01*
X14277324Y-11824460D02*
X14267801Y-11814936D01*
X14267801Y-11814936D02*
X14258277Y-11795888D01*
X14258277Y-11795888D02*
X14248753Y-11757793D01*
X14248753Y-11757793D02*
X14248753Y-11710174D01*
X14248753Y-11710174D02*
X14258277Y-11672079D01*
X14258277Y-11672079D02*
X14267801Y-11653031D01*
X14267801Y-11653031D02*
X14277324Y-11643508D01*
X14277324Y-11643508D02*
X14296372Y-11633984D01*
X14448753Y-11814936D02*
X14458277Y-11824460D01*
X14458277Y-11824460D02*
X14448753Y-11833984D01*
X14448753Y-11833984D02*
X14439229Y-11824460D01*
X14439229Y-11824460D02*
X14448753Y-11814936D01*
X14448753Y-11814936D02*
X14448753Y-11833984D01*
X14553515Y-11833984D02*
X14591610Y-11833984D01*
X14591610Y-11833984D02*
X14610658Y-11824460D01*
X14610658Y-11824460D02*
X14620182Y-11814936D01*
X14620182Y-11814936D02*
X14639229Y-11786365D01*
X14639229Y-11786365D02*
X14648753Y-11748269D01*
X14648753Y-11748269D02*
X14648753Y-11672079D01*
X14648753Y-11672079D02*
X14639229Y-11653031D01*
X14639229Y-11653031D02*
X14629705Y-11643508D01*
X14629705Y-11643508D02*
X14610658Y-11633984D01*
X14610658Y-11633984D02*
X14572562Y-11633984D01*
X14572562Y-11633984D02*
X14553515Y-11643508D01*
X14553515Y-11643508D02*
X14543991Y-11653031D01*
X14543991Y-11653031D02*
X14534467Y-11672079D01*
X14534467Y-11672079D02*
X14534467Y-11719698D01*
X14534467Y-11719698D02*
X14543991Y-11738746D01*
X14543991Y-11738746D02*
X14553515Y-11748269D01*
X14553515Y-11748269D02*
X14572562Y-11757793D01*
X14572562Y-11757793D02*
X14610658Y-11757793D01*
X14610658Y-11757793D02*
X14629705Y-11748269D01*
X14629705Y-11748269D02*
X14639229Y-11738746D01*
X14639229Y-11738746D02*
X14648753Y-11719698D01*
X14772562Y-11633984D02*
X14791610Y-11633984D01*
X14791610Y-11633984D02*
X14810658Y-11643508D01*
X14810658Y-11643508D02*
X14820182Y-11653031D01*
X14820182Y-11653031D02*
X14829705Y-11672079D01*
X14829705Y-11672079D02*
X14839229Y-11710174D01*
X14839229Y-11710174D02*
X14839229Y-11757793D01*
X14839229Y-11757793D02*
X14829705Y-11795888D01*
X14829705Y-11795888D02*
X14820182Y-11814936D01*
X14820182Y-11814936D02*
X14810658Y-11824460D01*
X14810658Y-11824460D02*
X14791610Y-11833984D01*
X14791610Y-11833984D02*
X14772562Y-11833984D01*
X14772562Y-11833984D02*
X14753515Y-11824460D01*
X14753515Y-11824460D02*
X14743991Y-11814936D01*
X14743991Y-11814936D02*
X14734467Y-11795888D01*
X14734467Y-11795888D02*
X14724943Y-11757793D01*
X14724943Y-11757793D02*
X14724943Y-11710174D01*
X14724943Y-11710174D02*
X14734467Y-11672079D01*
X14734467Y-11672079D02*
X14743991Y-11653031D01*
X14743991Y-11653031D02*
X14753515Y-11643508D01*
X14753515Y-11643508D02*
X14772562Y-11633984D01*
X14963039Y-11633984D02*
X14982086Y-11633984D01*
X14982086Y-11633984D02*
X15001134Y-11643508D01*
X15001134Y-11643508D02*
X15010658Y-11653031D01*
X15010658Y-11653031D02*
X15020182Y-11672079D01*
X15020182Y-11672079D02*
X15029705Y-11710174D01*
X15029705Y-11710174D02*
X15029705Y-11757793D01*
X15029705Y-11757793D02*
X15020182Y-11795888D01*
X15020182Y-11795888D02*
X15010658Y-11814936D01*
X15010658Y-11814936D02*
X15001134Y-11824460D01*
X15001134Y-11824460D02*
X14982086Y-11833984D01*
X14982086Y-11833984D02*
X14963039Y-11833984D01*
X14963039Y-11833984D02*
X14943991Y-11824460D01*
X14943991Y-11824460D02*
X14934467Y-11814936D01*
X14934467Y-11814936D02*
X14924943Y-11795888D01*
X14924943Y-11795888D02*
X14915420Y-11757793D01*
X14915420Y-11757793D02*
X14915420Y-11710174D01*
X14915420Y-11710174D02*
X14924943Y-11672079D01*
X14924943Y-11672079D02*
X14934467Y-11653031D01*
X14934467Y-11653031D02*
X14943991Y-11643508D01*
X14943991Y-11643508D02*
X14963039Y-11633984D01*
X15115420Y-11833984D02*
X15115420Y-11700650D01*
X15115420Y-11719698D02*
X15124943Y-11710174D01*
X15124943Y-11710174D02*
X15143991Y-11700650D01*
X15143991Y-11700650D02*
X15172563Y-11700650D01*
X15172563Y-11700650D02*
X15191610Y-11710174D01*
X15191610Y-11710174D02*
X15201134Y-11729222D01*
X15201134Y-11729222D02*
X15201134Y-11833984D01*
X15201134Y-11729222D02*
X15210658Y-11710174D01*
X15210658Y-11710174D02*
X15229705Y-11700650D01*
X15229705Y-11700650D02*
X15258277Y-11700650D01*
X15258277Y-11700650D02*
X15277324Y-11710174D01*
X15277324Y-11710174D02*
X15286848Y-11729222D01*
X15286848Y-11729222D02*
X15286848Y-11833984D01*
X15382086Y-11833984D02*
X15382086Y-11700650D01*
X15382086Y-11719698D02*
X15391610Y-11710174D01*
X15391610Y-11710174D02*
X15410658Y-11700650D01*
X15410658Y-11700650D02*
X15439229Y-11700650D01*
X15439229Y-11700650D02*
X15458277Y-11710174D01*
X15458277Y-11710174D02*
X15467801Y-11729222D01*
X15467801Y-11729222D02*
X15467801Y-11833984D01*
X15467801Y-11729222D02*
X15477324Y-11710174D01*
X15477324Y-11710174D02*
X15496372Y-11700650D01*
X15496372Y-11700650D02*
X15524943Y-11700650D01*
X15524943Y-11700650D02*
X15543991Y-11710174D01*
X15543991Y-11710174D02*
X15553515Y-11729222D01*
X15553515Y-11729222D02*
X15553515Y-11833984D01*
X15943991Y-11624460D02*
X15772563Y-11881603D01*
X16201134Y-11633984D02*
X16220182Y-11633984D01*
X16220182Y-11633984D02*
X16239229Y-11643508D01*
X16239229Y-11643508D02*
X16248753Y-11653031D01*
X16248753Y-11653031D02*
X16258277Y-11672079D01*
X16258277Y-11672079D02*
X16267801Y-11710174D01*
X16267801Y-11710174D02*
X16267801Y-11757793D01*
X16267801Y-11757793D02*
X16258277Y-11795888D01*
X16258277Y-11795888D02*
X16248753Y-11814936D01*
X16248753Y-11814936D02*
X16239229Y-11824460D01*
X16239229Y-11824460D02*
X16220182Y-11833984D01*
X16220182Y-11833984D02*
X16201134Y-11833984D01*
X16201134Y-11833984D02*
X16182086Y-11824460D01*
X16182086Y-11824460D02*
X16172563Y-11814936D01*
X16172563Y-11814936D02*
X16163039Y-11795888D01*
X16163039Y-11795888D02*
X16153515Y-11757793D01*
X16153515Y-11757793D02*
X16153515Y-11710174D01*
X16153515Y-11710174D02*
X16163039Y-11672079D01*
X16163039Y-11672079D02*
X16172563Y-11653031D01*
X16172563Y-11653031D02*
X16182086Y-11643508D01*
X16182086Y-11643508D02*
X16201134Y-11633984D01*
X16353515Y-11814936D02*
X16363039Y-11824460D01*
X16363039Y-11824460D02*
X16353515Y-11833984D01*
X16353515Y-11833984D02*
X16343991Y-11824460D01*
X16343991Y-11824460D02*
X16353515Y-11814936D01*
X16353515Y-11814936D02*
X16353515Y-11833984D01*
X16486848Y-11633984D02*
X16505896Y-11633984D01*
X16505896Y-11633984D02*
X16524944Y-11643508D01*
X16524944Y-11643508D02*
X16534467Y-11653031D01*
X16534467Y-11653031D02*
X16543991Y-11672079D01*
X16543991Y-11672079D02*
X16553515Y-11710174D01*
X16553515Y-11710174D02*
X16553515Y-11757793D01*
X16553515Y-11757793D02*
X16543991Y-11795888D01*
X16543991Y-11795888D02*
X16534467Y-11814936D01*
X16534467Y-11814936D02*
X16524944Y-11824460D01*
X16524944Y-11824460D02*
X16505896Y-11833984D01*
X16505896Y-11833984D02*
X16486848Y-11833984D01*
X16486848Y-11833984D02*
X16467801Y-11824460D01*
X16467801Y-11824460D02*
X16458277Y-11814936D01*
X16458277Y-11814936D02*
X16448753Y-11795888D01*
X16448753Y-11795888D02*
X16439229Y-11757793D01*
X16439229Y-11757793D02*
X16439229Y-11710174D01*
X16439229Y-11710174D02*
X16448753Y-11672079D01*
X16448753Y-11672079D02*
X16458277Y-11653031D01*
X16458277Y-11653031D02*
X16467801Y-11643508D01*
X16467801Y-11643508D02*
X16486848Y-11633984D01*
X16620182Y-11633984D02*
X16743991Y-11633984D01*
X16743991Y-11633984D02*
X16677325Y-11710174D01*
X16677325Y-11710174D02*
X16705896Y-11710174D01*
X16705896Y-11710174D02*
X16724944Y-11719698D01*
X16724944Y-11719698D02*
X16734467Y-11729222D01*
X16734467Y-11729222D02*
X16743991Y-11748269D01*
X16743991Y-11748269D02*
X16743991Y-11795888D01*
X16743991Y-11795888D02*
X16734467Y-11814936D01*
X16734467Y-11814936D02*
X16724944Y-11824460D01*
X16724944Y-11824460D02*
X16705896Y-11833984D01*
X16705896Y-11833984D02*
X16648753Y-11833984D01*
X16648753Y-11833984D02*
X16629706Y-11824460D01*
X16629706Y-11824460D02*
X16620182Y-11814936D01*
X16924944Y-11633984D02*
X16829706Y-11633984D01*
X16829706Y-11633984D02*
X16820182Y-11729222D01*
X16820182Y-11729222D02*
X16829706Y-11719698D01*
X16829706Y-11719698D02*
X16848753Y-11710174D01*
X16848753Y-11710174D02*
X16896372Y-11710174D01*
X16896372Y-11710174D02*
X16915420Y-11719698D01*
X16915420Y-11719698D02*
X16924944Y-11729222D01*
X16924944Y-11729222D02*
X16934468Y-11748269D01*
X16934468Y-11748269D02*
X16934468Y-11795888D01*
X16934468Y-11795888D02*
X16924944Y-11814936D01*
X16924944Y-11814936D02*
X16915420Y-11824460D01*
X16915420Y-11824460D02*
X16896372Y-11833984D01*
X16896372Y-11833984D02*
X16848753Y-11833984D01*
X16848753Y-11833984D02*
X16829706Y-11824460D01*
X16829706Y-11824460D02*
X16820182Y-11814936D01*
X17105896Y-11700650D02*
X17105896Y-11833984D01*
X17058277Y-11624460D02*
X17010658Y-11767317D01*
X17010658Y-11767317D02*
X17134468Y-11767317D01*
X17201134Y-11633984D02*
X17201134Y-11672079D01*
X17277325Y-11633984D02*
X17277325Y-11672079D01*
X17572563Y-11910174D02*
X17563039Y-11900650D01*
X17563039Y-11900650D02*
X17543991Y-11872079D01*
X17543991Y-11872079D02*
X17534468Y-11853031D01*
X17534468Y-11853031D02*
X17524944Y-11824460D01*
X17524944Y-11824460D02*
X17515420Y-11776841D01*
X17515420Y-11776841D02*
X17515420Y-11738746D01*
X17515420Y-11738746D02*
X17524944Y-11691127D01*
X17524944Y-11691127D02*
X17534468Y-11662555D01*
X17534468Y-11662555D02*
X17543991Y-11643508D01*
X17543991Y-11643508D02*
X17563039Y-11614936D01*
X17563039Y-11614936D02*
X17572563Y-11605412D01*
X17639230Y-11653031D02*
X17648753Y-11643508D01*
X17648753Y-11643508D02*
X17667801Y-11633984D01*
X17667801Y-11633984D02*
X17715420Y-11633984D01*
X17715420Y-11633984D02*
X17734468Y-11643508D01*
X17734468Y-11643508D02*
X17743991Y-11653031D01*
X17743991Y-11653031D02*
X17753515Y-11672079D01*
X17753515Y-11672079D02*
X17753515Y-11691127D01*
X17753515Y-11691127D02*
X17743991Y-11719698D01*
X17743991Y-11719698D02*
X17629706Y-11833984D01*
X17629706Y-11833984D02*
X17753515Y-11833984D01*
X17991611Y-11833984D02*
X17991611Y-11633984D01*
X18077325Y-11833984D02*
X18077325Y-11729222D01*
X18077325Y-11729222D02*
X18067801Y-11710174D01*
X18067801Y-11710174D02*
X18048753Y-11700650D01*
X18048753Y-11700650D02*
X18020182Y-11700650D01*
X18020182Y-11700650D02*
X18001134Y-11710174D01*
X18001134Y-11710174D02*
X17991611Y-11719698D01*
X18201134Y-11833984D02*
X18182087Y-11824460D01*
X18182087Y-11824460D02*
X18172563Y-11814936D01*
X18172563Y-11814936D02*
X18163039Y-11795888D01*
X18163039Y-11795888D02*
X18163039Y-11738746D01*
X18163039Y-11738746D02*
X18172563Y-11719698D01*
X18172563Y-11719698D02*
X18182087Y-11710174D01*
X18182087Y-11710174D02*
X18201134Y-11700650D01*
X18201134Y-11700650D02*
X18229706Y-11700650D01*
X18229706Y-11700650D02*
X18248753Y-11710174D01*
X18248753Y-11710174D02*
X18258277Y-11719698D01*
X18258277Y-11719698D02*
X18267801Y-11738746D01*
X18267801Y-11738746D02*
X18267801Y-11795888D01*
X18267801Y-11795888D02*
X18258277Y-11814936D01*
X18258277Y-11814936D02*
X18248753Y-11824460D01*
X18248753Y-11824460D02*
X18229706Y-11833984D01*
X18229706Y-11833984D02*
X18201134Y-11833984D01*
X18382087Y-11833984D02*
X18363039Y-11824460D01*
X18363039Y-11824460D02*
X18353515Y-11805412D01*
X18353515Y-11805412D02*
X18353515Y-11633984D01*
X18534468Y-11824460D02*
X18515420Y-11833984D01*
X18515420Y-11833984D02*
X18477325Y-11833984D01*
X18477325Y-11833984D02*
X18458277Y-11824460D01*
X18458277Y-11824460D02*
X18448753Y-11805412D01*
X18448753Y-11805412D02*
X18448753Y-11729222D01*
X18448753Y-11729222D02*
X18458277Y-11710174D01*
X18458277Y-11710174D02*
X18477325Y-11700650D01*
X18477325Y-11700650D02*
X18515420Y-11700650D01*
X18515420Y-11700650D02*
X18534468Y-11710174D01*
X18534468Y-11710174D02*
X18543992Y-11729222D01*
X18543992Y-11729222D02*
X18543992Y-11748269D01*
X18543992Y-11748269D02*
X18448753Y-11767317D01*
X18620182Y-11824460D02*
X18639230Y-11833984D01*
X18639230Y-11833984D02*
X18677325Y-11833984D01*
X18677325Y-11833984D02*
X18696373Y-11824460D01*
X18696373Y-11824460D02*
X18705896Y-11805412D01*
X18705896Y-11805412D02*
X18705896Y-11795888D01*
X18705896Y-11795888D02*
X18696373Y-11776841D01*
X18696373Y-11776841D02*
X18677325Y-11767317D01*
X18677325Y-11767317D02*
X18648753Y-11767317D01*
X18648753Y-11767317D02*
X18629706Y-11757793D01*
X18629706Y-11757793D02*
X18620182Y-11738746D01*
X18620182Y-11738746D02*
X18620182Y-11729222D01*
X18620182Y-11729222D02*
X18629706Y-11710174D01*
X18629706Y-11710174D02*
X18648753Y-11700650D01*
X18648753Y-11700650D02*
X18677325Y-11700650D01*
X18677325Y-11700650D02*
X18696373Y-11710174D01*
X18772563Y-11910174D02*
X18782087Y-11900650D01*
X18782087Y-11900650D02*
X18801134Y-11872079D01*
X18801134Y-11872079D02*
X18810658Y-11853031D01*
X18810658Y-11853031D02*
X18820182Y-11824460D01*
X18820182Y-11824460D02*
X18829706Y-11776841D01*
X18829706Y-11776841D02*
X18829706Y-11738746D01*
X18829706Y-11738746D02*
X18820182Y-11691127D01*
X18820182Y-11691127D02*
X18810658Y-11662555D01*
X18810658Y-11662555D02*
X18801134Y-11643508D01*
X18801134Y-11643508D02*
X18782087Y-11614936D01*
X18782087Y-11614936D02*
X18772563Y-11605412D01*
X19134468Y-11910174D02*
X19124944Y-11900650D01*
X19124944Y-11900650D02*
X19105896Y-11872079D01*
X19105896Y-11872079D02*
X19096373Y-11853031D01*
X19096373Y-11853031D02*
X19086849Y-11824460D01*
X19086849Y-11824460D02*
X19077325Y-11776841D01*
X19077325Y-11776841D02*
X19077325Y-11738746D01*
X19077325Y-11738746D02*
X19086849Y-11691127D01*
X19086849Y-11691127D02*
X19096373Y-11662555D01*
X19096373Y-11662555D02*
X19105896Y-11643508D01*
X19105896Y-11643508D02*
X19124944Y-11614936D01*
X19124944Y-11614936D02*
X19134468Y-11605412D01*
X19210658Y-11700650D02*
X19210658Y-11833984D01*
X19210658Y-11719698D02*
X19220182Y-11710174D01*
X19220182Y-11710174D02*
X19239230Y-11700650D01*
X19239230Y-11700650D02*
X19267801Y-11700650D01*
X19267801Y-11700650D02*
X19286849Y-11710174D01*
X19286849Y-11710174D02*
X19296373Y-11729222D01*
X19296373Y-11729222D02*
X19296373Y-11833984D01*
X19420182Y-11833984D02*
X19401134Y-11824460D01*
X19401134Y-11824460D02*
X19391611Y-11814936D01*
X19391611Y-11814936D02*
X19382087Y-11795888D01*
X19382087Y-11795888D02*
X19382087Y-11738746D01*
X19382087Y-11738746D02*
X19391611Y-11719698D01*
X19391611Y-11719698D02*
X19401134Y-11710174D01*
X19401134Y-11710174D02*
X19420182Y-11700650D01*
X19420182Y-11700650D02*
X19448754Y-11700650D01*
X19448754Y-11700650D02*
X19467801Y-11710174D01*
X19467801Y-11710174D02*
X19477325Y-11719698D01*
X19477325Y-11719698D02*
X19486849Y-11738746D01*
X19486849Y-11738746D02*
X19486849Y-11795888D01*
X19486849Y-11795888D02*
X19477325Y-11814936D01*
X19477325Y-11814936D02*
X19467801Y-11824460D01*
X19467801Y-11824460D02*
X19448754Y-11833984D01*
X19448754Y-11833984D02*
X19420182Y-11833984D01*
X19543992Y-11700650D02*
X19620182Y-11700650D01*
X19572563Y-11633984D02*
X19572563Y-11805412D01*
X19572563Y-11805412D02*
X19582087Y-11824460D01*
X19582087Y-11824460D02*
X19601134Y-11833984D01*
X19601134Y-11833984D02*
X19620182Y-11833984D01*
X19839230Y-11700650D02*
X19839230Y-11900650D01*
X19839230Y-11710174D02*
X19858277Y-11700650D01*
X19858277Y-11700650D02*
X19896373Y-11700650D01*
X19896373Y-11700650D02*
X19915420Y-11710174D01*
X19915420Y-11710174D02*
X19924944Y-11719698D01*
X19924944Y-11719698D02*
X19934468Y-11738746D01*
X19934468Y-11738746D02*
X19934468Y-11795888D01*
X19934468Y-11795888D02*
X19924944Y-11814936D01*
X19924944Y-11814936D02*
X19915420Y-11824460D01*
X19915420Y-11824460D02*
X19896373Y-11833984D01*
X19896373Y-11833984D02*
X19858277Y-11833984D01*
X19858277Y-11833984D02*
X19839230Y-11824460D01*
X20048754Y-11833984D02*
X20029706Y-11824460D01*
X20029706Y-11824460D02*
X20020182Y-11805412D01*
X20020182Y-11805412D02*
X20020182Y-11633984D01*
X20210658Y-11833984D02*
X20210658Y-11729222D01*
X20210658Y-11729222D02*
X20201135Y-11710174D01*
X20201135Y-11710174D02*
X20182087Y-11700650D01*
X20182087Y-11700650D02*
X20143992Y-11700650D01*
X20143992Y-11700650D02*
X20124944Y-11710174D01*
X20210658Y-11824460D02*
X20191611Y-11833984D01*
X20191611Y-11833984D02*
X20143992Y-11833984D01*
X20143992Y-11833984D02*
X20124944Y-11824460D01*
X20124944Y-11824460D02*
X20115420Y-11805412D01*
X20115420Y-11805412D02*
X20115420Y-11786365D01*
X20115420Y-11786365D02*
X20124944Y-11767317D01*
X20124944Y-11767317D02*
X20143992Y-11757793D01*
X20143992Y-11757793D02*
X20191611Y-11757793D01*
X20191611Y-11757793D02*
X20210658Y-11748269D01*
X20277325Y-11700650D02*
X20353515Y-11700650D01*
X20305896Y-11633984D02*
X20305896Y-11805412D01*
X20305896Y-11805412D02*
X20315420Y-11824460D01*
X20315420Y-11824460D02*
X20334468Y-11833984D01*
X20334468Y-11833984D02*
X20353515Y-11833984D01*
X20496373Y-11824460D02*
X20477325Y-11833984D01*
X20477325Y-11833984D02*
X20439230Y-11833984D01*
X20439230Y-11833984D02*
X20420182Y-11824460D01*
X20420182Y-11824460D02*
X20410658Y-11805412D01*
X20410658Y-11805412D02*
X20410658Y-11729222D01*
X20410658Y-11729222D02*
X20420182Y-11710174D01*
X20420182Y-11710174D02*
X20439230Y-11700650D01*
X20439230Y-11700650D02*
X20477325Y-11700650D01*
X20477325Y-11700650D02*
X20496373Y-11710174D01*
X20496373Y-11710174D02*
X20505896Y-11729222D01*
X20505896Y-11729222D02*
X20505896Y-11748269D01*
X20505896Y-11748269D02*
X20410658Y-11767317D01*
X20677325Y-11833984D02*
X20677325Y-11633984D01*
X20677325Y-11824460D02*
X20658277Y-11833984D01*
X20658277Y-11833984D02*
X20620182Y-11833984D01*
X20620182Y-11833984D02*
X20601135Y-11824460D01*
X20601135Y-11824460D02*
X20591611Y-11814936D01*
X20591611Y-11814936D02*
X20582087Y-11795888D01*
X20582087Y-11795888D02*
X20582087Y-11738746D01*
X20582087Y-11738746D02*
X20591611Y-11719698D01*
X20591611Y-11719698D02*
X20601135Y-11710174D01*
X20601135Y-11710174D02*
X20620182Y-11700650D01*
X20620182Y-11700650D02*
X20658277Y-11700650D01*
X20658277Y-11700650D02*
X20677325Y-11710174D01*
X20753516Y-11910174D02*
X20763039Y-11900650D01*
X20763039Y-11900650D02*
X20782087Y-11872079D01*
X20782087Y-11872079D02*
X20791611Y-11853031D01*
X20791611Y-11853031D02*
X20801135Y-11824460D01*
X20801135Y-11824460D02*
X20810658Y-11776841D01*
X20810658Y-11776841D02*
X20810658Y-11738746D01*
X20810658Y-11738746D02*
X20801135Y-11691127D01*
X20801135Y-11691127D02*
X20791611Y-11662555D01*
X20791611Y-11662555D02*
X20782087Y-11643508D01*
X20782087Y-11643508D02*
X20763039Y-11614936D01*
X20763039Y-11614936D02*
X20753516Y-11605412D01*
M02*
