%TF.GenerationSoftware,KiCad,Pcbnew,9.0.3*%
%TF.CreationDate,2025-08-03T21:29:45+01:00*%
%TF.ProjectId,smol-slime-xiao,736d6f6c-2d73-46c6-996d-652d7869616f,1.0*%
%TF.SameCoordinates,Original*%
%TF.FileFunction,Copper,L2,Inr*%
%TF.FilePolarity,Positive*%
%FSLAX46Y46*%
G04 Gerber Fmt 4.6, Leading zero omitted, Abs format (unit mm)*
G04 Created by KiCad (PCBNEW 9.0.3) date 2025-08-03 21:29:45*
%MOMM*%
%LPD*%
G01*
G04 APERTURE LIST*
%TA.AperFunction,ViaPad*%
%ADD10C,0.500000*%
%TD*%
G04 APERTURE END LIST*
D10*
%TO.N,GND*%
X149750000Y-93000000D03*
X149500000Y-97250000D03*
X143500000Y-90500000D03*
X156000000Y-102000000D03*
X147750000Y-88500000D03*
X149000000Y-98750000D03*
X146500000Y-93500000D03*
X155000000Y-97781500D03*
X156000000Y-92250000D03*
X146500000Y-92000000D03*
X146200000Y-105500000D03*
X145250000Y-93475000D03*
X141000000Y-88500000D03*
X151000000Y-105500000D03*
X155000000Y-88500000D03*
X153750000Y-92250000D03*
X156000000Y-105500000D03*
X144250000Y-105750000D03*
X154750000Y-101000000D03*
X153000000Y-103750000D03*
X149000000Y-101500000D03*
X145000000Y-92000000D03*
X143250000Y-88500000D03*
X145000000Y-90500000D03*
X141945000Y-94920000D03*
X159000000Y-88500000D03*
X143750000Y-103750000D03*
X146500000Y-101500000D03*
X156750000Y-88500000D03*
X150000000Y-88500000D03*
X144000000Y-100000000D03*
X152250000Y-88500000D03*
X152650000Y-93900000D03*
X156000000Y-94750000D03*
X151750000Y-97500000D03*
X145000000Y-88500000D03*
X149250000Y-105500000D03*
%TO.N,/I2C_SDA*%
X154750000Y-107075000D03*
%TO.N,/I2C_SCL*%
X153000000Y-107075000D03*
%TO.N,/CLK_CTL*%
X158110000Y-94920000D03*
%TO.N,VDD*%
X145250000Y-95025000D03*
X147750000Y-95025000D03*
X156750000Y-89675000D03*
X153000000Y-105425000D03*
X154850000Y-95600000D03*
X141945000Y-97460000D03*
X154750000Y-105425000D03*
X147750000Y-105500000D03*
%TO.N,/IMU_CLKIN*%
X152650000Y-95600000D03*
X143770000Y-97500000D03*
%TO.N,/SPI_MISO*%
X147500000Y-103750000D03*
%TO.N,/IMU_INT*%
X148250000Y-97250000D03*
%TO.N,/SPI_CS_IMU*%
X145000000Y-100000000D03*
%TO.N,/SPI_SCK*%
X145250000Y-105080000D03*
%TO.N,/SPI_MOSI*%
X146500000Y-100000000D03*
%TO.N,+5V*%
X141945000Y-92380000D03*
%TO.N,/VBAT*%
X155000000Y-99686500D03*
X152050000Y-101050000D03*
%TD*%
%TA.AperFunction,Conductor*%
%TO.N,GND*%
G36*
X158756061Y-88001097D02*
G01*
X158766635Y-88002138D01*
X158884069Y-88013704D01*
X158907897Y-88018443D01*
X159025140Y-88054008D01*
X159047589Y-88063308D01*
X159155630Y-88121057D01*
X159175840Y-88134561D01*
X159270535Y-88212274D01*
X159287725Y-88229464D01*
X159365438Y-88324159D01*
X159378942Y-88344369D01*
X159436690Y-88452407D01*
X159445993Y-88474865D01*
X159481554Y-88592093D01*
X159486296Y-88615935D01*
X159498903Y-88743938D01*
X159499500Y-88756092D01*
X159499500Y-106126000D01*
X159479815Y-106193039D01*
X159427011Y-106238794D01*
X159375500Y-106250000D01*
X155274938Y-106250000D01*
X155207899Y-106230315D01*
X155162144Y-106177511D01*
X155152200Y-106108353D01*
X155181225Y-106044797D01*
X155206047Y-106022898D01*
X155216105Y-106016176D01*
X155228416Y-106007951D01*
X155332951Y-105903416D01*
X155415084Y-105780495D01*
X155471658Y-105643913D01*
X155500500Y-105498918D01*
X155500500Y-105351082D01*
X155500500Y-105351079D01*
X155471659Y-105206092D01*
X155471658Y-105206091D01*
X155471658Y-105206087D01*
X155450049Y-105153918D01*
X155415087Y-105069511D01*
X155415080Y-105069498D01*
X155332951Y-104946584D01*
X155332948Y-104946580D01*
X155228419Y-104842051D01*
X155228415Y-104842048D01*
X155105501Y-104759919D01*
X155105488Y-104759912D01*
X154968917Y-104703343D01*
X154968907Y-104703340D01*
X154823920Y-104674500D01*
X154823918Y-104674500D01*
X154676082Y-104674500D01*
X154676080Y-104674500D01*
X154531092Y-104703340D01*
X154531082Y-104703343D01*
X154394511Y-104759912D01*
X154394498Y-104759919D01*
X154271584Y-104842048D01*
X154271580Y-104842051D01*
X154167051Y-104946580D01*
X154167048Y-104946584D01*
X154084919Y-105069498D01*
X154084912Y-105069511D01*
X154028343Y-105206082D01*
X154028340Y-105206092D01*
X153999500Y-105351079D01*
X153999500Y-105351082D01*
X153999500Y-105498918D01*
X153999500Y-105498920D01*
X153999499Y-105498920D01*
X154028340Y-105643907D01*
X154028343Y-105643917D01*
X154084912Y-105780488D01*
X154084919Y-105780501D01*
X154167048Y-105903415D01*
X154167051Y-105903419D01*
X154271580Y-106007948D01*
X154271584Y-106007951D01*
X154293953Y-106022898D01*
X154338758Y-106076511D01*
X154347465Y-106145836D01*
X154317310Y-106208863D01*
X154257867Y-106245582D01*
X154225062Y-106250000D01*
X153524938Y-106250000D01*
X153457899Y-106230315D01*
X153412144Y-106177511D01*
X153402200Y-106108353D01*
X153431225Y-106044797D01*
X153456047Y-106022898D01*
X153466105Y-106016176D01*
X153478416Y-106007951D01*
X153582951Y-105903416D01*
X153665084Y-105780495D01*
X153721658Y-105643913D01*
X153750500Y-105498918D01*
X153750500Y-105351082D01*
X153750500Y-105351079D01*
X153721659Y-105206092D01*
X153721658Y-105206091D01*
X153721658Y-105206087D01*
X153700049Y-105153918D01*
X153665087Y-105069511D01*
X153665080Y-105069498D01*
X153582951Y-104946584D01*
X153582948Y-104946580D01*
X153478419Y-104842051D01*
X153478415Y-104842048D01*
X153355501Y-104759919D01*
X153355488Y-104759912D01*
X153218917Y-104703343D01*
X153218907Y-104703340D01*
X153073920Y-104674500D01*
X153073918Y-104674500D01*
X152926082Y-104674500D01*
X152926080Y-104674500D01*
X152781092Y-104703340D01*
X152781082Y-104703343D01*
X152644511Y-104759912D01*
X152644498Y-104759919D01*
X152521584Y-104842048D01*
X152521580Y-104842051D01*
X152417051Y-104946580D01*
X152417048Y-104946584D01*
X152334919Y-105069498D01*
X152334912Y-105069511D01*
X152278343Y-105206082D01*
X152278340Y-105206092D01*
X152249500Y-105351079D01*
X152249500Y-105351082D01*
X152249500Y-105498918D01*
X152249500Y-105498920D01*
X152249499Y-105498920D01*
X152278340Y-105643907D01*
X152278343Y-105643917D01*
X152334912Y-105780488D01*
X152334919Y-105780501D01*
X152417048Y-105903415D01*
X152417051Y-105903419D01*
X152521580Y-106007948D01*
X152521584Y-106007951D01*
X152543953Y-106022898D01*
X152588758Y-106076511D01*
X152597465Y-106145836D01*
X152567310Y-106208863D01*
X152507867Y-106245582D01*
X152475062Y-106250000D01*
X148360730Y-106250000D01*
X148293691Y-106230315D01*
X148247936Y-106177511D01*
X148237992Y-106108353D01*
X148267017Y-106044797D01*
X148273049Y-106038319D01*
X148332948Y-105978419D01*
X148332951Y-105978416D01*
X148415084Y-105855495D01*
X148471658Y-105718913D01*
X148500500Y-105573918D01*
X148500500Y-105426082D01*
X148500500Y-105426079D01*
X148471659Y-105281092D01*
X148471658Y-105281091D01*
X148471658Y-105281087D01*
X148418983Y-105153918D01*
X148415087Y-105144511D01*
X148415080Y-105144498D01*
X148332951Y-105021584D01*
X148332948Y-105021580D01*
X148228419Y-104917051D01*
X148228415Y-104917048D01*
X148105501Y-104834919D01*
X148105488Y-104834912D01*
X147968917Y-104778343D01*
X147968907Y-104778340D01*
X147823920Y-104749500D01*
X147823918Y-104749500D01*
X147676082Y-104749500D01*
X147676080Y-104749500D01*
X147531092Y-104778340D01*
X147531082Y-104778343D01*
X147394511Y-104834912D01*
X147394498Y-104834919D01*
X147271584Y-104917048D01*
X147271580Y-104917051D01*
X147167051Y-105021580D01*
X147167048Y-105021584D01*
X147084919Y-105144498D01*
X147084912Y-105144511D01*
X147028343Y-105281082D01*
X147028340Y-105281092D01*
X146999500Y-105426079D01*
X146999500Y-105426082D01*
X146999500Y-105573918D01*
X146999500Y-105573920D01*
X146999499Y-105573920D01*
X147028340Y-105718907D01*
X147028343Y-105718917D01*
X147084912Y-105855488D01*
X147084919Y-105855501D01*
X147167048Y-105978415D01*
X147167051Y-105978419D01*
X147226951Y-106038319D01*
X147260436Y-106099642D01*
X147255452Y-106169334D01*
X147213580Y-106225267D01*
X147148116Y-106249684D01*
X147139270Y-106250000D01*
X140624500Y-106250000D01*
X140557461Y-106230315D01*
X140511706Y-106177511D01*
X140500500Y-106126000D01*
X140500500Y-105153920D01*
X144499499Y-105153920D01*
X144528340Y-105298907D01*
X144528343Y-105298917D01*
X144584912Y-105435488D01*
X144584919Y-105435501D01*
X144667048Y-105558415D01*
X144667051Y-105558419D01*
X144771580Y-105662948D01*
X144771584Y-105662951D01*
X144894498Y-105745080D01*
X144894511Y-105745087D01*
X144980009Y-105780501D01*
X145031087Y-105801658D01*
X145031091Y-105801658D01*
X145031092Y-105801659D01*
X145176079Y-105830500D01*
X145176082Y-105830500D01*
X145323920Y-105830500D01*
X145421462Y-105811096D01*
X145468913Y-105801658D01*
X145605495Y-105745084D01*
X145728416Y-105662951D01*
X145832951Y-105558416D01*
X145915084Y-105435495D01*
X145971658Y-105298913D01*
X146000500Y-105153918D01*
X146000500Y-105006082D01*
X146000500Y-105006079D01*
X145971659Y-104861092D01*
X145971658Y-104861091D01*
X145971658Y-104861087D01*
X145960816Y-104834912D01*
X145915087Y-104724511D01*
X145915080Y-104724498D01*
X145832951Y-104601584D01*
X145832948Y-104601580D01*
X145728419Y-104497051D01*
X145728415Y-104497048D01*
X145605501Y-104414919D01*
X145605488Y-104414912D01*
X145468917Y-104358343D01*
X145468907Y-104358340D01*
X145323920Y-104329500D01*
X145323918Y-104329500D01*
X145176082Y-104329500D01*
X145176080Y-104329500D01*
X145031092Y-104358340D01*
X145031082Y-104358343D01*
X144894511Y-104414912D01*
X144894498Y-104414919D01*
X144771584Y-104497048D01*
X144771580Y-104497051D01*
X144667051Y-104601580D01*
X144667048Y-104601584D01*
X144584919Y-104724498D01*
X144584912Y-104724511D01*
X144528343Y-104861082D01*
X144528340Y-104861092D01*
X144499500Y-105006079D01*
X144499500Y-105006082D01*
X144499500Y-105153918D01*
X144499500Y-105153920D01*
X144499499Y-105153920D01*
X140500500Y-105153920D01*
X140500500Y-103823920D01*
X146749499Y-103823920D01*
X146778340Y-103968907D01*
X146778343Y-103968917D01*
X146834912Y-104105488D01*
X146834919Y-104105501D01*
X146917048Y-104228415D01*
X146917051Y-104228419D01*
X147021580Y-104332948D01*
X147021584Y-104332951D01*
X147144498Y-104415080D01*
X147144511Y-104415087D01*
X147281082Y-104471656D01*
X147281087Y-104471658D01*
X147281091Y-104471658D01*
X147281092Y-104471659D01*
X147426079Y-104500500D01*
X147426082Y-104500500D01*
X147573920Y-104500500D01*
X147671462Y-104481096D01*
X147718913Y-104471658D01*
X147855495Y-104415084D01*
X147978416Y-104332951D01*
X148082951Y-104228416D01*
X148165084Y-104105495D01*
X148221658Y-103968913D01*
X148250500Y-103823918D01*
X148250500Y-103676082D01*
X148250500Y-103676079D01*
X148221659Y-103531092D01*
X148221658Y-103531091D01*
X148221658Y-103531087D01*
X148221656Y-103531082D01*
X148165087Y-103394511D01*
X148165080Y-103394498D01*
X148082951Y-103271584D01*
X148082948Y-103271580D01*
X147978419Y-103167051D01*
X147978415Y-103167048D01*
X147855501Y-103084919D01*
X147855488Y-103084912D01*
X147718917Y-103028343D01*
X147718907Y-103028340D01*
X147573920Y-102999500D01*
X147573918Y-102999500D01*
X147426082Y-102999500D01*
X147426080Y-102999500D01*
X147281092Y-103028340D01*
X147281082Y-103028343D01*
X147144511Y-103084912D01*
X147144498Y-103084919D01*
X147021584Y-103167048D01*
X147021580Y-103167051D01*
X146917051Y-103271580D01*
X146917048Y-103271584D01*
X146834919Y-103394498D01*
X146834912Y-103394511D01*
X146778343Y-103531082D01*
X146778340Y-103531092D01*
X146749500Y-103676079D01*
X146749500Y-103676082D01*
X146749500Y-103823918D01*
X146749500Y-103823920D01*
X146749499Y-103823920D01*
X140500500Y-103823920D01*
X140500500Y-101123920D01*
X151299499Y-101123920D01*
X151328340Y-101268907D01*
X151328343Y-101268917D01*
X151384912Y-101405488D01*
X151384919Y-101405501D01*
X151467048Y-101528415D01*
X151467051Y-101528419D01*
X151571580Y-101632948D01*
X151571584Y-101632951D01*
X151694498Y-101715080D01*
X151694511Y-101715087D01*
X151831082Y-101771656D01*
X151831087Y-101771658D01*
X151831091Y-101771658D01*
X151831092Y-101771659D01*
X151976079Y-101800500D01*
X151976082Y-101800500D01*
X152123920Y-101800500D01*
X152221462Y-101781096D01*
X152268913Y-101771658D01*
X152405495Y-101715084D01*
X152528416Y-101632951D01*
X152632951Y-101528416D01*
X152715084Y-101405495D01*
X152771658Y-101268913D01*
X152800500Y-101123918D01*
X152800500Y-100976082D01*
X152800500Y-100976079D01*
X152771659Y-100831092D01*
X152771658Y-100831091D01*
X152771658Y-100831087D01*
X152726332Y-100721659D01*
X152715087Y-100694511D01*
X152715080Y-100694498D01*
X152632951Y-100571584D01*
X152632948Y-100571580D01*
X152528419Y-100467051D01*
X152528415Y-100467048D01*
X152405501Y-100384919D01*
X152405488Y-100384912D01*
X152268917Y-100328343D01*
X152268907Y-100328340D01*
X152123920Y-100299500D01*
X152123918Y-100299500D01*
X151976082Y-100299500D01*
X151976080Y-100299500D01*
X151831092Y-100328340D01*
X151831082Y-100328343D01*
X151694511Y-100384912D01*
X151694498Y-100384919D01*
X151571584Y-100467048D01*
X151571580Y-100467051D01*
X151467051Y-100571580D01*
X151467048Y-100571584D01*
X151384919Y-100694498D01*
X151384912Y-100694511D01*
X151328343Y-100831082D01*
X151328340Y-100831092D01*
X151299500Y-100976079D01*
X151299500Y-100976082D01*
X151299500Y-101123918D01*
X151299500Y-101123920D01*
X151299499Y-101123920D01*
X140500500Y-101123920D01*
X140500500Y-100073920D01*
X144249499Y-100073920D01*
X144278340Y-100218907D01*
X144278343Y-100218917D01*
X144334912Y-100355488D01*
X144334919Y-100355501D01*
X144417048Y-100478415D01*
X144417051Y-100478419D01*
X144521580Y-100582948D01*
X144521584Y-100582951D01*
X144644498Y-100665080D01*
X144644511Y-100665087D01*
X144715548Y-100694511D01*
X144781087Y-100721658D01*
X144781091Y-100721658D01*
X144781092Y-100721659D01*
X144926079Y-100750500D01*
X144926082Y-100750500D01*
X145073920Y-100750500D01*
X145171462Y-100731096D01*
X145218913Y-100721658D01*
X145355495Y-100665084D01*
X145478416Y-100582951D01*
X145582951Y-100478416D01*
X145645426Y-100384916D01*
X145646898Y-100382713D01*
X145700510Y-100337908D01*
X145769835Y-100329201D01*
X145832862Y-100359355D01*
X145853102Y-100382713D01*
X145917048Y-100478415D01*
X145917051Y-100478419D01*
X146021580Y-100582948D01*
X146021584Y-100582951D01*
X146144498Y-100665080D01*
X146144511Y-100665087D01*
X146215548Y-100694511D01*
X146281087Y-100721658D01*
X146281091Y-100721658D01*
X146281092Y-100721659D01*
X146426079Y-100750500D01*
X146426082Y-100750500D01*
X146573920Y-100750500D01*
X146671462Y-100731096D01*
X146718913Y-100721658D01*
X146855495Y-100665084D01*
X146978416Y-100582951D01*
X147082951Y-100478416D01*
X147165084Y-100355495D01*
X147221658Y-100218913D01*
X147232399Y-100164915D01*
X147250500Y-100073920D01*
X147250500Y-99926079D01*
X147221659Y-99781092D01*
X147221658Y-99781091D01*
X147221658Y-99781087D01*
X147213097Y-99760420D01*
X154249499Y-99760420D01*
X154278340Y-99905407D01*
X154278343Y-99905417D01*
X154334912Y-100041988D01*
X154334919Y-100042001D01*
X154417048Y-100164915D01*
X154417051Y-100164919D01*
X154521580Y-100269448D01*
X154521584Y-100269451D01*
X154644498Y-100351580D01*
X154644511Y-100351587D01*
X154781082Y-100408156D01*
X154781087Y-100408158D01*
X154781091Y-100408158D01*
X154781092Y-100408159D01*
X154926079Y-100437000D01*
X154926082Y-100437000D01*
X155073920Y-100437000D01*
X155171462Y-100417596D01*
X155218913Y-100408158D01*
X155355495Y-100351584D01*
X155478416Y-100269451D01*
X155582951Y-100164916D01*
X155665084Y-100041995D01*
X155721658Y-99905413D01*
X155750500Y-99760418D01*
X155750500Y-99612582D01*
X155750500Y-99612579D01*
X155721659Y-99467592D01*
X155721658Y-99467591D01*
X155721658Y-99467587D01*
X155721656Y-99467582D01*
X155665087Y-99331011D01*
X155665080Y-99330998D01*
X155582951Y-99208084D01*
X155582948Y-99208080D01*
X155478419Y-99103551D01*
X155478415Y-99103548D01*
X155355501Y-99021419D01*
X155355488Y-99021412D01*
X155218917Y-98964843D01*
X155218907Y-98964840D01*
X155073920Y-98936000D01*
X155073918Y-98936000D01*
X154926082Y-98936000D01*
X154926080Y-98936000D01*
X154781092Y-98964840D01*
X154781082Y-98964843D01*
X154644511Y-99021412D01*
X154644498Y-99021419D01*
X154521584Y-99103548D01*
X154521580Y-99103551D01*
X154417051Y-99208080D01*
X154417048Y-99208084D01*
X154334919Y-99330998D01*
X154334912Y-99331011D01*
X154278343Y-99467582D01*
X154278340Y-99467592D01*
X154249500Y-99612579D01*
X154249500Y-99612582D01*
X154249500Y-99760418D01*
X154249500Y-99760420D01*
X154249499Y-99760420D01*
X147213097Y-99760420D01*
X147165084Y-99644505D01*
X147165083Y-99644503D01*
X147165080Y-99644498D01*
X147082951Y-99521584D01*
X147082948Y-99521580D01*
X146978419Y-99417051D01*
X146978415Y-99417048D01*
X146855501Y-99334919D01*
X146855488Y-99334912D01*
X146718917Y-99278343D01*
X146718907Y-99278340D01*
X146573920Y-99249500D01*
X146573918Y-99249500D01*
X146426082Y-99249500D01*
X146426080Y-99249500D01*
X146281092Y-99278340D01*
X146281082Y-99278343D01*
X146144511Y-99334912D01*
X146144498Y-99334919D01*
X146021584Y-99417048D01*
X146021580Y-99417051D01*
X145917051Y-99521580D01*
X145917048Y-99521584D01*
X145853102Y-99617286D01*
X145799489Y-99662091D01*
X145730164Y-99670798D01*
X145667137Y-99640643D01*
X145646898Y-99617286D01*
X145582951Y-99521584D01*
X145582948Y-99521580D01*
X145478419Y-99417051D01*
X145478415Y-99417048D01*
X145355501Y-99334919D01*
X145355488Y-99334912D01*
X145218917Y-99278343D01*
X145218907Y-99278340D01*
X145073920Y-99249500D01*
X145073918Y-99249500D01*
X144926082Y-99249500D01*
X144926080Y-99249500D01*
X144781092Y-99278340D01*
X144781082Y-99278343D01*
X144644511Y-99334912D01*
X144644498Y-99334919D01*
X144521584Y-99417048D01*
X144521580Y-99417051D01*
X144417051Y-99521580D01*
X144417048Y-99521584D01*
X144334919Y-99644498D01*
X144334912Y-99644511D01*
X144278343Y-99781082D01*
X144278340Y-99781092D01*
X144249500Y-99926079D01*
X144249500Y-99926082D01*
X144249500Y-100073918D01*
X144249500Y-100073920D01*
X144249499Y-100073920D01*
X140500500Y-100073920D01*
X140500500Y-97533920D01*
X141194499Y-97533920D01*
X141223340Y-97678907D01*
X141223343Y-97678917D01*
X141279912Y-97815488D01*
X141279919Y-97815501D01*
X141362048Y-97938415D01*
X141362051Y-97938419D01*
X141466580Y-98042948D01*
X141466584Y-98042951D01*
X141589498Y-98125080D01*
X141589511Y-98125087D01*
X141726082Y-98181656D01*
X141726087Y-98181658D01*
X141726091Y-98181658D01*
X141726092Y-98181659D01*
X141871079Y-98210500D01*
X141871082Y-98210500D01*
X142018920Y-98210500D01*
X142116462Y-98191096D01*
X142163913Y-98181658D01*
X142300495Y-98125084D01*
X142423416Y-98042951D01*
X142527951Y-97938416D01*
X142610084Y-97815495D01*
X142666658Y-97678913D01*
X142681262Y-97605495D01*
X142687543Y-97573920D01*
X143019499Y-97573920D01*
X143048340Y-97718907D01*
X143048343Y-97718917D01*
X143104912Y-97855488D01*
X143104919Y-97855501D01*
X143187048Y-97978415D01*
X143187051Y-97978419D01*
X143291580Y-98082948D01*
X143291584Y-98082951D01*
X143414498Y-98165080D01*
X143414511Y-98165087D01*
X143524149Y-98210500D01*
X143551087Y-98221658D01*
X143551091Y-98221658D01*
X143551092Y-98221659D01*
X143696079Y-98250500D01*
X143696082Y-98250500D01*
X143843920Y-98250500D01*
X143941462Y-98231096D01*
X143988913Y-98221658D01*
X144125495Y-98165084D01*
X144248416Y-98082951D01*
X144352951Y-97978416D01*
X144435084Y-97855495D01*
X144491658Y-97718913D01*
X144520500Y-97573918D01*
X144520500Y-97426082D01*
X144520500Y-97426079D01*
X144500178Y-97323920D01*
X147499499Y-97323920D01*
X147528340Y-97468907D01*
X147528343Y-97468917D01*
X147584912Y-97605488D01*
X147584919Y-97605501D01*
X147667048Y-97728415D01*
X147667051Y-97728419D01*
X147771580Y-97832948D01*
X147771584Y-97832951D01*
X147894498Y-97915080D01*
X147894511Y-97915087D01*
X148031082Y-97971656D01*
X148031087Y-97971658D01*
X148031091Y-97971658D01*
X148031092Y-97971659D01*
X148176079Y-98000500D01*
X148176082Y-98000500D01*
X148323920Y-98000500D01*
X148434944Y-97978415D01*
X148468913Y-97971658D01*
X148605495Y-97915084D01*
X148728416Y-97832951D01*
X148832951Y-97728416D01*
X148915084Y-97605495D01*
X148971658Y-97468913D01*
X149000500Y-97323918D01*
X149000500Y-97176082D01*
X149000500Y-97176079D01*
X148971659Y-97031092D01*
X148971658Y-97031091D01*
X148971658Y-97031087D01*
X148924422Y-96917048D01*
X148915087Y-96894511D01*
X148915080Y-96894498D01*
X148832951Y-96771584D01*
X148832948Y-96771580D01*
X148728419Y-96667051D01*
X148728415Y-96667048D01*
X148605501Y-96584919D01*
X148605488Y-96584912D01*
X148468917Y-96528343D01*
X148468907Y-96528340D01*
X148323920Y-96499500D01*
X148323918Y-96499500D01*
X148176082Y-96499500D01*
X148176080Y-96499500D01*
X148031092Y-96528340D01*
X148031082Y-96528343D01*
X147894511Y-96584912D01*
X147894498Y-96584919D01*
X147771584Y-96667048D01*
X147771580Y-96667051D01*
X147667051Y-96771580D01*
X147667048Y-96771584D01*
X147584919Y-96894498D01*
X147584912Y-96894511D01*
X147528343Y-97031082D01*
X147528340Y-97031092D01*
X147499500Y-97176079D01*
X147499500Y-97176082D01*
X147499500Y-97323918D01*
X147499500Y-97323920D01*
X147499499Y-97323920D01*
X144500178Y-97323920D01*
X144491659Y-97281092D01*
X144491658Y-97281091D01*
X144491658Y-97281087D01*
X144475092Y-97241092D01*
X144465296Y-97217442D01*
X144435085Y-97144507D01*
X144435080Y-97144498D01*
X144352951Y-97021584D01*
X144352948Y-97021580D01*
X144248419Y-96917051D01*
X144248415Y-96917048D01*
X144125501Y-96834919D01*
X144125488Y-96834912D01*
X143988917Y-96778343D01*
X143988907Y-96778340D01*
X143843920Y-96749500D01*
X143843918Y-96749500D01*
X143696082Y-96749500D01*
X143696080Y-96749500D01*
X143551092Y-96778340D01*
X143551082Y-96778343D01*
X143414511Y-96834912D01*
X143414498Y-96834919D01*
X143291584Y-96917048D01*
X143291580Y-96917051D01*
X143187051Y-97021580D01*
X143187048Y-97021584D01*
X143104919Y-97144498D01*
X143104912Y-97144511D01*
X143048343Y-97281082D01*
X143048340Y-97281092D01*
X143019500Y-97426079D01*
X143019500Y-97426082D01*
X143019500Y-97573918D01*
X143019500Y-97573920D01*
X143019499Y-97573920D01*
X142687543Y-97573920D01*
X142695500Y-97533920D01*
X142695500Y-97386079D01*
X142666659Y-97241092D01*
X142666658Y-97241091D01*
X142666658Y-97241087D01*
X142626655Y-97144511D01*
X142610087Y-97104511D01*
X142610080Y-97104498D01*
X142527951Y-96981584D01*
X142527948Y-96981580D01*
X142423419Y-96877051D01*
X142423415Y-96877048D01*
X142300501Y-96794919D01*
X142300488Y-96794912D01*
X142163917Y-96738343D01*
X142163907Y-96738340D01*
X142018920Y-96709500D01*
X142018918Y-96709500D01*
X141871082Y-96709500D01*
X141871080Y-96709500D01*
X141726092Y-96738340D01*
X141726082Y-96738343D01*
X141589511Y-96794912D01*
X141589498Y-96794919D01*
X141466584Y-96877048D01*
X141466580Y-96877051D01*
X141362051Y-96981580D01*
X141362048Y-96981584D01*
X141279919Y-97104498D01*
X141279912Y-97104511D01*
X141223343Y-97241082D01*
X141223340Y-97241092D01*
X141194500Y-97386079D01*
X141194500Y-97386082D01*
X141194500Y-97533918D01*
X141194500Y-97533920D01*
X141194499Y-97533920D01*
X140500500Y-97533920D01*
X140500500Y-95098920D01*
X144499499Y-95098920D01*
X144528340Y-95243907D01*
X144528343Y-95243917D01*
X144584912Y-95380488D01*
X144584919Y-95380501D01*
X144667048Y-95503415D01*
X144667051Y-95503419D01*
X144771580Y-95607948D01*
X144771584Y-95607951D01*
X144894498Y-95690080D01*
X144894511Y-95690087D01*
X145031082Y-95746656D01*
X145031087Y-95746658D01*
X145031091Y-95746658D01*
X145031092Y-95746659D01*
X145176079Y-95775500D01*
X145176082Y-95775500D01*
X145323920Y-95775500D01*
X145421462Y-95756096D01*
X145468913Y-95746658D01*
X145605495Y-95690084D01*
X145728416Y-95607951D01*
X145832951Y-95503416D01*
X145915084Y-95380495D01*
X145971658Y-95243913D01*
X145992544Y-95138917D01*
X146000500Y-95098920D01*
X146999499Y-95098920D01*
X147028340Y-95243907D01*
X147028343Y-95243917D01*
X147084912Y-95380488D01*
X147084919Y-95380501D01*
X147167048Y-95503415D01*
X147167051Y-95503419D01*
X147271580Y-95607948D01*
X147271584Y-95607951D01*
X147394498Y-95690080D01*
X147394511Y-95690087D01*
X147531082Y-95746656D01*
X147531087Y-95746658D01*
X147531091Y-95746658D01*
X147531092Y-95746659D01*
X147676079Y-95775500D01*
X147676082Y-95775500D01*
X147823920Y-95775500D01*
X147921462Y-95756096D01*
X147968913Y-95746658D01*
X148105495Y-95690084D01*
X148129686Y-95673920D01*
X151899499Y-95673920D01*
X151928340Y-95818907D01*
X151928343Y-95818917D01*
X151984912Y-95955488D01*
X151984919Y-95955501D01*
X152067048Y-96078415D01*
X152067051Y-96078419D01*
X152171580Y-96182948D01*
X152171584Y-96182951D01*
X152294498Y-96265080D01*
X152294511Y-96265087D01*
X152431082Y-96321656D01*
X152431087Y-96321658D01*
X152431091Y-96321658D01*
X152431092Y-96321659D01*
X152576079Y-96350500D01*
X152576082Y-96350500D01*
X152723920Y-96350500D01*
X152821462Y-96331096D01*
X152868913Y-96321658D01*
X153005495Y-96265084D01*
X153128416Y-96182951D01*
X153232951Y-96078416D01*
X153315084Y-95955495D01*
X153371658Y-95818913D01*
X153397284Y-95690087D01*
X153400500Y-95673920D01*
X154099499Y-95673920D01*
X154128340Y-95818907D01*
X154128343Y-95818917D01*
X154184912Y-95955488D01*
X154184919Y-95955501D01*
X154267048Y-96078415D01*
X154267051Y-96078419D01*
X154371580Y-96182948D01*
X154371584Y-96182951D01*
X154494498Y-96265080D01*
X154494511Y-96265087D01*
X154631082Y-96321656D01*
X154631087Y-96321658D01*
X154631091Y-96321658D01*
X154631092Y-96321659D01*
X154776079Y-96350500D01*
X154776082Y-96350500D01*
X154923920Y-96350500D01*
X155021462Y-96331096D01*
X155068913Y-96321658D01*
X155205495Y-96265084D01*
X155328416Y-96182951D01*
X155432951Y-96078416D01*
X155515084Y-95955495D01*
X155571658Y-95818913D01*
X155597284Y-95690087D01*
X155600500Y-95673920D01*
X155600500Y-95526079D01*
X155571659Y-95381092D01*
X155571658Y-95381091D01*
X155571658Y-95381087D01*
X155527923Y-95275501D01*
X155515087Y-95244511D01*
X155515080Y-95244498D01*
X155432951Y-95121584D01*
X155432948Y-95121580D01*
X155328419Y-95017051D01*
X155328415Y-95017048D01*
X155293801Y-94993920D01*
X157359499Y-94993920D01*
X157388340Y-95138907D01*
X157388343Y-95138917D01*
X157444912Y-95275488D01*
X157444919Y-95275501D01*
X157527048Y-95398415D01*
X157527051Y-95398419D01*
X157631580Y-95502948D01*
X157631584Y-95502951D01*
X157754498Y-95585080D01*
X157754511Y-95585087D01*
X157891082Y-95641656D01*
X157891087Y-95641658D01*
X157891091Y-95641658D01*
X157891092Y-95641659D01*
X158036079Y-95670500D01*
X158036082Y-95670500D01*
X158183920Y-95670500D01*
X158281462Y-95651096D01*
X158328913Y-95641658D01*
X158465495Y-95585084D01*
X158588416Y-95502951D01*
X158692951Y-95398416D01*
X158775084Y-95275495D01*
X158831658Y-95138913D01*
X158841096Y-95091462D01*
X158860500Y-94993920D01*
X158860500Y-94846079D01*
X158831659Y-94701092D01*
X158831658Y-94701091D01*
X158831658Y-94701087D01*
X158818579Y-94669511D01*
X158775087Y-94564511D01*
X158775080Y-94564498D01*
X158692951Y-94441584D01*
X158692948Y-94441580D01*
X158588419Y-94337051D01*
X158588415Y-94337048D01*
X158465501Y-94254919D01*
X158465488Y-94254912D01*
X158328917Y-94198343D01*
X158328907Y-94198340D01*
X158183920Y-94169500D01*
X158183918Y-94169500D01*
X158036082Y-94169500D01*
X158036080Y-94169500D01*
X157891092Y-94198340D01*
X157891082Y-94198343D01*
X157754511Y-94254912D01*
X157754498Y-94254919D01*
X157631584Y-94337048D01*
X157631580Y-94337051D01*
X157527051Y-94441580D01*
X157527048Y-94441584D01*
X157444919Y-94564498D01*
X157444912Y-94564511D01*
X157388343Y-94701082D01*
X157388340Y-94701092D01*
X157359500Y-94846079D01*
X157359500Y-94846082D01*
X157359500Y-94993918D01*
X157359500Y-94993920D01*
X157359499Y-94993920D01*
X155293801Y-94993920D01*
X155217732Y-94943092D01*
X155205500Y-94934919D01*
X155205488Y-94934912D01*
X155068917Y-94878343D01*
X155068907Y-94878340D01*
X154923920Y-94849500D01*
X154923918Y-94849500D01*
X154776082Y-94849500D01*
X154776080Y-94849500D01*
X154631092Y-94878340D01*
X154631082Y-94878343D01*
X154494511Y-94934912D01*
X154494498Y-94934919D01*
X154371584Y-95017048D01*
X154371580Y-95017051D01*
X154267051Y-95121580D01*
X154267048Y-95121584D01*
X154184919Y-95244498D01*
X154184912Y-95244511D01*
X154128343Y-95381082D01*
X154128340Y-95381092D01*
X154099500Y-95526079D01*
X154099500Y-95526082D01*
X154099500Y-95673918D01*
X154099500Y-95673920D01*
X154099499Y-95673920D01*
X153400500Y-95673920D01*
X153400500Y-95526079D01*
X153371659Y-95381092D01*
X153371658Y-95381091D01*
X153371658Y-95381087D01*
X153327923Y-95275501D01*
X153315087Y-95244511D01*
X153315080Y-95244498D01*
X153232951Y-95121584D01*
X153232948Y-95121580D01*
X153128419Y-95017051D01*
X153128415Y-95017048D01*
X153005501Y-94934919D01*
X153005488Y-94934912D01*
X152868917Y-94878343D01*
X152868907Y-94878340D01*
X152723920Y-94849500D01*
X152723918Y-94849500D01*
X152576082Y-94849500D01*
X152576080Y-94849500D01*
X152431092Y-94878340D01*
X152431082Y-94878343D01*
X152294511Y-94934912D01*
X152294498Y-94934919D01*
X152171584Y-95017048D01*
X152171580Y-95017051D01*
X152067051Y-95121580D01*
X152067048Y-95121584D01*
X151984919Y-95244498D01*
X151984912Y-95244511D01*
X151928343Y-95381082D01*
X151928340Y-95381092D01*
X151899500Y-95526079D01*
X151899500Y-95526082D01*
X151899500Y-95673918D01*
X151899500Y-95673920D01*
X151899499Y-95673920D01*
X148129686Y-95673920D01*
X148228416Y-95607951D01*
X148332951Y-95503416D01*
X148415084Y-95380495D01*
X148471658Y-95243913D01*
X148492544Y-95138917D01*
X148500500Y-95098920D01*
X148500500Y-94951079D01*
X148471659Y-94806092D01*
X148471658Y-94806091D01*
X148471658Y-94806087D01*
X148428164Y-94701082D01*
X148415087Y-94669511D01*
X148415080Y-94669498D01*
X148332951Y-94546584D01*
X148332948Y-94546580D01*
X148228419Y-94442051D01*
X148228415Y-94442048D01*
X148105501Y-94359919D01*
X148105488Y-94359912D01*
X147968917Y-94303343D01*
X147968907Y-94303340D01*
X147823920Y-94274500D01*
X147823918Y-94274500D01*
X147676082Y-94274500D01*
X147676080Y-94274500D01*
X147531092Y-94303340D01*
X147531082Y-94303343D01*
X147394511Y-94359912D01*
X147394498Y-94359919D01*
X147271584Y-94442048D01*
X147271580Y-94442051D01*
X147167051Y-94546580D01*
X147167048Y-94546584D01*
X147084919Y-94669498D01*
X147084912Y-94669511D01*
X147028343Y-94806082D01*
X147028340Y-94806092D01*
X146999500Y-94951079D01*
X146999500Y-94951082D01*
X146999500Y-95098918D01*
X146999500Y-95098920D01*
X146999499Y-95098920D01*
X146000500Y-95098920D01*
X146000500Y-94951079D01*
X145971659Y-94806092D01*
X145971658Y-94806091D01*
X145971658Y-94806087D01*
X145928164Y-94701082D01*
X145915087Y-94669511D01*
X145915080Y-94669498D01*
X145832951Y-94546584D01*
X145832948Y-94546580D01*
X145728419Y-94442051D01*
X145728415Y-94442048D01*
X145605501Y-94359919D01*
X145605488Y-94359912D01*
X145468917Y-94303343D01*
X145468907Y-94303340D01*
X145323920Y-94274500D01*
X145323918Y-94274500D01*
X145176082Y-94274500D01*
X145176080Y-94274500D01*
X145031092Y-94303340D01*
X145031082Y-94303343D01*
X144894511Y-94359912D01*
X144894498Y-94359919D01*
X144771584Y-94442048D01*
X144771580Y-94442051D01*
X144667051Y-94546580D01*
X144667048Y-94546584D01*
X144584919Y-94669498D01*
X144584912Y-94669511D01*
X144528343Y-94806082D01*
X144528340Y-94806092D01*
X144499500Y-94951079D01*
X144499500Y-94951082D01*
X144499500Y-95098918D01*
X144499500Y-95098920D01*
X144499499Y-95098920D01*
X140500500Y-95098920D01*
X140500500Y-92453920D01*
X141194499Y-92453920D01*
X141223340Y-92598907D01*
X141223343Y-92598917D01*
X141279912Y-92735488D01*
X141279919Y-92735501D01*
X141362048Y-92858415D01*
X141362051Y-92858419D01*
X141466580Y-92962948D01*
X141466584Y-92962951D01*
X141589498Y-93045080D01*
X141589511Y-93045087D01*
X141726082Y-93101656D01*
X141726087Y-93101658D01*
X141726091Y-93101658D01*
X141726092Y-93101659D01*
X141871079Y-93130500D01*
X141871082Y-93130500D01*
X142018920Y-93130500D01*
X142116462Y-93111096D01*
X142163913Y-93101658D01*
X142300495Y-93045084D01*
X142423416Y-92962951D01*
X142527951Y-92858416D01*
X142610084Y-92735495D01*
X142666658Y-92598913D01*
X142695500Y-92453918D01*
X142695500Y-92306082D01*
X142695500Y-92306079D01*
X142666659Y-92161092D01*
X142666658Y-92161091D01*
X142666658Y-92161087D01*
X142666656Y-92161082D01*
X142610087Y-92024511D01*
X142610080Y-92024498D01*
X142527951Y-91901584D01*
X142527948Y-91901580D01*
X142423419Y-91797051D01*
X142423415Y-91797048D01*
X142300501Y-91714919D01*
X142300488Y-91714912D01*
X142163917Y-91658343D01*
X142163907Y-91658340D01*
X142018920Y-91629500D01*
X142018918Y-91629500D01*
X141871082Y-91629500D01*
X141871080Y-91629500D01*
X141726092Y-91658340D01*
X141726082Y-91658343D01*
X141589511Y-91714912D01*
X141589498Y-91714919D01*
X141466584Y-91797048D01*
X141466580Y-91797051D01*
X141362051Y-91901580D01*
X141362048Y-91901584D01*
X141279919Y-92024498D01*
X141279912Y-92024511D01*
X141223343Y-92161082D01*
X141223340Y-92161092D01*
X141194500Y-92306079D01*
X141194500Y-92306082D01*
X141194500Y-92453918D01*
X141194500Y-92453920D01*
X141194499Y-92453920D01*
X140500500Y-92453920D01*
X140500500Y-89568995D01*
X147799499Y-89568995D01*
X147826418Y-89704322D01*
X147826421Y-89704332D01*
X147879221Y-89831804D01*
X147879228Y-89831817D01*
X147955885Y-89946541D01*
X147955888Y-89946545D01*
X148053454Y-90044111D01*
X148053458Y-90044114D01*
X148168182Y-90120771D01*
X148168195Y-90120778D01*
X148295667Y-90173578D01*
X148295672Y-90173580D01*
X148295676Y-90173580D01*
X148295677Y-90173581D01*
X148431004Y-90200500D01*
X148431007Y-90200500D01*
X148568995Y-90200500D01*
X148660041Y-90182389D01*
X148704328Y-90173580D01*
X148831811Y-90120775D01*
X148946542Y-90044114D01*
X149044114Y-89946542D01*
X149120775Y-89831811D01*
X149173580Y-89704328D01*
X149200141Y-89570799D01*
X149200500Y-89568995D01*
X150799499Y-89568995D01*
X150826418Y-89704322D01*
X150826421Y-89704332D01*
X150879221Y-89831804D01*
X150879228Y-89831817D01*
X150955885Y-89946541D01*
X150955888Y-89946545D01*
X151053454Y-90044111D01*
X151053458Y-90044114D01*
X151168182Y-90120771D01*
X151168195Y-90120778D01*
X151295667Y-90173578D01*
X151295672Y-90173580D01*
X151295676Y-90173580D01*
X151295677Y-90173581D01*
X151431004Y-90200500D01*
X151431007Y-90200500D01*
X151568995Y-90200500D01*
X151660041Y-90182389D01*
X151704328Y-90173580D01*
X151831811Y-90120775D01*
X151946542Y-90044114D01*
X152044114Y-89946542D01*
X152120775Y-89831811D01*
X152155109Y-89748920D01*
X155999499Y-89748920D01*
X156028340Y-89893907D01*
X156028343Y-89893917D01*
X156084912Y-90030488D01*
X156084919Y-90030501D01*
X156167048Y-90153415D01*
X156167051Y-90153419D01*
X156271580Y-90257948D01*
X156271584Y-90257951D01*
X156394498Y-90340080D01*
X156394511Y-90340087D01*
X156531082Y-90396656D01*
X156531087Y-90396658D01*
X156531091Y-90396658D01*
X156531092Y-90396659D01*
X156676079Y-90425500D01*
X156676082Y-90425500D01*
X156823920Y-90425500D01*
X156921462Y-90406096D01*
X156968913Y-90396658D01*
X157105495Y-90340084D01*
X157228416Y-90257951D01*
X157332951Y-90153416D01*
X157415084Y-90030495D01*
X157471658Y-89893913D01*
X157500500Y-89748918D01*
X157500500Y-89601082D01*
X157500500Y-89601079D01*
X157471659Y-89456092D01*
X157471658Y-89456091D01*
X157471658Y-89456087D01*
X157461268Y-89431004D01*
X157415087Y-89319511D01*
X157415080Y-89319498D01*
X157332951Y-89196584D01*
X157332948Y-89196580D01*
X157228419Y-89092051D01*
X157228415Y-89092048D01*
X157105501Y-89009919D01*
X157105488Y-89009912D01*
X156968917Y-88953343D01*
X156968907Y-88953340D01*
X156823920Y-88924500D01*
X156823918Y-88924500D01*
X156676082Y-88924500D01*
X156676080Y-88924500D01*
X156531092Y-88953340D01*
X156531082Y-88953343D01*
X156394511Y-89009912D01*
X156394498Y-89009919D01*
X156271584Y-89092048D01*
X156271580Y-89092051D01*
X156167051Y-89196580D01*
X156167048Y-89196584D01*
X156084919Y-89319498D01*
X156084912Y-89319511D01*
X156028343Y-89456082D01*
X156028340Y-89456092D01*
X155999500Y-89601079D01*
X155999500Y-89601082D01*
X155999500Y-89748918D01*
X155999500Y-89748920D01*
X155999499Y-89748920D01*
X152155109Y-89748920D01*
X152173580Y-89704328D01*
X152200500Y-89568993D01*
X152200500Y-89431007D01*
X152200500Y-89431004D01*
X152173581Y-89295677D01*
X152173580Y-89295676D01*
X152173580Y-89295672D01*
X152132535Y-89196580D01*
X152120778Y-89168195D01*
X152120771Y-89168182D01*
X152044114Y-89053458D01*
X152044111Y-89053454D01*
X151946545Y-88955888D01*
X151946541Y-88955885D01*
X151831817Y-88879228D01*
X151831804Y-88879221D01*
X151704332Y-88826421D01*
X151704322Y-88826418D01*
X151568995Y-88799500D01*
X151568993Y-88799500D01*
X151431007Y-88799500D01*
X151431005Y-88799500D01*
X151295677Y-88826418D01*
X151295667Y-88826421D01*
X151168195Y-88879221D01*
X151168182Y-88879228D01*
X151053458Y-88955885D01*
X151053454Y-88955888D01*
X150955888Y-89053454D01*
X150955885Y-89053458D01*
X150879228Y-89168182D01*
X150879221Y-89168195D01*
X150826421Y-89295667D01*
X150826418Y-89295677D01*
X150799500Y-89431004D01*
X150799500Y-89431007D01*
X150799500Y-89568993D01*
X150799500Y-89568995D01*
X150799499Y-89568995D01*
X149200500Y-89568995D01*
X149200500Y-89431004D01*
X149173581Y-89295677D01*
X149173580Y-89295676D01*
X149173580Y-89295672D01*
X149132535Y-89196580D01*
X149120778Y-89168195D01*
X149120771Y-89168182D01*
X149044114Y-89053458D01*
X149044111Y-89053454D01*
X148946545Y-88955888D01*
X148946541Y-88955885D01*
X148831817Y-88879228D01*
X148831804Y-88879221D01*
X148704332Y-88826421D01*
X148704322Y-88826418D01*
X148568995Y-88799500D01*
X148568993Y-88799500D01*
X148431007Y-88799500D01*
X148431005Y-88799500D01*
X148295677Y-88826418D01*
X148295667Y-88826421D01*
X148168195Y-88879221D01*
X148168182Y-88879228D01*
X148053458Y-88955885D01*
X148053454Y-88955888D01*
X147955888Y-89053454D01*
X147955885Y-89053458D01*
X147879228Y-89168182D01*
X147879221Y-89168195D01*
X147826421Y-89295667D01*
X147826418Y-89295677D01*
X147799500Y-89431004D01*
X147799500Y-89431007D01*
X147799500Y-89568993D01*
X147799500Y-89568995D01*
X147799499Y-89568995D01*
X140500500Y-89568995D01*
X140500500Y-88756092D01*
X140501097Y-88743939D01*
X140502015Y-88734614D01*
X140513704Y-88615926D01*
X140518442Y-88592104D01*
X140554010Y-88474855D01*
X140563306Y-88452413D01*
X140621061Y-88344363D01*
X140634556Y-88324165D01*
X140712279Y-88229458D01*
X140729458Y-88212279D01*
X140824165Y-88134556D01*
X140844363Y-88121061D01*
X140952413Y-88063306D01*
X140974855Y-88054010D01*
X141092104Y-88018442D01*
X141115928Y-88013704D01*
X141234614Y-88002015D01*
X141243939Y-88001097D01*
X141256092Y-88000500D01*
X141315892Y-88000500D01*
X158684108Y-88000500D01*
X158743908Y-88000500D01*
X158756061Y-88001097D01*
G37*
%TD.AperFunction*%
%TD*%
M02*
