%TF.GenerationSoftware,KiCad,Pcbnew,9.0.4*%
%TF.CreationDate,2025-08-25T23:49:45+01:00*%
%TF.ProjectId,smol-slime-xiao,736d6f6c-2d73-46c6-996d-652d7869616f,1.0*%
%TF.SameCoordinates,Original*%
%TF.FileFunction,Copper,L3,Inr*%
%TF.FilePolarity,Positive*%
%FSLAX46Y46*%
G04 Gerber Fmt 4.6, Leading zero omitted, Abs format (unit mm)*
G04 Created by KiCad (PCBNEW 9.0.4) date 2025-08-25 23:49:45*
%MOMM*%
%LPD*%
G01*
G04 APERTURE LIST*
%TA.AperFunction,ViaPad*%
%ADD10C,0.500000*%
%TD*%
G04 APERTURE END LIST*
D10*
%TO.N,GND*%
X149750000Y-93000000D03*
X149500000Y-97250000D03*
X143500000Y-90500000D03*
X156000000Y-102000000D03*
X147750000Y-88500000D03*
X149000000Y-98750000D03*
X146500000Y-93500000D03*
X155000000Y-97781500D03*
X156000000Y-92250000D03*
X146500000Y-92000000D03*
X146200000Y-105500000D03*
X145250000Y-93475000D03*
X141000000Y-88500000D03*
X151000000Y-105500000D03*
X155000000Y-88500000D03*
X153750000Y-92250000D03*
X156000000Y-105500000D03*
X144250000Y-105750000D03*
X154750000Y-101000000D03*
X153000000Y-103750000D03*
X149000000Y-101500000D03*
X145000000Y-92000000D03*
X143250000Y-88500000D03*
X145000000Y-90500000D03*
X141945000Y-94920000D03*
X159000000Y-88500000D03*
X143750000Y-103750000D03*
X146500000Y-101500000D03*
X156750000Y-88500000D03*
X150000000Y-88500000D03*
X144000000Y-100000000D03*
X152250000Y-88500000D03*
X152650000Y-93900000D03*
X156000000Y-94750000D03*
X151750000Y-97500000D03*
X145000000Y-88500000D03*
X149250000Y-105500000D03*
%TO.N,/I2C_SDA*%
X154750000Y-107075000D03*
%TO.N,/I2C_SCL*%
X153000000Y-107075000D03*
%TO.N,/CLK_CTL*%
X158110000Y-94920000D03*
%TO.N,VDD*%
X145250000Y-95025000D03*
X147750000Y-95025000D03*
X156750000Y-89675000D03*
X153000000Y-105425000D03*
X154850000Y-95600000D03*
X141945000Y-97460000D03*
X154750000Y-105425000D03*
X147750000Y-105500000D03*
%TO.N,/IMU_CLKIN*%
X152650000Y-95600000D03*
X143770000Y-97500000D03*
%TO.N,/SPI_MISO*%
X147500000Y-103750000D03*
%TO.N,/IMU_INT*%
X148250000Y-97250000D03*
%TO.N,/SPI_CS_IMU*%
X145000000Y-100000000D03*
%TO.N,/SPI_SCK*%
X145250000Y-105080000D03*
%TO.N,/SPI_MOSI*%
X146500000Y-100000000D03*
%TO.N,+5V*%
X141945000Y-92380000D03*
%TO.N,/VBAT*%
X155000000Y-99686500D03*
X152050000Y-101050000D03*
%TD*%
%TA.AperFunction,Conductor*%
%TO.N,VDD*%
G36*
X142526025Y-88020185D02*
G01*
X142571780Y-88072989D01*
X142581724Y-88142147D01*
X142573547Y-88171953D01*
X142528342Y-88281086D01*
X142528340Y-88281092D01*
X142499500Y-88426079D01*
X142499500Y-88426082D01*
X142499500Y-88573918D01*
X142499500Y-88573920D01*
X142499499Y-88573920D01*
X142528340Y-88718907D01*
X142528343Y-88718917D01*
X142584912Y-88855488D01*
X142584919Y-88855501D01*
X142667048Y-88978415D01*
X142667051Y-88978419D01*
X142771580Y-89082948D01*
X142771584Y-89082951D01*
X142894498Y-89165080D01*
X142894511Y-89165087D01*
X142979425Y-89200259D01*
X143031087Y-89221658D01*
X143031091Y-89221658D01*
X143031092Y-89221659D01*
X143176079Y-89250500D01*
X143176082Y-89250500D01*
X143323920Y-89250500D01*
X143421462Y-89231096D01*
X143468913Y-89221658D01*
X143597789Y-89168276D01*
X143605488Y-89165087D01*
X143605488Y-89165086D01*
X143605495Y-89165084D01*
X143728416Y-89082951D01*
X143832951Y-88978416D01*
X143915084Y-88855495D01*
X143971658Y-88718913D01*
X143981096Y-88671462D01*
X144000500Y-88573920D01*
X144000500Y-88426079D01*
X143971659Y-88281092D01*
X143971658Y-88281091D01*
X143971658Y-88281087D01*
X143926452Y-88171951D01*
X143922945Y-88139324D01*
X143918276Y-88106853D01*
X143919229Y-88104765D01*
X143918984Y-88102483D01*
X143933672Y-88073139D01*
X143947301Y-88043297D01*
X143949231Y-88042056D01*
X143950259Y-88040004D01*
X143978474Y-88023263D01*
X144006079Y-88005523D01*
X144009108Y-88005087D01*
X144010348Y-88004352D01*
X144041014Y-88000500D01*
X144208986Y-88000500D01*
X144276025Y-88020185D01*
X144321780Y-88072989D01*
X144331724Y-88142147D01*
X144323547Y-88171953D01*
X144278342Y-88281086D01*
X144278340Y-88281092D01*
X144249500Y-88426079D01*
X144249500Y-88426082D01*
X144249500Y-88573918D01*
X144249500Y-88573920D01*
X144249499Y-88573920D01*
X144278340Y-88718907D01*
X144278343Y-88718917D01*
X144334912Y-88855488D01*
X144334919Y-88855501D01*
X144417048Y-88978415D01*
X144417051Y-88978419D01*
X144521580Y-89082948D01*
X144521584Y-89082951D01*
X144644498Y-89165080D01*
X144644511Y-89165087D01*
X144729425Y-89200259D01*
X144781087Y-89221658D01*
X144781091Y-89221658D01*
X144781092Y-89221659D01*
X144926079Y-89250500D01*
X144926082Y-89250500D01*
X145073920Y-89250500D01*
X145171462Y-89231096D01*
X145218913Y-89221658D01*
X145347789Y-89168276D01*
X145355488Y-89165087D01*
X145355488Y-89165086D01*
X145355495Y-89165084D01*
X145478416Y-89082951D01*
X145582951Y-88978416D01*
X145665084Y-88855495D01*
X145721658Y-88718913D01*
X145731096Y-88671462D01*
X145750500Y-88573920D01*
X145750500Y-88426079D01*
X145721659Y-88281092D01*
X145721658Y-88281091D01*
X145721658Y-88281087D01*
X145676452Y-88171951D01*
X145668984Y-88102483D01*
X145700259Y-88040004D01*
X145760348Y-88004352D01*
X145791014Y-88000500D01*
X146958986Y-88000500D01*
X147026025Y-88020185D01*
X147071780Y-88072989D01*
X147081724Y-88142147D01*
X147073547Y-88171953D01*
X147028342Y-88281086D01*
X147028340Y-88281092D01*
X146999500Y-88426079D01*
X146999500Y-88426082D01*
X146999500Y-88573918D01*
X146999500Y-88573920D01*
X146999499Y-88573920D01*
X147028340Y-88718907D01*
X147028343Y-88718917D01*
X147084912Y-88855488D01*
X147084919Y-88855501D01*
X147167048Y-88978415D01*
X147167051Y-88978419D01*
X147271580Y-89082948D01*
X147271584Y-89082951D01*
X147394498Y-89165080D01*
X147394511Y-89165087D01*
X147479425Y-89200259D01*
X147531087Y-89221658D01*
X147531091Y-89221658D01*
X147531092Y-89221659D01*
X147676079Y-89250500D01*
X147684310Y-89250500D01*
X147751349Y-89270185D01*
X147797104Y-89322989D01*
X147807048Y-89392147D01*
X147805928Y-89398690D01*
X147799500Y-89431007D01*
X147799500Y-89568993D01*
X147799500Y-89568995D01*
X147799499Y-89568995D01*
X147826418Y-89704322D01*
X147826421Y-89704332D01*
X147879221Y-89831804D01*
X147879228Y-89831817D01*
X147955885Y-89946541D01*
X147955888Y-89946545D01*
X148053454Y-90044111D01*
X148053458Y-90044114D01*
X148168182Y-90120771D01*
X148168195Y-90120778D01*
X148295667Y-90173578D01*
X148295672Y-90173580D01*
X148295676Y-90173580D01*
X148295677Y-90173581D01*
X148431004Y-90200500D01*
X148431007Y-90200500D01*
X148568995Y-90200500D01*
X148660041Y-90182389D01*
X148704328Y-90173580D01*
X148831811Y-90120775D01*
X148946542Y-90044114D01*
X149044114Y-89946542D01*
X149120775Y-89831811D01*
X149173580Y-89704328D01*
X149200500Y-89568993D01*
X149200500Y-89431007D01*
X149200500Y-89431004D01*
X149173581Y-89295677D01*
X149173580Y-89295676D01*
X149173580Y-89295672D01*
X149163023Y-89270185D01*
X149120778Y-89168195D01*
X149120771Y-89168182D01*
X149044114Y-89053458D01*
X149044111Y-89053454D01*
X148946545Y-88955888D01*
X148946541Y-88955885D01*
X148831817Y-88879228D01*
X148831804Y-88879221D01*
X148704332Y-88826421D01*
X148704322Y-88826418D01*
X148581560Y-88801999D01*
X148519649Y-88769614D01*
X148485075Y-88708898D01*
X148484135Y-88656190D01*
X148500500Y-88573920D01*
X148500500Y-88426079D01*
X148471659Y-88281092D01*
X148471658Y-88281091D01*
X148471658Y-88281087D01*
X148426452Y-88171951D01*
X148418984Y-88102483D01*
X148450259Y-88040004D01*
X148510348Y-88004352D01*
X148541014Y-88000500D01*
X149208986Y-88000500D01*
X149276025Y-88020185D01*
X149321780Y-88072989D01*
X149331724Y-88142147D01*
X149323547Y-88171953D01*
X149278342Y-88281086D01*
X149278340Y-88281092D01*
X149249500Y-88426079D01*
X149249500Y-88426082D01*
X149249500Y-88573918D01*
X149249500Y-88573920D01*
X149249499Y-88573920D01*
X149278340Y-88718907D01*
X149278343Y-88718917D01*
X149334912Y-88855488D01*
X149334919Y-88855501D01*
X149417048Y-88978415D01*
X149417051Y-88978419D01*
X149521580Y-89082948D01*
X149521584Y-89082951D01*
X149644498Y-89165080D01*
X149644511Y-89165087D01*
X149729425Y-89200259D01*
X149781087Y-89221658D01*
X149781091Y-89221658D01*
X149781092Y-89221659D01*
X149926079Y-89250500D01*
X149926082Y-89250500D01*
X150073920Y-89250500D01*
X150171462Y-89231096D01*
X150218913Y-89221658D01*
X150347789Y-89168276D01*
X150355488Y-89165087D01*
X150355488Y-89165086D01*
X150355495Y-89165084D01*
X150478416Y-89082951D01*
X150582951Y-88978416D01*
X150665084Y-88855495D01*
X150721658Y-88718913D01*
X150731096Y-88671462D01*
X150750500Y-88573920D01*
X150750500Y-88426079D01*
X150721659Y-88281092D01*
X150721658Y-88281091D01*
X150721658Y-88281087D01*
X150676452Y-88171951D01*
X150668984Y-88102483D01*
X150700259Y-88040004D01*
X150760348Y-88004352D01*
X150791014Y-88000500D01*
X151458986Y-88000500D01*
X151526025Y-88020185D01*
X151571780Y-88072989D01*
X151581724Y-88142147D01*
X151573547Y-88171953D01*
X151528342Y-88281086D01*
X151528340Y-88281092D01*
X151499500Y-88426079D01*
X151499500Y-88573922D01*
X151515864Y-88656191D01*
X151509637Y-88725783D01*
X151466773Y-88780960D01*
X151418439Y-88801999D01*
X151295677Y-88826418D01*
X151295667Y-88826421D01*
X151168195Y-88879221D01*
X151168182Y-88879228D01*
X151053458Y-88955885D01*
X151053454Y-88955888D01*
X150955888Y-89053454D01*
X150955885Y-89053458D01*
X150879228Y-89168182D01*
X150879221Y-89168195D01*
X150826421Y-89295667D01*
X150826418Y-89295677D01*
X150799500Y-89431004D01*
X150799500Y-89431007D01*
X150799500Y-89568993D01*
X150799500Y-89568995D01*
X150799499Y-89568995D01*
X150826418Y-89704322D01*
X150826421Y-89704332D01*
X150879221Y-89831804D01*
X150879228Y-89831817D01*
X150955885Y-89946541D01*
X150955888Y-89946545D01*
X151053454Y-90044111D01*
X151053458Y-90044114D01*
X151168182Y-90120771D01*
X151168195Y-90120778D01*
X151295667Y-90173578D01*
X151295672Y-90173580D01*
X151295676Y-90173580D01*
X151295677Y-90173581D01*
X151431004Y-90200500D01*
X151431007Y-90200500D01*
X151568995Y-90200500D01*
X151660041Y-90182389D01*
X151704328Y-90173580D01*
X151831811Y-90120775D01*
X151946542Y-90044114D01*
X152044114Y-89946542D01*
X152120775Y-89831811D01*
X152173580Y-89704328D01*
X152200500Y-89568993D01*
X152200500Y-89431007D01*
X152194072Y-89398690D01*
X152200301Y-89329099D01*
X152243164Y-89273922D01*
X152309054Y-89250678D01*
X152315690Y-89250500D01*
X152323920Y-89250500D01*
X152421462Y-89231096D01*
X152468913Y-89221658D01*
X152597789Y-89168276D01*
X152605488Y-89165087D01*
X152605488Y-89165086D01*
X152605495Y-89165084D01*
X152728416Y-89082951D01*
X152832951Y-88978416D01*
X152915084Y-88855495D01*
X152971658Y-88718913D01*
X152981096Y-88671462D01*
X153000500Y-88573920D01*
X153000500Y-88426079D01*
X152971659Y-88281092D01*
X152971658Y-88281091D01*
X152971658Y-88281087D01*
X152926452Y-88171951D01*
X152918984Y-88102483D01*
X152950259Y-88040004D01*
X153010348Y-88004352D01*
X153041014Y-88000500D01*
X154208986Y-88000500D01*
X154276025Y-88020185D01*
X154321780Y-88072989D01*
X154331724Y-88142147D01*
X154323547Y-88171953D01*
X154278342Y-88281086D01*
X154278340Y-88281092D01*
X154249500Y-88426079D01*
X154249500Y-88426082D01*
X154249500Y-88573918D01*
X154249500Y-88573920D01*
X154249499Y-88573920D01*
X154278340Y-88718907D01*
X154278343Y-88718917D01*
X154334912Y-88855488D01*
X154334919Y-88855501D01*
X154417048Y-88978415D01*
X154417051Y-88978419D01*
X154521580Y-89082948D01*
X154521584Y-89082951D01*
X154644498Y-89165080D01*
X154644511Y-89165087D01*
X154729425Y-89200259D01*
X154781087Y-89221658D01*
X154781091Y-89221658D01*
X154781092Y-89221659D01*
X154926079Y-89250500D01*
X154926082Y-89250500D01*
X155073920Y-89250500D01*
X155171462Y-89231096D01*
X155218913Y-89221658D01*
X155347789Y-89168276D01*
X155355488Y-89165087D01*
X155355488Y-89165086D01*
X155355495Y-89165084D01*
X155478416Y-89082951D01*
X155582951Y-88978416D01*
X155665084Y-88855495D01*
X155721658Y-88718913D01*
X155731096Y-88671462D01*
X155750500Y-88573920D01*
X155750500Y-88426079D01*
X155721659Y-88281092D01*
X155721658Y-88281091D01*
X155721658Y-88281087D01*
X155676452Y-88171951D01*
X155672945Y-88139324D01*
X155668276Y-88106853D01*
X155669229Y-88104765D01*
X155668984Y-88102483D01*
X155683672Y-88073139D01*
X155697301Y-88043297D01*
X155699231Y-88042056D01*
X155700259Y-88040004D01*
X155728474Y-88023263D01*
X155756079Y-88005523D01*
X155759108Y-88005087D01*
X155760348Y-88004352D01*
X155791014Y-88000500D01*
X155958986Y-88000500D01*
X156026025Y-88020185D01*
X156071780Y-88072989D01*
X156081724Y-88142147D01*
X156073547Y-88171953D01*
X156028342Y-88281086D01*
X156028340Y-88281092D01*
X155999500Y-88426079D01*
X155999500Y-88426082D01*
X155999500Y-88573918D01*
X155999500Y-88573920D01*
X155999499Y-88573920D01*
X156028340Y-88718907D01*
X156028343Y-88718917D01*
X156084912Y-88855488D01*
X156084919Y-88855501D01*
X156167048Y-88978415D01*
X156167051Y-88978419D01*
X156271580Y-89082948D01*
X156271584Y-89082951D01*
X156394498Y-89165080D01*
X156394511Y-89165087D01*
X156479425Y-89200259D01*
X156531087Y-89221658D01*
X156531091Y-89221658D01*
X156531092Y-89221659D01*
X156676079Y-89250500D01*
X156676082Y-89250500D01*
X156823920Y-89250500D01*
X156921462Y-89231096D01*
X156968913Y-89221658D01*
X157097789Y-89168276D01*
X157105488Y-89165087D01*
X157105488Y-89165086D01*
X157105495Y-89165084D01*
X157228416Y-89082951D01*
X157332951Y-88978416D01*
X157415084Y-88855495D01*
X157471658Y-88718913D01*
X157481096Y-88671462D01*
X157500500Y-88573920D01*
X157500500Y-88426079D01*
X157471659Y-88281092D01*
X157471658Y-88281091D01*
X157471658Y-88281087D01*
X157426452Y-88171951D01*
X157418984Y-88102483D01*
X157450259Y-88040004D01*
X157510348Y-88004352D01*
X157541014Y-88000500D01*
X158208986Y-88000500D01*
X158276025Y-88020185D01*
X158321780Y-88072989D01*
X158331724Y-88142147D01*
X158323547Y-88171953D01*
X158278342Y-88281086D01*
X158278340Y-88281092D01*
X158249500Y-88426079D01*
X158249500Y-88426082D01*
X158249500Y-88573918D01*
X158249500Y-88573920D01*
X158249499Y-88573920D01*
X158278340Y-88718907D01*
X158278343Y-88718917D01*
X158334912Y-88855488D01*
X158334919Y-88855501D01*
X158417048Y-88978415D01*
X158417051Y-88978419D01*
X158521580Y-89082948D01*
X158521584Y-89082951D01*
X158644498Y-89165080D01*
X158644511Y-89165087D01*
X158729425Y-89200259D01*
X158781087Y-89221658D01*
X158781091Y-89221658D01*
X158781092Y-89221659D01*
X158926079Y-89250500D01*
X158926082Y-89250500D01*
X159073920Y-89250500D01*
X159171462Y-89231096D01*
X159218913Y-89221658D01*
X159328048Y-89176452D01*
X159397517Y-89168984D01*
X159459996Y-89200259D01*
X159495648Y-89260348D01*
X159499500Y-89291014D01*
X159499500Y-106126000D01*
X159479815Y-106193039D01*
X159427011Y-106238794D01*
X159375500Y-106250000D01*
X156610730Y-106250000D01*
X156543691Y-106230315D01*
X156497936Y-106177511D01*
X156487992Y-106108353D01*
X156517017Y-106044797D01*
X156523049Y-106038319D01*
X156582948Y-105978419D01*
X156582951Y-105978416D01*
X156665084Y-105855495D01*
X156721658Y-105718913D01*
X156750500Y-105573918D01*
X156750500Y-105426082D01*
X156750500Y-105426079D01*
X156721659Y-105281092D01*
X156721658Y-105281091D01*
X156721658Y-105281087D01*
X156674422Y-105167048D01*
X156665087Y-105144511D01*
X156665080Y-105144498D01*
X156582951Y-105021584D01*
X156582948Y-105021580D01*
X156478419Y-104917051D01*
X156478415Y-104917048D01*
X156355501Y-104834919D01*
X156355488Y-104834912D01*
X156218917Y-104778343D01*
X156218907Y-104778340D01*
X156073920Y-104749500D01*
X156073918Y-104749500D01*
X155926082Y-104749500D01*
X155926080Y-104749500D01*
X155781092Y-104778340D01*
X155781082Y-104778343D01*
X155644511Y-104834912D01*
X155644498Y-104834919D01*
X155521584Y-104917048D01*
X155521580Y-104917051D01*
X155417051Y-105021580D01*
X155417048Y-105021584D01*
X155334919Y-105144498D01*
X155334912Y-105144511D01*
X155278343Y-105281082D01*
X155278340Y-105281092D01*
X155249500Y-105426079D01*
X155249500Y-105426082D01*
X155249500Y-105573918D01*
X155249500Y-105573920D01*
X155249499Y-105573920D01*
X155278340Y-105718907D01*
X155278343Y-105718917D01*
X155334912Y-105855488D01*
X155334919Y-105855501D01*
X155417048Y-105978415D01*
X155417051Y-105978419D01*
X155476951Y-106038319D01*
X155510436Y-106099642D01*
X155505452Y-106169334D01*
X155463580Y-106225267D01*
X155398116Y-106249684D01*
X155389270Y-106250000D01*
X151610730Y-106250000D01*
X151543691Y-106230315D01*
X151497936Y-106177511D01*
X151487992Y-106108353D01*
X151517017Y-106044797D01*
X151523049Y-106038319D01*
X151582948Y-105978419D01*
X151582951Y-105978416D01*
X151665084Y-105855495D01*
X151721658Y-105718913D01*
X151750500Y-105573918D01*
X151750500Y-105426082D01*
X151750500Y-105426079D01*
X151721659Y-105281092D01*
X151721658Y-105281091D01*
X151721658Y-105281087D01*
X151674422Y-105167048D01*
X151665087Y-105144511D01*
X151665080Y-105144498D01*
X151582951Y-105021584D01*
X151582948Y-105021580D01*
X151478419Y-104917051D01*
X151478415Y-104917048D01*
X151355501Y-104834919D01*
X151355488Y-104834912D01*
X151218917Y-104778343D01*
X151218907Y-104778340D01*
X151073920Y-104749500D01*
X151073918Y-104749500D01*
X150926082Y-104749500D01*
X150926080Y-104749500D01*
X150781092Y-104778340D01*
X150781082Y-104778343D01*
X150644511Y-104834912D01*
X150644498Y-104834919D01*
X150521584Y-104917048D01*
X150521580Y-104917051D01*
X150417051Y-105021580D01*
X150417048Y-105021584D01*
X150334919Y-105144498D01*
X150334912Y-105144511D01*
X150278343Y-105281082D01*
X150278340Y-105281092D01*
X150249500Y-105426079D01*
X150249500Y-105426082D01*
X150249500Y-105573918D01*
X150249500Y-105573920D01*
X150249499Y-105573920D01*
X150278340Y-105718907D01*
X150278343Y-105718917D01*
X150334912Y-105855488D01*
X150334919Y-105855501D01*
X150417048Y-105978415D01*
X150417051Y-105978419D01*
X150476951Y-106038319D01*
X150510436Y-106099642D01*
X150505452Y-106169334D01*
X150463580Y-106225267D01*
X150398116Y-106249684D01*
X150389270Y-106250000D01*
X149860730Y-106250000D01*
X149793691Y-106230315D01*
X149747936Y-106177511D01*
X149737992Y-106108353D01*
X149767017Y-106044797D01*
X149773049Y-106038319D01*
X149832948Y-105978419D01*
X149832951Y-105978416D01*
X149915084Y-105855495D01*
X149971658Y-105718913D01*
X150000500Y-105573918D01*
X150000500Y-105426082D01*
X150000500Y-105426079D01*
X149971659Y-105281092D01*
X149971658Y-105281091D01*
X149971658Y-105281087D01*
X149924422Y-105167048D01*
X149915087Y-105144511D01*
X149915080Y-105144498D01*
X149832951Y-105021584D01*
X149832948Y-105021580D01*
X149728419Y-104917051D01*
X149728415Y-104917048D01*
X149605501Y-104834919D01*
X149605488Y-104834912D01*
X149468917Y-104778343D01*
X149468907Y-104778340D01*
X149323920Y-104749500D01*
X149323918Y-104749500D01*
X149176082Y-104749500D01*
X149176080Y-104749500D01*
X149031092Y-104778340D01*
X149031082Y-104778343D01*
X148894511Y-104834912D01*
X148894498Y-104834919D01*
X148771584Y-104917048D01*
X148771580Y-104917051D01*
X148667051Y-105021580D01*
X148667048Y-105021584D01*
X148584919Y-105144498D01*
X148584912Y-105144511D01*
X148528343Y-105281082D01*
X148528340Y-105281092D01*
X148499500Y-105426079D01*
X148499500Y-105426082D01*
X148499500Y-105573918D01*
X148499500Y-105573920D01*
X148499499Y-105573920D01*
X148528340Y-105718907D01*
X148528343Y-105718917D01*
X148584912Y-105855488D01*
X148584919Y-105855501D01*
X148667048Y-105978415D01*
X148667051Y-105978419D01*
X148726951Y-106038319D01*
X148760436Y-106099642D01*
X148755452Y-106169334D01*
X148713580Y-106225267D01*
X148648116Y-106249684D01*
X148639270Y-106250000D01*
X146810730Y-106250000D01*
X146743691Y-106230315D01*
X146697936Y-106177511D01*
X146687992Y-106108353D01*
X146717017Y-106044797D01*
X146723049Y-106038319D01*
X146782948Y-105978419D01*
X146782951Y-105978416D01*
X146865084Y-105855495D01*
X146921658Y-105718913D01*
X146950500Y-105573918D01*
X146950500Y-105426082D01*
X146950500Y-105426079D01*
X146921659Y-105281092D01*
X146921658Y-105281091D01*
X146921658Y-105281087D01*
X146874422Y-105167048D01*
X146865087Y-105144511D01*
X146865080Y-105144498D01*
X146782951Y-105021584D01*
X146782948Y-105021580D01*
X146678419Y-104917051D01*
X146678415Y-104917048D01*
X146555501Y-104834919D01*
X146555488Y-104834912D01*
X146418917Y-104778343D01*
X146418907Y-104778340D01*
X146273920Y-104749500D01*
X146273918Y-104749500D01*
X146126082Y-104749500D01*
X146126077Y-104749500D01*
X146035842Y-104767449D01*
X145966250Y-104761222D01*
X145911073Y-104718359D01*
X145908549Y-104714723D01*
X145832951Y-104601584D01*
X145832948Y-104601580D01*
X145728419Y-104497051D01*
X145728415Y-104497048D01*
X145605501Y-104414919D01*
X145605488Y-104414912D01*
X145468917Y-104358343D01*
X145468907Y-104358340D01*
X145323920Y-104329500D01*
X145323918Y-104329500D01*
X145176082Y-104329500D01*
X145176080Y-104329500D01*
X145031092Y-104358340D01*
X145031082Y-104358343D01*
X144894511Y-104414912D01*
X144894498Y-104414919D01*
X144771584Y-104497048D01*
X144771580Y-104497051D01*
X144667051Y-104601580D01*
X144667048Y-104601584D01*
X144584919Y-104724498D01*
X144584912Y-104724511D01*
X144528343Y-104861082D01*
X144528341Y-104861089D01*
X144518267Y-104911732D01*
X144485881Y-104973642D01*
X144425164Y-105008215D01*
X144372458Y-105009155D01*
X144323920Y-104999500D01*
X144323918Y-104999500D01*
X144176082Y-104999500D01*
X144176080Y-104999500D01*
X144031092Y-105028340D01*
X144031082Y-105028343D01*
X143894511Y-105084912D01*
X143894498Y-105084919D01*
X143771584Y-105167048D01*
X143771580Y-105167051D01*
X143667051Y-105271580D01*
X143667048Y-105271584D01*
X143584919Y-105394498D01*
X143584912Y-105394511D01*
X143528343Y-105531082D01*
X143528340Y-105531092D01*
X143499500Y-105676079D01*
X143499500Y-105676082D01*
X143499500Y-105823918D01*
X143499500Y-105823920D01*
X143499499Y-105823920D01*
X143528340Y-105968907D01*
X143528342Y-105968913D01*
X143573754Y-106078547D01*
X143581223Y-106148017D01*
X143549948Y-106210496D01*
X143489859Y-106246148D01*
X143459193Y-106250000D01*
X140624500Y-106250000D01*
X140557461Y-106230315D01*
X140511706Y-106177511D01*
X140500500Y-106126000D01*
X140500500Y-103823920D01*
X142999499Y-103823920D01*
X143028340Y-103968907D01*
X143028343Y-103968917D01*
X143084912Y-104105488D01*
X143084919Y-104105501D01*
X143167048Y-104228415D01*
X143167051Y-104228419D01*
X143271580Y-104332948D01*
X143271584Y-104332951D01*
X143394498Y-104415080D01*
X143394511Y-104415087D01*
X143531082Y-104471656D01*
X143531087Y-104471658D01*
X143531091Y-104471658D01*
X143531092Y-104471659D01*
X143676079Y-104500500D01*
X143676082Y-104500500D01*
X143823920Y-104500500D01*
X143921462Y-104481096D01*
X143968913Y-104471658D01*
X144105495Y-104415084D01*
X144228416Y-104332951D01*
X144332951Y-104228416D01*
X144415084Y-104105495D01*
X144471658Y-103968913D01*
X144500500Y-103823920D01*
X146749499Y-103823920D01*
X146778340Y-103968907D01*
X146778343Y-103968917D01*
X146834912Y-104105488D01*
X146834919Y-104105501D01*
X146917048Y-104228415D01*
X146917051Y-104228419D01*
X147021580Y-104332948D01*
X147021584Y-104332951D01*
X147144498Y-104415080D01*
X147144511Y-104415087D01*
X147281082Y-104471656D01*
X147281087Y-104471658D01*
X147281091Y-104471658D01*
X147281092Y-104471659D01*
X147426079Y-104500500D01*
X147426082Y-104500500D01*
X147573920Y-104500500D01*
X147671462Y-104481096D01*
X147718913Y-104471658D01*
X147855495Y-104415084D01*
X147978416Y-104332951D01*
X148082951Y-104228416D01*
X148165084Y-104105495D01*
X148221658Y-103968913D01*
X148250500Y-103823920D01*
X152249499Y-103823920D01*
X152278340Y-103968907D01*
X152278343Y-103968917D01*
X152334912Y-104105488D01*
X152334919Y-104105501D01*
X152417048Y-104228415D01*
X152417051Y-104228419D01*
X152521580Y-104332948D01*
X152521584Y-104332951D01*
X152644498Y-104415080D01*
X152644511Y-104415087D01*
X152781082Y-104471656D01*
X152781087Y-104471658D01*
X152781091Y-104471658D01*
X152781092Y-104471659D01*
X152926079Y-104500500D01*
X152926082Y-104500500D01*
X153073920Y-104500500D01*
X153171462Y-104481096D01*
X153218913Y-104471658D01*
X153355495Y-104415084D01*
X153478416Y-104332951D01*
X153582951Y-104228416D01*
X153665084Y-104105495D01*
X153721658Y-103968913D01*
X153750500Y-103823918D01*
X153750500Y-103676082D01*
X153750500Y-103676079D01*
X153721659Y-103531092D01*
X153721658Y-103531091D01*
X153721658Y-103531087D01*
X153721656Y-103531082D01*
X153665087Y-103394511D01*
X153665080Y-103394498D01*
X153582951Y-103271584D01*
X153582948Y-103271580D01*
X153478419Y-103167051D01*
X153478415Y-103167048D01*
X153355501Y-103084919D01*
X153355488Y-103084912D01*
X153218917Y-103028343D01*
X153218907Y-103028340D01*
X153073920Y-102999500D01*
X153073918Y-102999500D01*
X152926082Y-102999500D01*
X152926080Y-102999500D01*
X152781092Y-103028340D01*
X152781082Y-103028343D01*
X152644511Y-103084912D01*
X152644498Y-103084919D01*
X152521584Y-103167048D01*
X152521580Y-103167051D01*
X152417051Y-103271580D01*
X152417048Y-103271584D01*
X152334919Y-103394498D01*
X152334912Y-103394511D01*
X152278343Y-103531082D01*
X152278340Y-103531092D01*
X152249500Y-103676079D01*
X152249500Y-103676082D01*
X152249500Y-103823918D01*
X152249500Y-103823920D01*
X152249499Y-103823920D01*
X148250500Y-103823920D01*
X148250500Y-103823918D01*
X148250500Y-103676082D01*
X148250500Y-103676079D01*
X148221659Y-103531092D01*
X148221658Y-103531091D01*
X148221658Y-103531087D01*
X148221656Y-103531082D01*
X148165087Y-103394511D01*
X148165080Y-103394498D01*
X148082951Y-103271584D01*
X148082948Y-103271580D01*
X147978419Y-103167051D01*
X147978415Y-103167048D01*
X147855501Y-103084919D01*
X147855488Y-103084912D01*
X147718917Y-103028343D01*
X147718907Y-103028340D01*
X147573920Y-102999500D01*
X147573918Y-102999500D01*
X147426082Y-102999500D01*
X147426080Y-102999500D01*
X147281092Y-103028340D01*
X147281082Y-103028343D01*
X147144511Y-103084912D01*
X147144498Y-103084919D01*
X147021584Y-103167048D01*
X147021580Y-103167051D01*
X146917051Y-103271580D01*
X146917048Y-103271584D01*
X146834919Y-103394498D01*
X146834912Y-103394511D01*
X146778343Y-103531082D01*
X146778340Y-103531092D01*
X146749500Y-103676079D01*
X146749500Y-103676082D01*
X146749500Y-103823918D01*
X146749500Y-103823920D01*
X146749499Y-103823920D01*
X144500500Y-103823920D01*
X144500500Y-103823918D01*
X144500500Y-103676082D01*
X144500500Y-103676079D01*
X144471659Y-103531092D01*
X144471658Y-103531091D01*
X144471658Y-103531087D01*
X144471656Y-103531082D01*
X144415087Y-103394511D01*
X144415080Y-103394498D01*
X144332951Y-103271584D01*
X144332948Y-103271580D01*
X144228419Y-103167051D01*
X144228415Y-103167048D01*
X144105501Y-103084919D01*
X144105488Y-103084912D01*
X143968917Y-103028343D01*
X143968907Y-103028340D01*
X143823920Y-102999500D01*
X143823918Y-102999500D01*
X143676082Y-102999500D01*
X143676080Y-102999500D01*
X143531092Y-103028340D01*
X143531082Y-103028343D01*
X143394511Y-103084912D01*
X143394498Y-103084919D01*
X143271584Y-103167048D01*
X143271580Y-103167051D01*
X143167051Y-103271580D01*
X143167048Y-103271584D01*
X143084919Y-103394498D01*
X143084912Y-103394511D01*
X143028343Y-103531082D01*
X143028340Y-103531092D01*
X142999500Y-103676079D01*
X142999500Y-103676082D01*
X142999500Y-103823918D01*
X142999500Y-103823920D01*
X142999499Y-103823920D01*
X140500500Y-103823920D01*
X140500500Y-100073920D01*
X143249499Y-100073920D01*
X143278340Y-100218907D01*
X143278343Y-100218917D01*
X143334912Y-100355488D01*
X143334919Y-100355501D01*
X143417048Y-100478415D01*
X143417051Y-100478419D01*
X143521580Y-100582948D01*
X143521584Y-100582951D01*
X143644498Y-100665080D01*
X143644511Y-100665087D01*
X143781082Y-100721656D01*
X143781087Y-100721658D01*
X143781091Y-100721658D01*
X143781092Y-100721659D01*
X143926079Y-100750500D01*
X143926082Y-100750500D01*
X144073920Y-100750500D01*
X144176146Y-100730165D01*
X144218913Y-100721658D01*
X144355495Y-100665084D01*
X144431111Y-100614559D01*
X144497786Y-100593682D01*
X144565166Y-100612166D01*
X144568848Y-100614531D01*
X144644505Y-100665084D01*
X144644507Y-100665085D01*
X144644511Y-100665087D01*
X144781082Y-100721656D01*
X144781087Y-100721658D01*
X144781091Y-100721658D01*
X144781092Y-100721659D01*
X144926079Y-100750500D01*
X144926082Y-100750500D01*
X145073920Y-100750500D01*
X145176146Y-100730165D01*
X145218913Y-100721658D01*
X145355495Y-100665084D01*
X145478416Y-100582951D01*
X145582951Y-100478416D01*
X145645426Y-100384916D01*
X145646898Y-100382713D01*
X145700510Y-100337908D01*
X145769835Y-100329201D01*
X145832862Y-100359355D01*
X145853102Y-100382713D01*
X145917048Y-100478415D01*
X145917051Y-100478419D01*
X146021580Y-100582948D01*
X146021584Y-100582951D01*
X146117286Y-100646898D01*
X146162091Y-100700511D01*
X146170798Y-100769836D01*
X146140643Y-100832863D01*
X146117286Y-100853102D01*
X146021584Y-100917048D01*
X146021580Y-100917051D01*
X145917051Y-101021580D01*
X145917048Y-101021584D01*
X145834919Y-101144498D01*
X145834912Y-101144511D01*
X145778343Y-101281082D01*
X145778340Y-101281092D01*
X145749500Y-101426079D01*
X145749500Y-101426082D01*
X145749500Y-101573918D01*
X145749500Y-101573920D01*
X145749499Y-101573920D01*
X145778340Y-101718907D01*
X145778343Y-101718917D01*
X145834912Y-101855488D01*
X145834919Y-101855501D01*
X145917048Y-101978415D01*
X145917051Y-101978419D01*
X146021580Y-102082948D01*
X146021584Y-102082951D01*
X146144498Y-102165080D01*
X146144511Y-102165087D01*
X146281082Y-102221656D01*
X146281087Y-102221658D01*
X146281091Y-102221658D01*
X146281092Y-102221659D01*
X146426079Y-102250500D01*
X146426082Y-102250500D01*
X146573920Y-102250500D01*
X146671462Y-102231096D01*
X146718913Y-102221658D01*
X146855495Y-102165084D01*
X146978416Y-102082951D01*
X147082951Y-101978416D01*
X147165084Y-101855495D01*
X147221658Y-101718913D01*
X147236459Y-101644505D01*
X147250500Y-101573920D01*
X148249499Y-101573920D01*
X148278340Y-101718907D01*
X148278343Y-101718917D01*
X148334912Y-101855488D01*
X148334919Y-101855501D01*
X148417048Y-101978415D01*
X148417051Y-101978419D01*
X148521580Y-102082948D01*
X148521584Y-102082951D01*
X148644498Y-102165080D01*
X148644511Y-102165087D01*
X148781082Y-102221656D01*
X148781087Y-102221658D01*
X148781091Y-102221658D01*
X148781092Y-102221659D01*
X148926079Y-102250500D01*
X148926082Y-102250500D01*
X149073920Y-102250500D01*
X149171462Y-102231096D01*
X149218913Y-102221658D01*
X149355495Y-102165084D01*
X149478416Y-102082951D01*
X149582951Y-101978416D01*
X149665084Y-101855495D01*
X149721658Y-101718913D01*
X149736459Y-101644505D01*
X149750500Y-101573920D01*
X149750500Y-101426079D01*
X149721659Y-101281092D01*
X149721658Y-101281091D01*
X149721658Y-101281087D01*
X149716613Y-101268907D01*
X149665087Y-101144511D01*
X149665080Y-101144498D01*
X149651330Y-101123920D01*
X151299499Y-101123920D01*
X151328340Y-101268907D01*
X151328343Y-101268917D01*
X151384912Y-101405488D01*
X151384919Y-101405501D01*
X151467048Y-101528415D01*
X151467051Y-101528419D01*
X151571580Y-101632948D01*
X151571584Y-101632951D01*
X151694498Y-101715080D01*
X151694511Y-101715087D01*
X151831082Y-101771656D01*
X151831087Y-101771658D01*
X151831091Y-101771658D01*
X151831092Y-101771659D01*
X151976079Y-101800500D01*
X151976082Y-101800500D01*
X152123920Y-101800500D01*
X152221537Y-101781082D01*
X152268913Y-101771658D01*
X152396251Y-101718913D01*
X152405488Y-101715087D01*
X152405488Y-101715086D01*
X152405495Y-101715084D01*
X152528416Y-101632951D01*
X152632951Y-101528416D01*
X152715084Y-101405495D01*
X152771658Y-101268913D01*
X152796405Y-101144505D01*
X152800500Y-101123920D01*
X152800500Y-101073920D01*
X153999499Y-101073920D01*
X154028340Y-101218907D01*
X154028343Y-101218917D01*
X154084912Y-101355488D01*
X154084919Y-101355501D01*
X154167048Y-101478415D01*
X154167051Y-101478419D01*
X154271580Y-101582948D01*
X154271584Y-101582951D01*
X154394498Y-101665080D01*
X154394511Y-101665087D01*
X154531082Y-101721656D01*
X154531087Y-101721658D01*
X154531091Y-101721658D01*
X154531092Y-101721659D01*
X154676079Y-101750500D01*
X154676082Y-101750500D01*
X154823920Y-101750500D01*
X154921462Y-101731096D01*
X154968913Y-101721658D01*
X155104679Y-101665422D01*
X155174149Y-101657953D01*
X155236628Y-101689228D01*
X155272280Y-101749317D01*
X155273749Y-101804175D01*
X155249500Y-101926079D01*
X155249500Y-101926082D01*
X155249500Y-102073918D01*
X155249500Y-102073920D01*
X155249499Y-102073920D01*
X155278340Y-102218907D01*
X155278343Y-102218917D01*
X155334912Y-102355488D01*
X155334919Y-102355501D01*
X155417048Y-102478415D01*
X155417051Y-102478419D01*
X155521580Y-102582948D01*
X155521584Y-102582951D01*
X155644498Y-102665080D01*
X155644511Y-102665087D01*
X155781082Y-102721656D01*
X155781087Y-102721658D01*
X155781091Y-102721658D01*
X155781092Y-102721659D01*
X155926079Y-102750500D01*
X155926082Y-102750500D01*
X156073920Y-102750500D01*
X156171462Y-102731096D01*
X156218913Y-102721658D01*
X156355495Y-102665084D01*
X156478416Y-102582951D01*
X156582951Y-102478416D01*
X156665084Y-102355495D01*
X156721658Y-102218913D01*
X156732366Y-102165080D01*
X156750500Y-102073920D01*
X156750500Y-101926079D01*
X156721659Y-101781092D01*
X156721658Y-101781091D01*
X156721658Y-101781087D01*
X156717752Y-101771656D01*
X156665087Y-101644511D01*
X156665080Y-101644498D01*
X156582951Y-101521584D01*
X156582948Y-101521580D01*
X156478419Y-101417051D01*
X156478415Y-101417048D01*
X156355501Y-101334919D01*
X156355488Y-101334912D01*
X156218917Y-101278343D01*
X156218907Y-101278340D01*
X156073920Y-101249500D01*
X156073918Y-101249500D01*
X155926082Y-101249500D01*
X155926080Y-101249500D01*
X155781092Y-101278340D01*
X155781091Y-101278341D01*
X155781090Y-101278341D01*
X155781087Y-101278342D01*
X155721145Y-101303170D01*
X155645319Y-101334578D01*
X155575849Y-101342046D01*
X155513370Y-101310770D01*
X155477718Y-101250681D01*
X155476250Y-101195827D01*
X155500500Y-101073918D01*
X155500500Y-100926082D01*
X155500500Y-100926079D01*
X155471659Y-100781092D01*
X155471658Y-100781091D01*
X155471658Y-100781087D01*
X155466998Y-100769836D01*
X155415087Y-100644511D01*
X155415080Y-100644498D01*
X155330271Y-100517572D01*
X155309393Y-100450894D01*
X155327878Y-100383514D01*
X155364483Y-100345579D01*
X155436052Y-100297757D01*
X155478416Y-100269451D01*
X155582951Y-100164916D01*
X155665084Y-100041995D01*
X155721658Y-99905413D01*
X155750500Y-99760418D01*
X155750500Y-99612582D01*
X155750500Y-99612579D01*
X155721659Y-99467592D01*
X155721658Y-99467591D01*
X155721658Y-99467587D01*
X155709665Y-99438633D01*
X155665087Y-99331011D01*
X155665080Y-99330998D01*
X155582951Y-99208084D01*
X155582948Y-99208080D01*
X155478419Y-99103551D01*
X155478415Y-99103548D01*
X155355501Y-99021419D01*
X155355488Y-99021412D01*
X155218917Y-98964843D01*
X155218907Y-98964840D01*
X155073920Y-98936000D01*
X155073918Y-98936000D01*
X154926082Y-98936000D01*
X154926080Y-98936000D01*
X154781092Y-98964840D01*
X154781082Y-98964843D01*
X154644511Y-99021412D01*
X154644498Y-99021419D01*
X154521584Y-99103548D01*
X154521580Y-99103551D01*
X154417051Y-99208080D01*
X154417048Y-99208084D01*
X154334919Y-99330998D01*
X154334912Y-99331011D01*
X154278343Y-99467582D01*
X154278340Y-99467592D01*
X154249500Y-99612579D01*
X154249500Y-99612582D01*
X154249500Y-99760418D01*
X154249500Y-99760420D01*
X154249499Y-99760420D01*
X154278340Y-99905407D01*
X154278343Y-99905417D01*
X154334912Y-100041988D01*
X154334922Y-100042006D01*
X154419728Y-100168928D01*
X154440606Y-100235605D01*
X154422121Y-100302985D01*
X154385517Y-100340920D01*
X154271584Y-100417048D01*
X154271580Y-100417051D01*
X154167051Y-100521580D01*
X154167048Y-100521584D01*
X154084919Y-100644498D01*
X154084912Y-100644511D01*
X154028343Y-100781082D01*
X154028340Y-100781092D01*
X153999500Y-100926079D01*
X153999500Y-100926082D01*
X153999500Y-101073918D01*
X153999500Y-101073920D01*
X153999499Y-101073920D01*
X152800500Y-101073920D01*
X152800500Y-100976079D01*
X152794155Y-100944182D01*
X152771659Y-100831092D01*
X152771658Y-100831091D01*
X152771658Y-100831087D01*
X152758570Y-100799490D01*
X152715087Y-100694511D01*
X152715080Y-100694498D01*
X152632951Y-100571584D01*
X152632948Y-100571580D01*
X152528419Y-100467051D01*
X152528415Y-100467048D01*
X152405501Y-100384919D01*
X152405488Y-100384912D01*
X152268917Y-100328343D01*
X152268907Y-100328340D01*
X152123920Y-100299500D01*
X152123918Y-100299500D01*
X151976082Y-100299500D01*
X151976080Y-100299500D01*
X151831092Y-100328340D01*
X151831082Y-100328343D01*
X151694511Y-100384912D01*
X151694498Y-100384919D01*
X151571584Y-100467048D01*
X151571580Y-100467051D01*
X151467051Y-100571580D01*
X151467048Y-100571584D01*
X151384919Y-100694498D01*
X151384912Y-100694511D01*
X151328343Y-100831082D01*
X151328340Y-100831092D01*
X151299500Y-100976079D01*
X151299500Y-100976082D01*
X151299500Y-101123918D01*
X151299500Y-101123920D01*
X151299499Y-101123920D01*
X149651330Y-101123920D01*
X149594509Y-101038881D01*
X149582951Y-101021584D01*
X149582948Y-101021580D01*
X149478419Y-100917051D01*
X149478415Y-100917048D01*
X149355501Y-100834919D01*
X149355488Y-100834912D01*
X149218917Y-100778343D01*
X149218907Y-100778340D01*
X149073920Y-100749500D01*
X149073918Y-100749500D01*
X148926082Y-100749500D01*
X148926080Y-100749500D01*
X148781092Y-100778340D01*
X148781082Y-100778343D01*
X148644511Y-100834912D01*
X148644498Y-100834919D01*
X148521584Y-100917048D01*
X148521580Y-100917051D01*
X148417051Y-101021580D01*
X148417048Y-101021584D01*
X148334919Y-101144498D01*
X148334912Y-101144511D01*
X148278343Y-101281082D01*
X148278340Y-101281092D01*
X148249500Y-101426079D01*
X148249500Y-101426082D01*
X148249500Y-101573918D01*
X148249500Y-101573920D01*
X148249499Y-101573920D01*
X147250500Y-101573920D01*
X147250500Y-101426079D01*
X147221659Y-101281092D01*
X147221658Y-101281091D01*
X147221658Y-101281087D01*
X147216613Y-101268907D01*
X147165087Y-101144511D01*
X147165080Y-101144498D01*
X147082951Y-101021584D01*
X147082948Y-101021580D01*
X146978419Y-100917051D01*
X146978415Y-100917048D01*
X146882713Y-100853102D01*
X146837908Y-100799490D01*
X146829201Y-100730165D01*
X146859355Y-100667138D01*
X146882713Y-100646898D01*
X146931110Y-100614560D01*
X146978416Y-100582951D01*
X147082951Y-100478416D01*
X147165084Y-100355495D01*
X147221658Y-100218913D01*
X147232399Y-100164915D01*
X147250500Y-100073920D01*
X147250500Y-99926079D01*
X147221659Y-99781092D01*
X147221658Y-99781091D01*
X147221658Y-99781087D01*
X147221656Y-99781082D01*
X147165087Y-99644511D01*
X147165080Y-99644498D01*
X147082951Y-99521584D01*
X147082948Y-99521580D01*
X146978419Y-99417051D01*
X146978415Y-99417048D01*
X146855501Y-99334919D01*
X146855488Y-99334912D01*
X146718917Y-99278343D01*
X146718907Y-99278340D01*
X146573920Y-99249500D01*
X146573918Y-99249500D01*
X146426082Y-99249500D01*
X146426080Y-99249500D01*
X146281092Y-99278340D01*
X146281082Y-99278343D01*
X146144511Y-99334912D01*
X146144498Y-99334919D01*
X146021584Y-99417048D01*
X146021580Y-99417051D01*
X145917051Y-99521580D01*
X145917048Y-99521584D01*
X145853102Y-99617286D01*
X145799489Y-99662091D01*
X145730164Y-99670798D01*
X145667137Y-99640643D01*
X145646898Y-99617286D01*
X145582951Y-99521584D01*
X145582948Y-99521580D01*
X145478419Y-99417051D01*
X145478415Y-99417048D01*
X145355501Y-99334919D01*
X145355488Y-99334912D01*
X145218917Y-99278343D01*
X145218907Y-99278340D01*
X145073920Y-99249500D01*
X145073918Y-99249500D01*
X144926082Y-99249500D01*
X144926080Y-99249500D01*
X144781092Y-99278340D01*
X144781082Y-99278343D01*
X144644511Y-99334912D01*
X144644498Y-99334919D01*
X144568891Y-99385439D01*
X144502213Y-99406317D01*
X144434833Y-99387832D01*
X144431109Y-99385439D01*
X144355501Y-99334919D01*
X144355488Y-99334912D01*
X144218917Y-99278343D01*
X144218907Y-99278340D01*
X144073920Y-99249500D01*
X144073918Y-99249500D01*
X143926082Y-99249500D01*
X143926080Y-99249500D01*
X143781092Y-99278340D01*
X143781082Y-99278343D01*
X143644511Y-99334912D01*
X143644498Y-99334919D01*
X143521584Y-99417048D01*
X143521580Y-99417051D01*
X143417051Y-99521580D01*
X143417048Y-99521584D01*
X143334919Y-99644498D01*
X143334912Y-99644511D01*
X143278343Y-99781082D01*
X143278340Y-99781092D01*
X143249500Y-99926079D01*
X143249500Y-99926082D01*
X143249500Y-100073918D01*
X143249500Y-100073920D01*
X143249499Y-100073920D01*
X140500500Y-100073920D01*
X140500500Y-97573920D01*
X143019499Y-97573920D01*
X143048340Y-97718907D01*
X143048343Y-97718917D01*
X143104912Y-97855488D01*
X143104919Y-97855501D01*
X143187048Y-97978415D01*
X143187051Y-97978419D01*
X143291580Y-98082948D01*
X143291584Y-98082951D01*
X143414498Y-98165080D01*
X143414511Y-98165087D01*
X143496651Y-98199110D01*
X143551087Y-98221658D01*
X143551091Y-98221658D01*
X143551092Y-98221659D01*
X143696079Y-98250500D01*
X143696082Y-98250500D01*
X143843920Y-98250500D01*
X143941462Y-98231096D01*
X143988913Y-98221658D01*
X144125495Y-98165084D01*
X144248416Y-98082951D01*
X144352951Y-97978416D01*
X144435084Y-97855495D01*
X144491658Y-97718913D01*
X144520500Y-97573918D01*
X144520500Y-97426082D01*
X144520500Y-97426079D01*
X144500178Y-97323920D01*
X147499499Y-97323920D01*
X147528340Y-97468907D01*
X147528343Y-97468917D01*
X147584912Y-97605488D01*
X147584919Y-97605501D01*
X147667048Y-97728415D01*
X147667051Y-97728419D01*
X147771580Y-97832948D01*
X147771584Y-97832951D01*
X147894498Y-97915080D01*
X147894511Y-97915087D01*
X148031082Y-97971656D01*
X148031087Y-97971658D01*
X148031091Y-97971658D01*
X148031092Y-97971659D01*
X148176079Y-98000500D01*
X148176082Y-98000500D01*
X148323919Y-98000500D01*
X148346344Y-97996039D01*
X148377648Y-97989812D01*
X148447239Y-97996039D01*
X148502417Y-98038901D01*
X148525662Y-98104790D01*
X148509595Y-98172787D01*
X148489522Y-98199110D01*
X148417048Y-98271584D01*
X148334919Y-98394498D01*
X148334912Y-98394511D01*
X148278343Y-98531082D01*
X148278340Y-98531092D01*
X148249500Y-98676079D01*
X148249500Y-98676082D01*
X148249500Y-98823918D01*
X148249500Y-98823920D01*
X148249499Y-98823920D01*
X148278340Y-98968907D01*
X148278343Y-98968917D01*
X148334912Y-99105488D01*
X148334919Y-99105501D01*
X148417048Y-99228415D01*
X148417051Y-99228419D01*
X148521580Y-99332948D01*
X148521584Y-99332951D01*
X148644498Y-99415080D01*
X148644511Y-99415087D01*
X148771271Y-99467592D01*
X148781087Y-99471658D01*
X148781091Y-99471658D01*
X148781092Y-99471659D01*
X148926079Y-99500500D01*
X148926082Y-99500500D01*
X149073920Y-99500500D01*
X149171462Y-99481096D01*
X149218913Y-99471658D01*
X149350751Y-99417049D01*
X149355488Y-99415087D01*
X149355488Y-99415086D01*
X149355495Y-99415084D01*
X149478416Y-99332951D01*
X149582951Y-99228416D01*
X149665084Y-99105495D01*
X149665891Y-99103548D01*
X149699909Y-99021419D01*
X149721658Y-98968913D01*
X149750500Y-98823918D01*
X149750500Y-98676082D01*
X149750500Y-98676079D01*
X149721659Y-98531092D01*
X149721658Y-98531091D01*
X149721658Y-98531087D01*
X149710090Y-98503159D01*
X149665087Y-98394511D01*
X149665080Y-98394498D01*
X149582951Y-98271584D01*
X149582948Y-98271580D01*
X149519384Y-98208016D01*
X149485899Y-98146693D01*
X149490883Y-98077001D01*
X149532755Y-98021068D01*
X149582871Y-97998718D01*
X149718913Y-97971658D01*
X149855495Y-97915084D01*
X149978416Y-97832951D01*
X150082951Y-97728416D01*
X150165084Y-97605495D01*
X150178163Y-97573920D01*
X150999499Y-97573920D01*
X151028340Y-97718907D01*
X151028343Y-97718917D01*
X151084912Y-97855488D01*
X151084919Y-97855501D01*
X151167048Y-97978415D01*
X151167051Y-97978419D01*
X151271580Y-98082948D01*
X151271584Y-98082951D01*
X151394498Y-98165080D01*
X151394511Y-98165087D01*
X151476651Y-98199110D01*
X151531087Y-98221658D01*
X151531091Y-98221658D01*
X151531092Y-98221659D01*
X151676079Y-98250500D01*
X151676082Y-98250500D01*
X151823920Y-98250500D01*
X151921462Y-98231096D01*
X151968913Y-98221658D01*
X152105495Y-98165084D01*
X152228416Y-98082951D01*
X152332951Y-97978416D01*
X152415084Y-97855495D01*
X152415115Y-97855420D01*
X154249499Y-97855420D01*
X154278340Y-98000407D01*
X154278343Y-98000417D01*
X154334912Y-98136988D01*
X154334919Y-98137001D01*
X154417048Y-98259915D01*
X154417051Y-98259919D01*
X154521580Y-98364448D01*
X154521584Y-98364451D01*
X154644498Y-98446580D01*
X154644511Y-98446587D01*
X154781082Y-98503156D01*
X154781087Y-98503158D01*
X154781091Y-98503158D01*
X154781092Y-98503159D01*
X154926079Y-98532000D01*
X154926082Y-98532000D01*
X155073920Y-98532000D01*
X155171462Y-98512596D01*
X155218913Y-98503158D01*
X155355495Y-98446584D01*
X155478416Y-98364451D01*
X155582951Y-98259916D01*
X155665084Y-98136995D01*
X155721658Y-98000413D01*
X155738631Y-97915087D01*
X155750500Y-97855420D01*
X155750500Y-97707579D01*
X155721659Y-97562592D01*
X155721658Y-97562591D01*
X155721658Y-97562587D01*
X155665115Y-97426079D01*
X155665087Y-97426011D01*
X155665080Y-97425998D01*
X155582951Y-97303084D01*
X155582948Y-97303080D01*
X155478419Y-97198551D01*
X155478415Y-97198548D01*
X155355501Y-97116419D01*
X155355488Y-97116412D01*
X155218917Y-97059843D01*
X155218907Y-97059840D01*
X155073920Y-97031000D01*
X155073918Y-97031000D01*
X154926082Y-97031000D01*
X154926080Y-97031000D01*
X154781092Y-97059840D01*
X154781082Y-97059843D01*
X154644511Y-97116412D01*
X154644498Y-97116419D01*
X154521584Y-97198548D01*
X154521580Y-97198551D01*
X154417051Y-97303080D01*
X154417048Y-97303084D01*
X154334919Y-97425998D01*
X154334912Y-97426011D01*
X154278343Y-97562582D01*
X154278340Y-97562592D01*
X154249500Y-97707579D01*
X154249500Y-97707582D01*
X154249500Y-97855418D01*
X154249500Y-97855420D01*
X154249499Y-97855420D01*
X152415115Y-97855420D01*
X152471658Y-97718913D01*
X152500500Y-97573918D01*
X152500500Y-97426082D01*
X152500500Y-97426079D01*
X152471659Y-97281092D01*
X152471658Y-97281091D01*
X152471658Y-97281087D01*
X152471656Y-97281082D01*
X152415087Y-97144511D01*
X152415080Y-97144498D01*
X152332951Y-97021584D01*
X152332948Y-97021580D01*
X152228419Y-96917051D01*
X152228415Y-96917048D01*
X152105501Y-96834919D01*
X152105488Y-96834912D01*
X151968917Y-96778343D01*
X151968907Y-96778340D01*
X151823920Y-96749500D01*
X151823918Y-96749500D01*
X151676082Y-96749500D01*
X151676080Y-96749500D01*
X151531092Y-96778340D01*
X151531082Y-96778343D01*
X151394511Y-96834912D01*
X151394498Y-96834919D01*
X151271584Y-96917048D01*
X151271580Y-96917051D01*
X151167051Y-97021580D01*
X151167048Y-97021584D01*
X151084919Y-97144498D01*
X151084912Y-97144511D01*
X151028343Y-97281082D01*
X151028340Y-97281092D01*
X150999500Y-97426079D01*
X150999500Y-97426082D01*
X150999500Y-97573918D01*
X150999500Y-97573920D01*
X150999499Y-97573920D01*
X150178163Y-97573920D01*
X150221658Y-97468913D01*
X150250500Y-97323918D01*
X150250500Y-97176082D01*
X150250500Y-97176079D01*
X150221659Y-97031092D01*
X150221658Y-97031091D01*
X150221658Y-97031087D01*
X150174422Y-96917048D01*
X150165087Y-96894511D01*
X150165080Y-96894498D01*
X150082951Y-96771584D01*
X150082948Y-96771580D01*
X149978419Y-96667051D01*
X149978415Y-96667048D01*
X149855501Y-96584919D01*
X149855488Y-96584912D01*
X149718917Y-96528343D01*
X149718907Y-96528340D01*
X149573920Y-96499500D01*
X149573918Y-96499500D01*
X149426082Y-96499500D01*
X149426080Y-96499500D01*
X149281092Y-96528340D01*
X149281082Y-96528343D01*
X149144511Y-96584912D01*
X149144498Y-96584919D01*
X149021584Y-96667048D01*
X149021580Y-96667051D01*
X148962681Y-96725951D01*
X148901358Y-96759436D01*
X148831666Y-96754452D01*
X148787319Y-96725951D01*
X148728419Y-96667051D01*
X148728415Y-96667048D01*
X148605501Y-96584919D01*
X148605488Y-96584912D01*
X148468917Y-96528343D01*
X148468907Y-96528340D01*
X148323920Y-96499500D01*
X148323918Y-96499500D01*
X148176082Y-96499500D01*
X148176080Y-96499500D01*
X148031092Y-96528340D01*
X148031082Y-96528343D01*
X147894511Y-96584912D01*
X147894498Y-96584919D01*
X147771584Y-96667048D01*
X147771580Y-96667051D01*
X147667051Y-96771580D01*
X147667048Y-96771584D01*
X147584919Y-96894498D01*
X147584912Y-96894511D01*
X147528343Y-97031082D01*
X147528340Y-97031092D01*
X147499500Y-97176079D01*
X147499500Y-97176082D01*
X147499500Y-97323918D01*
X147499500Y-97323920D01*
X147499499Y-97323920D01*
X144500178Y-97323920D01*
X144491659Y-97281092D01*
X144491658Y-97281091D01*
X144491658Y-97281087D01*
X144491656Y-97281082D01*
X144465296Y-97217442D01*
X144435085Y-97144507D01*
X144435080Y-97144498D01*
X144352951Y-97021584D01*
X144352948Y-97021580D01*
X144248419Y-96917051D01*
X144248415Y-96917048D01*
X144125501Y-96834919D01*
X144125488Y-96834912D01*
X143988917Y-96778343D01*
X143988907Y-96778340D01*
X143843920Y-96749500D01*
X143843918Y-96749500D01*
X143696082Y-96749500D01*
X143696080Y-96749500D01*
X143551092Y-96778340D01*
X143551082Y-96778343D01*
X143414511Y-96834912D01*
X143414498Y-96834919D01*
X143291584Y-96917048D01*
X143291580Y-96917051D01*
X143187051Y-97021580D01*
X143187048Y-97021584D01*
X143104919Y-97144498D01*
X143104912Y-97144511D01*
X143048343Y-97281082D01*
X143048340Y-97281092D01*
X143019500Y-97426079D01*
X143019500Y-97426082D01*
X143019500Y-97573918D01*
X143019500Y-97573920D01*
X143019499Y-97573920D01*
X140500500Y-97573920D01*
X140500500Y-94993920D01*
X141194499Y-94993920D01*
X141223340Y-95138907D01*
X141223343Y-95138917D01*
X141279912Y-95275488D01*
X141279919Y-95275501D01*
X141362048Y-95398415D01*
X141362051Y-95398419D01*
X141466580Y-95502948D01*
X141466584Y-95502951D01*
X141589498Y-95585080D01*
X141589511Y-95585087D01*
X141726082Y-95641656D01*
X141726087Y-95641658D01*
X141726091Y-95641658D01*
X141726092Y-95641659D01*
X141871079Y-95670500D01*
X141871082Y-95670500D01*
X142018920Y-95670500D01*
X142116462Y-95651096D01*
X142163913Y-95641658D01*
X142300495Y-95585084D01*
X142423416Y-95502951D01*
X142527951Y-95398416D01*
X142610084Y-95275495D01*
X142666658Y-95138913D01*
X142676096Y-95091462D01*
X142695500Y-94993920D01*
X142695500Y-94846079D01*
X142666659Y-94701092D01*
X142666658Y-94701091D01*
X142666658Y-94701087D01*
X142656301Y-94676082D01*
X142610087Y-94564511D01*
X142610080Y-94564498D01*
X142527951Y-94441584D01*
X142527948Y-94441580D01*
X142423419Y-94337051D01*
X142423415Y-94337048D01*
X142300501Y-94254919D01*
X142300488Y-94254912D01*
X142163917Y-94198343D01*
X142163907Y-94198340D01*
X142018920Y-94169500D01*
X142018918Y-94169500D01*
X141871082Y-94169500D01*
X141871080Y-94169500D01*
X141726092Y-94198340D01*
X141726082Y-94198343D01*
X141589511Y-94254912D01*
X141589498Y-94254919D01*
X141466584Y-94337048D01*
X141466580Y-94337051D01*
X141362051Y-94441580D01*
X141362048Y-94441584D01*
X141279919Y-94564498D01*
X141279912Y-94564511D01*
X141223343Y-94701082D01*
X141223340Y-94701092D01*
X141194500Y-94846079D01*
X141194500Y-94846082D01*
X141194500Y-94993918D01*
X141194500Y-94993920D01*
X141194499Y-94993920D01*
X140500500Y-94993920D01*
X140500500Y-92453920D01*
X141194499Y-92453920D01*
X141223340Y-92598907D01*
X141223343Y-92598917D01*
X141279912Y-92735488D01*
X141279919Y-92735501D01*
X141362048Y-92858415D01*
X141362051Y-92858419D01*
X141466580Y-92962948D01*
X141466584Y-92962951D01*
X141589498Y-93045080D01*
X141589511Y-93045087D01*
X141659121Y-93073920D01*
X141726087Y-93101658D01*
X141726091Y-93101658D01*
X141726092Y-93101659D01*
X141871079Y-93130500D01*
X141871082Y-93130500D01*
X142018920Y-93130500D01*
X142116462Y-93111096D01*
X142163913Y-93101658D01*
X142300495Y-93045084D01*
X142423416Y-92962951D01*
X142527951Y-92858416D01*
X142610084Y-92735495D01*
X142615816Y-92721658D01*
X142663929Y-92605501D01*
X142666658Y-92598913D01*
X142682041Y-92521580D01*
X142695500Y-92453920D01*
X142695500Y-92306079D01*
X142666659Y-92161092D01*
X142666658Y-92161091D01*
X142666658Y-92161087D01*
X142666656Y-92161082D01*
X142610087Y-92024511D01*
X142610080Y-92024498D01*
X142527951Y-91901584D01*
X142527948Y-91901580D01*
X142423419Y-91797051D01*
X142423415Y-91797048D01*
X142300501Y-91714919D01*
X142300488Y-91714912D01*
X142163917Y-91658343D01*
X142163907Y-91658340D01*
X142018920Y-91629500D01*
X142018918Y-91629500D01*
X141871082Y-91629500D01*
X141871080Y-91629500D01*
X141726092Y-91658340D01*
X141726082Y-91658343D01*
X141589511Y-91714912D01*
X141589498Y-91714919D01*
X141466584Y-91797048D01*
X141466580Y-91797051D01*
X141362051Y-91901580D01*
X141362048Y-91901584D01*
X141279919Y-92024498D01*
X141279912Y-92024511D01*
X141223343Y-92161082D01*
X141223340Y-92161092D01*
X141194500Y-92306079D01*
X141194500Y-92306082D01*
X141194500Y-92453918D01*
X141194500Y-92453920D01*
X141194499Y-92453920D01*
X140500500Y-92453920D01*
X140500500Y-90573920D01*
X142749499Y-90573920D01*
X142778340Y-90718907D01*
X142778343Y-90718917D01*
X142834912Y-90855488D01*
X142834919Y-90855501D01*
X142917048Y-90978415D01*
X142917051Y-90978419D01*
X143021580Y-91082948D01*
X143021584Y-91082951D01*
X143144498Y-91165080D01*
X143144511Y-91165087D01*
X143281082Y-91221656D01*
X143281087Y-91221658D01*
X143281091Y-91221658D01*
X143281092Y-91221659D01*
X143426079Y-91250500D01*
X143426082Y-91250500D01*
X143573920Y-91250500D01*
X143676146Y-91230165D01*
X143718913Y-91221658D01*
X143855495Y-91165084D01*
X143978416Y-91082951D01*
X144082951Y-90978416D01*
X144146898Y-90882713D01*
X144200510Y-90837908D01*
X144269835Y-90829201D01*
X144332862Y-90859355D01*
X144353102Y-90882713D01*
X144417048Y-90978415D01*
X144417051Y-90978419D01*
X144521580Y-91082948D01*
X144521584Y-91082951D01*
X144617286Y-91146898D01*
X144662091Y-91200511D01*
X144670798Y-91269836D01*
X144640643Y-91332863D01*
X144617286Y-91353102D01*
X144521584Y-91417048D01*
X144521580Y-91417051D01*
X144417051Y-91521580D01*
X144417048Y-91521584D01*
X144334919Y-91644498D01*
X144334912Y-91644511D01*
X144278343Y-91781082D01*
X144278340Y-91781092D01*
X144249500Y-91926079D01*
X144249500Y-91926082D01*
X144249500Y-92073918D01*
X144249500Y-92073920D01*
X144249499Y-92073920D01*
X144278340Y-92218907D01*
X144278343Y-92218917D01*
X144334912Y-92355488D01*
X144334919Y-92355501D01*
X144417048Y-92478415D01*
X144417051Y-92478419D01*
X144521580Y-92582948D01*
X144521584Y-92582951D01*
X144644498Y-92665080D01*
X144644505Y-92665084D01*
X144723399Y-92697763D01*
X144777801Y-92741602D01*
X144799867Y-92807896D01*
X144782589Y-92875595D01*
X144763628Y-92900004D01*
X144667048Y-92996584D01*
X144584919Y-93119498D01*
X144584912Y-93119511D01*
X144528343Y-93256082D01*
X144528340Y-93256092D01*
X144499500Y-93401079D01*
X144499500Y-93401082D01*
X144499500Y-93548918D01*
X144499500Y-93548920D01*
X144499499Y-93548920D01*
X144528340Y-93693907D01*
X144528343Y-93693917D01*
X144584912Y-93830488D01*
X144584919Y-93830501D01*
X144667048Y-93953415D01*
X144667051Y-93953419D01*
X144771580Y-94057948D01*
X144771584Y-94057951D01*
X144894498Y-94140080D01*
X144894511Y-94140087D01*
X145031082Y-94196656D01*
X145031087Y-94196658D01*
X145031091Y-94196658D01*
X145031092Y-94196659D01*
X145176079Y-94225500D01*
X145176082Y-94225500D01*
X145323920Y-94225500D01*
X145421462Y-94206096D01*
X145468913Y-94196658D01*
X145605495Y-94140084D01*
X145728416Y-94057951D01*
X145774820Y-94011546D01*
X145836139Y-93978063D01*
X145905830Y-93983046D01*
X145950180Y-94011548D01*
X146021580Y-94082948D01*
X146021584Y-94082951D01*
X146144498Y-94165080D01*
X146144511Y-94165087D01*
X146224799Y-94198343D01*
X146281087Y-94221658D01*
X146281091Y-94221658D01*
X146281092Y-94221659D01*
X146426079Y-94250500D01*
X146426082Y-94250500D01*
X146573920Y-94250500D01*
X146699598Y-94225500D01*
X146718913Y-94221658D01*
X146850751Y-94167049D01*
X146855488Y-94165087D01*
X146855488Y-94165086D01*
X146855495Y-94165084D01*
X146978416Y-94082951D01*
X147082951Y-93978416D01*
X147085955Y-93973920D01*
X151899499Y-93973920D01*
X151928340Y-94118907D01*
X151928343Y-94118917D01*
X151984912Y-94255488D01*
X151984919Y-94255501D01*
X152067048Y-94378415D01*
X152067051Y-94378419D01*
X152171580Y-94482948D01*
X152171584Y-94482951D01*
X152294498Y-94565080D01*
X152294511Y-94565087D01*
X152431082Y-94621656D01*
X152431087Y-94621658D01*
X152431091Y-94621658D01*
X152431092Y-94621659D01*
X152464893Y-94628383D01*
X152526804Y-94660768D01*
X152561378Y-94721484D01*
X152557637Y-94791254D01*
X152516771Y-94847925D01*
X152464893Y-94871617D01*
X152431092Y-94878340D01*
X152431082Y-94878343D01*
X152294511Y-94934912D01*
X152294498Y-94934919D01*
X152171584Y-95017048D01*
X152171580Y-95017051D01*
X152067051Y-95121580D01*
X152067048Y-95121584D01*
X151984919Y-95244498D01*
X151984912Y-95244511D01*
X151928343Y-95381082D01*
X151928340Y-95381092D01*
X151899500Y-95526079D01*
X151899500Y-95526082D01*
X151899500Y-95673918D01*
X151899500Y-95673920D01*
X151899499Y-95673920D01*
X151928340Y-95818907D01*
X151928343Y-95818917D01*
X151984912Y-95955488D01*
X151984919Y-95955501D01*
X152067048Y-96078415D01*
X152067051Y-96078419D01*
X152171580Y-96182948D01*
X152171584Y-96182951D01*
X152294498Y-96265080D01*
X152294511Y-96265087D01*
X152431082Y-96321656D01*
X152431087Y-96321658D01*
X152431091Y-96321658D01*
X152431092Y-96321659D01*
X152576079Y-96350500D01*
X152576082Y-96350500D01*
X152723920Y-96350500D01*
X152821462Y-96331096D01*
X152868913Y-96321658D01*
X153005495Y-96265084D01*
X153128416Y-96182951D01*
X153232951Y-96078416D01*
X153315084Y-95955495D01*
X153371658Y-95818913D01*
X153400500Y-95673918D01*
X153400500Y-95526082D01*
X153400500Y-95526079D01*
X153371659Y-95381092D01*
X153371658Y-95381091D01*
X153371658Y-95381087D01*
X153371656Y-95381082D01*
X153315087Y-95244511D01*
X153315080Y-95244498D01*
X153232951Y-95121584D01*
X153232948Y-95121580D01*
X153128419Y-95017051D01*
X153128415Y-95017048D01*
X153005501Y-94934919D01*
X153005488Y-94934912D01*
X152868917Y-94878343D01*
X152868905Y-94878340D01*
X152835107Y-94871617D01*
X152773196Y-94839232D01*
X152764477Y-94823920D01*
X155249499Y-94823920D01*
X155278340Y-94968907D01*
X155278343Y-94968917D01*
X155334912Y-95105488D01*
X155334919Y-95105501D01*
X155417048Y-95228415D01*
X155417051Y-95228419D01*
X155521580Y-95332948D01*
X155521584Y-95332951D01*
X155644498Y-95415080D01*
X155644511Y-95415087D01*
X155781082Y-95471656D01*
X155781087Y-95471658D01*
X155781091Y-95471658D01*
X155781092Y-95471659D01*
X155926079Y-95500500D01*
X155926082Y-95500500D01*
X156073920Y-95500500D01*
X156171462Y-95481096D01*
X156218913Y-95471658D01*
X156355495Y-95415084D01*
X156478416Y-95332951D01*
X156582951Y-95228416D01*
X156665084Y-95105495D01*
X156711300Y-94993920D01*
X157359499Y-94993920D01*
X157388340Y-95138907D01*
X157388343Y-95138917D01*
X157444912Y-95275488D01*
X157444919Y-95275501D01*
X157527048Y-95398415D01*
X157527051Y-95398419D01*
X157631580Y-95502948D01*
X157631584Y-95502951D01*
X157754498Y-95585080D01*
X157754511Y-95585087D01*
X157891082Y-95641656D01*
X157891087Y-95641658D01*
X157891091Y-95641658D01*
X157891092Y-95641659D01*
X158036079Y-95670500D01*
X158036082Y-95670500D01*
X158183920Y-95670500D01*
X158281462Y-95651096D01*
X158328913Y-95641658D01*
X158465495Y-95585084D01*
X158588416Y-95502951D01*
X158692951Y-95398416D01*
X158775084Y-95275495D01*
X158831658Y-95138913D01*
X158841096Y-95091462D01*
X158860500Y-94993920D01*
X158860500Y-94846079D01*
X158831659Y-94701092D01*
X158831658Y-94701091D01*
X158831658Y-94701087D01*
X158821301Y-94676082D01*
X158775087Y-94564511D01*
X158775080Y-94564498D01*
X158692951Y-94441584D01*
X158692948Y-94441580D01*
X158588419Y-94337051D01*
X158588415Y-94337048D01*
X158465501Y-94254919D01*
X158465488Y-94254912D01*
X158328917Y-94198343D01*
X158328907Y-94198340D01*
X158183920Y-94169500D01*
X158183918Y-94169500D01*
X158036082Y-94169500D01*
X158036080Y-94169500D01*
X157891092Y-94198340D01*
X157891082Y-94198343D01*
X157754511Y-94254912D01*
X157754498Y-94254919D01*
X157631584Y-94337048D01*
X157631580Y-94337051D01*
X157527051Y-94441580D01*
X157527048Y-94441584D01*
X157444919Y-94564498D01*
X157444912Y-94564511D01*
X157388343Y-94701082D01*
X157388340Y-94701092D01*
X157359500Y-94846079D01*
X157359500Y-94846082D01*
X157359500Y-94993918D01*
X157359500Y-94993920D01*
X157359499Y-94993920D01*
X156711300Y-94993920D01*
X156721658Y-94968913D01*
X156750500Y-94823918D01*
X156750500Y-94676082D01*
X156750500Y-94676079D01*
X156721659Y-94531092D01*
X156721658Y-94531091D01*
X156721658Y-94531087D01*
X156721656Y-94531082D01*
X156665087Y-94394511D01*
X156665080Y-94394498D01*
X156582951Y-94271584D01*
X156582948Y-94271580D01*
X156478419Y-94167051D01*
X156478415Y-94167048D01*
X156355501Y-94084919D01*
X156355488Y-94084912D01*
X156218917Y-94028343D01*
X156218907Y-94028340D01*
X156073920Y-93999500D01*
X156073918Y-93999500D01*
X155926082Y-93999500D01*
X155926080Y-93999500D01*
X155781092Y-94028340D01*
X155781082Y-94028343D01*
X155644511Y-94084912D01*
X155644498Y-94084919D01*
X155521584Y-94167048D01*
X155521580Y-94167051D01*
X155417051Y-94271580D01*
X155417048Y-94271584D01*
X155334919Y-94394498D01*
X155334912Y-94394511D01*
X155278343Y-94531082D01*
X155278340Y-94531092D01*
X155249500Y-94676079D01*
X155249500Y-94676082D01*
X155249500Y-94823918D01*
X155249500Y-94823920D01*
X155249499Y-94823920D01*
X152764477Y-94823920D01*
X152738622Y-94778516D01*
X152742361Y-94708747D01*
X152783228Y-94652075D01*
X152815584Y-94633961D01*
X152825116Y-94630369D01*
X152868913Y-94621658D01*
X153005495Y-94565084D01*
X153128416Y-94482951D01*
X153232951Y-94378416D01*
X153315084Y-94255495D01*
X153315326Y-94254912D01*
X153350704Y-94169500D01*
X153371658Y-94118913D01*
X153393015Y-94011548D01*
X153400500Y-93973920D01*
X153400500Y-93826079D01*
X153371659Y-93681092D01*
X153371658Y-93681091D01*
X153371658Y-93681087D01*
X153327268Y-93573920D01*
X153315087Y-93544511D01*
X153315080Y-93544498D01*
X153232951Y-93421584D01*
X153232948Y-93421580D01*
X153128419Y-93317051D01*
X153128415Y-93317048D01*
X153005501Y-93234919D01*
X153005488Y-93234912D01*
X152868917Y-93178343D01*
X152868907Y-93178340D01*
X152723920Y-93149500D01*
X152723918Y-93149500D01*
X152576082Y-93149500D01*
X152576080Y-93149500D01*
X152431092Y-93178340D01*
X152431082Y-93178343D01*
X152294511Y-93234912D01*
X152294498Y-93234919D01*
X152171584Y-93317048D01*
X152171580Y-93317051D01*
X152067051Y-93421580D01*
X152067048Y-93421584D01*
X151984919Y-93544498D01*
X151984912Y-93544511D01*
X151928343Y-93681082D01*
X151928340Y-93681092D01*
X151899500Y-93826079D01*
X151899500Y-93826082D01*
X151899500Y-93973918D01*
X151899500Y-93973920D01*
X151899499Y-93973920D01*
X147085955Y-93973920D01*
X147165084Y-93855495D01*
X147221658Y-93718913D01*
X147232366Y-93665080D01*
X147250500Y-93573920D01*
X147250500Y-93426079D01*
X147221659Y-93281092D01*
X147221658Y-93281091D01*
X147221658Y-93281087D01*
X147202535Y-93234919D01*
X147165087Y-93144511D01*
X147165080Y-93144498D01*
X147117921Y-93073920D01*
X148999499Y-93073920D01*
X149028340Y-93218907D01*
X149028343Y-93218917D01*
X149084912Y-93355488D01*
X149084919Y-93355501D01*
X149167048Y-93478415D01*
X149167051Y-93478419D01*
X149271580Y-93582948D01*
X149271584Y-93582951D01*
X149394498Y-93665080D01*
X149394511Y-93665087D01*
X149531082Y-93721656D01*
X149531087Y-93721658D01*
X149531091Y-93721658D01*
X149531092Y-93721659D01*
X149676079Y-93750500D01*
X149676082Y-93750500D01*
X149823920Y-93750500D01*
X149921462Y-93731096D01*
X149968913Y-93721658D01*
X150105495Y-93665084D01*
X150228416Y-93582951D01*
X150332951Y-93478416D01*
X150415084Y-93355495D01*
X150471658Y-93218913D01*
X150481096Y-93171462D01*
X150500500Y-93073920D01*
X150500500Y-92926079D01*
X150471659Y-92781092D01*
X150471658Y-92781091D01*
X150471658Y-92781087D01*
X150466998Y-92769836D01*
X150415087Y-92644511D01*
X150415080Y-92644498D01*
X150332951Y-92521584D01*
X150332948Y-92521580D01*
X150228419Y-92417051D01*
X150228415Y-92417048D01*
X150105501Y-92334919D01*
X150105492Y-92334914D01*
X150078950Y-92323920D01*
X152999499Y-92323920D01*
X153028340Y-92468907D01*
X153028343Y-92468917D01*
X153084912Y-92605488D01*
X153084919Y-92605501D01*
X153167048Y-92728415D01*
X153167051Y-92728419D01*
X153271580Y-92832948D01*
X153271584Y-92832951D01*
X153394498Y-92915080D01*
X153394511Y-92915087D01*
X153531082Y-92971656D01*
X153531087Y-92971658D01*
X153531091Y-92971658D01*
X153531092Y-92971659D01*
X153676079Y-93000500D01*
X153676082Y-93000500D01*
X153823920Y-93000500D01*
X153921462Y-92981096D01*
X153968913Y-92971658D01*
X154100751Y-92917049D01*
X154105488Y-92915087D01*
X154105488Y-92915086D01*
X154105495Y-92915084D01*
X154228416Y-92832951D01*
X154332951Y-92728416D01*
X154415084Y-92605495D01*
X154471658Y-92468913D01*
X154498312Y-92334919D01*
X154500500Y-92323920D01*
X155249499Y-92323920D01*
X155278340Y-92468907D01*
X155278343Y-92468917D01*
X155334912Y-92605488D01*
X155334919Y-92605501D01*
X155417048Y-92728415D01*
X155417051Y-92728419D01*
X155521580Y-92832948D01*
X155521584Y-92832951D01*
X155644498Y-92915080D01*
X155644511Y-92915087D01*
X155781082Y-92971656D01*
X155781087Y-92971658D01*
X155781091Y-92971658D01*
X155781092Y-92971659D01*
X155926079Y-93000500D01*
X155926082Y-93000500D01*
X156073920Y-93000500D01*
X156171462Y-92981096D01*
X156218913Y-92971658D01*
X156350751Y-92917049D01*
X156355488Y-92915087D01*
X156355488Y-92915086D01*
X156355495Y-92915084D01*
X156478416Y-92832951D01*
X156582951Y-92728416D01*
X156665084Y-92605495D01*
X156721658Y-92468913D01*
X156748312Y-92334919D01*
X156750500Y-92323920D01*
X156750500Y-92176079D01*
X156721659Y-92031092D01*
X156721658Y-92031091D01*
X156721658Y-92031087D01*
X156678164Y-91926082D01*
X156665087Y-91894511D01*
X156665080Y-91894498D01*
X156582951Y-91771584D01*
X156582948Y-91771580D01*
X156478419Y-91667051D01*
X156478415Y-91667048D01*
X156355501Y-91584919D01*
X156355488Y-91584912D01*
X156218917Y-91528343D01*
X156218907Y-91528340D01*
X156073920Y-91499500D01*
X156073918Y-91499500D01*
X155926082Y-91499500D01*
X155926080Y-91499500D01*
X155781092Y-91528340D01*
X155781082Y-91528343D01*
X155644511Y-91584912D01*
X155644498Y-91584919D01*
X155521584Y-91667048D01*
X155521580Y-91667051D01*
X155417051Y-91771580D01*
X155417048Y-91771584D01*
X155334919Y-91894498D01*
X155334912Y-91894511D01*
X155278343Y-92031082D01*
X155278340Y-92031092D01*
X155249500Y-92176079D01*
X155249500Y-92176082D01*
X155249500Y-92323918D01*
X155249500Y-92323920D01*
X155249499Y-92323920D01*
X154500500Y-92323920D01*
X154500500Y-92176079D01*
X154471659Y-92031092D01*
X154471658Y-92031091D01*
X154471658Y-92031087D01*
X154428164Y-91926082D01*
X154415087Y-91894511D01*
X154415080Y-91894498D01*
X154332951Y-91771584D01*
X154332948Y-91771580D01*
X154228419Y-91667051D01*
X154228415Y-91667048D01*
X154105501Y-91584919D01*
X154105488Y-91584912D01*
X153968917Y-91528343D01*
X153968907Y-91528340D01*
X153823920Y-91499500D01*
X153823918Y-91499500D01*
X153676082Y-91499500D01*
X153676080Y-91499500D01*
X153531092Y-91528340D01*
X153531082Y-91528343D01*
X153394511Y-91584912D01*
X153394498Y-91584919D01*
X153271584Y-91667048D01*
X153271580Y-91667051D01*
X153167051Y-91771580D01*
X153167048Y-91771584D01*
X153084919Y-91894498D01*
X153084912Y-91894511D01*
X153028343Y-92031082D01*
X153028340Y-92031092D01*
X152999500Y-92176079D01*
X152999500Y-92176082D01*
X152999500Y-92323918D01*
X152999500Y-92323920D01*
X152999499Y-92323920D01*
X150078950Y-92323920D01*
X149983906Y-92284552D01*
X149983905Y-92284552D01*
X149968913Y-92278342D01*
X149968908Y-92278341D01*
X149968907Y-92278340D01*
X149823920Y-92249500D01*
X149823918Y-92249500D01*
X149676082Y-92249500D01*
X149676080Y-92249500D01*
X149531092Y-92278340D01*
X149531082Y-92278343D01*
X149394511Y-92334912D01*
X149394498Y-92334919D01*
X149271584Y-92417048D01*
X149271580Y-92417051D01*
X149167051Y-92521580D01*
X149167048Y-92521584D01*
X149084919Y-92644498D01*
X149084912Y-92644511D01*
X149028343Y-92781082D01*
X149028340Y-92781092D01*
X148999500Y-92926079D01*
X148999500Y-92926082D01*
X148999500Y-93073918D01*
X148999500Y-93073920D01*
X148999499Y-93073920D01*
X147117921Y-93073920D01*
X147082951Y-93021584D01*
X147082948Y-93021580D01*
X146978419Y-92917051D01*
X146978415Y-92917048D01*
X146882713Y-92853102D01*
X146837908Y-92799490D01*
X146829201Y-92730165D01*
X146859355Y-92667138D01*
X146882713Y-92646898D01*
X146944687Y-92605488D01*
X146978416Y-92582951D01*
X147082951Y-92478416D01*
X147165084Y-92355495D01*
X147221658Y-92218913D01*
X147233162Y-92161082D01*
X147250500Y-92073920D01*
X147250500Y-91926079D01*
X147221659Y-91781092D01*
X147221658Y-91781091D01*
X147221658Y-91781087D01*
X147217720Y-91771580D01*
X147165087Y-91644511D01*
X147165080Y-91644498D01*
X147082951Y-91521584D01*
X147082948Y-91521580D01*
X146978419Y-91417051D01*
X146978415Y-91417048D01*
X146855501Y-91334919D01*
X146855488Y-91334912D01*
X146718917Y-91278343D01*
X146718907Y-91278340D01*
X146573920Y-91249500D01*
X146573918Y-91249500D01*
X146426082Y-91249500D01*
X146426080Y-91249500D01*
X146281092Y-91278340D01*
X146281082Y-91278343D01*
X146144511Y-91334912D01*
X146144498Y-91334919D01*
X146021584Y-91417048D01*
X146021580Y-91417051D01*
X145917051Y-91521580D01*
X145917048Y-91521584D01*
X145853102Y-91617286D01*
X145799489Y-91662091D01*
X145730164Y-91670798D01*
X145667137Y-91640643D01*
X145646898Y-91617286D01*
X145582951Y-91521584D01*
X145582948Y-91521580D01*
X145478419Y-91417051D01*
X145478415Y-91417048D01*
X145382713Y-91353102D01*
X145337908Y-91299490D01*
X145329201Y-91230165D01*
X145359355Y-91167138D01*
X145382713Y-91146898D01*
X145420965Y-91121338D01*
X145478416Y-91082951D01*
X145582951Y-90978416D01*
X145665084Y-90855495D01*
X145721658Y-90718913D01*
X145731096Y-90671462D01*
X145750500Y-90573920D01*
X145750500Y-90426079D01*
X145721659Y-90281092D01*
X145721658Y-90281091D01*
X145721658Y-90281087D01*
X145677128Y-90173581D01*
X145665087Y-90144511D01*
X145665080Y-90144498D01*
X145582951Y-90021584D01*
X145582948Y-90021580D01*
X145478419Y-89917051D01*
X145478415Y-89917048D01*
X145355501Y-89834919D01*
X145355488Y-89834912D01*
X145218917Y-89778343D01*
X145218907Y-89778340D01*
X145073920Y-89749500D01*
X145073918Y-89749500D01*
X144926082Y-89749500D01*
X144926080Y-89749500D01*
X144781092Y-89778340D01*
X144781082Y-89778343D01*
X144644511Y-89834912D01*
X144644498Y-89834919D01*
X144521584Y-89917048D01*
X144521580Y-89917051D01*
X144417051Y-90021580D01*
X144417048Y-90021584D01*
X144353102Y-90117286D01*
X144299489Y-90162091D01*
X144230164Y-90170798D01*
X144167137Y-90140643D01*
X144146898Y-90117286D01*
X144082951Y-90021584D01*
X144082948Y-90021580D01*
X143978419Y-89917051D01*
X143978415Y-89917048D01*
X143855501Y-89834919D01*
X143855488Y-89834912D01*
X143718917Y-89778343D01*
X143718907Y-89778340D01*
X143573920Y-89749500D01*
X143573918Y-89749500D01*
X143426082Y-89749500D01*
X143426080Y-89749500D01*
X143281092Y-89778340D01*
X143281082Y-89778343D01*
X143144511Y-89834912D01*
X143144498Y-89834919D01*
X143021584Y-89917048D01*
X143021580Y-89917051D01*
X142917051Y-90021580D01*
X142917048Y-90021584D01*
X142834919Y-90144498D01*
X142834912Y-90144511D01*
X142778343Y-90281082D01*
X142778340Y-90281092D01*
X142749500Y-90426079D01*
X142749500Y-90426082D01*
X142749500Y-90573918D01*
X142749500Y-90573920D01*
X142749499Y-90573920D01*
X140500500Y-90573920D01*
X140500500Y-89291014D01*
X140520185Y-89223975D01*
X140572989Y-89178220D01*
X140642147Y-89168276D01*
X140671950Y-89176452D01*
X140781087Y-89221658D01*
X140781091Y-89221658D01*
X140781092Y-89221659D01*
X140926079Y-89250500D01*
X140926082Y-89250500D01*
X141073920Y-89250500D01*
X141171462Y-89231096D01*
X141218913Y-89221658D01*
X141347789Y-89168276D01*
X141355488Y-89165087D01*
X141355488Y-89165086D01*
X141355495Y-89165084D01*
X141478416Y-89082951D01*
X141582951Y-88978416D01*
X141665084Y-88855495D01*
X141721658Y-88718913D01*
X141731096Y-88671462D01*
X141750500Y-88573920D01*
X141750500Y-88426079D01*
X141721659Y-88281092D01*
X141721658Y-88281091D01*
X141721658Y-88281087D01*
X141676452Y-88171951D01*
X141668984Y-88102483D01*
X141700259Y-88040004D01*
X141760348Y-88004352D01*
X141791014Y-88000500D01*
X142458986Y-88000500D01*
X142526025Y-88020185D01*
G37*
%TD.AperFunction*%
%TD*%
M02*
