%TF.GenerationSoftware,KiCad,Pcbnew,9.0.4*%
%TF.CreationDate,2025-08-25T23:49:45+01:00*%
%TF.ProjectId,smol-slime-xiao,736d6f6c-2d73-46c6-996d-652d7869616f,1.0*%
%TF.SameCoordinates,Original*%
%TF.FileFunction,Soldermask,Top*%
%TF.FilePolarity,Negative*%
%FSLAX46Y46*%
G04 Gerber Fmt 4.6, Leading zero omitted, Abs format (unit mm)*
G04 Created by KiCad (PCBNEW 9.0.4) date 2025-08-25 23:49:45*
%MOMM*%
%LPD*%
G01*
G04 APERTURE LIST*
G04 Aperture macros list*
%AMRoundRect*
0 Rectangle with rounded corners*
0 $1 Rounding radius*
0 $2 $3 $4 $5 $6 $7 $8 $9 X,Y pos of 4 corners*
0 Add a 4 corners polygon primitive as box body*
4,1,4,$2,$3,$4,$5,$6,$7,$8,$9,$2,$3,0*
0 Add four circle primitives for the rounded corners*
1,1,$1+$1,$2,$3*
1,1,$1+$1,$4,$5*
1,1,$1+$1,$6,$7*
1,1,$1+$1,$8,$9*
0 Add four rect primitives between the rounded corners*
20,1,$1+$1,$2,$3,$4,$5,0*
20,1,$1+$1,$4,$5,$6,$7,0*
20,1,$1+$1,$6,$7,$8,$9,0*
20,1,$1+$1,$8,$9,$2,$3,0*%
G04 Aperture macros list end*
%ADD10C,0.060000*%
%ADD11C,0.000000*%
%ADD12C,0.010000*%
%ADD13C,1.700000*%
%ADD14RoundRect,0.200000X-0.275000X0.200000X-0.275000X-0.200000X0.275000X-0.200000X0.275000X0.200000X0*%
%ADD15R,1.000000X1.000000*%
%ADD16RoundRect,0.375000X1.325000X-0.375000X1.325000X0.375000X-1.325000X0.375000X-1.325000X-0.375000X0*%
%ADD17RoundRect,0.208333X1.541667X-0.291667X1.541667X0.291667X-1.541667X0.291667X-1.541667X-0.291667X0*%
%ADD18C,0.240000*%
%ADD19RoundRect,0.250000X0.450000X0.350000X-0.450000X0.350000X-0.450000X-0.350000X0.450000X-0.350000X0*%
%ADD20RoundRect,0.225000X-0.225000X-0.250000X0.225000X-0.250000X0.225000X0.250000X-0.225000X0.250000X0*%
%ADD21C,0.900000*%
%ADD22RoundRect,0.102000X0.350000X0.750000X-0.350000X0.750000X-0.350000X-0.750000X0.350000X-0.750000X0*%
%ADD23RoundRect,0.102000X0.500000X0.400000X-0.500000X0.400000X-0.500000X-0.400000X0.500000X-0.400000X0*%
%ADD24RoundRect,0.225000X-0.250000X0.225000X-0.250000X-0.225000X0.250000X-0.225000X0.250000X0.225000X0*%
G04 APERTURE END LIST*
D10*
G36*
X141449269Y-102167968D02*
G01*
X141428184Y-102166024D01*
X141409231Y-102160359D01*
X141391973Y-102151000D01*
X141376882Y-102138366D01*
X141363913Y-102122328D01*
X141353013Y-102102380D01*
X141345459Y-102080832D01*
X141340655Y-102055665D01*
X141338951Y-102026256D01*
X141340736Y-101993597D01*
X141345704Y-101966358D01*
X141353398Y-101943698D01*
X141364134Y-101922184D01*
X141376087Y-101903917D01*
X141389216Y-101888539D01*
X141435442Y-101930256D01*
X141420486Y-101950657D01*
X141409433Y-101972956D01*
X141402617Y-101997133D01*
X141400265Y-102024225D01*
X141401638Y-102041176D01*
X141405456Y-102054963D01*
X141411442Y-102066198D01*
X141419946Y-102075155D01*
X141430260Y-102080447D01*
X141442986Y-102082291D01*
X141455077Y-102080718D01*
X141464859Y-102076245D01*
X141472885Y-102068827D01*
X141482633Y-102052145D01*
X141494747Y-102018968D01*
X141509329Y-101978811D01*
X141524029Y-101950793D01*
X141538601Y-101932137D01*
X141552011Y-101920952D01*
X141567067Y-101912982D01*
X141584096Y-101908086D01*
X141603548Y-101906384D01*
X141624219Y-101908440D01*
X141642214Y-101914367D01*
X141658088Y-101924101D01*
X141671767Y-101937029D01*
X141683265Y-101952770D01*
X141692624Y-101971716D01*
X141699172Y-101991965D01*
X141703191Y-102013831D01*
X141704570Y-102037561D01*
X141703178Y-102064350D01*
X141699202Y-102088003D01*
X141692880Y-102108920D01*
X141683892Y-102128792D01*
X141672806Y-102146562D01*
X141659584Y-102162433D01*
X141614854Y-102123495D01*
X141627852Y-102105065D01*
X141636845Y-102085539D01*
X141642224Y-102064948D01*
X141644004Y-102044079D01*
X141642916Y-102028518D01*
X141639926Y-102016070D01*
X141635327Y-102006145D01*
X141628579Y-101998133D01*
X141620256Y-101993454D01*
X141609832Y-101991826D01*
X141599519Y-101993445D01*
X141591239Y-101998110D01*
X141584431Y-102005935D01*
X141577027Y-102019972D01*
X141561597Y-102063185D01*
X141550195Y-102094590D01*
X141537575Y-102119584D01*
X141527267Y-102134294D01*
X141515610Y-102146176D01*
X141502527Y-102155530D01*
X141487956Y-102162195D01*
X141470415Y-102166447D01*
X141449269Y-102167968D01*
G37*
G36*
X141443854Y-102203584D02*
G01*
X141461616Y-102209973D01*
X141476856Y-102220432D01*
X141489982Y-102235395D01*
X141499665Y-102252679D01*
X141507056Y-102273882D01*
X141511860Y-102299777D01*
X141513597Y-102331266D01*
X141513597Y-102367191D01*
X141523641Y-102367191D01*
X141538320Y-102365103D01*
X141549172Y-102359324D01*
X141557184Y-102349790D01*
X141562550Y-102335438D01*
X141564610Y-102314425D01*
X141563803Y-102300761D01*
X141560956Y-102281492D01*
X141556556Y-102261496D01*
X141550526Y-102241314D01*
X141603313Y-102222956D01*
X141611885Y-102249280D01*
X141618124Y-102276855D01*
X141621973Y-102304233D01*
X141623146Y-102326992D01*
X141621310Y-102357415D01*
X141616309Y-102381484D01*
X141608728Y-102400375D01*
X141598890Y-102415063D01*
X141585832Y-102427251D01*
X141570204Y-102436077D01*
X141551479Y-102441622D01*
X141528920Y-102443593D01*
X141424393Y-102443593D01*
X141410461Y-102444815D01*
X141402530Y-102447739D01*
X141396717Y-102452980D01*
X141392230Y-102461182D01*
X141339955Y-102444854D01*
X141343878Y-102422383D01*
X141350385Y-102404997D01*
X141360581Y-102390598D01*
X141375133Y-102379501D01*
X141364036Y-102368435D01*
X141354968Y-102355453D01*
X141347863Y-102340306D01*
X141341953Y-102318956D01*
X141395756Y-102318956D01*
X141397562Y-102331692D01*
X141403407Y-102345820D01*
X141412693Y-102358221D01*
X141425141Y-102367191D01*
X141468375Y-102367191D01*
X141468375Y-102347594D01*
X141466990Y-102325527D01*
X141463384Y-102309786D01*
X141458181Y-102298846D01*
X141450351Y-102290189D01*
X141440635Y-102285063D01*
X141428411Y-102283266D01*
X141418606Y-102284394D01*
X141410755Y-102287559D01*
X141404411Y-102292691D01*
X141398078Y-102303501D01*
X141395756Y-102318956D01*
X141341953Y-102318956D01*
X141341166Y-102316113D01*
X141338951Y-102291558D01*
X141340559Y-102271136D01*
X141345122Y-102253704D01*
X141352412Y-102238738D01*
X141362438Y-102225842D01*
X141374950Y-102215182D01*
X141388972Y-102207608D01*
X141404806Y-102202963D01*
X141422876Y-102201350D01*
X141443854Y-102203584D01*
G37*
G36*
X141347500Y-102520188D02*
G01*
X141614362Y-102520188D01*
X141614362Y-102589538D01*
X141583459Y-102595073D01*
X141601337Y-102613881D01*
X141613336Y-102632772D01*
X141620610Y-102653623D01*
X141623146Y-102677993D01*
X141620653Y-102699879D01*
X141613647Y-102717477D01*
X141602288Y-102731763D01*
X141587265Y-102742265D01*
X141568067Y-102748938D01*
X141543495Y-102751361D01*
X141347500Y-102751361D01*
X141347500Y-102671966D01*
X141520628Y-102671966D01*
X141543299Y-102670313D01*
X141554929Y-102666560D01*
X141560123Y-102662149D01*
X141563391Y-102655669D01*
X141564610Y-102646342D01*
X141562650Y-102634221D01*
X141556553Y-102622342D01*
X141547334Y-102611337D01*
X141534199Y-102599603D01*
X141347500Y-102599603D01*
X141347500Y-102520188D01*
G37*
G36*
X141508930Y-102807884D02*
G01*
X141533170Y-102812225D01*
X141554801Y-102819172D01*
X141575023Y-102829227D01*
X141591577Y-102841449D01*
X141604938Y-102855866D01*
X141614960Y-102872579D01*
X141621044Y-102891328D01*
X141623146Y-102912649D01*
X141621558Y-102930176D01*
X141616940Y-102945889D01*
X141609330Y-102960149D01*
X141598526Y-102973216D01*
X141728698Y-102973216D01*
X141720406Y-103052610D01*
X141347500Y-103052610D01*
X141347500Y-102982256D01*
X141376906Y-102978238D01*
X141362618Y-102965576D01*
X141350128Y-102948831D01*
X141344070Y-102936161D01*
X141342350Y-102929490D01*
X141397252Y-102929490D01*
X141399309Y-102942161D01*
X141405544Y-102953725D01*
X141415066Y-102963829D01*
X141428155Y-102973216D01*
X141543239Y-102973216D01*
X141552617Y-102964460D01*
X141559331Y-102955627D01*
X141563616Y-102945736D01*
X141565102Y-102934021D01*
X141562988Y-102921317D01*
X141556713Y-102910437D01*
X141545632Y-102900853D01*
X141531923Y-102894531D01*
X141511243Y-102890042D01*
X141481177Y-102888286D01*
X141450111Y-102889803D01*
X141430035Y-102893565D01*
X141413768Y-102900310D01*
X141404539Y-102908140D01*
X141399083Y-102918099D01*
X141397252Y-102929490D01*
X141342350Y-102929490D01*
X141340284Y-102921477D01*
X141338951Y-102904357D01*
X141341065Y-102882882D01*
X141347071Y-102864813D01*
X141356796Y-102849455D01*
X141369852Y-102836528D01*
X141386285Y-102825710D01*
X141406676Y-102817034D01*
X141428289Y-102811304D01*
X141453140Y-102807658D01*
X141481690Y-102806370D01*
X141508930Y-102807884D01*
G37*
G36*
X141347500Y-103125208D02*
G01*
X141400778Y-103125208D01*
X141400778Y-103160385D01*
X141561597Y-103160385D01*
X141561597Y-103125208D01*
X141614362Y-103125208D01*
X141614362Y-103220930D01*
X141554309Y-103235505D01*
X141576302Y-103246539D01*
X141593098Y-103258749D01*
X141605557Y-103272071D01*
X141614762Y-103287663D01*
X141620421Y-103305607D01*
X141622398Y-103326482D01*
X141620261Y-103350589D01*
X141614362Y-103370443D01*
X141502783Y-103355633D01*
X141502783Y-103305880D01*
X141552044Y-103305880D01*
X141547666Y-103291696D01*
X141539662Y-103278543D01*
X141527531Y-103266151D01*
X141513232Y-103255876D01*
X141496546Y-103247065D01*
X141477159Y-103239779D01*
X141400778Y-103239779D01*
X141400778Y-103292545D01*
X141347500Y-103292545D01*
X141347500Y-103125208D01*
G37*
G36*
X141443854Y-103408581D02*
G01*
X141461616Y-103414969D01*
X141476856Y-103425429D01*
X141489982Y-103440391D01*
X141499665Y-103457675D01*
X141507056Y-103478879D01*
X141511860Y-103504774D01*
X141513597Y-103536263D01*
X141513597Y-103572188D01*
X141523641Y-103572188D01*
X141538320Y-103570100D01*
X141549172Y-103564320D01*
X141557184Y-103554787D01*
X141562550Y-103540434D01*
X141564610Y-103519422D01*
X141563803Y-103505757D01*
X141560956Y-103486489D01*
X141556556Y-103466492D01*
X141550526Y-103446311D01*
X141603313Y-103427953D01*
X141611885Y-103454277D01*
X141618124Y-103481851D01*
X141621973Y-103509230D01*
X141623146Y-103531988D01*
X141621310Y-103562411D01*
X141616309Y-103586480D01*
X141608728Y-103605371D01*
X141598890Y-103620059D01*
X141585832Y-103632247D01*
X141570204Y-103641074D01*
X141551479Y-103646618D01*
X141528920Y-103648590D01*
X141424393Y-103648590D01*
X141410461Y-103649812D01*
X141402530Y-103652736D01*
X141396717Y-103657977D01*
X141392230Y-103666178D01*
X141339955Y-103649851D01*
X141343878Y-103627380D01*
X141350385Y-103609993D01*
X141360581Y-103595594D01*
X141375133Y-103584497D01*
X141364036Y-103573431D01*
X141354968Y-103560449D01*
X141347863Y-103545303D01*
X141341953Y-103523953D01*
X141395756Y-103523953D01*
X141397562Y-103536689D01*
X141403407Y-103550816D01*
X141412693Y-103563218D01*
X141425141Y-103572188D01*
X141468375Y-103572188D01*
X141468375Y-103552590D01*
X141466990Y-103530524D01*
X141463384Y-103514783D01*
X141458181Y-103503842D01*
X141450351Y-103495186D01*
X141440635Y-103490060D01*
X141428411Y-103488263D01*
X141418606Y-103489390D01*
X141410755Y-103492556D01*
X141404411Y-103497687D01*
X141398078Y-103508498D01*
X141395756Y-103523953D01*
X141341953Y-103523953D01*
X141341166Y-103521109D01*
X141338951Y-103496555D01*
X141340559Y-103476133D01*
X141345122Y-103458700D01*
X141352412Y-103443735D01*
X141362438Y-103430838D01*
X141374950Y-103420179D01*
X141388972Y-103412604D01*
X141404806Y-103407960D01*
X141422876Y-103406347D01*
X141443854Y-103408581D01*
G37*
G36*
X141695787Y-104129721D02*
G01*
X141693703Y-104164802D01*
X141687730Y-104195929D01*
X141680874Y-104215308D01*
X141671693Y-104231397D01*
X141660225Y-104244677D01*
X141646206Y-104254644D01*
X141628728Y-104260896D01*
X141606818Y-104263141D01*
X141586850Y-104260876D01*
X141570540Y-104254471D01*
X141557066Y-104244036D01*
X141545974Y-104230534D01*
X141537641Y-104215702D01*
X141531933Y-104199327D01*
X141527553Y-104217671D01*
X141520243Y-104236128D01*
X141509529Y-104252722D01*
X141494491Y-104266283D01*
X141482544Y-104272670D01*
X141467783Y-104276756D01*
X141449526Y-104278230D01*
X141429695Y-104276816D01*
X141413221Y-104272864D01*
X141399517Y-104266668D01*
X141387210Y-104257992D01*
X141376875Y-104247490D01*
X141368358Y-104234995D01*
X141358810Y-104213850D01*
X141352265Y-104189133D01*
X141348715Y-104162992D01*
X141347500Y-104134999D01*
X141347500Y-104132221D01*
X141407553Y-104132221D01*
X141408427Y-104147989D01*
X141410951Y-104162248D01*
X141416030Y-104174989D01*
X141424137Y-104184730D01*
X141431172Y-104189248D01*
X141440500Y-104192191D01*
X141452796Y-104193279D01*
X141470455Y-104191249D01*
X141482689Y-104185876D01*
X141490986Y-104177571D01*
X141496602Y-104166620D01*
X141500227Y-104152903D01*
X141501543Y-104135747D01*
X141501543Y-104129721D01*
X141556810Y-104129721D01*
X141558130Y-104147299D01*
X141561572Y-104159715D01*
X141566598Y-104168274D01*
X141573986Y-104174607D01*
X141584294Y-104178697D01*
X141598526Y-104180221D01*
X141611611Y-104178617D01*
X141621242Y-104174244D01*
X141628296Y-104167270D01*
X141633019Y-104158136D01*
X141636252Y-104145180D01*
X141637486Y-104127199D01*
X141637486Y-104101810D01*
X141556810Y-104101810D01*
X141556810Y-104129721D01*
X141501543Y-104129721D01*
X141501543Y-104101810D01*
X141407553Y-104101810D01*
X141407553Y-104132221D01*
X141347500Y-104132221D01*
X141347500Y-104019402D01*
X141695787Y-104019402D01*
X141695787Y-104129721D01*
G37*
G36*
X141754066Y-104442767D02*
G01*
X141752566Y-104455976D01*
X141748283Y-104467036D01*
X141741243Y-104476426D01*
X141732023Y-104483684D01*
X141721524Y-104488014D01*
X141709336Y-104489506D01*
X141697158Y-104488017D01*
X141686612Y-104483690D01*
X141677301Y-104476426D01*
X141670198Y-104467028D01*
X141665881Y-104455968D01*
X141664371Y-104442767D01*
X141665885Y-104429390D01*
X141670206Y-104418205D01*
X141677301Y-104408722D01*
X141686620Y-104401395D01*
X141697165Y-104397035D01*
X141709336Y-104395536D01*
X141721516Y-104397039D01*
X141732016Y-104401401D01*
X141741243Y-104408722D01*
X141748275Y-104418198D01*
X141752563Y-104429383D01*
X141754066Y-104442767D01*
G37*
G36*
X141614362Y-104490767D02*
G01*
X141401782Y-104490767D01*
X141401782Y-104558620D01*
X141347500Y-104558620D01*
X141347500Y-104335718D01*
X141401782Y-104335718D01*
X141401782Y-104411372D01*
X141560079Y-104411372D01*
X141560079Y-104338240D01*
X141614362Y-104338240D01*
X141614362Y-104490767D01*
G37*
G36*
X141395756Y-104735980D02*
G01*
X141397477Y-104754690D01*
X141402018Y-104768016D01*
X141407061Y-104774933D01*
X141413217Y-104778855D01*
X141420867Y-104780197D01*
X141428842Y-104778965D01*
X141435186Y-104775432D01*
X141440358Y-104769258D01*
X141446256Y-104757095D01*
X141458822Y-104716874D01*
X141466681Y-104692980D01*
X141476106Y-104673289D01*
X141486947Y-104657206D01*
X141496924Y-104647351D01*
X141508911Y-104640247D01*
X141523316Y-104635794D01*
X141540738Y-104634210D01*
X141557827Y-104636076D01*
X141573098Y-104641537D01*
X141586989Y-104650681D01*
X141599766Y-104663981D01*
X141609370Y-104679257D01*
X141616675Y-104698166D01*
X141621425Y-104721460D01*
X141623146Y-104750043D01*
X141622039Y-104773738D01*
X141618905Y-104794337D01*
X141613978Y-104812233D01*
X141603352Y-104837420D01*
X141590747Y-104858096D01*
X141544008Y-104826445D01*
X141553245Y-104809290D01*
X141560464Y-104790755D01*
X141565093Y-104771520D01*
X141566619Y-104752308D01*
X141564796Y-104732969D01*
X141560384Y-104721846D01*
X141554233Y-104716045D01*
X141546017Y-104714118D01*
X141539710Y-104715335D01*
X141534327Y-104719012D01*
X141529855Y-104725210D01*
X141524282Y-104737476D01*
X141511588Y-104777184D01*
X141503483Y-104802068D01*
X141494747Y-104822277D01*
X141483409Y-104839555D01*
X141469230Y-104852069D01*
X141458117Y-104857694D01*
X141444305Y-104861315D01*
X141427150Y-104862626D01*
X141408374Y-104860610D01*
X141392276Y-104854814D01*
X141378274Y-104845273D01*
X141366457Y-104832759D01*
X141356610Y-104817571D01*
X141348739Y-104799303D01*
X141341472Y-104769753D01*
X141338951Y-104736493D01*
X141340267Y-104710859D01*
X141344024Y-104688195D01*
X141350000Y-104668127D01*
X141363074Y-104640256D01*
X141379172Y-104617626D01*
X141423880Y-104657591D01*
X141412927Y-104674039D01*
X141403791Y-104692896D01*
X141397810Y-104713287D01*
X141395756Y-104735980D01*
G37*
G36*
X141401526Y-105071659D02*
G01*
X141403142Y-105087577D01*
X141407937Y-105102433D01*
X141415153Y-105116666D01*
X141424393Y-105131199D01*
X141374128Y-105166632D01*
X141360565Y-105147556D01*
X141348995Y-105123783D01*
X141343511Y-105106685D01*
X141340121Y-105087966D01*
X141338951Y-105067384D01*
X141341056Y-105039192D01*
X141347055Y-105014775D01*
X141356668Y-104993504D01*
X141370056Y-104974442D01*
X141386374Y-104958705D01*
X141405907Y-104946017D01*
X141427508Y-104936982D01*
X141451763Y-104931382D01*
X141479168Y-104929433D01*
X141506560Y-104931405D01*
X141531160Y-104937110D01*
X141553411Y-104946380D01*
X141573637Y-104959344D01*
X141590586Y-104975345D01*
X141604553Y-104994637D01*
X141614674Y-105016206D01*
X141620952Y-105040756D01*
X141623146Y-105068902D01*
X141620940Y-105098271D01*
X141614726Y-105123035D01*
X141604321Y-105145736D01*
X141589743Y-105166632D01*
X141541999Y-105132225D01*
X141550500Y-105118211D01*
X141556810Y-105103566D01*
X141560761Y-105088224D01*
X141562088Y-105072150D01*
X141559900Y-105055093D01*
X141553612Y-105040873D01*
X141543111Y-105028809D01*
X141529381Y-105020411D01*
X141508881Y-105014604D01*
X141479168Y-105012353D01*
X141451485Y-105014539D01*
X141432792Y-105020132D01*
X141417981Y-105029620D01*
X141408685Y-105041375D01*
X141403361Y-105055480D01*
X141401526Y-105071659D01*
G37*
G36*
X141614362Y-105310846D02*
G01*
X141431681Y-105310846D01*
X141414223Y-105312959D01*
X141405052Y-105318005D01*
X141399696Y-105326281D01*
X141397765Y-105337966D01*
X141399629Y-105350034D01*
X141405544Y-105362607D01*
X141414628Y-105373819D01*
X141426659Y-105383209D01*
X141614362Y-105383209D01*
X141614362Y-105462603D01*
X141347500Y-105462603D01*
X141347500Y-105393253D01*
X141378659Y-105389748D01*
X141366659Y-105379757D01*
X141356816Y-105367929D01*
X141348995Y-105354058D01*
X141341457Y-105331420D01*
X141338951Y-105307832D01*
X141340552Y-105288591D01*
X141344995Y-105273036D01*
X141351959Y-105260440D01*
X141361434Y-105250279D01*
X141377425Y-105240142D01*
X141397234Y-105233734D01*
X141421871Y-105231430D01*
X141614362Y-105231430D01*
X141614362Y-105310846D01*
G37*
G36*
X141754066Y-105647763D02*
G01*
X141752566Y-105660972D01*
X141748283Y-105672032D01*
X141741243Y-105681423D01*
X141732023Y-105688681D01*
X141721524Y-105693010D01*
X141709336Y-105694502D01*
X141697158Y-105693014D01*
X141686612Y-105688687D01*
X141677301Y-105681423D01*
X141670198Y-105672024D01*
X141665881Y-105660965D01*
X141664371Y-105647763D01*
X141665885Y-105634387D01*
X141670206Y-105623202D01*
X141677301Y-105613719D01*
X141686620Y-105606391D01*
X141697165Y-105602032D01*
X141709336Y-105600533D01*
X141721516Y-105602035D01*
X141732016Y-105606397D01*
X141741243Y-105613719D01*
X141748275Y-105623194D01*
X141752563Y-105634379D01*
X141754066Y-105647763D01*
G37*
G36*
X141614362Y-105695763D02*
G01*
X141401782Y-105695763D01*
X141401782Y-105763617D01*
X141347500Y-105763617D01*
X141347500Y-105540715D01*
X141401782Y-105540715D01*
X141401782Y-105616369D01*
X141560079Y-105616369D01*
X141560079Y-105543237D01*
X141614362Y-105543237D01*
X141614362Y-105695763D01*
G37*
G36*
X141363079Y-106074162D02*
G01*
X141354038Y-106057497D01*
X141346004Y-106036464D01*
X141340793Y-106013512D01*
X141338951Y-105986711D01*
X141340901Y-105960448D01*
X141346275Y-105939373D01*
X141354592Y-105922494D01*
X141365708Y-105909048D01*
X141379769Y-105898270D01*
X141396247Y-105890391D01*
X141415606Y-105885435D01*
X141438456Y-105883681D01*
X141559588Y-105883681D01*
X141559588Y-105827645D01*
X141614362Y-105827645D01*
X141614362Y-105883681D01*
X141672150Y-105883681D01*
X141681703Y-105963096D01*
X141614362Y-105963096D01*
X141614362Y-106049030D01*
X141559588Y-106041229D01*
X141559588Y-105963096D01*
X141438456Y-105963096D01*
X141425520Y-105964290D01*
X141416383Y-105967429D01*
X141410053Y-105972136D01*
X141405616Y-105978717D01*
X141402650Y-105988042D01*
X141401526Y-106001030D01*
X141402402Y-106014749D01*
X141404903Y-106026782D01*
X141408842Y-106038045D01*
X141413579Y-106047769D01*
X141363079Y-106074162D01*
G37*
G36*
X140807756Y-101120990D02*
G01*
X140809477Y-101139700D01*
X140814018Y-101153026D01*
X140819061Y-101159943D01*
X140825217Y-101163865D01*
X140832867Y-101165207D01*
X140840842Y-101163975D01*
X140847186Y-101160441D01*
X140852358Y-101154268D01*
X140858256Y-101142105D01*
X140870822Y-101101884D01*
X140878681Y-101077990D01*
X140888106Y-101058299D01*
X140898947Y-101042216D01*
X140908924Y-101032361D01*
X140920911Y-101025257D01*
X140935316Y-101020804D01*
X140952738Y-101019220D01*
X140969827Y-101021086D01*
X140985098Y-101026547D01*
X140998989Y-101035691D01*
X141011766Y-101048990D01*
X141021370Y-101064267D01*
X141028675Y-101083176D01*
X141033425Y-101106470D01*
X141035146Y-101135052D01*
X141034039Y-101158748D01*
X141030905Y-101179347D01*
X141025978Y-101197243D01*
X141015352Y-101222430D01*
X141002747Y-101243105D01*
X140956008Y-101211455D01*
X140965245Y-101194300D01*
X140972464Y-101175765D01*
X140977093Y-101156530D01*
X140978619Y-101137318D01*
X140976796Y-101117979D01*
X140972384Y-101106856D01*
X140966233Y-101101055D01*
X140958017Y-101099127D01*
X140951710Y-101100345D01*
X140946327Y-101104021D01*
X140941855Y-101110220D01*
X140936282Y-101122486D01*
X140923588Y-101162194D01*
X140915483Y-101187078D01*
X140906747Y-101207287D01*
X140895409Y-101224565D01*
X140881230Y-101237079D01*
X140870117Y-101242704D01*
X140856305Y-101246325D01*
X140839150Y-101247636D01*
X140820374Y-101245620D01*
X140804276Y-101239824D01*
X140790274Y-101230283D01*
X140778457Y-101217769D01*
X140768610Y-101202581D01*
X140760739Y-101184313D01*
X140753472Y-101154763D01*
X140750951Y-101121503D01*
X140752267Y-101095869D01*
X140756024Y-101073205D01*
X140762000Y-101053136D01*
X140775074Y-101025265D01*
X140791172Y-101002636D01*
X140835880Y-101042600D01*
X140824927Y-101059049D01*
X140815791Y-101077906D01*
X140809810Y-101098296D01*
X140807756Y-101120990D01*
G37*
G36*
X141035146Y-101512447D02*
G01*
X141032900Y-101530466D01*
X141026696Y-101544136D01*
X141016681Y-101554527D01*
X141003554Y-101561515D01*
X140984347Y-101566358D01*
X140957013Y-101568226D01*
X140759500Y-101568226D01*
X140759500Y-101500137D01*
X140947951Y-101500137D01*
X140960970Y-101499329D01*
X140967805Y-101497487D01*
X140972051Y-101493683D01*
X140973597Y-101486823D01*
X140972726Y-101480599D01*
X140969942Y-101473872D01*
X140965177Y-101467391D01*
X140956243Y-101459169D01*
X140759500Y-101459169D01*
X140759500Y-101403390D01*
X140947951Y-101403390D01*
X140960970Y-101402582D01*
X140967805Y-101400740D01*
X140972051Y-101396935D01*
X140973597Y-101390076D01*
X140972726Y-101383852D01*
X140969942Y-101377125D01*
X140965176Y-101370647D01*
X140956243Y-101362443D01*
X140759500Y-101362443D01*
X140759500Y-101293328D01*
X141026362Y-101293328D01*
X141026362Y-101351629D01*
X141000482Y-101356907D01*
X141016009Y-101370051D01*
X141026341Y-101382275D01*
X141032876Y-101396055D01*
X141035146Y-101412686D01*
X141033160Y-101426893D01*
X141027474Y-101438439D01*
X141018045Y-101447334D01*
X141003495Y-101453655D01*
X141016355Y-101466476D01*
X141026341Y-101480284D01*
X141032927Y-101495548D01*
X141035146Y-101512447D01*
G37*
G36*
X140921145Y-101604206D02*
G01*
X140945770Y-101609440D01*
X140967549Y-101617829D01*
X140987442Y-101629766D01*
X141003908Y-101644524D01*
X141017301Y-101662303D01*
X141026999Y-101682357D01*
X141033031Y-101705393D01*
X141035146Y-101732037D01*
X141033048Y-101759027D01*
X141027089Y-101782171D01*
X141017557Y-101802135D01*
X141004314Y-101819825D01*
X140987978Y-101834497D01*
X140968190Y-101846352D01*
X140946497Y-101854670D01*
X140921837Y-101859874D01*
X140893690Y-101861696D01*
X140860261Y-101859292D01*
X140832235Y-101852543D01*
X140808687Y-101841911D01*
X140788885Y-101827524D01*
X140775518Y-101813144D01*
X140765071Y-101796749D01*
X140757421Y-101778051D01*
X140752632Y-101756645D01*
X140750951Y-101732037D01*
X140809252Y-101732037D01*
X140811550Y-101747148D01*
X140818073Y-101758885D01*
X140829106Y-101768090D01*
X140842982Y-101773969D01*
X140863742Y-101778149D01*
X140893690Y-101779780D01*
X140922575Y-101778167D01*
X140942902Y-101774003D01*
X140956756Y-101768090D01*
X140967789Y-101758885D01*
X140974312Y-101747148D01*
X140976610Y-101732037D01*
X140974300Y-101716923D01*
X140967739Y-101705178D01*
X140956628Y-101695962D01*
X140942692Y-101690062D01*
X140922241Y-101685905D01*
X140893177Y-101684294D01*
X140863586Y-101685916D01*
X140842973Y-101690083D01*
X140829106Y-101695962D01*
X140818074Y-101705168D01*
X140811551Y-101716912D01*
X140809252Y-101732037D01*
X140750951Y-101732037D01*
X140752614Y-101707401D01*
X140757350Y-101685981D01*
X140764909Y-101667283D01*
X140775220Y-101650903D01*
X140788393Y-101636550D01*
X140807944Y-101622199D01*
X140831377Y-101611566D01*
X140859462Y-101604796D01*
X140893177Y-101602378D01*
X140921145Y-101604206D01*
G37*
G36*
X141132406Y-102056901D02*
G01*
X140843424Y-102056901D01*
X140833136Y-102058065D01*
X140825719Y-102061191D01*
X140820429Y-102066070D01*
X140815407Y-102076415D01*
X140813526Y-102091330D01*
X140815898Y-102111184D01*
X140821562Y-102129029D01*
X140768540Y-102148114D01*
X140762159Y-102133719D01*
X140756230Y-102115437D01*
X140752358Y-102095497D01*
X140750951Y-102070964D01*
X140752946Y-102046946D01*
X140758457Y-102027730D01*
X140767055Y-102012353D01*
X140778712Y-102000118D01*
X140793078Y-101990600D01*
X140809957Y-101983556D01*
X140829816Y-101979092D01*
X140853234Y-101977507D01*
X141078123Y-101977507D01*
X141078123Y-101898840D01*
X141132406Y-101898840D01*
X141132406Y-102056901D01*
G37*
G36*
X140865779Y-102225734D02*
G01*
X140927606Y-102225734D01*
X140927606Y-102443336D01*
X140865779Y-102443336D01*
X140865779Y-102225734D01*
G37*
G36*
X141140698Y-102599603D02*
G01*
X140998964Y-102599603D01*
X141013895Y-102613504D01*
X141025336Y-102629864D01*
X141032690Y-102648230D01*
X141035146Y-102667948D01*
X141033457Y-102688372D01*
X141028686Y-102705574D01*
X141021079Y-102720145D01*
X141010604Y-102732519D01*
X140996955Y-102742940D01*
X140977691Y-102752622D01*
X140954541Y-102759985D01*
X140926808Y-102764741D01*
X140893690Y-102766448D01*
X140866410Y-102765007D01*
X140842025Y-102760869D01*
X140820172Y-102754245D01*
X140799731Y-102744557D01*
X140782974Y-102732549D01*
X140769416Y-102718192D01*
X140759317Y-102701432D01*
X140753117Y-102682133D01*
X140750951Y-102659656D01*
X140753078Y-102639400D01*
X140753290Y-102638798D01*
X140808760Y-102638798D01*
X140810898Y-102651824D01*
X140817194Y-102662777D01*
X140828229Y-102672222D01*
X140841919Y-102678408D01*
X140862598Y-102682809D01*
X140892685Y-102684532D01*
X140923976Y-102683049D01*
X140944062Y-102679382D01*
X140960306Y-102672703D01*
X140969451Y-102664806D01*
X140974793Y-102654679D01*
X140976610Y-102642815D01*
X140974541Y-102630203D01*
X140968318Y-102618944D01*
X140958842Y-102609107D01*
X140945707Y-102599603D01*
X140833123Y-102599603D01*
X140822435Y-102607806D01*
X140815022Y-102616422D01*
X140810387Y-102626447D01*
X140808760Y-102638798D01*
X140753290Y-102638798D01*
X140759192Y-102621999D01*
X140769240Y-102606842D01*
X140783628Y-102593555D01*
X140759500Y-102590541D01*
X140759500Y-102520187D01*
X141132406Y-102520187D01*
X141140698Y-102599603D01*
G37*
G36*
X141166066Y-102936521D02*
G01*
X141164566Y-102949730D01*
X141160283Y-102960789D01*
X141153243Y-102970180D01*
X141144023Y-102977438D01*
X141133524Y-102981767D01*
X141121336Y-102983259D01*
X141109158Y-102981771D01*
X141098612Y-102977444D01*
X141089301Y-102970180D01*
X141082198Y-102960781D01*
X141077881Y-102949722D01*
X141076371Y-102936521D01*
X141077885Y-102923144D01*
X141082206Y-102911959D01*
X141089301Y-102902476D01*
X141098620Y-102895148D01*
X141109165Y-102890789D01*
X141121336Y-102889290D01*
X141133516Y-102890793D01*
X141144016Y-102895155D01*
X141153243Y-102902476D01*
X141160275Y-102911951D01*
X141164563Y-102923136D01*
X141166066Y-102936521D01*
G37*
G36*
X141026362Y-102984520D02*
G01*
X140813782Y-102984520D01*
X140813782Y-103052374D01*
X140759500Y-103052374D01*
X140759500Y-102829472D01*
X140813782Y-102829472D01*
X140813782Y-102905126D01*
X140972079Y-102905126D01*
X140972079Y-102831994D01*
X141026362Y-102831994D01*
X141026362Y-102984520D01*
G37*
G36*
X140807756Y-103229734D02*
G01*
X140809477Y-103248444D01*
X140814018Y-103261770D01*
X140819061Y-103268687D01*
X140825217Y-103272609D01*
X140832867Y-103273951D01*
X140840842Y-103272719D01*
X140847186Y-103269185D01*
X140852358Y-103263012D01*
X140858256Y-103250849D01*
X140870822Y-103210628D01*
X140878681Y-103186734D01*
X140888106Y-103167043D01*
X140898947Y-103150960D01*
X140908924Y-103141105D01*
X140920911Y-103134001D01*
X140935316Y-103129548D01*
X140952738Y-103127964D01*
X140969827Y-103129830D01*
X140985098Y-103135290D01*
X140998989Y-103144435D01*
X141011766Y-103157734D01*
X141021370Y-103173011D01*
X141028675Y-103191919D01*
X141033425Y-103215214D01*
X141035146Y-103243796D01*
X141034039Y-103267492D01*
X141030905Y-103288091D01*
X141025978Y-103305987D01*
X141015352Y-103331174D01*
X141002747Y-103351849D01*
X140956008Y-103320199D01*
X140965245Y-103303043D01*
X140972464Y-103284509D01*
X140977093Y-103265273D01*
X140978619Y-103246062D01*
X140976796Y-103226723D01*
X140972384Y-103215600D01*
X140966233Y-103209798D01*
X140958017Y-103207871D01*
X140951710Y-103209089D01*
X140946327Y-103212765D01*
X140941855Y-103218964D01*
X140936282Y-103231230D01*
X140923588Y-103270938D01*
X140915483Y-103295822D01*
X140906747Y-103316031D01*
X140895409Y-103333309D01*
X140881230Y-103345823D01*
X140870117Y-103351448D01*
X140856305Y-103355069D01*
X140839150Y-103356380D01*
X140820374Y-103354364D01*
X140804276Y-103348568D01*
X140790274Y-103339027D01*
X140778457Y-103326512D01*
X140768610Y-103311325D01*
X140760739Y-103293057D01*
X140753472Y-103263506D01*
X140750951Y-103230247D01*
X140752267Y-103204613D01*
X140756024Y-103181949D01*
X140762000Y-103161880D01*
X140775074Y-103134009D01*
X140791172Y-103111380D01*
X140835880Y-103151344D01*
X140824927Y-103167793D01*
X140815791Y-103186650D01*
X140809810Y-103207040D01*
X140807756Y-103229734D01*
G37*
G36*
X140813526Y-103565412D02*
G01*
X140815142Y-103581331D01*
X140819937Y-103596187D01*
X140827153Y-103610420D01*
X140836393Y-103624953D01*
X140786128Y-103660386D01*
X140772565Y-103641310D01*
X140760995Y-103617537D01*
X140755511Y-103600439D01*
X140752121Y-103581719D01*
X140750951Y-103561138D01*
X140753056Y-103532946D01*
X140759055Y-103508529D01*
X140768668Y-103487258D01*
X140782056Y-103468196D01*
X140798374Y-103452459D01*
X140817907Y-103439771D01*
X140839508Y-103430735D01*
X140863763Y-103425135D01*
X140891168Y-103423187D01*
X140918560Y-103425159D01*
X140943160Y-103430864D01*
X140965411Y-103440134D01*
X140985637Y-103453098D01*
X141002586Y-103469099D01*
X141016553Y-103488390D01*
X141026674Y-103509960D01*
X141032952Y-103534510D01*
X141035146Y-103562655D01*
X141032940Y-103592024D01*
X141026726Y-103616789D01*
X141016321Y-103639489D01*
X141001743Y-103660386D01*
X140953999Y-103625978D01*
X140962500Y-103611965D01*
X140968810Y-103597320D01*
X140972761Y-103581977D01*
X140974088Y-103565904D01*
X140971900Y-103548847D01*
X140965612Y-103534627D01*
X140955111Y-103522563D01*
X140941381Y-103514165D01*
X140920881Y-103508358D01*
X140891168Y-103506107D01*
X140863485Y-103508293D01*
X140844792Y-103513886D01*
X140829981Y-103523373D01*
X140820685Y-103535129D01*
X140815361Y-103549233D01*
X140813526Y-103565412D01*
G37*
G36*
X141026362Y-103804599D02*
G01*
X140843681Y-103804599D01*
X140826223Y-103806712D01*
X140817052Y-103811759D01*
X140811696Y-103820035D01*
X140809765Y-103831719D01*
X140811629Y-103843788D01*
X140817544Y-103856360D01*
X140826628Y-103867573D01*
X140838659Y-103876962D01*
X141026362Y-103876962D01*
X141026362Y-103956357D01*
X140759500Y-103956357D01*
X140759500Y-103887007D01*
X140790659Y-103883502D01*
X140778659Y-103873511D01*
X140768816Y-103861683D01*
X140760995Y-103847812D01*
X140753457Y-103825174D01*
X140750951Y-103801586D01*
X140752552Y-103782345D01*
X140756995Y-103766789D01*
X140763959Y-103754194D01*
X140773434Y-103744033D01*
X140789425Y-103733895D01*
X140809234Y-103727487D01*
X140833871Y-103725184D01*
X141026362Y-103725184D01*
X141026362Y-103804599D01*
G37*
G36*
X141166066Y-104141517D02*
G01*
X141164566Y-104154726D01*
X141160283Y-104165786D01*
X141153243Y-104175177D01*
X141144023Y-104182434D01*
X141133524Y-104186764D01*
X141121336Y-104188256D01*
X141109158Y-104186768D01*
X141098612Y-104182441D01*
X141089301Y-104175177D01*
X141082198Y-104165778D01*
X141077881Y-104154719D01*
X141076371Y-104141517D01*
X141077885Y-104128141D01*
X141082206Y-104116956D01*
X141089301Y-104107473D01*
X141098620Y-104100145D01*
X141109165Y-104095785D01*
X141121336Y-104094287D01*
X141133516Y-104095789D01*
X141144016Y-104100151D01*
X141153243Y-104107473D01*
X141160275Y-104116948D01*
X141164563Y-104128133D01*
X141166066Y-104141517D01*
G37*
G36*
X141026362Y-104189517D02*
G01*
X140813782Y-104189517D01*
X140813782Y-104257371D01*
X140759500Y-104257371D01*
X140759500Y-104034468D01*
X140813782Y-104034468D01*
X140813782Y-104110123D01*
X140972079Y-104110123D01*
X140972079Y-104036990D01*
X141026362Y-104036990D01*
X141026362Y-104189517D01*
G37*
G36*
X140775079Y-104567916D02*
G01*
X140766038Y-104551251D01*
X140758004Y-104530217D01*
X140752793Y-104507266D01*
X140750951Y-104480465D01*
X140752901Y-104454202D01*
X140758275Y-104433126D01*
X140766592Y-104416248D01*
X140777708Y-104402802D01*
X140791769Y-104392024D01*
X140808247Y-104384144D01*
X140827606Y-104379188D01*
X140850456Y-104377434D01*
X140971588Y-104377434D01*
X140971588Y-104321399D01*
X141026362Y-104321399D01*
X141026362Y-104377434D01*
X141084150Y-104377434D01*
X141093703Y-104456850D01*
X141026362Y-104456850D01*
X141026362Y-104542784D01*
X140971588Y-104534983D01*
X140971588Y-104456850D01*
X140850456Y-104456850D01*
X140837520Y-104458043D01*
X140828383Y-104461183D01*
X140822053Y-104465890D01*
X140817616Y-104472471D01*
X140814650Y-104481795D01*
X140813526Y-104494784D01*
X140814402Y-104508502D01*
X140816903Y-104520536D01*
X140820842Y-104531799D01*
X140825579Y-104541523D01*
X140775079Y-104567916D01*
G37*
G36*
X140807756Y-104735980D02*
G01*
X140809477Y-104754690D01*
X140814018Y-104768015D01*
X140819061Y-104774933D01*
X140825217Y-104778855D01*
X140832867Y-104780197D01*
X140840842Y-104778965D01*
X140847186Y-104775431D01*
X140852358Y-104769258D01*
X140858256Y-104757094D01*
X140870822Y-104716874D01*
X140878681Y-104692980D01*
X140888106Y-104673289D01*
X140898947Y-104657205D01*
X140908924Y-104647351D01*
X140920911Y-104640247D01*
X140935316Y-104635794D01*
X140952738Y-104634210D01*
X140969827Y-104636076D01*
X140985098Y-104641536D01*
X140998989Y-104650680D01*
X141011766Y-104663980D01*
X141021370Y-104679256D01*
X141028675Y-104698165D01*
X141033425Y-104721460D01*
X141035146Y-104750042D01*
X141034039Y-104773737D01*
X141030905Y-104794337D01*
X141025978Y-104812232D01*
X141015352Y-104837420D01*
X141002747Y-104858095D01*
X140956008Y-104826444D01*
X140965245Y-104809289D01*
X140972464Y-104790754D01*
X140977093Y-104771519D01*
X140978619Y-104752307D01*
X140976796Y-104732968D01*
X140972384Y-104721845D01*
X140966233Y-104716044D01*
X140958017Y-104714117D01*
X140951710Y-104715335D01*
X140946327Y-104719011D01*
X140941855Y-104725210D01*
X140936282Y-104737476D01*
X140923588Y-104777183D01*
X140915483Y-104802067D01*
X140906747Y-104822277D01*
X140895409Y-104839555D01*
X140881230Y-104852068D01*
X140870117Y-104857694D01*
X140856305Y-104861315D01*
X140839150Y-104862626D01*
X140820374Y-104860610D01*
X140804276Y-104854814D01*
X140790274Y-104845272D01*
X140778457Y-104832758D01*
X140768610Y-104817571D01*
X140760739Y-104799303D01*
X140753472Y-104769752D01*
X140750951Y-104736493D01*
X140752267Y-104710859D01*
X140756024Y-104688194D01*
X140762000Y-104668126D01*
X140775074Y-104640255D01*
X140791172Y-104617626D01*
X140835880Y-104657590D01*
X140824927Y-104674038D01*
X140815791Y-104692895D01*
X140809810Y-104713286D01*
X140807756Y-104735980D01*
G37*
G36*
X140819553Y-105473160D02*
G01*
X140759500Y-105473160D01*
X140759500Y-105246753D01*
X140819553Y-105246753D01*
X140819553Y-105330699D01*
X141029632Y-105330699D01*
X140984902Y-105259062D01*
X141039420Y-105225403D01*
X141107787Y-105337730D01*
X141107787Y-105408084D01*
X140819553Y-105408084D01*
X140819553Y-105473160D01*
G37*
G36*
X140806986Y-105592240D02*
G01*
X140821718Y-105594138D01*
X140835004Y-105599763D01*
X140846424Y-105608613D01*
X140855350Y-105620130D01*
X140861092Y-105633534D01*
X140863022Y-105648276D01*
X140861080Y-105663217D01*
X140855350Y-105676528D01*
X140846433Y-105687940D01*
X140835004Y-105696767D01*
X140821716Y-105702408D01*
X140806986Y-105704311D01*
X140792459Y-105702419D01*
X140779097Y-105696767D01*
X140767562Y-105687931D01*
X140758623Y-105676528D01*
X140752893Y-105663217D01*
X140750951Y-105648276D01*
X140752881Y-105633534D01*
X140758623Y-105620130D01*
X140767572Y-105608622D01*
X140779097Y-105599763D01*
X140792458Y-105594127D01*
X140806986Y-105592240D01*
G37*
G36*
X140978217Y-105825944D02*
G01*
X141014388Y-105832361D01*
X141044117Y-105842233D01*
X141068442Y-105855149D01*
X141085792Y-105869042D01*
X141099032Y-105885068D01*
X141108568Y-105903486D01*
X141114492Y-105924761D01*
X141116570Y-105949525D01*
X141114501Y-105974054D01*
X141108596Y-105995199D01*
X141099071Y-106013576D01*
X141085825Y-106029634D01*
X141068442Y-106043622D01*
X141044099Y-106056660D01*
X141014364Y-106066618D01*
X140978199Y-106073087D01*
X140934402Y-106075423D01*
X140890487Y-106073092D01*
X140854137Y-106066629D01*
X140824172Y-106056671D01*
X140799571Y-106043622D01*
X140781984Y-106029608D01*
X140768601Y-106013534D01*
X140758990Y-105995156D01*
X140753036Y-105974025D01*
X140750951Y-105949525D01*
X140808247Y-105949525D01*
X140809642Y-105960894D01*
X140813647Y-105970425D01*
X140820301Y-105978547D01*
X140829038Y-105984767D01*
X140841901Y-105990343D01*
X140860137Y-105995003D01*
X140890231Y-105998788D01*
X140934402Y-106000281D01*
X140983150Y-105999021D01*
X140817544Y-105918857D01*
X140813098Y-105924894D01*
X140810256Y-105932043D01*
X140808247Y-105949525D01*
X140750951Y-105949525D01*
X140753046Y-105924790D01*
X140759018Y-105903530D01*
X140760200Y-105901268D01*
X140864539Y-105901268D01*
X141042198Y-105986198D01*
X141050385Y-105979296D01*
X141055363Y-105971238D01*
X141058035Y-105961752D01*
X141059018Y-105949525D01*
X141057268Y-105937206D01*
X141052194Y-105926888D01*
X141043553Y-105918056D01*
X141030487Y-105910565D01*
X141010772Y-105904484D01*
X140980013Y-105900023D01*
X140934402Y-105898255D01*
X140895057Y-105899003D01*
X140864539Y-105901268D01*
X140760200Y-105901268D01*
X140768640Y-105885110D01*
X140782017Y-105869068D01*
X140799571Y-105855149D01*
X140824154Y-105842222D01*
X140854113Y-105832350D01*
X140890469Y-105825939D01*
X140934402Y-105823627D01*
X140978217Y-105825944D01*
G37*
D11*
%TO.C,LogoHead*%
G36*
X141463530Y-99842690D02*
G01*
X141476316Y-99849987D01*
X141487585Y-99865794D01*
X141490272Y-99882845D01*
X141485734Y-99899058D01*
X141475329Y-99912350D01*
X141460412Y-99920639D01*
X141442341Y-99921842D01*
X141431531Y-99918721D01*
X141416921Y-99907340D01*
X141408497Y-99889843D01*
X141407697Y-99870847D01*
X141414811Y-99855883D01*
X141428587Y-99845564D01*
X141445876Y-99840847D01*
X141463530Y-99842690D01*
G37*
G36*
X141483776Y-100090120D02*
G01*
X141488467Y-100094457D01*
X141498720Y-100106545D01*
X141501883Y-100116767D01*
X141500834Y-100124589D01*
X141491869Y-100143524D01*
X141477464Y-100155198D01*
X141460016Y-100158836D01*
X141441922Y-100153665D01*
X141432462Y-100146689D01*
X141421506Y-100130300D01*
X141420372Y-100112353D01*
X141429066Y-100094972D01*
X141432267Y-100091467D01*
X141448799Y-100080606D01*
X141466062Y-100080162D01*
X141483776Y-100090120D01*
G37*
G36*
X141202388Y-99802394D02*
G01*
X141223458Y-99813945D01*
X141228655Y-99818683D01*
X141240376Y-99832428D01*
X141245542Y-99845503D01*
X141246472Y-99858246D01*
X141242962Y-99884638D01*
X141231910Y-99904169D01*
X141212528Y-99917856D01*
X141195763Y-99923916D01*
X141180019Y-99923741D01*
X141161709Y-99917028D01*
X141144706Y-99905508D01*
X141137305Y-99897740D01*
X141127847Y-99878146D01*
X141126104Y-99855874D01*
X141132050Y-99834876D01*
X141137761Y-99826251D01*
X141158028Y-99808673D01*
X141180074Y-99800678D01*
X141202388Y-99802394D01*
G37*
G36*
X141546414Y-99477769D02*
G01*
X141566965Y-99487624D01*
X141584814Y-99504472D01*
X141596475Y-99524856D01*
X141597627Y-99528558D01*
X141599136Y-99552611D01*
X141591737Y-99575151D01*
X141576977Y-99593926D01*
X141556402Y-99606684D01*
X141541300Y-99610598D01*
X141516808Y-99609307D01*
X141495972Y-99599766D01*
X141479961Y-99583905D01*
X141469942Y-99563654D01*
X141467085Y-99540945D01*
X141472558Y-99517708D01*
X141478529Y-99506871D01*
X141493693Y-99491662D01*
X141513802Y-99481025D01*
X141534889Y-99476659D01*
X141546414Y-99477769D01*
G37*
G36*
X141215362Y-100095939D02*
G01*
X141228094Y-100102286D01*
X141239136Y-100112143D01*
X141250827Y-100125830D01*
X141255996Y-100138845D01*
X141256953Y-100151946D01*
X141252631Y-100176040D01*
X141240925Y-100195046D01*
X141223724Y-100207680D01*
X141202919Y-100212654D01*
X141180400Y-100208682D01*
X141176250Y-100206890D01*
X141156437Y-100192207D01*
X141144803Y-100171186D01*
X141141665Y-100149085D01*
X141143944Y-100133753D01*
X141152194Y-100120033D01*
X141159482Y-100112143D01*
X141173164Y-100100454D01*
X141186173Y-100095285D01*
X141199309Y-100094325D01*
X141215362Y-100095939D01*
G37*
G36*
X141770879Y-100738395D02*
G01*
X141792081Y-100751177D01*
X141808375Y-100769830D01*
X141817523Y-100792167D01*
X141818719Y-100803712D01*
X141814402Y-100828552D01*
X141802739Y-100848565D01*
X141785661Y-100863271D01*
X141765100Y-100872189D01*
X141742987Y-100874840D01*
X141721255Y-100870743D01*
X141701835Y-100859417D01*
X141686658Y-100840383D01*
X141684932Y-100836972D01*
X141677080Y-100811435D01*
X141679173Y-100787839D01*
X141686634Y-100771593D01*
X141702294Y-100753294D01*
X141722448Y-100739945D01*
X141743469Y-100733826D01*
X141747008Y-100733668D01*
X141770879Y-100738395D01*
G37*
G36*
X141730537Y-99169000D02*
G01*
X141745687Y-99174447D01*
X141748063Y-99175534D01*
X141768220Y-99190207D01*
X141780951Y-99210071D01*
X141786161Y-99232828D01*
X141783758Y-99256182D01*
X141773650Y-99277837D01*
X141755743Y-99295494D01*
X141752985Y-99297286D01*
X141729721Y-99306598D01*
X141707112Y-99306882D01*
X141686504Y-99299570D01*
X141669247Y-99286090D01*
X141656687Y-99267874D01*
X141650171Y-99246351D01*
X141651048Y-99222951D01*
X141660595Y-99199219D01*
X141675517Y-99183222D01*
X141696090Y-99171535D01*
X141717618Y-99166791D01*
X141718454Y-99166783D01*
X141730537Y-99169000D01*
G37*
G36*
X141575971Y-100385026D02*
G01*
X141589720Y-100390651D01*
X141590700Y-100391128D01*
X141611030Y-100406688D01*
X141620435Y-100420863D01*
X141626365Y-100435031D01*
X141627146Y-100445961D01*
X141623159Y-100459319D01*
X141623051Y-100459603D01*
X141610513Y-100480523D01*
X141592885Y-100494294D01*
X141572410Y-100500325D01*
X141551326Y-100498026D01*
X141531874Y-100486804D01*
X141529274Y-100484353D01*
X141514545Y-100463864D01*
X141510054Y-100442498D01*
X141515895Y-100420955D01*
X141519938Y-100414173D01*
X141533640Y-100399627D01*
X141550316Y-100389159D01*
X141551481Y-100388694D01*
X141565129Y-100384491D01*
X141575971Y-100385026D01*
G37*
G36*
X141635359Y-100526648D02*
G01*
X141658588Y-100530037D01*
X141663062Y-100531610D01*
X141688774Y-100546243D01*
X141708613Y-100567153D01*
X141721319Y-100592194D01*
X141725631Y-100619219D01*
X141723783Y-100634991D01*
X141712849Y-100663117D01*
X141695513Y-100684762D01*
X141673556Y-100699684D01*
X141648753Y-100707641D01*
X141622884Y-100708390D01*
X141597726Y-100701689D01*
X141575059Y-100687296D01*
X141556659Y-100664966D01*
X141553016Y-100658280D01*
X141543402Y-100634524D01*
X141541863Y-100622162D01*
X141619124Y-100622162D01*
X141623980Y-100630813D01*
X141626465Y-100632213D01*
X141637059Y-100631529D01*
X141646420Y-100624309D01*
X141649979Y-100614935D01*
X141645615Y-100606813D01*
X141635359Y-100603187D01*
X141626398Y-100604535D01*
X141619925Y-100611620D01*
X141619124Y-100622162D01*
X141541863Y-100622162D01*
X141540831Y-100613877D01*
X141544799Y-100592176D01*
X141544940Y-100591706D01*
X141557975Y-100564872D01*
X141577814Y-100544292D01*
X141602500Y-100530962D01*
X141630078Y-100525878D01*
X141635359Y-100526648D01*
G37*
G36*
X141657287Y-99318088D02*
G01*
X141681578Y-99332866D01*
X141700783Y-99354559D01*
X141712928Y-99381875D01*
X141715125Y-99408438D01*
X141708584Y-99434280D01*
X141694888Y-99457665D01*
X141675617Y-99476856D01*
X141652355Y-99490118D01*
X141626684Y-99495713D01*
X141610245Y-99494570D01*
X141586669Y-99486427D01*
X141564187Y-99472365D01*
X141546929Y-99455135D01*
X141543691Y-99450278D01*
X141535290Y-99428251D01*
X141532014Y-99402599D01*
X141608057Y-99402599D01*
X141611602Y-99412820D01*
X141616324Y-99416581D01*
X141626177Y-99415757D01*
X141633168Y-99411176D01*
X141638933Y-99403847D01*
X141636674Y-99397727D01*
X141633168Y-99394021D01*
X141622395Y-99388342D01*
X141612885Y-99390977D01*
X141608141Y-99400731D01*
X141608057Y-99402599D01*
X141532014Y-99402599D01*
X141531963Y-99402200D01*
X141534264Y-99377555D01*
X141535745Y-99372365D01*
X141546079Y-99354127D01*
X141563123Y-99336195D01*
X141583466Y-99321607D01*
X141601209Y-99313999D01*
X141622395Y-99312081D01*
X141629850Y-99311406D01*
X141657287Y-99318088D01*
G37*
G36*
X141350623Y-99914471D02*
G01*
X141365818Y-99920791D01*
X141391744Y-99939210D01*
X141409839Y-99962815D01*
X141420059Y-99989780D01*
X141422361Y-100018277D01*
X141416701Y-100046478D01*
X141403037Y-100072556D01*
X141381324Y-100094684D01*
X141370128Y-100102166D01*
X141341580Y-100113713D01*
X141313173Y-100116086D01*
X141286165Y-100110460D01*
X141261817Y-100098008D01*
X141241389Y-100079904D01*
X141226140Y-100057322D01*
X141217332Y-100031436D01*
X141216760Y-100016965D01*
X141292175Y-100016965D01*
X141298237Y-100030319D01*
X141311081Y-100038947D01*
X141325592Y-100039717D01*
X141337215Y-100032833D01*
X141344369Y-100021043D01*
X141345475Y-100007092D01*
X141338952Y-99993727D01*
X141337804Y-99992513D01*
X141324110Y-99984662D01*
X141310112Y-99986605D01*
X141297747Y-99997898D01*
X141295038Y-100002313D01*
X141292175Y-100016965D01*
X141216760Y-100016965D01*
X141216224Y-100003420D01*
X141224075Y-99974447D01*
X141226821Y-99968661D01*
X141245318Y-99941310D01*
X141268557Y-99923118D01*
X141297391Y-99913512D01*
X141311293Y-99911904D01*
X141324110Y-99911711D01*
X141333654Y-99911567D01*
X141350623Y-99914471D01*
G37*
G36*
X143599293Y-99036439D02*
G01*
X143609939Y-99051657D01*
X143612670Y-99063603D01*
X143610225Y-99076052D01*
X143601771Y-99090433D01*
X143586478Y-99108177D01*
X143564509Y-99129779D01*
X143551056Y-99142617D01*
X143531576Y-99161454D01*
X143507484Y-99184909D01*
X143480196Y-99211602D01*
X143451126Y-99240151D01*
X143423548Y-99267338D01*
X143390704Y-99299638D01*
X143364296Y-99325090D01*
X143343401Y-99344309D01*
X143327092Y-99357906D01*
X143314446Y-99366496D01*
X143304538Y-99370690D01*
X143296442Y-99371102D01*
X143289235Y-99368345D01*
X143281990Y-99363032D01*
X143280766Y-99361986D01*
X143269197Y-99346396D01*
X143267012Y-99328947D01*
X143269166Y-99321373D01*
X143274159Y-99314639D01*
X143285674Y-99301751D01*
X143302696Y-99283708D01*
X143324214Y-99261505D01*
X143349213Y-99236142D01*
X143376681Y-99208614D01*
X143405605Y-99179920D01*
X143434970Y-99151057D01*
X143463765Y-99123022D01*
X143490975Y-99096812D01*
X143515588Y-99073426D01*
X143536590Y-99053859D01*
X143552968Y-99039111D01*
X143563709Y-99030177D01*
X143567264Y-99027937D01*
X143584002Y-99027868D01*
X143599293Y-99036439D01*
G37*
G36*
X143299245Y-100634579D02*
G01*
X143305451Y-100636575D01*
X143313037Y-100640823D01*
X143322912Y-100648079D01*
X143335982Y-100659098D01*
X143353157Y-100674635D01*
X143375344Y-100695445D01*
X143403451Y-100722282D01*
X143428153Y-100746040D01*
X143467508Y-100783999D01*
X143499932Y-100815430D01*
X143526069Y-100841048D01*
X143546565Y-100861567D01*
X143562065Y-100877702D01*
X143573214Y-100890167D01*
X143580658Y-100899676D01*
X143585040Y-100906944D01*
X143587008Y-100912684D01*
X143587205Y-100917611D01*
X143586537Y-100921384D01*
X143577995Y-100938383D01*
X143563400Y-100950059D01*
X143548268Y-100953744D01*
X143544140Y-100953145D01*
X143538966Y-100950959D01*
X143532106Y-100946603D01*
X143522919Y-100939495D01*
X143510765Y-100929052D01*
X143495005Y-100914690D01*
X143474998Y-100895827D01*
X143450104Y-100871879D01*
X143419683Y-100842264D01*
X143383094Y-100806399D01*
X143341304Y-100765282D01*
X143312483Y-100736676D01*
X143290595Y-100714175D01*
X143274959Y-100696686D01*
X143264891Y-100683113D01*
X143259712Y-100672360D01*
X143258740Y-100663331D01*
X143261293Y-100654932D01*
X143266690Y-100646067D01*
X143266926Y-100645729D01*
X143278085Y-100636544D01*
X143293511Y-100634082D01*
X143299245Y-100634579D01*
G37*
G36*
X141933006Y-98529868D02*
G01*
X141951484Y-98531261D01*
X141978656Y-98542572D01*
X142000461Y-98562819D01*
X142004623Y-98568578D01*
X142011722Y-98578054D01*
X142019040Y-98583363D01*
X142029872Y-98585826D01*
X142047515Y-98586770D01*
X142050089Y-98586839D01*
X142076327Y-98589600D01*
X142093722Y-98596701D01*
X142103245Y-98608802D01*
X142105890Y-98624838D01*
X142101671Y-98642994D01*
X142088912Y-98655438D01*
X142067458Y-98662271D01*
X142046230Y-98663773D01*
X142028233Y-98664185D01*
X142017319Y-98666250D01*
X142010092Y-98671350D01*
X142003159Y-98680868D01*
X142002772Y-98681464D01*
X141986729Y-98698265D01*
X141964276Y-98711759D01*
X141939407Y-98719896D01*
X141925098Y-98721352D01*
X141896296Y-98716663D01*
X141871135Y-98703782D01*
X141850715Y-98684492D01*
X141836136Y-98660576D01*
X141828495Y-98633816D01*
X141828609Y-98625880D01*
X141907729Y-98625880D01*
X141907802Y-98626577D01*
X141910852Y-98636373D01*
X141919113Y-98639874D01*
X141925098Y-98640127D01*
X141936232Y-98638745D01*
X141941031Y-98632414D01*
X141942428Y-98623544D01*
X141941959Y-98610955D01*
X141936178Y-98604683D01*
X141933006Y-98603459D01*
X141919581Y-98603587D01*
X141910341Y-98611808D01*
X141907729Y-98625880D01*
X141828609Y-98625880D01*
X141828893Y-98605994D01*
X141837874Y-98579912D01*
X141848338Y-98564979D01*
X141862531Y-98549935D01*
X141866891Y-98546168D01*
X141880610Y-98536702D01*
X141894870Y-98531507D01*
X141914194Y-98529067D01*
X141918743Y-98528793D01*
X141933006Y-98529868D01*
G37*
G36*
X140959949Y-99777668D02*
G01*
X140984886Y-99785512D01*
X141007369Y-99796443D01*
X141019044Y-99804930D01*
X141029808Y-99815125D01*
X141038002Y-99824480D01*
X141044066Y-99834643D01*
X141048440Y-99847262D01*
X141051561Y-99863987D01*
X141053871Y-99886464D01*
X141055807Y-99916343D01*
X141057512Y-99949311D01*
X141060018Y-100014017D01*
X141060635Y-100069180D01*
X141059373Y-100114643D01*
X141056239Y-100150248D01*
X141051240Y-100175837D01*
X141045132Y-100190207D01*
X141024653Y-100212876D01*
X140998775Y-100229978D01*
X140969663Y-100241093D01*
X140939482Y-100245801D01*
X140910396Y-100243683D01*
X140884570Y-100234318D01*
X140870477Y-100224072D01*
X140860501Y-100210719D01*
X140860431Y-100199195D01*
X140870250Y-100190324D01*
X140871281Y-100189836D01*
X140880611Y-100180604D01*
X140888382Y-100163871D01*
X140893892Y-100142583D01*
X140896438Y-100119683D01*
X140895319Y-100098116D01*
X140894343Y-100093100D01*
X140892375Y-100078836D01*
X140890998Y-100057203D01*
X140890351Y-100031302D01*
X140890488Y-100007860D01*
X140891435Y-99960103D01*
X140891972Y-99921825D01*
X140892004Y-99892029D01*
X140891439Y-99869720D01*
X140890183Y-99853899D01*
X140888143Y-99843570D01*
X140885226Y-99837737D01*
X140881338Y-99835403D01*
X140876386Y-99835570D01*
X140874401Y-99836031D01*
X140861853Y-99835132D01*
X140851724Y-99827882D01*
X140848205Y-99818565D01*
X140851652Y-99809718D01*
X140858397Y-99801154D01*
X140870411Y-99793270D01*
X140888905Y-99785430D01*
X140909954Y-99778951D01*
X140929635Y-99775150D01*
X140937291Y-99774664D01*
X140959949Y-99777668D01*
G37*
G36*
X141933006Y-101300570D02*
G01*
X141939630Y-101300583D01*
X141967870Y-101309159D01*
X141992143Y-101325704D01*
X142000180Y-101334460D01*
X142007711Y-101343298D01*
X142014779Y-101348524D01*
X142024338Y-101351085D01*
X142039340Y-101351931D01*
X142054797Y-101352010D01*
X142076748Y-101352484D01*
X142091002Y-101354282D01*
X142100314Y-101357970D01*
X142105890Y-101362491D01*
X142114952Y-101377978D01*
X142114404Y-101395120D01*
X142104357Y-101411645D01*
X142103508Y-101412513D01*
X142095215Y-101419455D01*
X142085666Y-101423356D01*
X142071634Y-101425049D01*
X142053725Y-101425376D01*
X142035581Y-101426033D01*
X142022406Y-101427763D01*
X142016842Y-101430205D01*
X142016804Y-101430434D01*
X142012870Y-101439333D01*
X142002749Y-101451616D01*
X141988966Y-101464835D01*
X141974044Y-101476546D01*
X141961826Y-101483727D01*
X141936129Y-101492035D01*
X141912229Y-101491664D01*
X141892249Y-101485390D01*
X141865006Y-101469057D01*
X141844817Y-101446762D01*
X141832475Y-101420321D01*
X141829604Y-101398028D01*
X141907729Y-101398028D01*
X141907802Y-101398725D01*
X141910852Y-101408520D01*
X141919113Y-101412022D01*
X141925098Y-101412275D01*
X141936232Y-101410892D01*
X141941031Y-101404562D01*
X141942428Y-101395691D01*
X141941959Y-101383103D01*
X141936178Y-101376831D01*
X141933006Y-101375607D01*
X141919581Y-101375735D01*
X141910341Y-101383956D01*
X141907729Y-101398028D01*
X141829604Y-101398028D01*
X141828770Y-101391552D01*
X141834496Y-101362271D01*
X141836450Y-101357407D01*
X141849119Y-101334879D01*
X141866163Y-101318678D01*
X141881656Y-101309530D01*
X141910025Y-101300524D01*
X141933006Y-101300570D01*
G37*
G36*
X142093361Y-99159601D02*
G01*
X142099768Y-99166466D01*
X142103548Y-99179357D01*
X142105365Y-99199681D01*
X142105883Y-99228846D01*
X142105890Y-99234292D01*
X142105380Y-99264224D01*
X142103484Y-99287764D01*
X142099655Y-99308966D01*
X142093344Y-99331883D01*
X142092214Y-99335514D01*
X142072992Y-99387537D01*
X142049072Y-99437493D01*
X142021616Y-99483557D01*
X141991783Y-99523900D01*
X141960732Y-99556696D01*
X141942154Y-99571880D01*
X141894315Y-99605060D01*
X141851387Y-99631404D01*
X141811260Y-99651861D01*
X141771824Y-99667378D01*
X141730970Y-99678901D01*
X141686589Y-99687378D01*
X141684042Y-99687769D01*
X141647808Y-99693588D01*
X141618742Y-99699070D01*
X141593579Y-99704878D01*
X141575304Y-99709847D01*
X141566887Y-99710610D01*
X141566841Y-99705822D01*
X141574875Y-99695827D01*
X141590695Y-99680973D01*
X141614011Y-99661604D01*
X141620136Y-99656756D01*
X141659146Y-99623399D01*
X141693593Y-99588613D01*
X141708578Y-99571042D01*
X141728918Y-99543905D01*
X141746874Y-99516656D01*
X141761367Y-99491216D01*
X141771318Y-99469507D01*
X141775648Y-99453452D01*
X141775748Y-99451413D01*
X141777742Y-99437361D01*
X141783118Y-99416335D01*
X141790971Y-99390921D01*
X141800391Y-99363707D01*
X141810473Y-99337281D01*
X141820309Y-99314230D01*
X141828992Y-99297142D01*
X141830926Y-99294029D01*
X141845488Y-99275292D01*
X141863897Y-99255928D01*
X141876567Y-99244731D01*
X141900479Y-99228234D01*
X141930878Y-99211003D01*
X141964956Y-99194293D01*
X141999910Y-99179357D01*
X142032932Y-99167448D01*
X142061217Y-99159820D01*
X142070004Y-99158322D01*
X142083661Y-99157355D01*
X142093361Y-99159601D01*
G37*
G36*
X141848754Y-98799861D02*
G01*
X141865285Y-98807030D01*
X141883700Y-98819056D01*
X141901020Y-98833504D01*
X141914269Y-98847943D01*
X141920011Y-98858085D01*
X141922053Y-98862089D01*
X141926324Y-98864857D01*
X141934518Y-98866617D01*
X141948325Y-98867590D01*
X141969437Y-98868004D01*
X141995283Y-98868082D01*
X142024215Y-98868176D01*
X142044573Y-98868643D01*
X142058261Y-98869760D01*
X142067185Y-98871802D01*
X142073250Y-98875048D01*
X142078362Y-98879773D01*
X142078775Y-98880211D01*
X142088206Y-98896512D01*
X142089041Y-98914035D01*
X142081177Y-98929443D01*
X142080310Y-98930345D01*
X142074741Y-98934457D01*
X142066292Y-98937539D01*
X142053180Y-98939885D01*
X142033619Y-98941788D01*
X142005826Y-98943539D01*
X141997080Y-98944003D01*
X141923710Y-98947802D01*
X141908167Y-98969852D01*
X141885936Y-98992537D01*
X141857154Y-99007563D01*
X141830294Y-99013571D01*
X141799648Y-99012222D01*
X141771878Y-99002046D01*
X141748182Y-98984560D01*
X141729759Y-98961283D01*
X141717809Y-98933734D01*
X141713678Y-98904462D01*
X141791506Y-98904462D01*
X141791978Y-98919633D01*
X141797757Y-98929919D01*
X141807221Y-98934429D01*
X141820291Y-98936207D01*
X141836655Y-98933455D01*
X141845826Y-98924260D01*
X141849062Y-98907214D01*
X141849113Y-98903901D01*
X141845473Y-98886184D01*
X141834565Y-98876016D01*
X141819738Y-98873323D01*
X141806704Y-98877914D01*
X141796853Y-98889425D01*
X141791506Y-98904462D01*
X141713678Y-98904462D01*
X141713532Y-98903430D01*
X141718127Y-98871889D01*
X141718192Y-98871672D01*
X141731363Y-98844958D01*
X141752167Y-98822958D01*
X141778352Y-98806911D01*
X141807662Y-98798058D01*
X141819738Y-98797890D01*
X141837845Y-98797638D01*
X141848754Y-98799861D01*
G37*
G36*
X141649939Y-100314956D02*
G01*
X141671229Y-100316892D01*
X141692822Y-100320721D01*
X141716714Y-100326939D01*
X141744903Y-100336039D01*
X141779387Y-100348514D01*
X141806422Y-100358781D01*
X141849556Y-100376094D01*
X141884676Y-100392113D01*
X141913922Y-100408127D01*
X141939438Y-100425427D01*
X141963366Y-100445302D01*
X141985362Y-100466506D01*
X142027945Y-100516144D01*
X142061678Y-100569305D01*
X142086020Y-100624976D01*
X142100360Y-100681713D01*
X142102324Y-100698831D01*
X142103882Y-100722071D01*
X142105005Y-100749121D01*
X142105662Y-100777668D01*
X142105824Y-100805400D01*
X142105459Y-100830006D01*
X142104539Y-100849173D01*
X142103032Y-100860590D01*
X142102710Y-100861609D01*
X142095234Y-100867372D01*
X142079974Y-100869627D01*
X142058919Y-100868649D01*
X142034057Y-100864714D01*
X142007380Y-100858095D01*
X141980875Y-100849068D01*
X141966166Y-100842744D01*
X141954040Y-100835132D01*
X141936686Y-100821733D01*
X141916186Y-100804266D01*
X141894625Y-100784453D01*
X141888868Y-100778902D01*
X141866920Y-100757235D01*
X141850756Y-100740188D01*
X141838513Y-100725215D01*
X141828327Y-100709772D01*
X141818332Y-100691313D01*
X141806665Y-100667293D01*
X141805826Y-100665524D01*
X141794184Y-100640419D01*
X141783651Y-100616714D01*
X141775389Y-100597089D01*
X141770585Y-100584299D01*
X141763270Y-100564883D01*
X141752003Y-100539157D01*
X141738137Y-100509849D01*
X141723025Y-100479687D01*
X141708018Y-100451400D01*
X141694471Y-100427716D01*
X141687443Y-100416607D01*
X141672185Y-100394472D01*
X141659892Y-100378701D01*
X141648017Y-100366741D01*
X141634014Y-100356039D01*
X141615338Y-100344045D01*
X141614607Y-100343594D01*
X141598705Y-100333226D01*
X141587062Y-100324549D01*
X141581927Y-100319259D01*
X141581855Y-100318916D01*
X141586695Y-100316896D01*
X141599624Y-100315346D01*
X141618248Y-100314505D01*
X141626952Y-100314420D01*
X141649939Y-100314956D01*
G37*
G36*
X142170039Y-98916027D02*
G01*
X142176683Y-98918575D01*
X142181970Y-98920966D01*
X142187537Y-98924041D01*
X142193982Y-98928354D01*
X142201901Y-98934464D01*
X142211892Y-98942924D01*
X142224551Y-98954293D01*
X142240475Y-98969126D01*
X142260262Y-98987979D01*
X142284509Y-99011409D01*
X142313812Y-99039972D01*
X142348769Y-99074224D01*
X142389976Y-99114721D01*
X142438031Y-99162020D01*
X142438894Y-99162869D01*
X142517740Y-99240506D01*
X142536982Y-99232466D01*
X142567982Y-99224791D01*
X142581194Y-99225246D01*
X142600373Y-99225907D01*
X142631464Y-99235168D01*
X142658561Y-99251925D01*
X142671330Y-99264757D01*
X142688478Y-99292879D01*
X142696489Y-99322892D01*
X142696114Y-99353216D01*
X142688106Y-99382269D01*
X142673217Y-99408471D01*
X142652198Y-99430242D01*
X142625801Y-99446001D01*
X142594778Y-99454167D01*
X142580854Y-99454953D01*
X142551445Y-99450146D01*
X142522580Y-99437043D01*
X142497545Y-99417465D01*
X142484513Y-99401575D01*
X142476952Y-99388746D01*
X142472495Y-99376243D01*
X142470287Y-99360458D01*
X142469585Y-99340962D01*
X142545796Y-99340962D01*
X142549457Y-99358695D01*
X142554753Y-99366814D01*
X142567513Y-99374142D01*
X142584632Y-99376178D01*
X142601379Y-99372844D01*
X142609862Y-99367724D01*
X142616273Y-99356393D01*
X142619370Y-99340110D01*
X142618601Y-99324030D01*
X142615435Y-99315607D01*
X142606090Y-99307411D01*
X142592428Y-99300441D01*
X142581194Y-99297791D01*
X142572116Y-99300843D01*
X142560431Y-99308230D01*
X142559888Y-99308653D01*
X142549397Y-99322868D01*
X142545796Y-99340962D01*
X142469585Y-99340962D01*
X142469478Y-99338002D01*
X142468862Y-99296209D01*
X142435416Y-99264575D01*
X142420631Y-99250468D01*
X142400312Y-99230910D01*
X142376407Y-99207785D01*
X142350866Y-99182979D01*
X142329214Y-99161869D01*
X142307137Y-99140598D01*
X142288076Y-99122798D01*
X142273089Y-99109412D01*
X142263235Y-99101380D01*
X142259573Y-99099642D01*
X142259640Y-99100033D01*
X142263734Y-99117764D01*
X142267018Y-99143335D01*
X142269363Y-99174128D01*
X142270643Y-99207525D01*
X142270730Y-99240910D01*
X142269498Y-99271663D01*
X142268535Y-99283380D01*
X142263393Y-99327234D01*
X142256954Y-99363832D01*
X142248366Y-99396390D01*
X142236779Y-99428125D01*
X142221341Y-99462252D01*
X142221044Y-99462863D01*
X142182801Y-99529973D01*
X142136585Y-99591015D01*
X142083253Y-99645341D01*
X142023666Y-99692306D01*
X141958681Y-99731263D01*
X141889157Y-99761565D01*
X141815952Y-99782567D01*
X141789753Y-99787578D01*
X141770161Y-99790148D01*
X141742398Y-99792822D01*
X141708769Y-99795430D01*
X141671581Y-99797798D01*
X141633140Y-99799754D01*
X141618626Y-99800356D01*
X141575903Y-99801896D01*
X141542358Y-99802687D01*
X141516704Y-99802525D01*
X141497652Y-99801203D01*
X141483914Y-99798516D01*
X141474203Y-99794258D01*
X141467229Y-99788223D01*
X141461704Y-99780207D01*
X141458795Y-99774835D01*
X141452706Y-99762308D01*
X141452768Y-99756147D01*
X141460531Y-99753306D01*
X141470497Y-99751786D01*
X141483947Y-99750307D01*
X141504679Y-99748563D01*
X141529505Y-99746805D01*
X141547793Y-99745691D01*
X141639688Y-99737473D01*
X141723356Y-99723574D01*
X141799498Y-99703808D01*
X141868810Y-99677990D01*
X141931991Y-99645934D01*
X141939533Y-99641455D01*
X141957806Y-99629380D01*
X141980870Y-99612630D01*
X142005677Y-99593486D01*
X142027642Y-99575530D01*
X142051257Y-99555062D01*
X142068760Y-99538270D01*
X142082426Y-99522546D01*
X142094529Y-99505280D01*
X142106976Y-99484508D01*
X142118113Y-99464360D01*
X142126480Y-99446878D01*
X142133066Y-99429196D01*
X142138855Y-99408448D01*
X142144837Y-99381765D01*
X142148474Y-99363980D01*
X142160664Y-99283529D01*
X142164100Y-99205371D01*
X142158687Y-99127428D01*
X142144325Y-99047627D01*
X142131249Y-98997564D01*
X142123972Y-98971338D01*
X142119783Y-98952981D01*
X142118368Y-98940449D01*
X142119419Y-98931698D01*
X142120691Y-98928274D01*
X142131389Y-98915873D01*
X142148038Y-98911756D01*
X142170039Y-98916027D01*
G37*
G36*
X142232046Y-98662316D02*
G01*
X142245766Y-98667932D01*
X142261273Y-98678220D01*
X142276165Y-98691741D01*
X142287953Y-98705810D01*
X142294147Y-98717744D01*
X142294543Y-98720537D01*
X142299613Y-98724288D01*
X142314366Y-98726378D01*
X142327295Y-98726778D01*
X142346669Y-98727879D01*
X142363217Y-98730538D01*
X142371489Y-98733329D01*
X142376952Y-98738086D01*
X142389058Y-98749787D01*
X142407194Y-98767810D01*
X142430751Y-98791533D01*
X142459118Y-98820334D01*
X142491683Y-98853592D01*
X142527835Y-98890684D01*
X142566964Y-98930989D01*
X142608459Y-98973886D01*
X142640348Y-99006952D01*
X142683008Y-99051126D01*
X142723632Y-99092966D01*
X142761627Y-99131874D01*
X142796399Y-99167252D01*
X142827354Y-99198504D01*
X142853897Y-99225031D01*
X142875434Y-99246236D01*
X142891372Y-99261521D01*
X142901117Y-99270289D01*
X142904025Y-99272223D01*
X142932907Y-99267185D01*
X142947192Y-99268082D01*
X142962644Y-99269053D01*
X142990223Y-99277159D01*
X143012630Y-99290838D01*
X143019498Y-99297755D01*
X143032062Y-99312687D01*
X143035211Y-99275107D01*
X143039078Y-99226386D01*
X143041674Y-99187479D01*
X143043024Y-99157802D01*
X143043153Y-99136770D01*
X143042086Y-99123796D01*
X143041711Y-99122038D01*
X143038141Y-99107812D01*
X143026616Y-99118568D01*
X143009273Y-99129781D01*
X142990839Y-99133712D01*
X142976277Y-99130361D01*
X142972189Y-99127635D01*
X142969261Y-99123449D01*
X142967294Y-99116195D01*
X142966090Y-99104265D01*
X142965454Y-99086051D01*
X142965186Y-99059942D01*
X142965120Y-99039520D01*
X142964930Y-98954548D01*
X142954632Y-98983187D01*
X142939954Y-99016512D01*
X142922108Y-99045003D01*
X142902306Y-99067324D01*
X142881757Y-99082135D01*
X142861674Y-99088099D01*
X142859659Y-99088158D01*
X142847337Y-99083290D01*
X142836655Y-99070033D01*
X142828634Y-99050460D01*
X142824297Y-99026643D01*
X142823819Y-99015425D01*
X142823525Y-98999555D01*
X142821902Y-98991963D01*
X142817833Y-98990451D01*
X142812028Y-98992156D01*
X142798819Y-98994952D01*
X142782113Y-98996169D01*
X142780072Y-98996166D01*
X142768173Y-98994979D01*
X142758029Y-98990558D01*
X142746699Y-98981123D01*
X142734731Y-98968686D01*
X142719443Y-98953311D01*
X142707728Y-98944840D01*
X142697092Y-98941631D01*
X142693322Y-98941447D01*
X142675709Y-98937073D01*
X142665751Y-98930109D01*
X142654412Y-98918771D01*
X142669681Y-98906352D01*
X142705867Y-98879969D01*
X142749856Y-98852846D01*
X142799165Y-98826258D01*
X142851311Y-98801484D01*
X142903813Y-98779799D01*
X142941727Y-98766398D01*
X143007916Y-98746517D01*
X143072102Y-98730794D01*
X143136755Y-98718843D01*
X143204348Y-98710278D01*
X143277353Y-98704711D01*
X143354220Y-98701842D01*
X143404597Y-98701137D01*
X143450858Y-98701291D01*
X143491161Y-98702271D01*
X143523662Y-98704044D01*
X143535013Y-98705067D01*
X143565714Y-98708804D01*
X143597063Y-98713479D01*
X143627130Y-98718710D01*
X143653985Y-98724118D01*
X143675699Y-98729320D01*
X143690343Y-98733937D01*
X143695456Y-98736715D01*
X143695880Y-98743674D01*
X143689595Y-98757432D01*
X143676983Y-98777572D01*
X143662718Y-98799268D01*
X143648092Y-98822256D01*
X143636234Y-98841617D01*
X143636078Y-98841881D01*
X143608636Y-98884511D01*
X143574154Y-98932042D01*
X143533911Y-98983002D01*
X143489186Y-99035918D01*
X143441260Y-99089319D01*
X143391412Y-99141731D01*
X143340921Y-99191683D01*
X143295451Y-99233799D01*
X143268338Y-99257327D01*
X143237275Y-99283110D01*
X143203706Y-99310058D01*
X143169073Y-99337078D01*
X143134821Y-99363079D01*
X143102393Y-99386970D01*
X143073231Y-99407659D01*
X143048780Y-99424055D01*
X143030483Y-99435066D01*
X143026714Y-99437009D01*
X143011583Y-99444660D01*
X142993361Y-99454248D01*
X142986470Y-99457970D01*
X142958309Y-99468594D01*
X142930576Y-99468982D01*
X142905044Y-99460788D01*
X142877024Y-99443212D01*
X142857930Y-99420351D01*
X142847504Y-99391770D01*
X142846121Y-99371063D01*
X142919167Y-99371063D01*
X142923570Y-99381982D01*
X142932819Y-99389611D01*
X142946550Y-99392111D01*
X142959863Y-99389018D01*
X142964260Y-99385829D01*
X142970280Y-99373367D01*
X142968011Y-99359325D01*
X142958127Y-99347551D01*
X142957448Y-99347093D01*
X142947192Y-99341548D01*
X142939127Y-99342445D01*
X142931246Y-99347093D01*
X142920358Y-99357971D01*
X142919167Y-99371063D01*
X142846121Y-99371063D01*
X142845362Y-99359693D01*
X142846589Y-99329646D01*
X142789351Y-99270341D01*
X142774410Y-99254856D01*
X142753145Y-99232809D01*
X142726506Y-99205186D01*
X142695440Y-99172969D01*
X142660898Y-99137144D01*
X142623829Y-99098695D01*
X142585182Y-99058606D01*
X142545906Y-99017863D01*
X142536512Y-99008117D01*
X142340910Y-98805198D01*
X142318349Y-98805198D01*
X142302776Y-98806426D01*
X142292193Y-98811804D01*
X142281761Y-98823588D01*
X142260093Y-98843850D01*
X142232658Y-98857338D01*
X142202285Y-98863268D01*
X142171806Y-98860858D01*
X142159945Y-98857280D01*
X142141604Y-98846674D01*
X142123012Y-98830103D01*
X142107968Y-98811269D01*
X142102645Y-98801436D01*
X142097013Y-98779743D01*
X142095884Y-98755294D01*
X142170275Y-98755294D01*
X142170940Y-98767838D01*
X142179255Y-98778996D01*
X142191384Y-98787901D01*
X142203150Y-98787800D01*
X142214772Y-98781319D01*
X142224236Y-98769054D01*
X142225952Y-98753651D01*
X142222356Y-98744039D01*
X142211639Y-98735788D01*
X142197034Y-98734062D01*
X142183033Y-98739089D01*
X142179709Y-98741860D01*
X142170275Y-98755294D01*
X142095884Y-98755294D01*
X142095855Y-98754673D01*
X142099111Y-98731089D01*
X142103634Y-98718732D01*
X142119399Y-98695653D01*
X142139950Y-98675504D01*
X142155538Y-98665119D01*
X142178354Y-98658129D01*
X142197034Y-98657513D01*
X142205292Y-98657240D01*
X142232046Y-98662316D01*
G37*
G36*
X141682662Y-100189235D02*
G01*
X141732946Y-100194746D01*
X141784408Y-100203796D01*
X141835815Y-100216364D01*
X141885934Y-100232428D01*
X141903852Y-100239232D01*
X141968352Y-100268069D01*
X142023746Y-100300100D01*
X142071182Y-100336349D01*
X142111808Y-100377840D01*
X142146770Y-100425595D01*
X142177216Y-100480637D01*
X142179180Y-100484732D01*
X142204684Y-100546514D01*
X142207521Y-100553387D01*
X142230606Y-100628400D01*
X142242917Y-100682149D01*
X142247436Y-100707074D01*
X142250691Y-100730799D01*
X142252878Y-100755911D01*
X142254190Y-100784995D01*
X142254821Y-100820638D01*
X142254944Y-100842350D01*
X142255240Y-100943191D01*
X142370034Y-100828419D01*
X142484827Y-100713647D01*
X142478227Y-100690077D01*
X142474273Y-100658018D01*
X142474648Y-100656226D01*
X142552187Y-100656226D01*
X142553515Y-100671801D01*
X142561590Y-100683674D01*
X142575376Y-100690061D01*
X142590077Y-100687906D01*
X142602010Y-100678084D01*
X142604646Y-100673455D01*
X142606895Y-100658511D01*
X142601270Y-100645830D01*
X142590366Y-100637205D01*
X142576778Y-100634426D01*
X142563102Y-100639287D01*
X142559555Y-100642317D01*
X142552187Y-100656226D01*
X142474648Y-100656226D01*
X142480634Y-100627587D01*
X142495490Y-100601539D01*
X142518915Y-100578558D01*
X142546092Y-100564210D01*
X142575202Y-100558438D01*
X142576778Y-100558586D01*
X142604426Y-100561187D01*
X142631945Y-100572401D01*
X142655940Y-100592024D01*
X142667256Y-100606815D01*
X142675970Y-100621607D01*
X142680468Y-100634161D01*
X142681804Y-100648940D01*
X142681263Y-100666165D01*
X142678970Y-100688969D01*
X142674081Y-100705852D01*
X142665288Y-100721292D01*
X142665093Y-100721574D01*
X142643733Y-100744313D01*
X142617330Y-100759829D01*
X142588333Y-100767094D01*
X142560763Y-100765448D01*
X142542025Y-100761222D01*
X142384977Y-100919057D01*
X142339032Y-100965510D01*
X142300697Y-101004878D01*
X142269914Y-101037221D01*
X142246625Y-101062601D01*
X142230774Y-101081079D01*
X142222304Y-101092717D01*
X142221055Y-101095233D01*
X142215245Y-101109083D01*
X142210011Y-101118998D01*
X142209432Y-101119819D01*
X142209554Y-101124872D01*
X142218788Y-101129628D01*
X142226328Y-101131891D01*
X142246915Y-101140994D01*
X142267623Y-101155894D01*
X142284873Y-101173592D01*
X142294205Y-101188743D01*
X142301543Y-101199910D01*
X142313152Y-101203476D01*
X142315710Y-101203534D01*
X142320963Y-101202668D01*
X142327410Y-101199552D01*
X142335884Y-101193411D01*
X142347220Y-101183469D01*
X142362251Y-101168949D01*
X142381813Y-101149076D01*
X142406739Y-101123074D01*
X142437863Y-101090166D01*
X142439894Y-101088010D01*
X142470469Y-101055561D01*
X142506414Y-101017438D01*
X142545899Y-100975579D01*
X142587091Y-100931927D01*
X142628161Y-100888420D01*
X142667278Y-100846999D01*
X142688385Y-100824657D01*
X142828070Y-100676828D01*
X142827370Y-100646284D01*
X142828612Y-100635178D01*
X142903367Y-100635178D01*
X142905060Y-100650036D01*
X142909233Y-100657112D01*
X142920220Y-100664625D01*
X142933722Y-100664621D01*
X142945843Y-100657874D01*
X142951757Y-100648652D01*
X142953868Y-100635746D01*
X142948285Y-100625095D01*
X142947111Y-100623760D01*
X142934194Y-100614412D01*
X142921147Y-100615456D01*
X142912008Y-100621793D01*
X142903367Y-100635178D01*
X142828612Y-100635178D01*
X142831119Y-100612748D01*
X142843295Y-100584489D01*
X142862814Y-100562373D01*
X142888597Y-100547264D01*
X142919562Y-100540029D01*
X142934194Y-100540656D01*
X142954627Y-100541531D01*
X142957616Y-100542061D01*
X142976643Y-100549901D01*
X142995980Y-100564717D01*
X143012679Y-100583527D01*
X143023790Y-100603346D01*
X143026099Y-100611348D01*
X143028910Y-100622343D01*
X143031429Y-100625908D01*
X143032100Y-100624911D01*
X143037396Y-100618820D01*
X143039432Y-100618361D01*
X143046951Y-100621226D01*
X143061681Y-100629226D01*
X143082257Y-100641467D01*
X143107316Y-100657056D01*
X143135496Y-100675099D01*
X143165432Y-100694703D01*
X143195761Y-100714975D01*
X143225120Y-100735021D01*
X143252144Y-100753947D01*
X143275472Y-100770861D01*
X143293739Y-100784869D01*
X143294633Y-100785589D01*
X143335241Y-100820000D01*
X143378670Y-100859667D01*
X143423013Y-100902641D01*
X143466359Y-100946976D01*
X143506799Y-100990724D01*
X143542423Y-101031938D01*
X143568647Y-101065062D01*
X143590038Y-101094784D01*
X143612897Y-101128393D01*
X143634690Y-101162061D01*
X143652888Y-101191959D01*
X143655259Y-101196071D01*
X143669154Y-101220321D01*
X143681733Y-101242133D01*
X143691817Y-101259469D01*
X143698223Y-101270292D01*
X143699184Y-101271857D01*
X143703701Y-101281340D01*
X143703807Y-101286024D01*
X143697982Y-101287807D01*
X143683713Y-101290952D01*
X143662890Y-101295078D01*
X143637403Y-101299799D01*
X143625400Y-101301931D01*
X143596806Y-101307109D01*
X143570433Y-101312180D01*
X143548720Y-101316655D01*
X143534105Y-101320045D01*
X143531267Y-101320839D01*
X143516758Y-101323577D01*
X143493762Y-101325887D01*
X143464265Y-101327727D01*
X143430256Y-101329058D01*
X143393719Y-101329840D01*
X143356641Y-101330033D01*
X143321010Y-101329596D01*
X143288812Y-101328490D01*
X143262034Y-101326675D01*
X143258537Y-101326331D01*
X143143458Y-101309255D01*
X143028518Y-101281904D01*
X142914366Y-101244470D01*
X142801648Y-101197147D01*
X142763555Y-101178733D01*
X142734168Y-101163197D01*
X142704725Y-101146128D01*
X142676673Y-101128527D01*
X142651453Y-101111395D01*
X142630513Y-101095731D01*
X142615295Y-101082536D01*
X142607244Y-101072811D01*
X142606344Y-101069854D01*
X142610922Y-101064981D01*
X142622942Y-101058404D01*
X142639835Y-101051522D01*
X142640407Y-101051320D01*
X142691043Y-101030115D01*
X142739694Y-101003383D01*
X142783672Y-100972818D01*
X142820290Y-100940113D01*
X142825291Y-100934790D01*
X142838556Y-100921010D01*
X142849508Y-100910962D01*
X142855973Y-100906624D01*
X142856305Y-100906580D01*
X142863483Y-100910772D01*
X142874988Y-100922304D01*
X142889621Y-100939608D01*
X142906182Y-100961119D01*
X142923475Y-100985269D01*
X142940300Y-101010492D01*
X142955458Y-101035221D01*
X142957695Y-101039109D01*
X142969005Y-101058969D01*
X142973705Y-101020767D01*
X142975874Y-100996815D01*
X142977372Y-100967889D01*
X142977933Y-100939490D01*
X142977906Y-100934092D01*
X142977986Y-100910484D01*
X142978973Y-100895656D01*
X142981106Y-100887928D01*
X142984623Y-100885622D01*
X142984804Y-100885619D01*
X142996457Y-100888211D01*
X143008551Y-100896786D01*
X143022365Y-100912545D01*
X143039021Y-100936445D01*
X143064875Y-100976050D01*
X143064770Y-100877121D01*
X143064475Y-100834747D01*
X143063518Y-100800202D01*
X143061636Y-100770841D01*
X143058568Y-100744020D01*
X143054052Y-100717094D01*
X143047827Y-100687420D01*
X143044612Y-100673385D01*
X143034846Y-100631462D01*
X143030819Y-100652423D01*
X143020054Y-100684529D01*
X143002088Y-100710454D01*
X142978309Y-100729237D01*
X142950109Y-100739920D01*
X142918878Y-100741541D01*
X142905083Y-100739264D01*
X142878920Y-100733246D01*
X142847299Y-100766200D01*
X142836239Y-100777798D01*
X142819071Y-100795892D01*
X142796870Y-100819347D01*
X142770711Y-100847023D01*
X142741669Y-100877786D01*
X142710818Y-100910498D01*
X142684882Y-100938023D01*
X142649822Y-100975245D01*
X142612604Y-101014758D01*
X142574939Y-101054744D01*
X142538538Y-101093386D01*
X142505113Y-101128867D01*
X142476375Y-101159370D01*
X142465212Y-101171218D01*
X142440126Y-101197645D01*
X142416900Y-101221735D01*
X142396654Y-101242358D01*
X142380507Y-101258384D01*
X142369578Y-101268681D01*
X142365573Y-101271909D01*
X142354383Y-101275520D01*
X142337297Y-101277911D01*
X142325297Y-101278460D01*
X142307832Y-101279126D01*
X142296924Y-101281934D01*
X142288663Y-101288518D01*
X142282207Y-101296450D01*
X142268930Y-101309707D01*
X142251482Y-101322137D01*
X142244450Y-101325959D01*
X142215282Y-101334718D01*
X142185269Y-101334383D01*
X142156715Y-101325669D01*
X142131922Y-101309289D01*
X142113192Y-101285957D01*
X142112731Y-101285124D01*
X142102163Y-101262257D01*
X142097785Y-101241292D01*
X142098400Y-101230238D01*
X142175023Y-101230238D01*
X142177063Y-101243480D01*
X142186611Y-101254341D01*
X142189404Y-101255914D01*
X142205308Y-101258902D01*
X142219088Y-101252054D01*
X142225959Y-101242821D01*
X142227867Y-101229599D01*
X142222075Y-101216702D01*
X142210778Y-101207902D01*
X142204684Y-101206306D01*
X142189760Y-101208644D01*
X142179564Y-101217624D01*
X142175023Y-101230238D01*
X142098400Y-101230238D01*
X142099082Y-101217964D01*
X142102549Y-101200285D01*
X142107910Y-101175983D01*
X142113345Y-101149887D01*
X142116359Y-101134536D01*
X142120298Y-101114260D01*
X142125450Y-101088527D01*
X142130851Y-101062136D01*
X142132141Y-101055931D01*
X142143561Y-100987577D01*
X142150274Y-100916291D01*
X142152136Y-100845471D01*
X142149005Y-100778518D01*
X142145208Y-100745316D01*
X142131477Y-100671021D01*
X142112408Y-100602584D01*
X142088365Y-100540729D01*
X142059708Y-100486181D01*
X142026798Y-100439662D01*
X141989996Y-100401897D01*
X141964099Y-100382347D01*
X141915991Y-100354270D01*
X141863787Y-100330802D01*
X141806397Y-100311660D01*
X141742734Y-100296557D01*
X141671709Y-100285209D01*
X141592235Y-100277331D01*
X141553674Y-100274855D01*
X141524629Y-100273028D01*
X141504202Y-100271052D01*
X141490530Y-100268601D01*
X141481754Y-100265350D01*
X141476379Y-100261348D01*
X141468386Y-100251769D01*
X141467813Y-100243569D01*
X141474409Y-100232193D01*
X141474746Y-100231711D01*
X141492068Y-100215531D01*
X141517967Y-100203020D01*
X141551208Y-100194156D01*
X141590560Y-100188919D01*
X141634789Y-100187285D01*
X141682662Y-100189235D01*
G37*
G36*
X141786490Y-98252793D02*
G01*
X141799423Y-98259111D01*
X141815368Y-98268856D01*
X141816017Y-98269289D01*
X141841860Y-98286004D01*
X141875369Y-98306739D01*
X141886598Y-98313499D01*
X141914965Y-98330576D01*
X141959067Y-98356598D01*
X142006097Y-98383889D01*
X142054475Y-98411531D01*
X142102622Y-98438607D01*
X142148958Y-98464201D01*
X142188744Y-98485709D01*
X142242423Y-98513465D01*
X142302062Y-98542756D01*
X142364618Y-98572175D01*
X142427044Y-98600318D01*
X142486296Y-98625781D01*
X142535048Y-98645498D01*
X142600000Y-98670768D01*
X142631994Y-98661933D01*
X142738063Y-98634134D01*
X142838024Y-98611195D01*
X142934771Y-98592609D01*
X143031198Y-98577868D01*
X143130200Y-98566466D01*
X143219466Y-98558954D01*
X143276675Y-98555795D01*
X143338876Y-98554027D01*
X143404474Y-98553580D01*
X143471878Y-98554383D01*
X143539496Y-98556366D01*
X143605734Y-98559460D01*
X143669000Y-98563594D01*
X143727701Y-98568697D01*
X143780245Y-98574700D01*
X143825040Y-98581532D01*
X143850929Y-98586770D01*
X143879750Y-98593435D01*
X143878674Y-98624642D01*
X143877903Y-98637227D01*
X143876263Y-98651557D01*
X143873510Y-98668833D01*
X143869398Y-98690255D01*
X143863682Y-98717021D01*
X143856118Y-98750334D01*
X143846461Y-98791393D01*
X143834466Y-98841398D01*
X143834349Y-98841881D01*
X143793773Y-98988456D01*
X143743745Y-99131568D01*
X143684600Y-99270465D01*
X143616672Y-99404392D01*
X143540294Y-99532598D01*
X143503751Y-99587505D01*
X143464854Y-99644023D01*
X143471763Y-99679211D01*
X143480971Y-99729998D01*
X143488333Y-99779942D01*
X143494048Y-99831222D01*
X143498315Y-99886019D01*
X143501331Y-99946514D01*
X143503297Y-100014886D01*
X143503553Y-100028146D01*
X143504356Y-100104940D01*
X143503733Y-100173515D01*
X143501573Y-100236049D01*
X143497768Y-100294720D01*
X143492205Y-100351706D01*
X143484774Y-100409186D01*
X143483928Y-100415020D01*
X143474186Y-100481558D01*
X143553981Y-100601053D01*
X143612351Y-100690254D01*
X143664170Y-100773423D01*
X143710217Y-100852023D01*
X143751272Y-100927513D01*
X143788113Y-101001355D01*
X143821519Y-101075009D01*
X143852269Y-101149937D01*
X143866372Y-101186939D01*
X143879283Y-101222806D01*
X143891197Y-101258149D01*
X143901707Y-101291526D01*
X143910403Y-101321495D01*
X143916875Y-101346611D01*
X143920713Y-101365433D01*
X143921509Y-101376517D01*
X143920765Y-101378597D01*
X143911153Y-101384342D01*
X143893202Y-101391607D01*
X143868842Y-101399828D01*
X143840005Y-101408442D01*
X143808623Y-101416884D01*
X143776627Y-101424592D01*
X143745949Y-101431001D01*
X143733436Y-101433253D01*
X143605438Y-101451134D01*
X143470873Y-101462768D01*
X143331541Y-101468221D01*
X143189242Y-101467559D01*
X143045775Y-101460849D01*
X142902940Y-101448155D01*
X142762536Y-101429543D01*
X142626365Y-101405079D01*
X142558984Y-101390338D01*
X142501144Y-101376864D01*
X142388673Y-101435798D01*
X142311737Y-101476281D01*
X142240944Y-101513912D01*
X142173023Y-101550449D01*
X142104704Y-101587649D01*
X142043006Y-101621585D01*
X141999434Y-101645359D01*
X141957952Y-101667443D01*
X141919541Y-101687353D01*
X141885183Y-101704610D01*
X141855859Y-101718731D01*
X141832550Y-101729233D01*
X141816238Y-101735636D01*
X141807905Y-101737457D01*
X141807344Y-101737272D01*
X141798686Y-101728874D01*
X141786166Y-101712545D01*
X141770709Y-101689677D01*
X141753238Y-101661662D01*
X141734678Y-101629893D01*
X141726995Y-101616156D01*
X141713136Y-101590519D01*
X141697980Y-101561578D01*
X141682278Y-101530867D01*
X141666781Y-101499921D01*
X141652239Y-101470273D01*
X141639403Y-101443458D01*
X141629024Y-101421009D01*
X141621852Y-101404460D01*
X141618639Y-101395347D01*
X141618537Y-101394534D01*
X141615846Y-101385266D01*
X141608165Y-101368256D01*
X141596081Y-101344634D01*
X141580183Y-101315530D01*
X141561060Y-101282075D01*
X141551879Y-101266441D01*
X141481340Y-101154342D01*
X141452398Y-101113574D01*
X141587095Y-101113574D01*
X141589715Y-101116195D01*
X141592336Y-101113574D01*
X141589715Y-101110954D01*
X141587095Y-101113574D01*
X141452398Y-101113574D01*
X141404606Y-101046254D01*
X141320476Y-100940629D01*
X141227752Y-100835918D01*
X141178387Y-100784031D01*
X141156368Y-100761781D01*
X141130079Y-100735841D01*
X141100722Y-100707339D01*
X141069496Y-100677402D01*
X141037600Y-100647157D01*
X141006235Y-100617731D01*
X140976600Y-100590250D01*
X140949896Y-100565842D01*
X140927321Y-100545634D01*
X140910077Y-100530753D01*
X140901013Y-100523505D01*
X140888068Y-100511924D01*
X140884699Y-100503834D01*
X140890762Y-100499771D01*
X140906114Y-100500275D01*
X140907159Y-100500436D01*
X140954703Y-100509972D01*
X140998946Y-100523423D01*
X141041585Y-100541671D01*
X141084319Y-100565600D01*
X141128845Y-100596093D01*
X141176861Y-100634034D01*
X141197439Y-100651507D01*
X141241651Y-100691916D01*
X141289484Y-100739614D01*
X141339364Y-100792785D01*
X141389718Y-100849614D01*
X141438974Y-100908287D01*
X141485559Y-100966989D01*
X141527899Y-101023904D01*
X141558225Y-101067784D01*
X141569708Y-101084554D01*
X141578956Y-101097060D01*
X141584556Y-101103434D01*
X141585495Y-101103820D01*
X141584642Y-101098369D01*
X141580578Y-101085693D01*
X141574114Y-101068247D01*
X141572105Y-101063145D01*
X141529071Y-100965750D01*
X141480682Y-100876557D01*
X141426137Y-100794327D01*
X141364632Y-100717820D01*
X141312616Y-100662619D01*
X141269105Y-100622229D01*
X141223663Y-100585324D01*
X141177745Y-100552822D01*
X141132807Y-100525641D01*
X141090305Y-100504701D01*
X141051695Y-100490918D01*
X141034238Y-100486987D01*
X140983295Y-100474652D01*
X140928763Y-100455147D01*
X140873174Y-100429807D01*
X140819063Y-100399967D01*
X140768961Y-100366964D01*
X140725403Y-100332133D01*
X140706716Y-100314293D01*
X140677590Y-100280228D01*
X140652410Y-100242549D01*
X140633347Y-100204703D01*
X140627241Y-100188217D01*
X140621182Y-100171126D01*
X140615872Y-100159178D01*
X140612359Y-100154690D01*
X140612111Y-100154761D01*
X140609675Y-100151088D01*
X140606995Y-100137911D01*
X140604203Y-100116197D01*
X140601430Y-100086915D01*
X140599602Y-100062883D01*
X140599194Y-100044030D01*
X140599783Y-100022776D01*
X140709410Y-100022776D01*
X140709892Y-100034061D01*
X140711100Y-100053449D01*
X140711824Y-100071468D01*
X140711910Y-100076983D01*
X140712467Y-100088231D01*
X140715991Y-100090851D01*
X140725390Y-100086696D01*
X140726367Y-100086186D01*
X140745456Y-100080399D01*
X140769045Y-100078921D01*
X140792021Y-100081892D01*
X140799391Y-100084166D01*
X140816197Y-100093065D01*
X140830402Y-100105160D01*
X140841093Y-100118684D01*
X140847359Y-100131871D01*
X140848287Y-100142953D01*
X140842964Y-100150164D01*
X140834402Y-100151969D01*
X140819882Y-100153505D01*
X140802178Y-100157361D01*
X140785472Y-100162412D01*
X140773947Y-100167530D01*
X140772385Y-100168671D01*
X140774214Y-100173765D01*
X140783070Y-100185158D01*
X140798257Y-100202067D01*
X140819079Y-100223707D01*
X140838953Y-100243535D01*
X140865003Y-100268916D01*
X140885523Y-100288181D01*
X140902297Y-100302720D01*
X140917106Y-100313926D01*
X140931735Y-100323190D01*
X140947965Y-100331904D01*
X140959316Y-100337498D01*
X140983986Y-100348743D01*
X141014597Y-100361690D01*
X141047157Y-100374697D01*
X141076161Y-100385577D01*
X141113164Y-100399073D01*
X141142632Y-100410413D01*
X141166967Y-100420773D01*
X141188571Y-100431331D01*
X141209845Y-100443263D01*
X141233190Y-100457746D01*
X141261010Y-100475957D01*
X141262193Y-100476742D01*
X141321885Y-100520936D01*
X141381537Y-100573833D01*
X141439588Y-100633764D01*
X141494477Y-100699061D01*
X141544644Y-100768057D01*
X141566642Y-100802085D01*
X141587111Y-100837051D01*
X141589715Y-100841900D01*
X141609120Y-100878032D01*
X141631511Y-100922575D01*
X141653125Y-100968230D01*
X141672805Y-101012543D01*
X141689392Y-101053063D01*
X141701731Y-101087337D01*
X141702581Y-101089993D01*
X141705483Y-101098407D01*
X141706127Y-101097931D01*
X141786229Y-101097931D01*
X141789642Y-101114637D01*
X141797875Y-101123758D01*
X141814533Y-101131198D01*
X141829514Y-101128463D01*
X141838632Y-101121435D01*
X141847557Y-101106554D01*
X141848367Y-101090502D01*
X141842130Y-101076154D01*
X141829913Y-101066385D01*
X141817233Y-101063791D01*
X141800197Y-101068071D01*
X141789587Y-101080292D01*
X141786229Y-101097931D01*
X141706127Y-101097931D01*
X141706697Y-101097510D01*
X141707173Y-101087173D01*
X141712713Y-101061556D01*
X141726511Y-101036571D01*
X141746473Y-101014479D01*
X141770503Y-100997541D01*
X141796507Y-100988019D01*
X141799513Y-100987505D01*
X141817233Y-100987567D01*
X141829215Y-100987609D01*
X141858350Y-100995769D01*
X141884591Y-101010616D01*
X141905612Y-101030781D01*
X141919086Y-101054893D01*
X141920267Y-101058605D01*
X141925532Y-101076892D01*
X141973459Y-101075014D01*
X141996327Y-101074298D01*
X142011333Y-101074644D01*
X142021080Y-101076543D01*
X142028169Y-101080483D01*
X142034816Y-101086567D01*
X142045205Y-101099533D01*
X142047697Y-101112132D01*
X142043256Y-101128639D01*
X142035137Y-101139251D01*
X142019553Y-101146657D01*
X141995644Y-101151097D01*
X141962547Y-101152811D01*
X141956211Y-101152848D01*
X141934927Y-101153100D01*
X141921147Y-101154380D01*
X141911897Y-101157524D01*
X141904202Y-101163371D01*
X141898567Y-101169078D01*
X141871436Y-101190821D01*
X141840832Y-101202817D01*
X141817711Y-101205281D01*
X141786146Y-101201652D01*
X141759953Y-101190090D01*
X141740943Y-101174198D01*
X141724479Y-101157288D01*
X141734605Y-101187835D01*
X141750284Y-101237538D01*
X141766949Y-101294650D01*
X141783818Y-101356248D01*
X141800108Y-101419409D01*
X141815040Y-101481211D01*
X141825450Y-101527562D01*
X141831202Y-101552391D01*
X141836882Y-101573715D01*
X141841841Y-101589289D01*
X141845431Y-101596866D01*
X141845476Y-101596912D01*
X141850435Y-101598913D01*
X141858910Y-101596975D01*
X141872551Y-101590449D01*
X141893008Y-101578685D01*
X141895437Y-101577228D01*
X141914006Y-101566370D01*
X141940348Y-101551392D01*
X141972989Y-101533102D01*
X142010452Y-101512308D01*
X142051261Y-101489818D01*
X142093941Y-101466438D01*
X142137015Y-101442978D01*
X142179007Y-101420244D01*
X142218441Y-101399045D01*
X142253842Y-101380188D01*
X142283733Y-101364480D01*
X142292825Y-101359770D01*
X142323405Y-101343788D01*
X142356744Y-101326001D01*
X142388780Y-101308597D01*
X142415071Y-101293977D01*
X142444554Y-101277485D01*
X142467149Y-101265836D01*
X142485037Y-101258617D01*
X142500401Y-101255418D01*
X142515421Y-101255825D01*
X142532279Y-101259427D01*
X142553156Y-101265814D01*
X142557243Y-101267141D01*
X142592702Y-101278460D01*
X142622246Y-101287229D01*
X142649222Y-101294260D01*
X142676975Y-101300364D01*
X142708852Y-101306353D01*
X142742593Y-101312111D01*
X142924843Y-101337289D01*
X143106263Y-101352066D01*
X143287278Y-101356445D01*
X143468314Y-101350429D01*
X143649798Y-101334021D01*
X143752150Y-101320240D01*
X143792242Y-101314209D01*
X143777758Y-101271536D01*
X143749396Y-101195135D01*
X143714532Y-101113182D01*
X143674139Y-101027469D01*
X143629190Y-100939789D01*
X143580660Y-100851935D01*
X143529520Y-100765700D01*
X143476745Y-100682876D01*
X143423308Y-100605258D01*
X143395569Y-100567530D01*
X143378250Y-100542944D01*
X143367421Y-100523912D01*
X143363578Y-100511308D01*
X143363576Y-100511086D01*
X143363576Y-100497101D01*
X143060945Y-100498185D01*
X142758315Y-100499268D01*
X142739459Y-100516159D01*
X142714644Y-100532018D01*
X142687108Y-100537784D01*
X142661408Y-100534526D01*
X142640586Y-100524974D01*
X142621449Y-100509416D01*
X142607055Y-100490822D01*
X142601033Y-100475871D01*
X142598169Y-100468829D01*
X142591604Y-100458899D01*
X142589984Y-100456887D01*
X142675587Y-100456887D01*
X142683933Y-100461109D01*
X142685259Y-100461150D01*
X142691381Y-100456787D01*
X142692810Y-100450670D01*
X142689379Y-100442375D01*
X142682206Y-100440411D01*
X142675970Y-100445846D01*
X142675613Y-100446739D01*
X142675587Y-100456887D01*
X142589984Y-100456887D01*
X142580678Y-100445333D01*
X142564729Y-100427383D01*
X142543097Y-100404302D01*
X142515120Y-100375340D01*
X142486176Y-100345862D01*
X142450082Y-100309214D01*
X142420734Y-100279190D01*
X142397451Y-100255019D01*
X142379552Y-100235930D01*
X142366358Y-100221151D01*
X142357188Y-100209912D01*
X142351362Y-100201439D01*
X142348198Y-100194963D01*
X142347017Y-100189712D01*
X142346947Y-100188012D01*
X142351456Y-100175013D01*
X142362666Y-100162635D01*
X142377096Y-100153994D01*
X142387321Y-100151837D01*
X142392555Y-100152841D01*
X142399424Y-100156426D01*
X142408739Y-100163331D01*
X142421310Y-100174290D01*
X142437946Y-100190040D01*
X142459457Y-100211318D01*
X142486654Y-100238860D01*
X142514979Y-100267881D01*
X142546668Y-100300429D01*
X142571899Y-100326185D01*
X142591516Y-100345875D01*
X142606363Y-100360225D01*
X142617286Y-100369959D01*
X142625128Y-100375803D01*
X142630734Y-100378484D01*
X142634948Y-100378727D01*
X142638615Y-100377257D01*
X142640748Y-100375955D01*
X142666949Y-100365018D01*
X142682206Y-100364381D01*
X142694142Y-100363883D01*
X142720503Y-100372257D01*
X142744209Y-100389847D01*
X142747269Y-100393091D01*
X142757862Y-100405719D01*
X142764723Y-100415632D01*
X142766175Y-100419243D01*
X142771389Y-100420482D01*
X142786924Y-100421560D01*
X142812625Y-100422472D01*
X142848334Y-100423216D01*
X142893893Y-100423790D01*
X142949146Y-100424191D01*
X143013935Y-100424416D01*
X143069261Y-100424468D01*
X143372348Y-100424468D01*
X143378450Y-100368134D01*
X143380966Y-100344002D01*
X143382977Y-100323007D01*
X143384237Y-100307800D01*
X143384545Y-100301807D01*
X143384109Y-100298480D01*
X143381926Y-100296048D01*
X143376671Y-100294432D01*
X143367020Y-100293551D01*
X143351650Y-100293325D01*
X143329235Y-100293672D01*
X143298452Y-100294514D01*
X143275800Y-100295211D01*
X143235986Y-100296322D01*
X143193111Y-100297294D01*
X143150705Y-100298061D01*
X143112295Y-100298558D01*
X143085837Y-100298719D01*
X143004611Y-100298829D01*
X142993199Y-100316455D01*
X142974623Y-100336189D01*
X142950411Y-100349068D01*
X142922817Y-100355136D01*
X142894092Y-100354439D01*
X142866491Y-100347020D01*
X142842267Y-100332925D01*
X142824251Y-100313110D01*
X142811582Y-100293459D01*
X142746731Y-100293459D01*
X142681880Y-100293459D01*
X142657213Y-100270898D01*
X142646466Y-100261079D01*
X142639160Y-100254410D01*
X142881463Y-100254410D01*
X142886315Y-100267768D01*
X142895168Y-100275995D01*
X142906049Y-100281765D01*
X142914982Y-100281070D01*
X142922679Y-100277251D01*
X142934728Y-100265717D01*
X142938044Y-100251239D01*
X142932049Y-100236780D01*
X142930855Y-100235383D01*
X142917300Y-100226749D01*
X142902658Y-100226549D01*
X142890004Y-100233600D01*
X142882410Y-100246718D01*
X142881463Y-100254410D01*
X142639160Y-100254410D01*
X142629362Y-100245466D01*
X142607291Y-100225326D01*
X142581642Y-100201926D01*
X142553804Y-100176533D01*
X142532979Y-100157542D01*
X142505516Y-100132428D01*
X142480269Y-100109206D01*
X142458386Y-100088943D01*
X142441015Y-100072708D01*
X142429305Y-100061565D01*
X142424712Y-100056954D01*
X142420731Y-100053430D01*
X142414952Y-100050863D01*
X142408859Y-100049690D01*
X142530359Y-100049690D01*
X142534052Y-100053628D01*
X142544421Y-100063634D01*
X142560403Y-100078707D01*
X142580933Y-100097850D01*
X142604947Y-100120062D01*
X142622139Y-100135872D01*
X142713918Y-100220094D01*
X142762318Y-100219975D01*
X142810718Y-100219856D01*
X142819016Y-100202944D01*
X142833461Y-100183187D01*
X142854657Y-100165748D01*
X142878881Y-100153276D01*
X142894767Y-100149045D01*
X142902658Y-100149167D01*
X142924678Y-100149507D01*
X142953771Y-100158791D01*
X142979329Y-100175512D01*
X142998637Y-100198283D01*
X143001569Y-100203558D01*
X143011335Y-100222714D01*
X143198274Y-100219319D01*
X143241546Y-100218438D01*
X143281476Y-100217442D01*
X143316860Y-100216374D01*
X143346493Y-100215280D01*
X143369171Y-100214203D01*
X143383688Y-100213188D01*
X143388805Y-100212342D01*
X143390132Y-100206131D01*
X143391467Y-100191300D01*
X143392697Y-100169706D01*
X143393707Y-100143210D01*
X143394170Y-100125228D01*
X143395943Y-100041696D01*
X143079749Y-100042926D01*
X142984689Y-100043340D01*
X142898011Y-100043807D01*
X142819934Y-100044326D01*
X142750675Y-100044893D01*
X142690451Y-100045506D01*
X142639481Y-100046162D01*
X142597981Y-100046858D01*
X142566170Y-100047592D01*
X142544266Y-100048361D01*
X142532485Y-100049163D01*
X142530359Y-100049690D01*
X142408859Y-100049690D01*
X142405815Y-100049104D01*
X142391761Y-100048005D01*
X142371232Y-100047415D01*
X142342670Y-100047187D01*
X142322224Y-100047162D01*
X142228436Y-100047162D01*
X142212156Y-100070260D01*
X142188620Y-100095817D01*
X142160797Y-100113142D01*
X142130408Y-100121820D01*
X142099173Y-100121435D01*
X142068812Y-100111573D01*
X142060392Y-100106866D01*
X142031834Y-100084109D01*
X142012771Y-100056968D01*
X142003120Y-100025314D01*
X142002140Y-100016303D01*
X142002495Y-99999749D01*
X142075435Y-99999749D01*
X142076448Y-100013512D01*
X142080545Y-100022615D01*
X142093907Y-100039258D01*
X142111622Y-100046555D01*
X142117681Y-100046996D01*
X142134764Y-100042601D01*
X142147808Y-100030937D01*
X142155213Y-100014928D01*
X142155378Y-99997498D01*
X142150737Y-99986626D01*
X142136018Y-99972077D01*
X142118454Y-99966474D01*
X142100579Y-99969872D01*
X142084928Y-99982329D01*
X142082838Y-99985113D01*
X142075435Y-99999749D01*
X142002495Y-99999749D01*
X142002842Y-99983590D01*
X142010858Y-99956481D01*
X142027153Y-99932241D01*
X142034510Y-99924406D01*
X142061352Y-99904312D01*
X142091386Y-99893034D01*
X142118454Y-99890697D01*
X142122728Y-99890328D01*
X142153492Y-99895955D01*
X142181796Y-99909672D01*
X142205754Y-99931239D01*
X142217243Y-99947818D01*
X142229039Y-99968476D01*
X142327026Y-99968517D01*
X142425013Y-99968557D01*
X142426250Y-99967247D01*
X142530528Y-99967247D01*
X142535613Y-99967448D01*
X142550404Y-99967640D01*
X142574127Y-99967821D01*
X142606008Y-99967987D01*
X142645272Y-99968136D01*
X142691145Y-99968267D01*
X142742852Y-99968376D01*
X142799620Y-99968462D01*
X142860673Y-99968521D01*
X142925238Y-99968553D01*
X142960068Y-99968557D01*
X143389777Y-99968557D01*
X143389777Y-99941352D01*
X143389230Y-99924650D01*
X143387754Y-99901077D01*
X143385594Y-99874177D01*
X143383769Y-99854886D01*
X143377761Y-99795625D01*
X143033976Y-99795912D01*
X142690190Y-99796200D01*
X142610443Y-99881068D01*
X142587358Y-99905685D01*
X142566880Y-99927614D01*
X142550033Y-99945751D01*
X142537843Y-99958992D01*
X142531334Y-99966231D01*
X142530528Y-99967247D01*
X142426250Y-99967247D01*
X142538430Y-99848405D01*
X142566548Y-99818780D01*
X142592620Y-99791620D01*
X142615716Y-99767870D01*
X142634905Y-99748475D01*
X142649255Y-99734382D01*
X142657837Y-99726535D01*
X142659657Y-99725257D01*
X142666115Y-99724744D01*
X142682166Y-99724259D01*
X142706921Y-99723809D01*
X142739493Y-99723402D01*
X142778994Y-99723045D01*
X142824534Y-99722745D01*
X142875228Y-99722511D01*
X142930185Y-99722350D01*
X142988518Y-99722269D01*
X143014588Y-99722260D01*
X143361711Y-99722260D01*
X143352188Y-99668931D01*
X143348010Y-99644726D01*
X143345802Y-99628606D01*
X143345536Y-99618368D01*
X143347180Y-99611811D01*
X143350703Y-99606730D01*
X143351313Y-99606046D01*
X143352840Y-99604003D01*
X143352903Y-99602274D01*
X143350721Y-99600833D01*
X143345514Y-99599653D01*
X143336499Y-99598708D01*
X143322896Y-99597973D01*
X143303923Y-99597421D01*
X143278800Y-99597026D01*
X143246746Y-99596762D01*
X143206980Y-99596603D01*
X143158719Y-99596522D01*
X143101184Y-99596494D01*
X143065704Y-99596492D01*
X142771449Y-99596492D01*
X142746541Y-99622170D01*
X142720163Y-99644281D01*
X142693228Y-99656224D01*
X142664606Y-99658297D01*
X142635119Y-99651499D01*
X142612793Y-99643622D01*
X142588607Y-99665689D01*
X142578728Y-99674914D01*
X142562499Y-99690315D01*
X142541093Y-99710770D01*
X142515680Y-99735157D01*
X142487433Y-99762353D01*
X142457523Y-99791234D01*
X142447796Y-99800645D01*
X142418293Y-99828950D01*
X142390599Y-99855042D01*
X142365761Y-99877971D01*
X142344828Y-99896786D01*
X142328848Y-99910535D01*
X142318871Y-99918269D01*
X142316787Y-99919468D01*
X142298877Y-99922159D01*
X142283468Y-99916336D01*
X142272765Y-99903962D01*
X142268973Y-99887000D01*
X142270204Y-99878005D01*
X142274681Y-99871354D01*
X142286042Y-99858236D01*
X142303569Y-99839395D01*
X142326544Y-99815577D01*
X142354248Y-99787528D01*
X142385962Y-99755992D01*
X142419070Y-99723562D01*
X142564743Y-99581838D01*
X142565151Y-99553657D01*
X142565348Y-99551516D01*
X142641686Y-99551516D01*
X142642033Y-99558647D01*
X142647345Y-99567382D01*
X142648564Y-99569124D01*
X142660071Y-99577987D01*
X142675036Y-99580785D01*
X142688714Y-99576929D01*
X142691762Y-99574482D01*
X142697404Y-99562325D01*
X142696651Y-99547032D01*
X142689944Y-99533412D01*
X142687781Y-99531178D01*
X142674184Y-99524875D01*
X142659643Y-99526684D01*
X142648217Y-99535724D01*
X142645752Y-99540315D01*
X142641686Y-99551516D01*
X142565348Y-99551516D01*
X142566938Y-99534222D01*
X142571023Y-99516547D01*
X142573713Y-99509890D01*
X142585900Y-99492511D01*
X142603362Y-99474364D01*
X142622037Y-99459439D01*
X142629670Y-99454882D01*
X142649261Y-99449301D01*
X142673747Y-99448615D01*
X142674184Y-99448684D01*
X142698874Y-99452603D01*
X142717450Y-99459445D01*
X142732380Y-99469235D01*
X142747064Y-99482321D01*
X142758973Y-99496030D01*
X142765580Y-99507687D01*
X142766175Y-99510984D01*
X142771264Y-99512494D01*
X142785928Y-99513988D01*
X142809260Y-99515444D01*
X142840354Y-99516840D01*
X142878303Y-99518153D01*
X142922201Y-99519361D01*
X142971142Y-99520440D01*
X143024220Y-99521369D01*
X143080528Y-99522125D01*
X143139160Y-99522684D01*
X143199210Y-99523025D01*
X143253306Y-99523127D01*
X143377761Y-99523127D01*
X143395943Y-99523127D01*
X143408585Y-99523127D01*
X143428758Y-99496674D01*
X143450992Y-99465048D01*
X143475906Y-99425330D01*
X143502576Y-99379273D01*
X143530084Y-99328628D01*
X143557506Y-99275149D01*
X143583924Y-99220586D01*
X143608415Y-99166692D01*
X143630058Y-99115219D01*
X143632480Y-99109139D01*
X143658981Y-99038957D01*
X143682577Y-98969288D01*
X143704356Y-98896680D01*
X143725409Y-98817678D01*
X143729189Y-98802578D01*
X143738542Y-98765076D01*
X143745572Y-98736537D01*
X143750305Y-98715709D01*
X143752762Y-98701341D01*
X143752970Y-98692182D01*
X143750951Y-98686978D01*
X143746730Y-98684479D01*
X143740331Y-98683433D01*
X143731777Y-98682589D01*
X143731487Y-98682553D01*
X143640554Y-98673461D01*
X143545606Y-98667906D01*
X143447931Y-98665769D01*
X143348817Y-98666931D01*
X143249552Y-98671272D01*
X143151424Y-98678674D01*
X143055721Y-98689015D01*
X142963731Y-98702179D01*
X142876743Y-98718044D01*
X142796044Y-98736491D01*
X142722923Y-98757401D01*
X142658667Y-98780656D01*
X142654537Y-98782367D01*
X142630345Y-98790363D01*
X142608669Y-98791928D01*
X142585977Y-98786835D01*
X142561801Y-98776386D01*
X142542424Y-98767770D01*
X142519900Y-98759083D01*
X142509398Y-98755505D01*
X142491399Y-98749051D01*
X142465650Y-98738853D01*
X142433874Y-98725651D01*
X142397793Y-98710188D01*
X142359127Y-98693206D01*
X142319601Y-98675447D01*
X142280935Y-98657652D01*
X142266304Y-98650789D01*
X142214654Y-98625533D01*
X142157069Y-98595836D01*
X142096270Y-98563163D01*
X142034978Y-98528982D01*
X141975915Y-98494759D01*
X141967823Y-98489955D01*
X141942214Y-98474820D01*
X141919750Y-98461771D01*
X141901963Y-98451678D01*
X141890382Y-98445411D01*
X141886598Y-98443737D01*
X141883563Y-98448361D01*
X141877173Y-98461150D01*
X141868126Y-98480606D01*
X141857117Y-98505227D01*
X141844845Y-98533515D01*
X141844580Y-98534134D01*
X141815912Y-98601210D01*
X141791068Y-98659428D01*
X141769743Y-98709563D01*
X141751633Y-98752387D01*
X141736432Y-98788677D01*
X141723837Y-98819206D01*
X141713543Y-98844750D01*
X141705244Y-98866082D01*
X141698637Y-98883977D01*
X141693416Y-98899211D01*
X141689277Y-98912556D01*
X141685915Y-98924789D01*
X141683025Y-98936684D01*
X141680303Y-98949014D01*
X141679049Y-98954923D01*
X141659403Y-99036684D01*
X141636512Y-99109714D01*
X141609651Y-99175454D01*
X141578093Y-99235348D01*
X141541112Y-99290837D01*
X141497983Y-99343363D01*
X141467320Y-99375591D01*
X141416214Y-99423073D01*
X141358610Y-99470377D01*
X141296344Y-99516338D01*
X141231250Y-99559792D01*
X141165166Y-99599574D01*
X141099927Y-99634519D01*
X141037368Y-99663462D01*
X140979326Y-99685239D01*
X140979214Y-99685275D01*
X140926964Y-99706847D01*
X140876952Y-99737350D01*
X140828281Y-99777384D01*
X140800605Y-99804898D01*
X140757647Y-99850280D01*
X140775014Y-99854780D01*
X140792870Y-99856300D01*
X140811812Y-99850518D01*
X140830391Y-99845608D01*
X140844339Y-99848540D01*
X140853431Y-99857646D01*
X140857440Y-99871255D01*
X140856139Y-99887700D01*
X140849301Y-99905311D01*
X140836700Y-99922419D01*
X140823162Y-99934035D01*
X140806870Y-99943815D01*
X140790941Y-99948551D01*
X140770926Y-99949887D01*
X140751735Y-99949617D01*
X140734964Y-99948570D01*
X140727677Y-99947595D01*
X140720369Y-99946795D01*
X140716071Y-99949576D01*
X140713511Y-99958171D01*
X140711418Y-99974811D01*
X140711247Y-99976417D01*
X140709697Y-99999221D01*
X140709410Y-100022776D01*
X140599783Y-100022776D01*
X140599880Y-100019275D01*
X140601510Y-99993124D01*
X140602166Y-99985623D01*
X140609357Y-99930050D01*
X140619748Y-99883360D01*
X140633679Y-99844353D01*
X140651414Y-99811944D01*
X140681870Y-99770495D01*
X140716432Y-99730521D01*
X140753585Y-99693340D01*
X140791815Y-99660269D01*
X140829608Y-99632625D01*
X140865450Y-99611726D01*
X140895579Y-99599535D01*
X140915628Y-99592527D01*
X140935431Y-99584012D01*
X140940769Y-99581315D01*
X140953972Y-99574560D01*
X140973199Y-99565133D01*
X140996694Y-99553852D01*
X141022700Y-99541537D01*
X141049461Y-99529006D01*
X141075222Y-99517078D01*
X141098225Y-99506572D01*
X141116716Y-99498306D01*
X141128937Y-99493098D01*
X141133033Y-99491685D01*
X141139248Y-99488811D01*
X141152363Y-99480920D01*
X141170762Y-99469106D01*
X141192832Y-99454465D01*
X141216957Y-99438092D01*
X141241524Y-99421081D01*
X141264916Y-99404527D01*
X141285521Y-99389525D01*
X141300694Y-99377983D01*
X141335951Y-99348150D01*
X141372086Y-99313855D01*
X141406732Y-99277586D01*
X141437520Y-99241832D01*
X141462085Y-99209082D01*
X141463817Y-99206507D01*
X141495122Y-99153267D01*
X141522562Y-99094404D01*
X141543940Y-99034643D01*
X141544385Y-99033154D01*
X141549187Y-99015741D01*
X141554980Y-98992837D01*
X141561250Y-98966708D01*
X141567486Y-98939620D01*
X141573176Y-98913840D01*
X141577807Y-98891635D01*
X141580867Y-98875270D01*
X141581855Y-98867372D01*
X141579314Y-98868908D01*
X141572442Y-98877842D01*
X141562362Y-98892622D01*
X141553063Y-98907103D01*
X141473938Y-99024556D01*
X141389083Y-99133800D01*
X141297661Y-99235891D01*
X141272688Y-99261417D01*
X141202875Y-99328588D01*
X141136636Y-99386294D01*
X141073636Y-99434791D01*
X141013541Y-99474339D01*
X140956084Y-99505162D01*
X140926580Y-99518690D01*
X140905223Y-99527438D01*
X140890985Y-99531691D01*
X140882836Y-99531737D01*
X140879749Y-99527862D01*
X140879647Y-99526450D01*
X140883884Y-99518360D01*
X140894058Y-99510569D01*
X140900915Y-99505194D01*
X140914141Y-99493229D01*
X140932808Y-99475604D01*
X140955985Y-99453249D01*
X140982743Y-99427094D01*
X141012151Y-99398070D01*
X141043279Y-99367106D01*
X141075199Y-99335132D01*
X141106979Y-99303079D01*
X141137690Y-99271877D01*
X141166402Y-99242455D01*
X141192185Y-99215745D01*
X141214110Y-99192675D01*
X141231246Y-99174177D01*
X141238524Y-99166023D01*
X141294023Y-99099441D01*
X141349919Y-99026177D01*
X141407300Y-98944786D01*
X141427180Y-98915246D01*
X141477100Y-98838240D01*
X141521630Y-98764947D01*
X141562849Y-98691728D01*
X141602839Y-98614945D01*
X141627372Y-98565107D01*
X141645480Y-98527639D01*
X141665299Y-98486671D01*
X141685229Y-98445507D01*
X141703671Y-98407449D01*
X141717904Y-98378109D01*
X141731715Y-98349362D01*
X141744385Y-98322427D01*
X141754990Y-98299315D01*
X141762602Y-98282038D01*
X141765852Y-98273952D01*
X141771821Y-98260603D01*
X141777828Y-98252224D01*
X141779316Y-98251252D01*
X141786490Y-98252793D01*
G37*
%TO.C,LogoCalligraphy*%
G36*
X142215095Y-102213761D02*
G01*
X142222874Y-102215276D01*
X142235224Y-102217771D01*
X142251710Y-102221151D01*
X142271893Y-102225327D01*
X142295337Y-102230201D01*
X142321604Y-102235687D01*
X142350259Y-102241689D01*
X142380864Y-102248116D01*
X142412984Y-102254874D01*
X142446180Y-102261871D01*
X142480016Y-102269018D01*
X142514056Y-102276219D01*
X142547861Y-102283380D01*
X142580998Y-102290413D01*
X142613027Y-102297223D01*
X142643512Y-102303719D01*
X142672017Y-102309808D01*
X142698103Y-102315397D01*
X142721337Y-102320394D01*
X142741279Y-102324708D01*
X142757493Y-102328244D01*
X142769542Y-102330912D01*
X142776990Y-102332618D01*
X142779402Y-102333257D01*
X142778432Y-102335764D01*
X142775376Y-102342253D01*
X142770725Y-102351764D01*
X142764959Y-102363343D01*
X142758568Y-102376029D01*
X142752032Y-102388865D01*
X142745842Y-102400894D01*
X142740480Y-102411157D01*
X142736435Y-102418698D01*
X142734191Y-102422558D01*
X142734012Y-102422791D01*
X142731219Y-102422540D01*
X142723428Y-102421559D01*
X142711151Y-102419923D01*
X142694902Y-102417698D01*
X142675190Y-102414960D01*
X142652531Y-102411777D01*
X142627433Y-102408218D01*
X142600411Y-102404358D01*
X142588853Y-102402698D01*
X142542021Y-102395991D01*
X142500200Y-102390077D01*
X142462896Y-102384892D01*
X142429618Y-102380384D01*
X142399874Y-102376493D01*
X142373167Y-102373160D01*
X142349011Y-102370331D01*
X142326910Y-102367946D01*
X142306372Y-102365946D01*
X142286904Y-102364277D01*
X142268014Y-102362878D01*
X142249212Y-102361695D01*
X142230002Y-102360666D01*
X142229271Y-102360629D01*
X142189600Y-102358677D01*
X142189844Y-102351412D01*
X142190353Y-102346663D01*
X142191645Y-102337296D01*
X142193591Y-102324182D01*
X142196058Y-102308195D01*
X142198918Y-102290210D01*
X142200696Y-102279241D01*
X142203723Y-102260940D01*
X142206498Y-102244549D01*
X142208888Y-102230844D01*
X142210755Y-102220599D01*
X142211961Y-102214586D01*
X142212324Y-102213317D01*
X142215095Y-102213761D01*
G37*
G36*
X142527023Y-103876760D02*
G01*
X142563395Y-103884521D01*
X142598248Y-103891967D01*
X142631184Y-103899015D01*
X142661822Y-103905581D01*
X142689768Y-103911580D01*
X142714635Y-103916928D01*
X142736034Y-103921547D01*
X142753576Y-103925346D01*
X142766870Y-103928242D01*
X142775531Y-103930157D01*
X142779166Y-103931003D01*
X142779229Y-103931023D01*
X142779681Y-103933436D01*
X142777668Y-103939708D01*
X142773084Y-103950089D01*
X142765821Y-103964841D01*
X142759992Y-103976158D01*
X142752616Y-103990308D01*
X142746189Y-104002623D01*
X142741132Y-104012305D01*
X142737859Y-104018559D01*
X142736785Y-104020592D01*
X142736735Y-104020722D01*
X142736480Y-104020802D01*
X142735610Y-104020776D01*
X142733715Y-104020589D01*
X142730383Y-104020182D01*
X142725207Y-104019504D01*
X142717776Y-104018491D01*
X142707679Y-104017093D01*
X142694508Y-104015251D01*
X142677852Y-104012909D01*
X142657300Y-104010011D01*
X142632445Y-104006500D01*
X142602876Y-104002321D01*
X142570119Y-103997690D01*
X142527713Y-103991730D01*
X142489210Y-103986388D01*
X142454813Y-103981690D01*
X142424726Y-103977664D01*
X142399157Y-103974336D01*
X142378308Y-103971734D01*
X142362387Y-103969884D01*
X142351595Y-103968811D01*
X142346704Y-103968533D01*
X142344968Y-103968796D01*
X142343970Y-103969969D01*
X142343873Y-103972641D01*
X142344832Y-103977394D01*
X142347009Y-103984815D01*
X142350562Y-103995484D01*
X142355654Y-104009992D01*
X142362438Y-104028916D01*
X142365511Y-104037434D01*
X142372191Y-104055965D01*
X142378232Y-104072795D01*
X142383379Y-104087206D01*
X142387379Y-104098480D01*
X142389977Y-104105910D01*
X142390912Y-104108741D01*
X142388803Y-104110850D01*
X142382616Y-104115360D01*
X142373047Y-104121804D01*
X142360788Y-104129720D01*
X142346538Y-104138640D01*
X142342414Y-104141177D01*
X142293401Y-104171205D01*
X142241500Y-104035207D01*
X142231543Y-104009065D01*
X142222212Y-103984483D01*
X142213692Y-103961952D01*
X142206171Y-103941964D01*
X142199830Y-103925014D01*
X142194856Y-103911591D01*
X142191434Y-103902193D01*
X142189747Y-103897310D01*
X142189601Y-103896737D01*
X142191684Y-103894335D01*
X142197504Y-103889061D01*
X142206405Y-103881468D01*
X142217737Y-103872108D01*
X142230844Y-103861538D01*
X142234020Y-103859011D01*
X142278441Y-103823756D01*
X142527023Y-103876760D01*
G37*
G36*
X142432146Y-104863537D02*
G01*
X142471593Y-104870231D01*
X142511833Y-104880231D01*
X142552215Y-104893436D01*
X142592089Y-104909743D01*
X142621098Y-104923856D01*
X142651535Y-104941018D01*
X142677749Y-104958694D01*
X142701071Y-104977858D01*
X142719576Y-104996012D01*
X142739763Y-105019887D01*
X142754739Y-105043593D01*
X142764795Y-105067794D01*
X142770220Y-105093150D01*
X142771429Y-105113581D01*
X142768985Y-105142372D01*
X142761799Y-105168481D01*
X142750078Y-105191768D01*
X142734028Y-105212091D01*
X142713857Y-105229313D01*
X142689775Y-105243297D01*
X142661989Y-105253904D01*
X142630706Y-105260990D01*
X142596135Y-105264422D01*
X142558486Y-105264057D01*
X142547480Y-105263261D01*
X142498940Y-105257007D01*
X142451501Y-105246776D01*
X142405791Y-105232828D01*
X142362439Y-105215428D01*
X142322068Y-105194834D01*
X142285307Y-105171308D01*
X142252778Y-105145110D01*
X142243526Y-105136365D01*
X142223207Y-105114647D01*
X142207692Y-105093918D01*
X142196539Y-105073298D01*
X142189310Y-105051907D01*
X142185562Y-105028866D01*
X142184957Y-105019443D01*
X142184942Y-105018836D01*
X142279005Y-105018836D01*
X142279785Y-105022606D01*
X142282119Y-105029193D01*
X142282820Y-105030917D01*
X142292000Y-105046334D01*
X142306376Y-105061542D01*
X142325583Y-105076326D01*
X142349252Y-105090470D01*
X142377012Y-105103761D01*
X142408494Y-105115984D01*
X142443333Y-105126928D01*
X142452447Y-105129419D01*
X142484160Y-105136863D01*
X142515814Y-105142458D01*
X142546633Y-105146172D01*
X142575850Y-105147970D01*
X142602686Y-105147822D01*
X142626371Y-105145695D01*
X142646132Y-105141556D01*
X142656001Y-105137999D01*
X142667858Y-105130986D01*
X142674436Y-105122704D01*
X142675741Y-105113053D01*
X142671761Y-105101932D01*
X142662496Y-105089242D01*
X142653839Y-105080297D01*
X142633489Y-105063327D01*
X142608620Y-105046622D01*
X142580268Y-105030660D01*
X142549474Y-105015929D01*
X142517281Y-105002910D01*
X142484728Y-104992090D01*
X142452856Y-104983949D01*
X142442004Y-104981816D01*
X142423675Y-104979183D01*
X142403382Y-104977386D01*
X142382486Y-104976443D01*
X142362349Y-104976374D01*
X142344336Y-104977198D01*
X142329814Y-104978938D01*
X142324617Y-104980067D01*
X142306197Y-104986400D01*
X142292782Y-104994400D01*
X142283969Y-105004412D01*
X142279358Y-105016773D01*
X142279005Y-105018836D01*
X142184942Y-105018836D01*
X142184601Y-105005285D01*
X142185034Y-104994708D01*
X142186479Y-104985751D01*
X142189160Y-104976452D01*
X142190224Y-104973348D01*
X142202556Y-104945736D01*
X142218886Y-104921954D01*
X142239287Y-104901931D01*
X142263836Y-104885590D01*
X142292603Y-104872863D01*
X142295292Y-104871931D01*
X142325065Y-104864351D01*
X142358231Y-104860494D01*
X142362350Y-104860467D01*
X142394142Y-104860258D01*
X142432146Y-104863537D01*
G37*
G36*
X142286587Y-105286366D02*
G01*
X142293522Y-105291242D01*
X142304397Y-105298882D01*
X142318603Y-105308858D01*
X142335526Y-105320736D01*
X142354550Y-105334086D01*
X142375061Y-105348478D01*
X142396445Y-105363479D01*
X142405094Y-105369547D01*
X142502273Y-105437709D01*
X142552233Y-105407271D01*
X142586515Y-105386391D01*
X142616356Y-105368236D01*
X142642061Y-105352628D01*
X142663936Y-105339383D01*
X142682289Y-105328324D01*
X142697428Y-105319270D01*
X142709657Y-105312041D01*
X142719285Y-105306457D01*
X142726618Y-105302338D01*
X142731961Y-105299503D01*
X142735626Y-105297773D01*
X142737915Y-105296968D01*
X142739138Y-105296906D01*
X142739568Y-105297312D01*
X142740824Y-105300943D01*
X142743523Y-105308912D01*
X142747349Y-105320272D01*
X142751976Y-105334076D01*
X142755749Y-105345356D01*
X142770694Y-105390099D01*
X142742527Y-105411068D01*
X142731414Y-105419209D01*
X142716925Y-105429619D01*
X142700282Y-105441436D01*
X142682708Y-105453793D01*
X142665420Y-105465822D01*
X142662857Y-105467592D01*
X142647781Y-105478036D01*
X142634134Y-105487555D01*
X142622627Y-105495652D01*
X142613964Y-105501826D01*
X142608857Y-105505579D01*
X142607892Y-105506358D01*
X142609112Y-105508890D01*
X142614968Y-105514387D01*
X142625408Y-105522820D01*
X142640384Y-105534146D01*
X142659841Y-105548330D01*
X142683733Y-105565336D01*
X142712006Y-105585122D01*
X142744611Y-105607655D01*
X142766222Y-105622472D01*
X142785013Y-105635322D01*
X142758142Y-105657272D01*
X142746347Y-105666888D01*
X142734756Y-105676310D01*
X142724795Y-105684380D01*
X142718504Y-105689449D01*
X142705737Y-105699679D01*
X142604349Y-105637469D01*
X142502962Y-105575262D01*
X142463899Y-105601898D01*
X142430653Y-105624999D01*
X142398479Y-105648186D01*
X142368081Y-105670921D01*
X142340155Y-105692667D01*
X142315400Y-105712888D01*
X142294520Y-105731042D01*
X142288253Y-105736816D01*
X142274159Y-105750029D01*
X142230787Y-105690961D01*
X142219240Y-105675138D01*
X142208918Y-105660802D01*
X142200245Y-105648558D01*
X142193636Y-105639006D01*
X142189521Y-105632746D01*
X142188307Y-105630397D01*
X142190798Y-105628676D01*
X142197552Y-105624372D01*
X142208072Y-105617794D01*
X142221860Y-105609248D01*
X142238423Y-105599043D01*
X142257258Y-105587484D01*
X142277872Y-105574879D01*
X142289391Y-105567855D01*
X142389587Y-105506808D01*
X142377981Y-105500113D01*
X142344097Y-105480774D01*
X142310486Y-105461985D01*
X142278354Y-105444408D01*
X142248909Y-105428709D01*
X142231357Y-105419606D01*
X142216826Y-105412161D01*
X142204121Y-105405624D01*
X142194022Y-105400401D01*
X142187317Y-105396898D01*
X142184795Y-105395524D01*
X142185856Y-105393313D01*
X142187831Y-105390924D01*
X142190303Y-105387530D01*
X142195301Y-105380131D01*
X142202370Y-105369418D01*
X142211049Y-105356088D01*
X142220886Y-105340837D01*
X142228380Y-105329132D01*
X142265262Y-105271351D01*
X142286587Y-105286366D01*
G37*
G36*
X142215136Y-104502324D02*
G01*
X142222959Y-104503843D01*
X142235369Y-104506343D01*
X142251936Y-104509736D01*
X142272232Y-104513932D01*
X142295828Y-104518842D01*
X142322295Y-104524378D01*
X142351202Y-104530454D01*
X142382121Y-104536972D01*
X142412115Y-104543319D01*
X142610969Y-104585468D01*
X142653690Y-104567914D01*
X142667978Y-104562073D01*
X142680387Y-104557053D01*
X142690037Y-104553209D01*
X142696054Y-104550891D01*
X142697641Y-104550361D01*
X142698389Y-104551592D01*
X142699908Y-104555486D01*
X142702299Y-104562345D01*
X142705659Y-104572471D01*
X142710081Y-104586169D01*
X142715666Y-104603740D01*
X142722511Y-104625483D01*
X142730709Y-104651708D01*
X142740360Y-104682712D01*
X142749183Y-104711132D01*
X142761978Y-104751682D01*
X142773773Y-104787624D01*
X142784509Y-104818787D01*
X142794126Y-104845007D01*
X142802567Y-104866112D01*
X142808590Y-104879532D01*
X142817640Y-104898301D01*
X142809150Y-104899567D01*
X142803829Y-104900023D01*
X142793933Y-104900557D01*
X142780454Y-104901127D01*
X142764386Y-104901691D01*
X142746721Y-104902213D01*
X142743423Y-104902297D01*
X142686186Y-104903764D01*
X142654302Y-104805907D01*
X142622417Y-104708050D01*
X142586644Y-104697265D01*
X142573435Y-104693375D01*
X142562272Y-104690263D01*
X142554161Y-104688199D01*
X142550110Y-104687446D01*
X142549851Y-104687493D01*
X142550268Y-104690367D01*
X142552099Y-104697594D01*
X142555079Y-104708225D01*
X142558947Y-104721309D01*
X142560997Y-104728032D01*
X142565142Y-104741933D01*
X142568438Y-104753838D01*
X142570641Y-104762798D01*
X142571505Y-104767855D01*
X142571379Y-104768615D01*
X142567001Y-104770412D01*
X142558716Y-104773145D01*
X142547613Y-104776513D01*
X142534777Y-104780221D01*
X142521295Y-104783966D01*
X142508257Y-104787449D01*
X142496746Y-104790374D01*
X142487852Y-104792439D01*
X142482662Y-104793345D01*
X142481796Y-104793273D01*
X142480324Y-104790157D01*
X142477210Y-104782604D01*
X142472760Y-104771385D01*
X142467279Y-104757279D01*
X142461075Y-104741062D01*
X142458054Y-104733087D01*
X142451553Y-104716041D01*
X142445557Y-104700649D01*
X142440391Y-104687709D01*
X142436377Y-104678028D01*
X142433835Y-104672407D01*
X142433265Y-104671423D01*
X142429597Y-104669971D01*
X142421051Y-104668183D01*
X142408296Y-104666136D01*
X142392010Y-104663903D01*
X142372862Y-104661564D01*
X142351528Y-104659191D01*
X142328677Y-104656865D01*
X142304987Y-104654660D01*
X142281129Y-104652650D01*
X142257773Y-104650915D01*
X142244580Y-104650054D01*
X142189599Y-104646678D01*
X142189852Y-104639582D01*
X142190364Y-104634882D01*
X142191663Y-104625563D01*
X142193615Y-104612492D01*
X142196090Y-104596537D01*
X142198956Y-104578572D01*
X142200752Y-104567533D01*
X142203781Y-104549247D01*
X142206555Y-104532893D01*
X142208935Y-104519239D01*
X142210789Y-104509056D01*
X142211978Y-104503106D01*
X142212330Y-104501876D01*
X142215136Y-104502324D01*
G37*
G36*
X142275517Y-101760401D02*
G01*
X142283322Y-101762062D01*
X142294227Y-101764976D01*
X142307140Y-101768867D01*
X142309476Y-101769613D01*
X142331699Y-101776206D01*
X142357085Y-101783736D01*
X142408963Y-101796926D01*
X142463855Y-101808921D01*
X142520502Y-101819457D01*
X142577646Y-101828272D01*
X142612747Y-101832756D01*
X142630842Y-101834877D01*
X142658250Y-101810430D01*
X142685658Y-101785980D01*
X142694012Y-101790853D01*
X142699748Y-101795108D01*
X142707768Y-101802212D01*
X142716642Y-101810871D01*
X142719694Y-101814037D01*
X142737262Y-101836289D01*
X142752192Y-101862631D01*
X142764325Y-101892179D01*
X142773498Y-101924036D01*
X142779552Y-101957314D01*
X142782327Y-101991117D01*
X142781659Y-102024556D01*
X142777393Y-102056738D01*
X142769364Y-102086775D01*
X142768989Y-102087842D01*
X142756586Y-102115045D01*
X142739897Y-102139304D01*
X142719459Y-102160018D01*
X142695802Y-102176572D01*
X142686850Y-102181277D01*
X142664183Y-102190858D01*
X142641973Y-102197114D01*
X142618272Y-102200471D01*
X142594652Y-102201362D01*
X142553408Y-102198638D01*
X142512225Y-102190410D01*
X142471289Y-102176738D01*
X142430789Y-102157679D01*
X142396998Y-102137392D01*
X142381694Y-102127104D01*
X142369265Y-102118239D01*
X142358314Y-102109655D01*
X142347445Y-102100215D01*
X142335262Y-102088774D01*
X142323682Y-102077468D01*
X142289689Y-102040187D01*
X142259182Y-101999049D01*
X142232663Y-101954906D01*
X142210639Y-101908605D01*
X142201785Y-101883848D01*
X142331699Y-101883848D01*
X142352134Y-101910774D01*
X142362769Y-101924358D01*
X142375402Y-101939835D01*
X142388226Y-101955020D01*
X142396676Y-101964674D01*
X142416697Y-101985625D01*
X142438972Y-102006448D01*
X142461937Y-102025785D01*
X142484018Y-102042265D01*
X142491158Y-102047048D01*
X142519187Y-102063056D01*
X142546790Y-102074708D01*
X142573533Y-102081960D01*
X142598985Y-102084781D01*
X142622720Y-102083137D01*
X142644302Y-102076990D01*
X142663304Y-102066305D01*
X142669142Y-102061596D01*
X142681646Y-102047046D01*
X142689990Y-102029709D01*
X142693912Y-102010772D01*
X142693149Y-101991425D01*
X142688285Y-101974746D01*
X142684228Y-101966594D01*
X142680107Y-101962282D01*
X142674377Y-101960284D01*
X142673464Y-101960120D01*
X142667844Y-101959197D01*
X142657772Y-101957576D01*
X142644290Y-101955422D01*
X142628448Y-101952899D01*
X142611356Y-101950189D01*
X142554947Y-101940727D01*
X142503820Y-101931011D01*
X142457695Y-101920979D01*
X142416287Y-101910572D01*
X142379315Y-101899722D01*
X142368493Y-101896188D01*
X142331699Y-101883848D01*
X142201785Y-101883848D01*
X142193609Y-101860989D01*
X142192308Y-101856558D01*
X142189419Y-101846628D01*
X142186924Y-101838205D01*
X142185598Y-101833861D01*
X142185622Y-101829544D01*
X142189012Y-101824674D01*
X142195761Y-101818728D01*
X142203356Y-101812719D01*
X142213279Y-101804971D01*
X142224622Y-101796179D01*
X142236482Y-101787036D01*
X142247953Y-101778241D01*
X142258130Y-101770485D01*
X142266110Y-101764466D01*
X142270985Y-101760878D01*
X142271893Y-101760259D01*
X142275517Y-101760401D01*
G37*
G36*
X142240695Y-103419087D02*
G01*
X142248046Y-103422146D01*
X142259844Y-103427128D01*
X142275760Y-103433890D01*
X142295457Y-103442293D01*
X142318608Y-103452192D01*
X142344879Y-103463444D01*
X142373937Y-103475913D01*
X142405452Y-103489447D01*
X142411129Y-103491889D01*
X142439090Y-103503914D01*
X142474521Y-103519166D01*
X142511411Y-103535062D01*
X142511593Y-103535141D01*
X142784544Y-103652813D01*
X142751003Y-103725390D01*
X142717461Y-103797968D01*
X142522432Y-103799573D01*
X142474542Y-103800014D01*
X142431795Y-103800515D01*
X142393759Y-103801088D01*
X142360007Y-103801748D01*
X142330112Y-103802512D01*
X142303647Y-103803388D01*
X142280181Y-103804396D01*
X142259290Y-103805548D01*
X142240545Y-103806857D01*
X142223518Y-103808340D01*
X142208028Y-103809981D01*
X142194862Y-103811375D01*
X142186546Y-103811897D01*
X142182426Y-103811538D01*
X142181849Y-103810287D01*
X142182378Y-103809620D01*
X142183318Y-103806693D01*
X142185327Y-103799127D01*
X142188209Y-103787704D01*
X142191770Y-103773209D01*
X142195814Y-103756424D01*
X142198002Y-103747217D01*
X142202284Y-103729452D01*
X142206277Y-103713483D01*
X142209769Y-103700115D01*
X142212548Y-103690159D01*
X142214398Y-103684421D01*
X142214903Y-103683389D01*
X142218573Y-103682610D01*
X142227229Y-103682393D01*
X142240321Y-103682728D01*
X142257297Y-103683609D01*
X142266434Y-103684208D01*
X142282343Y-103685248D01*
X142296219Y-103686048D01*
X142307155Y-103686558D01*
X142314241Y-103686740D01*
X142316573Y-103686592D01*
X142316010Y-103683842D01*
X142313976Y-103676818D01*
X142310797Y-103666518D01*
X142306801Y-103653935D01*
X142302313Y-103640071D01*
X142298322Y-103627933D01*
X142409742Y-103627933D01*
X142410084Y-103629180D01*
X142411250Y-103633401D01*
X142413245Y-103641750D01*
X142415766Y-103652908D01*
X142417808Y-103662308D01*
X142420540Y-103674472D01*
X142423058Y-103684580D01*
X142425039Y-103691402D01*
X142425999Y-103693645D01*
X142429156Y-103694328D01*
X142437190Y-103695266D01*
X142449417Y-103696404D01*
X142465153Y-103697683D01*
X142483719Y-103699047D01*
X142504428Y-103700440D01*
X142515471Y-103701135D01*
X142546602Y-103703042D01*
X142572593Y-103704616D01*
X142593857Y-103705883D01*
X142610810Y-103706861D01*
X142623866Y-103707576D01*
X142633439Y-103708050D01*
X142639947Y-103708301D01*
X142643802Y-103708355D01*
X142645420Y-103708234D01*
X142645507Y-103708100D01*
X142642723Y-103706969D01*
X142635339Y-103704235D01*
X142624011Y-103700127D01*
X142609397Y-103694881D01*
X142592150Y-103688726D01*
X142572927Y-103681891D01*
X142552386Y-103674610D01*
X142531182Y-103667116D01*
X142509972Y-103659641D01*
X142489412Y-103652416D01*
X142470158Y-103645668D01*
X142452864Y-103639635D01*
X142438192Y-103634547D01*
X142426793Y-103630634D01*
X142419325Y-103628130D01*
X142416661Y-103627305D01*
X142411128Y-103626419D01*
X142409742Y-103627933D01*
X142298322Y-103627933D01*
X142297659Y-103625917D01*
X142293166Y-103612475D01*
X142289161Y-103600737D01*
X142285970Y-103591699D01*
X142283920Y-103586359D01*
X142283409Y-103585372D01*
X142280529Y-103584368D01*
X142273151Y-103582197D01*
X142262167Y-103579108D01*
X142248465Y-103575352D01*
X142235588Y-103571889D01*
X142220286Y-103567760D01*
X142206950Y-103564076D01*
X142196469Y-103561091D01*
X142189738Y-103559057D01*
X142187639Y-103558272D01*
X142188341Y-103555588D01*
X142190674Y-103548513D01*
X142194333Y-103537875D01*
X142199022Y-103524508D01*
X142204439Y-103509241D01*
X142210289Y-103492905D01*
X142216269Y-103476334D01*
X142222081Y-103460356D01*
X142227425Y-103445804D01*
X142232002Y-103433505D01*
X142235513Y-103424297D01*
X142237659Y-103419007D01*
X142238124Y-103418093D01*
X142240695Y-103419087D01*
G37*
G36*
X142394073Y-102432475D02*
G01*
X142433529Y-102436393D01*
X142475302Y-102444269D01*
X142519170Y-102456150D01*
X142540367Y-102463104D01*
X142582853Y-102479521D01*
X142621328Y-102497909D01*
X142655654Y-102518074D01*
X142685688Y-102539832D01*
X142711289Y-102562989D01*
X142732322Y-102587358D01*
X142748642Y-102612749D01*
X142760109Y-102638973D01*
X142766587Y-102665837D01*
X142767932Y-102693157D01*
X142764005Y-102720742D01*
X142754667Y-102748401D01*
X142753434Y-102751153D01*
X142742019Y-102769764D01*
X142725798Y-102786932D01*
X142705433Y-102802271D01*
X142681584Y-102815397D01*
X142654913Y-102825929D01*
X142626081Y-102833481D01*
X142606233Y-102836640D01*
X142592758Y-102838246D01*
X142594464Y-102801378D01*
X142595263Y-102784992D01*
X142596154Y-102768145D01*
X142597023Y-102752894D01*
X142597717Y-102741923D01*
X142599263Y-102719336D01*
X142617837Y-102717573D01*
X142635334Y-102715324D01*
X142648376Y-102712173D01*
X142658056Y-102707782D01*
X142663871Y-102703372D01*
X142670062Y-102694432D01*
X142671124Y-102684118D01*
X142667261Y-102672658D01*
X142658674Y-102660275D01*
X142645571Y-102647197D01*
X142628152Y-102633650D01*
X142606624Y-102619859D01*
X142581186Y-102606053D01*
X142572382Y-102601730D01*
X142540912Y-102587751D01*
X142508364Y-102575357D01*
X142475556Y-102564742D01*
X142443307Y-102556100D01*
X142412436Y-102549623D01*
X142383760Y-102545509D01*
X142358100Y-102543949D01*
X142336275Y-102545140D01*
X142334757Y-102545354D01*
X142313308Y-102550179D01*
X142296776Y-102557572D01*
X142285120Y-102567560D01*
X142278302Y-102580175D01*
X142276707Y-102587385D01*
X142277735Y-102600466D01*
X142284155Y-102614057D01*
X142295831Y-102628002D01*
X142312627Y-102642140D01*
X142334410Y-102656319D01*
X142338236Y-102658517D01*
X142349352Y-102664480D01*
X142361452Y-102670449D01*
X142373466Y-102675959D01*
X142384317Y-102680547D01*
X142392936Y-102683751D01*
X142398250Y-102685111D01*
X142399362Y-102684921D01*
X142399512Y-102681889D01*
X142399300Y-102674306D01*
X142398769Y-102663174D01*
X142397964Y-102649498D01*
X142397517Y-102642687D01*
X142396614Y-102628204D01*
X142395987Y-102615829D01*
X142395674Y-102606559D01*
X142395717Y-102601391D01*
X142395867Y-102600665D01*
X142398816Y-102600593D01*
X142406216Y-102600909D01*
X142416973Y-102601537D01*
X142429997Y-102602396D01*
X142444193Y-102603402D01*
X142458465Y-102604477D01*
X142471723Y-102605542D01*
X142482870Y-102606516D01*
X142490817Y-102607316D01*
X142494466Y-102607864D01*
X142494577Y-102607922D01*
X142494949Y-102610828D01*
X142495581Y-102618516D01*
X142496425Y-102630222D01*
X142497435Y-102645176D01*
X142498566Y-102662619D01*
X142499774Y-102681783D01*
X142501008Y-102701904D01*
X142502226Y-102722221D01*
X142503379Y-102741964D01*
X142504423Y-102760372D01*
X142505311Y-102776678D01*
X142505997Y-102790118D01*
X142506435Y-102799929D01*
X142506580Y-102805346D01*
X142506522Y-102806172D01*
X142503557Y-102806711D01*
X142496061Y-102807588D01*
X142485059Y-102808700D01*
X142471570Y-102809932D01*
X142466405Y-102810377D01*
X142427242Y-102813700D01*
X142399592Y-102803405D01*
X142352874Y-102783800D01*
X142310949Y-102761529D01*
X142273672Y-102736508D01*
X142240903Y-102708648D01*
X142235496Y-102703349D01*
X142222961Y-102690459D01*
X142213567Y-102679837D01*
X142206257Y-102670100D01*
X142199968Y-102659865D01*
X142195129Y-102650727D01*
X142182640Y-102626025D01*
X142181971Y-102590872D01*
X142181785Y-102575646D01*
X142182025Y-102564520D01*
X142182865Y-102556031D01*
X142184474Y-102548719D01*
X142187029Y-102541121D01*
X142188236Y-102537974D01*
X142201229Y-102511921D01*
X142218303Y-102489448D01*
X142239235Y-102470607D01*
X142263806Y-102455440D01*
X142291799Y-102443997D01*
X142322986Y-102436322D01*
X142357153Y-102432467D01*
X142394073Y-102432475D01*
G37*
G36*
X142215114Y-102848464D02*
G01*
X142222891Y-102849981D01*
X142235242Y-102852477D01*
X142251724Y-102855859D01*
X142271905Y-102860036D01*
X142295347Y-102864914D01*
X142321613Y-102870401D01*
X142350267Y-102876405D01*
X142380870Y-102882833D01*
X142412989Y-102889592D01*
X142446184Y-102896592D01*
X142480020Y-102903739D01*
X142514058Y-102910940D01*
X142547862Y-102918104D01*
X142580997Y-102925139D01*
X142613026Y-102931949D01*
X142643512Y-102938445D01*
X142672014Y-102944535D01*
X142698101Y-102950123D01*
X142721333Y-102955121D01*
X142741277Y-102959433D01*
X142757492Y-102962970D01*
X142769540Y-102965637D01*
X142776988Y-102967342D01*
X142779402Y-102967979D01*
X142778509Y-102970595D01*
X142775409Y-102977327D01*
X142770496Y-102987367D01*
X142764160Y-102999908D01*
X142757882Y-103012068D01*
X142735346Y-103055304D01*
X142747498Y-103053637D01*
X142759648Y-103051974D01*
X142761422Y-103076666D01*
X142762046Y-103086082D01*
X142762880Y-103099797D01*
X142763899Y-103117273D01*
X142765074Y-103137971D01*
X142766372Y-103161351D01*
X142767769Y-103186874D01*
X142769237Y-103214005D01*
X142770748Y-103242201D01*
X142772271Y-103270924D01*
X142773780Y-103299636D01*
X142775246Y-103327798D01*
X142776640Y-103354871D01*
X142777934Y-103380317D01*
X142779100Y-103403596D01*
X142780111Y-103424169D01*
X142780937Y-103441498D01*
X142781550Y-103455045D01*
X142781922Y-103464270D01*
X142782026Y-103468633D01*
X142781999Y-103468914D01*
X142779159Y-103468654D01*
X142771890Y-103467446D01*
X142761218Y-103465492D01*
X142748163Y-103462997D01*
X142733745Y-103460167D01*
X142718987Y-103457202D01*
X142704907Y-103454309D01*
X142692529Y-103451695D01*
X142682874Y-103449561D01*
X142676961Y-103448109D01*
X142675609Y-103447630D01*
X142675016Y-103444683D01*
X142673883Y-103436975D01*
X142672309Y-103425276D01*
X142670395Y-103410351D01*
X142668244Y-103392978D01*
X142666648Y-103379746D01*
X142658680Y-103312934D01*
X142540367Y-103295807D01*
X142487611Y-103288345D01*
X142437669Y-103281632D01*
X142390875Y-103275705D01*
X142347568Y-103270600D01*
X142308074Y-103266350D01*
X142272735Y-103262994D01*
X142241879Y-103260568D01*
X142215844Y-103259108D01*
X142195913Y-103258648D01*
X142189441Y-103257886D01*
X142187175Y-103255156D01*
X142187140Y-103253775D01*
X142187663Y-103249763D01*
X142188965Y-103241069D01*
X142190920Y-103228500D01*
X142193398Y-103212867D01*
X142196273Y-103194980D01*
X142198594Y-103180699D01*
X142201664Y-103161963D01*
X142204439Y-103145162D01*
X142206796Y-103131041D01*
X142208609Y-103120340D01*
X142209753Y-103113807D01*
X142210102Y-103112085D01*
X142212817Y-103112585D01*
X142220563Y-103114162D01*
X142232931Y-103116728D01*
X142249508Y-103120197D01*
X142269884Y-103124481D01*
X142293644Y-103129494D01*
X142320377Y-103135149D01*
X142349671Y-103141358D01*
X142381117Y-103148038D01*
X142414297Y-103155098D01*
X142424629Y-103157297D01*
X142458279Y-103164446D01*
X142490337Y-103171220D01*
X142520389Y-103177531D01*
X142548021Y-103183295D01*
X142572818Y-103188427D01*
X142594366Y-103192841D01*
X142612252Y-103196451D01*
X142626060Y-103199177D01*
X142635377Y-103200927D01*
X142639786Y-103201620D01*
X142640092Y-103201607D01*
X142640019Y-103198559D01*
X142638951Y-103191020D01*
X142637071Y-103179935D01*
X142634565Y-103166260D01*
X142631614Y-103150943D01*
X142628406Y-103134929D01*
X142625122Y-103119174D01*
X142621946Y-103104624D01*
X142619063Y-103092229D01*
X142618248Y-103088932D01*
X142615836Y-103079036D01*
X142614172Y-103071553D01*
X142613545Y-103067827D01*
X142613574Y-103067642D01*
X142616387Y-103067227D01*
X142623862Y-103066374D01*
X142635121Y-103065181D01*
X142649285Y-103063741D01*
X142664934Y-103062198D01*
X142680952Y-103060592D01*
X142694802Y-103059111D01*
X142705636Y-103057854D01*
X142712607Y-103056917D01*
X142714874Y-103056403D01*
X142712007Y-103055823D01*
X142704216Y-103054555D01*
X142692092Y-103052682D01*
X142676218Y-103050288D01*
X142657191Y-103047462D01*
X142635597Y-103044287D01*
X142612022Y-103040849D01*
X142587064Y-103037230D01*
X142561302Y-103033518D01*
X142535333Y-103029797D01*
X142509744Y-103026155D01*
X142485122Y-103022671D01*
X142462060Y-103019432D01*
X142441145Y-103016525D01*
X142422968Y-103014034D01*
X142408115Y-103012045D01*
X142399782Y-103010965D01*
X142354627Y-103005665D01*
X142309770Y-103001178D01*
X142266936Y-102997666D01*
X142229269Y-102995352D01*
X142213439Y-102994491D01*
X142202375Y-102993643D01*
X142195274Y-102992676D01*
X142191336Y-102991462D01*
X142189759Y-102989869D01*
X142189605Y-102988917D01*
X142190032Y-102984838D01*
X142191209Y-102976366D01*
X142192990Y-102964404D01*
X142195233Y-102949851D01*
X142197792Y-102933604D01*
X142200522Y-102916567D01*
X142203275Y-102899631D01*
X142205909Y-102883703D01*
X142208276Y-102869678D01*
X142210237Y-102858456D01*
X142211640Y-102850935D01*
X142212342Y-102848019D01*
X142212345Y-102848018D01*
X142215114Y-102848464D01*
G37*
D12*
%TO.C,U1*%
X145125000Y-97425000D02*
X144550000Y-97425000D01*
X144550000Y-97075000D01*
X145125000Y-97075000D01*
X145125000Y-97425000D01*
G36*
X145125000Y-97425000D02*
G01*
X144550000Y-97425000D01*
X144550000Y-97075000D01*
X145125000Y-97075000D01*
X145125000Y-97425000D01*
G37*
X145125000Y-97925000D02*
X144550000Y-97925000D01*
X144550000Y-97575000D01*
X145125000Y-97575000D01*
X145125000Y-97925000D01*
G36*
X145125000Y-97925000D02*
G01*
X144550000Y-97925000D01*
X144550000Y-97575000D01*
X145125000Y-97575000D01*
X145125000Y-97925000D01*
G37*
X145125000Y-98425000D02*
X144550000Y-98425000D01*
X144550000Y-98075000D01*
X145125000Y-98075000D01*
X145125000Y-98425000D01*
G36*
X145125000Y-98425000D02*
G01*
X144550000Y-98425000D01*
X144550000Y-98075000D01*
X145125000Y-98075000D01*
X145125000Y-98425000D01*
G37*
X145125000Y-98925000D02*
X144550000Y-98925000D01*
X144550000Y-98575000D01*
X145125000Y-98575000D01*
X145125000Y-98925000D01*
G36*
X145125000Y-98925000D02*
G01*
X144550000Y-98925000D01*
X144550000Y-98575000D01*
X145125000Y-98575000D01*
X145125000Y-98925000D01*
G37*
X145675000Y-97375000D02*
X145325000Y-97375000D01*
X145325000Y-96800000D01*
X145675000Y-96800000D01*
X145675000Y-97375000D01*
G36*
X145675000Y-97375000D02*
G01*
X145325000Y-97375000D01*
X145325000Y-96800000D01*
X145675000Y-96800000D01*
X145675000Y-97375000D01*
G37*
X145675000Y-99200000D02*
X145325000Y-99200000D01*
X145325000Y-98625000D01*
X145675000Y-98625000D01*
X145675000Y-99200000D01*
G36*
X145675000Y-99200000D02*
G01*
X145325000Y-99200000D01*
X145325000Y-98625000D01*
X145675000Y-98625000D01*
X145675000Y-99200000D01*
G37*
X146175000Y-97375000D02*
X145825000Y-97375000D01*
X145825000Y-96800000D01*
X146175000Y-96800000D01*
X146175000Y-97375000D01*
G36*
X146175000Y-97375000D02*
G01*
X145825000Y-97375000D01*
X145825000Y-96800000D01*
X146175000Y-96800000D01*
X146175000Y-97375000D01*
G37*
X146175000Y-99200000D02*
X145825000Y-99200000D01*
X145825000Y-98625000D01*
X146175000Y-98625000D01*
X146175000Y-99200000D01*
G36*
X146175000Y-99200000D02*
G01*
X145825000Y-99200000D01*
X145825000Y-98625000D01*
X146175000Y-98625000D01*
X146175000Y-99200000D01*
G37*
X146675000Y-97375000D02*
X146325000Y-97375000D01*
X146325000Y-96800000D01*
X146675000Y-96800000D01*
X146675000Y-97375000D01*
G36*
X146675000Y-97375000D02*
G01*
X146325000Y-97375000D01*
X146325000Y-96800000D01*
X146675000Y-96800000D01*
X146675000Y-97375000D01*
G37*
X146675000Y-99200000D02*
X146325000Y-99200000D01*
X146325000Y-98625000D01*
X146675000Y-98625000D01*
X146675000Y-99200000D01*
G36*
X146675000Y-99200000D02*
G01*
X146325000Y-99200000D01*
X146325000Y-98625000D01*
X146675000Y-98625000D01*
X146675000Y-99200000D01*
G37*
X147450000Y-97425000D02*
X146875000Y-97425000D01*
X146875000Y-97075000D01*
X147450000Y-97075000D01*
X147450000Y-97425000D01*
G36*
X147450000Y-97425000D02*
G01*
X146875000Y-97425000D01*
X146875000Y-97075000D01*
X147450000Y-97075000D01*
X147450000Y-97425000D01*
G37*
X147450000Y-97925000D02*
X146875000Y-97925000D01*
X146875000Y-97575000D01*
X147450000Y-97575000D01*
X147450000Y-97925000D01*
G36*
X147450000Y-97925000D02*
G01*
X146875000Y-97925000D01*
X146875000Y-97575000D01*
X147450000Y-97575000D01*
X147450000Y-97925000D01*
G37*
X147450000Y-98425000D02*
X146875000Y-98425000D01*
X146875000Y-98075000D01*
X147450000Y-98075000D01*
X147450000Y-98425000D01*
G36*
X147450000Y-98425000D02*
G01*
X146875000Y-98425000D01*
X146875000Y-98075000D01*
X147450000Y-98075000D01*
X147450000Y-98425000D01*
G37*
X147450000Y-98925000D02*
X146875000Y-98925000D01*
X146875000Y-98575000D01*
X147450000Y-98575000D01*
X147450000Y-98925000D01*
G36*
X147450000Y-98925000D02*
G01*
X146875000Y-98925000D01*
X146875000Y-98575000D01*
X147450000Y-98575000D01*
X147450000Y-98925000D01*
G37*
%TD*%
D13*
%TO.C,J2*%
X142000000Y-89710000D03*
X142000000Y-92250000D03*
X142000000Y-94790000D03*
%TD*%
D14*
%TO.C,R3*%
X156750000Y-89675000D03*
X156750000Y-91325000D03*
%TD*%
D15*
%TO.C,J3*%
X155000000Y-99686500D03*
%TD*%
D16*
%TO.C,J1*%
X157600000Y-103400000D03*
X157600000Y-96700000D03*
D17*
X152050000Y-101050000D03*
X152050000Y-99050000D03*
%TD*%
D14*
%TO.C,R2*%
X153000000Y-105425000D03*
X153000000Y-107075000D03*
%TD*%
D18*
%TO.C,U2*%
X149800000Y-108550000D03*
X150200000Y-108550000D03*
X149800000Y-108950000D03*
X150200000Y-108950000D03*
%TD*%
D15*
%TO.C,J4*%
X155000000Y-97781500D03*
%TD*%
D19*
%TO.C,U3*%
X154850000Y-93900000D03*
X152650000Y-93900000D03*
X152650000Y-95600000D03*
X154850000Y-95600000D03*
%TD*%
D20*
%TO.C,C3*%
X146200000Y-109000000D03*
X147750000Y-108950000D03*
%TD*%
D14*
%TO.C,R1*%
X154750000Y-105425000D03*
X154750000Y-107075000D03*
%TD*%
D21*
%TO.C,SW1*%
X151500000Y-89500000D03*
X148500000Y-89500000D03*
D22*
X152250000Y-91250000D03*
X149250000Y-91250000D03*
X147750000Y-91250000D03*
D23*
X153650000Y-90600000D03*
X146350000Y-90600000D03*
X153650000Y-88400000D03*
X146350000Y-88400000D03*
%TD*%
D24*
%TO.C,C1*%
X147750000Y-93475000D03*
X147750000Y-95025000D03*
%TD*%
%TO.C,C2*%
X145250000Y-93475000D03*
X145250000Y-95025000D03*
%TD*%
M02*
