%TF.GenerationSoftware,KiCad,Pcbnew,9.0.3*%
%TF.CreationDate,2025-08-03T21:29:45+01:00*%
%TF.ProjectId,smol-slime-xiao,736d6f6c-2d73-46c6-996d-652d7869616f,1.0*%
%TF.SameCoordinates,Original*%
%TF.FileFunction,Legend,Bot*%
%TF.FilePolarity,Positive*%
%FSLAX46Y46*%
G04 Gerber Fmt 4.6, Leading zero omitted, Abs format (unit mm)*
G04 Created by KiCad (PCBNEW 9.0.3) date 2025-08-03 21:29:45*
%MOMM*%
%LPD*%
G01*
G04 APERTURE LIST*
G04 Aperture macros list*
%AMRoundRect*
0 Rectangle with rounded corners*
0 $1 Rounding radius*
0 $2 $3 $4 $5 $6 $7 $8 $9 X,Y pos of 4 corners*
0 Add a 4 corners polygon primitive as box body*
4,1,4,$2,$3,$4,$5,$6,$7,$8,$9,$2,$3,0*
0 Add four circle primitives for the rounded corners*
1,1,$1+$1,$2,$3*
1,1,$1+$1,$4,$5*
1,1,$1+$1,$6,$7*
1,1,$1+$1,$8,$9*
0 Add four rect primitives between the rounded corners*
20,1,$1+$1,$2,$3,$4,$5,0*
20,1,$1+$1,$4,$5,$6,$7,0*
20,1,$1+$1,$6,$7,$8,$9,0*
20,1,$1+$1,$8,$9,$2,$3,0*%
G04 Aperture macros list end*
%ADD10C,0.125000*%
%ADD11C,0.106680*%
%ADD12C,0.127000*%
%ADD13C,0.100000*%
%ADD14C,0.504000*%
%ADD15C,0.900000*%
%ADD16RoundRect,0.525400X0.900400X0.525400X-0.900400X0.525400X-0.900400X-0.525400X0.900400X-0.525400X0*%
%ADD17RoundRect,0.300400X-1.000400X-0.300400X1.000400X-0.300400X1.000400X0.300400X-1.000400X0.300400X0*%
%ADD18RoundRect,0.300400X-0.300400X1.000400X-0.300400X-1.000400X0.300400X-1.000400X0.300400X1.000400X0*%
%ADD19C,1.700000*%
G04 APERTURE END LIST*
D10*
G36*
X153476448Y-103167572D02*
G01*
X153476448Y-103575000D01*
X153594203Y-103575000D01*
X153594203Y-103167572D01*
X153733849Y-103167572D01*
X153733849Y-103077446D01*
X153331062Y-103077446D01*
X153343274Y-103167572D01*
X153476448Y-103167572D01*
G37*
G36*
X153142315Y-103184240D02*
G01*
X153175223Y-103192857D01*
X153203872Y-103206712D01*
X153229271Y-103225845D01*
X153250353Y-103249367D01*
X153267406Y-103277786D01*
X153279390Y-103308899D01*
X153286867Y-103344078D01*
X153289480Y-103384032D01*
X153286024Y-103432195D01*
X153276353Y-103472318D01*
X153261163Y-103505793D01*
X153240662Y-103533722D01*
X153220158Y-103552542D01*
X153196758Y-103567272D01*
X153170046Y-103578070D01*
X153139446Y-103584836D01*
X153104252Y-103587212D01*
X153069097Y-103584811D01*
X153038518Y-103577969D01*
X153011806Y-103567041D01*
X152988384Y-103552116D01*
X152967842Y-103533020D01*
X152947289Y-103504732D01*
X152932100Y-103471092D01*
X152922459Y-103431055D01*
X152919024Y-103383299D01*
X153036047Y-103383299D01*
X153038378Y-103426082D01*
X153044348Y-103455738D01*
X153052747Y-103475562D01*
X153065897Y-103491323D01*
X153082665Y-103500642D01*
X153104252Y-103503925D01*
X153125859Y-103500641D01*
X153142636Y-103491321D01*
X153155787Y-103475562D01*
X153164186Y-103455752D01*
X153170139Y-103426304D01*
X153172457Y-103384032D01*
X153170155Y-103342512D01*
X153164216Y-103313296D01*
X153155787Y-103293387D01*
X153142622Y-103277515D01*
X153125844Y-103268142D01*
X153104252Y-103264842D01*
X153082665Y-103268125D01*
X153065897Y-103277443D01*
X153052747Y-103293204D01*
X153044300Y-103312996D01*
X153038352Y-103342034D01*
X153036047Y-103383299D01*
X152919024Y-103383299D01*
X152921628Y-103343089D01*
X152929062Y-103307860D01*
X152940945Y-103276871D01*
X152957881Y-103248601D01*
X152978840Y-103225265D01*
X153004112Y-103206345D01*
X153032632Y-103192728D01*
X153065694Y-103184215D01*
X153104252Y-103181219D01*
X153142315Y-103184240D01*
G37*
G36*
X152421593Y-103575000D02*
G01*
X152287351Y-103575000D01*
X152241605Y-103572197D01*
X152197775Y-103563886D01*
X152169820Y-103554592D01*
X152144122Y-103541758D01*
X152120411Y-103525296D01*
X152099838Y-103505252D01*
X152081821Y-103479977D01*
X152066403Y-103448634D01*
X152055874Y-103415233D01*
X152048974Y-103374083D01*
X152046467Y-103323704D01*
X152168527Y-103323704D01*
X152170388Y-103367458D01*
X152175331Y-103400643D01*
X152182540Y-103425309D01*
X152193744Y-103448123D01*
X152206679Y-103464526D01*
X152221314Y-103475745D01*
X152238334Y-103483489D01*
X152257342Y-103488258D01*
X152278742Y-103489911D01*
X152303868Y-103489911D01*
X152303868Y-103162901D01*
X152278742Y-103162901D01*
X152248684Y-103166088D01*
X152222566Y-103175296D01*
X152207741Y-103185393D01*
X152194583Y-103200604D01*
X152183060Y-103222130D01*
X152175660Y-103245698D01*
X152170498Y-103278703D01*
X152168527Y-103323704D01*
X152046467Y-103323704D01*
X152049111Y-103272367D01*
X152056339Y-103231124D01*
X152067288Y-103198255D01*
X152083332Y-103167639D01*
X152102055Y-103143026D01*
X152123464Y-103123608D01*
X152147961Y-103107901D01*
X152174546Y-103095828D01*
X152203515Y-103087338D01*
X152248740Y-103079944D01*
X152295961Y-103077446D01*
X152421593Y-103077446D01*
X152421593Y-103575000D01*
G37*
G36*
X151856473Y-103182895D02*
G01*
X151895586Y-103188394D01*
X151934978Y-103197306D01*
X151972583Y-103209551D01*
X151946358Y-103284961D01*
X151917527Y-103276348D01*
X151888961Y-103270062D01*
X151861434Y-103265995D01*
X151841913Y-103264842D01*
X151811896Y-103267785D01*
X151791393Y-103275450D01*
X151777773Y-103286896D01*
X151769517Y-103302399D01*
X151766534Y-103323368D01*
X151766534Y-103337718D01*
X151817855Y-103337718D01*
X151862839Y-103340198D01*
X151899832Y-103347062D01*
X151930123Y-103357621D01*
X151954815Y-103371454D01*
X151976189Y-103390205D01*
X151991132Y-103411976D01*
X152000258Y-103437351D01*
X152003449Y-103467319D01*
X152001145Y-103493134D01*
X151994510Y-103515753D01*
X151983690Y-103535784D01*
X151968462Y-103553659D01*
X151950038Y-103567982D01*
X151928658Y-103578396D01*
X151903755Y-103584914D01*
X151874581Y-103587212D01*
X151839503Y-103584047D01*
X151804941Y-103574480D01*
X151783303Y-103564330D01*
X151764757Y-103551376D01*
X151748948Y-103535524D01*
X151733096Y-103556311D01*
X151712526Y-103570878D01*
X151687688Y-103580173D01*
X151655587Y-103585777D01*
X151632261Y-103511099D01*
X151643978Y-103504689D01*
X151651465Y-103496384D01*
X151655642Y-103485054D01*
X151657388Y-103465151D01*
X151657388Y-103464083D01*
X151766534Y-103464083D01*
X151779348Y-103481865D01*
X151797064Y-103495132D01*
X151817247Y-103503482D01*
X151835441Y-103506062D01*
X151857520Y-103502745D01*
X151872963Y-103493697D01*
X151880294Y-103484634D01*
X151884816Y-103473419D01*
X151886427Y-103459412D01*
X151883860Y-103441949D01*
X151876536Y-103428069D01*
X151864170Y-103416883D01*
X151848541Y-103409451D01*
X151826053Y-103404299D01*
X151794530Y-103402320D01*
X151766534Y-103402320D01*
X151766534Y-103464083D01*
X151657388Y-103464083D01*
X151657388Y-103315827D01*
X151660204Y-103283600D01*
X151668125Y-103256851D01*
X151680734Y-103234524D01*
X151698146Y-103215871D01*
X151719129Y-103201816D01*
X151746116Y-103190987D01*
X151780500Y-103183842D01*
X151823961Y-103181219D01*
X151856473Y-103182895D01*
G37*
G36*
X151345856Y-103497819D02*
G01*
X151323116Y-103495511D01*
X151301892Y-103488660D01*
X151281559Y-103478351D01*
X151260799Y-103465151D01*
X151210179Y-103536959D01*
X151237431Y-103556335D01*
X151271393Y-103572862D01*
X151295818Y-103580698D01*
X151322560Y-103585540D01*
X151351962Y-103587212D01*
X151392237Y-103584205D01*
X151427118Y-103575635D01*
X151457506Y-103561902D01*
X151484736Y-103542776D01*
X151507218Y-103519464D01*
X151525344Y-103491560D01*
X151538252Y-103460701D01*
X151546252Y-103426052D01*
X151549036Y-103386902D01*
X151546218Y-103347770D01*
X151538068Y-103312628D01*
X151524825Y-103280840D01*
X151506305Y-103251945D01*
X151483447Y-103227734D01*
X151455887Y-103207780D01*
X151425074Y-103193322D01*
X151390002Y-103184353D01*
X151349795Y-103181219D01*
X151307839Y-103184370D01*
X151272461Y-103193248D01*
X151240032Y-103208112D01*
X151210179Y-103228938D01*
X151259333Y-103297143D01*
X151279352Y-103284998D01*
X151300274Y-103275985D01*
X151322192Y-103270340D01*
X151345154Y-103268444D01*
X151369521Y-103271571D01*
X151389835Y-103280553D01*
X151407069Y-103295555D01*
X151419067Y-103315169D01*
X151427363Y-103344454D01*
X151430578Y-103386902D01*
X151427455Y-103426449D01*
X151419465Y-103453153D01*
X151405912Y-103474312D01*
X151389118Y-103487591D01*
X151368969Y-103495198D01*
X151345856Y-103497819D01*
G37*
G36*
X150988042Y-103184484D02*
G01*
X151021494Y-103193764D01*
X151050292Y-103208666D01*
X151075693Y-103229013D01*
X151096600Y-103253389D01*
X151113306Y-103282244D01*
X151125121Y-103313641D01*
X151132350Y-103347648D01*
X151134830Y-103384734D01*
X151132219Y-103423711D01*
X151124703Y-103458446D01*
X151112574Y-103489576D01*
X151095277Y-103517828D01*
X151073287Y-103541563D01*
X151046170Y-103561200D01*
X151015696Y-103575201D01*
X150979594Y-103584062D01*
X150936688Y-103587212D01*
X150904396Y-103585475D01*
X150875526Y-103580487D01*
X150849646Y-103572496D01*
X150813636Y-103555366D01*
X150784494Y-103534791D01*
X150830076Y-103473059D01*
X150853245Y-103486020D01*
X150877124Y-103496017D01*
X150901929Y-103502468D01*
X150927712Y-103504627D01*
X150951146Y-103502259D01*
X150971259Y-103495467D01*
X150988743Y-103484355D01*
X151002364Y-103469100D01*
X151012699Y-103447430D01*
X151019242Y-103417402D01*
X150772282Y-103417402D01*
X150770664Y-103397679D01*
X150770115Y-103376857D01*
X150771929Y-103349197D01*
X150880696Y-103349197D01*
X151020677Y-103349197D01*
X151015838Y-103317569D01*
X151008068Y-103294955D01*
X150998085Y-103279221D01*
X150984360Y-103267072D01*
X150968222Y-103259820D01*
X150948900Y-103257301D01*
X150926091Y-103260357D01*
X150909247Y-103268766D01*
X150896846Y-103282427D01*
X150888423Y-103299885D01*
X150882871Y-103321794D01*
X150880696Y-103349197D01*
X150771929Y-103349197D01*
X150772768Y-103336403D01*
X150780280Y-103301639D01*
X150792188Y-103271680D01*
X150809133Y-103244441D01*
X150829745Y-103222241D01*
X150854287Y-103204544D01*
X150881847Y-103191844D01*
X150913133Y-103183968D01*
X150948900Y-103181219D01*
X150988042Y-103184484D01*
G37*
G36*
X150326844Y-103193767D02*
G01*
X150453912Y-103575000D01*
X150468817Y-103612151D01*
X150486503Y-103643250D01*
X150506832Y-103669073D01*
X150529841Y-103690221D01*
X150555938Y-103707005D01*
X150586987Y-103720222D01*
X150623837Y-103729628D01*
X150667502Y-103734734D01*
X150680416Y-103654684D01*
X150644700Y-103648453D01*
X150619600Y-103640670D01*
X150598314Y-103629447D01*
X150582261Y-103615391D01*
X150569354Y-103597870D01*
X150557654Y-103575000D01*
X150596427Y-103575000D01*
X150717419Y-103193767D01*
X150597496Y-103193767D01*
X150523551Y-103502490D01*
X150443135Y-103193767D01*
X150326844Y-103193767D01*
G37*
G36*
X150091761Y-103427110D02*
G01*
X150070206Y-103429689D01*
X150051788Y-103437138D01*
X150035768Y-103449550D01*
X150023423Y-103465636D01*
X150016051Y-103483888D01*
X150013511Y-103504993D01*
X150015413Y-103526021D01*
X150021236Y-103547370D01*
X150044378Y-103603729D01*
X150096432Y-103721087D01*
X150171811Y-103721087D01*
X150135205Y-103568527D01*
X150149833Y-103556461D01*
X150160515Y-103541263D01*
X150167080Y-103523701D01*
X150169308Y-103504291D01*
X150166775Y-103483434D01*
X150159410Y-103465351D01*
X150147051Y-103449367D01*
X150131060Y-103437027D01*
X150112861Y-103429653D01*
X150091761Y-103427110D01*
G37*
G36*
X149153532Y-103030430D02*
G01*
X149113132Y-103032202D01*
X149079954Y-103037085D01*
X149049042Y-103044949D01*
X149022862Y-103054487D01*
X149054095Y-103128432D01*
X149074095Y-103121928D01*
X149094639Y-103117502D01*
X149135916Y-103114083D01*
X149158230Y-103115748D01*
X149173738Y-103120055D01*
X149184215Y-103126295D01*
X149191864Y-103135464D01*
X149196866Y-103148521D01*
X149198748Y-103166839D01*
X149198748Y-103217825D01*
X149074550Y-103217825D01*
X149087098Y-103296441D01*
X149198748Y-103296441D01*
X149198748Y-103575000D01*
X149311466Y-103575000D01*
X149311466Y-103296441D01*
X149391516Y-103296441D01*
X149391516Y-103217825D01*
X149311466Y-103217825D01*
X149311466Y-103162534D01*
X149309408Y-103137924D01*
X149303403Y-103115576D01*
X149293514Y-103095062D01*
X149279902Y-103076867D01*
X149262376Y-103061172D01*
X149240391Y-103047862D01*
X149216325Y-103038530D01*
X149187665Y-103032562D01*
X149153532Y-103030430D01*
G37*
G36*
X148838756Y-103184240D02*
G01*
X148871664Y-103192857D01*
X148900314Y-103206712D01*
X148925712Y-103225845D01*
X148946794Y-103249367D01*
X148963847Y-103277786D01*
X148975831Y-103308899D01*
X148983308Y-103344078D01*
X148985921Y-103384032D01*
X148982466Y-103432195D01*
X148972794Y-103472318D01*
X148957604Y-103505793D01*
X148937103Y-103533722D01*
X148916599Y-103552542D01*
X148893199Y-103567272D01*
X148866487Y-103578070D01*
X148835887Y-103584836D01*
X148800693Y-103587212D01*
X148765538Y-103584811D01*
X148734959Y-103577969D01*
X148708247Y-103567041D01*
X148684825Y-103552116D01*
X148664283Y-103533020D01*
X148643730Y-103504732D01*
X148628541Y-103471092D01*
X148618900Y-103431055D01*
X148615465Y-103383299D01*
X148732488Y-103383299D01*
X148734819Y-103426082D01*
X148740789Y-103455738D01*
X148749188Y-103475562D01*
X148762338Y-103491323D01*
X148779106Y-103500642D01*
X148800693Y-103503925D01*
X148822300Y-103500641D01*
X148839077Y-103491321D01*
X148852228Y-103475562D01*
X148860627Y-103455752D01*
X148866580Y-103426304D01*
X148868898Y-103384032D01*
X148866596Y-103342512D01*
X148860657Y-103313296D01*
X148852228Y-103293387D01*
X148839063Y-103277515D01*
X148822285Y-103268142D01*
X148800693Y-103264842D01*
X148779106Y-103268125D01*
X148762338Y-103277443D01*
X148749188Y-103293204D01*
X148740741Y-103312996D01*
X148734793Y-103342034D01*
X148732488Y-103383299D01*
X148615465Y-103383299D01*
X148618069Y-103343089D01*
X148625503Y-103307860D01*
X148637386Y-103276871D01*
X148654322Y-103248601D01*
X148675281Y-103225265D01*
X148700553Y-103206345D01*
X148729073Y-103192728D01*
X148762135Y-103184215D01*
X148800693Y-103181219D01*
X148838756Y-103184240D01*
G37*
G36*
X148531873Y-103575000D02*
G01*
X148531873Y-103498887D01*
X148481620Y-103498887D01*
X148481620Y-103269146D01*
X148531873Y-103269146D01*
X148531873Y-103193767D01*
X148395128Y-103193767D01*
X148374306Y-103279557D01*
X148358543Y-103248138D01*
X148341101Y-103224145D01*
X148322069Y-103206345D01*
X148299794Y-103193195D01*
X148274161Y-103185112D01*
X148244338Y-103182288D01*
X148209900Y-103185341D01*
X148181537Y-103193767D01*
X148202695Y-103353166D01*
X148273770Y-103353166D01*
X148273770Y-103282793D01*
X148294033Y-103289048D01*
X148312823Y-103300482D01*
X148330525Y-103317812D01*
X148345204Y-103338239D01*
X148357791Y-103362076D01*
X148368200Y-103389772D01*
X148368200Y-103498887D01*
X148292821Y-103498887D01*
X148292821Y-103575000D01*
X148531873Y-103575000D01*
G37*
G36*
X147552915Y-103182895D02*
G01*
X147592027Y-103188394D01*
X147631419Y-103197306D01*
X147669024Y-103209551D01*
X147642799Y-103284961D01*
X147613968Y-103276348D01*
X147585402Y-103270062D01*
X147557876Y-103265995D01*
X147538354Y-103264842D01*
X147508337Y-103267785D01*
X147487834Y-103275450D01*
X147474214Y-103286896D01*
X147465958Y-103302399D01*
X147462975Y-103323368D01*
X147462975Y-103337718D01*
X147514296Y-103337718D01*
X147559281Y-103340198D01*
X147596273Y-103347062D01*
X147626564Y-103357621D01*
X147651256Y-103371454D01*
X147672630Y-103390205D01*
X147687573Y-103411976D01*
X147696699Y-103437351D01*
X147699890Y-103467319D01*
X147697586Y-103493134D01*
X147690951Y-103515753D01*
X147680131Y-103535784D01*
X147664903Y-103553659D01*
X147646479Y-103567982D01*
X147625099Y-103578396D01*
X147600196Y-103584914D01*
X147571022Y-103587212D01*
X147535944Y-103584047D01*
X147501382Y-103574480D01*
X147479744Y-103564330D01*
X147461198Y-103551376D01*
X147445389Y-103535524D01*
X147429537Y-103556311D01*
X147408967Y-103570878D01*
X147384129Y-103580173D01*
X147352028Y-103585777D01*
X147328702Y-103511099D01*
X147340419Y-103504689D01*
X147347906Y-103496384D01*
X147352083Y-103485054D01*
X147353829Y-103465151D01*
X147353829Y-103464083D01*
X147462975Y-103464083D01*
X147475789Y-103481865D01*
X147493505Y-103495132D01*
X147513688Y-103503482D01*
X147531882Y-103506062D01*
X147553961Y-103502745D01*
X147569404Y-103493697D01*
X147576735Y-103484634D01*
X147581257Y-103473419D01*
X147582868Y-103459412D01*
X147580301Y-103441949D01*
X147572977Y-103428069D01*
X147560611Y-103416883D01*
X147544982Y-103409451D01*
X147522494Y-103404299D01*
X147490971Y-103402320D01*
X147462975Y-103402320D01*
X147462975Y-103464083D01*
X147353829Y-103464083D01*
X147353829Y-103315827D01*
X147356645Y-103283600D01*
X147364566Y-103256851D01*
X147377175Y-103234524D01*
X147394587Y-103215871D01*
X147415570Y-103201816D01*
X147442557Y-103190987D01*
X147476941Y-103183842D01*
X147520403Y-103181219D01*
X147552915Y-103182895D01*
G37*
G36*
X147045533Y-103042275D02*
G01*
X147045533Y-103455107D01*
X147043871Y-103469805D01*
X147039406Y-103480401D01*
X147032436Y-103487957D01*
X147017656Y-103495131D01*
X146996349Y-103497819D01*
X146967986Y-103494430D01*
X146942493Y-103486339D01*
X146915230Y-103562085D01*
X146935793Y-103571201D01*
X146961911Y-103579671D01*
X146990397Y-103585202D01*
X147025444Y-103587212D01*
X147059755Y-103584362D01*
X147087207Y-103576489D01*
X147109173Y-103564206D01*
X147126653Y-103547553D01*
X147140249Y-103527031D01*
X147150313Y-103502918D01*
X147156690Y-103474547D01*
X147158954Y-103441093D01*
X147158954Y-103119822D01*
X147271336Y-103119822D01*
X147271336Y-103042275D01*
X147045533Y-103042275D01*
G37*
G36*
X146490247Y-103575000D02*
G01*
X146615544Y-103575000D01*
X146648211Y-103318697D01*
X146682314Y-103575000D01*
X146805443Y-103575000D01*
X146861802Y-103193767D01*
X146758060Y-103193767D01*
X146733269Y-103504291D01*
X146693060Y-103241883D01*
X146597592Y-103241883D01*
X146561688Y-103504291D01*
X146536195Y-103193767D01*
X146436056Y-103193767D01*
X146490247Y-103575000D01*
G37*
G36*
X146261847Y-103182895D02*
G01*
X146300959Y-103188394D01*
X146340352Y-103197306D01*
X146377957Y-103209551D01*
X146351731Y-103284961D01*
X146322901Y-103276348D01*
X146294334Y-103270062D01*
X146266808Y-103265995D01*
X146247287Y-103264842D01*
X146217269Y-103267785D01*
X146196766Y-103275450D01*
X146183146Y-103286896D01*
X146174890Y-103302399D01*
X146171907Y-103323368D01*
X146171907Y-103337718D01*
X146223229Y-103337718D01*
X146268213Y-103340198D01*
X146305206Y-103347062D01*
X146335496Y-103357621D01*
X146360188Y-103371454D01*
X146381563Y-103390205D01*
X146396505Y-103411976D01*
X146405631Y-103437351D01*
X146408823Y-103467319D01*
X146406519Y-103493134D01*
X146399884Y-103515753D01*
X146389063Y-103535784D01*
X146373835Y-103553659D01*
X146355411Y-103567982D01*
X146334032Y-103578396D01*
X146309128Y-103584914D01*
X146279954Y-103587212D01*
X146244877Y-103584047D01*
X146210314Y-103574480D01*
X146188676Y-103564330D01*
X146170131Y-103551376D01*
X146154322Y-103535524D01*
X146138469Y-103556311D01*
X146117899Y-103570878D01*
X146093061Y-103580173D01*
X146060960Y-103585777D01*
X146037635Y-103511099D01*
X146049351Y-103504689D01*
X146056838Y-103496384D01*
X146061016Y-103485054D01*
X146062761Y-103465151D01*
X146062761Y-103464083D01*
X146171907Y-103464083D01*
X146184721Y-103481865D01*
X146202438Y-103495132D01*
X146222620Y-103503482D01*
X146240814Y-103506062D01*
X146262893Y-103502745D01*
X146278336Y-103493697D01*
X146285667Y-103484634D01*
X146290189Y-103473419D01*
X146291800Y-103459412D01*
X146289233Y-103441949D01*
X146281910Y-103428069D01*
X146269543Y-103416883D01*
X146253914Y-103409451D01*
X146231427Y-103404299D01*
X146199904Y-103402320D01*
X146171907Y-103402320D01*
X146171907Y-103464083D01*
X146062761Y-103464083D01*
X146062761Y-103315827D01*
X146065578Y-103283600D01*
X146073498Y-103256851D01*
X146086108Y-103234524D01*
X146103519Y-103215871D01*
X146124502Y-103201816D01*
X146151489Y-103190987D01*
X146185873Y-103183842D01*
X146229335Y-103181219D01*
X146261847Y-103182895D01*
G37*
G36*
X145592930Y-103193767D02*
G01*
X145719997Y-103575000D01*
X145734902Y-103612151D01*
X145752588Y-103643250D01*
X145772917Y-103669073D01*
X145795926Y-103690221D01*
X145822023Y-103707005D01*
X145853072Y-103720222D01*
X145889922Y-103729628D01*
X145933587Y-103734734D01*
X145946502Y-103654684D01*
X145910785Y-103648453D01*
X145885685Y-103640670D01*
X145864400Y-103629447D01*
X145848346Y-103615391D01*
X145835439Y-103597870D01*
X145823739Y-103575000D01*
X145862513Y-103575000D01*
X145983504Y-103193767D01*
X145863581Y-103193767D01*
X145789637Y-103502490D01*
X145709220Y-103193767D01*
X145592930Y-103193767D01*
G37*
G36*
X145370058Y-103506062D02*
G01*
X145343329Y-103503603D01*
X145324293Y-103497117D01*
X145314411Y-103489912D01*
X145308808Y-103481117D01*
X145306891Y-103470189D01*
X145308651Y-103458796D01*
X145313699Y-103449733D01*
X145322518Y-103442344D01*
X145339894Y-103433919D01*
X145397352Y-103415967D01*
X145431487Y-103404741D01*
X145459616Y-103391275D01*
X145482593Y-103375789D01*
X145496671Y-103361535D01*
X145506819Y-103344412D01*
X145513181Y-103323832D01*
X145515443Y-103298944D01*
X145512778Y-103274532D01*
X145504977Y-103252716D01*
X145491914Y-103232871D01*
X145472915Y-103214619D01*
X145451091Y-103200899D01*
X145424079Y-103190463D01*
X145390801Y-103183677D01*
X145349969Y-103181219D01*
X145316119Y-103182801D01*
X145286691Y-103187277D01*
X145261126Y-103194316D01*
X145225144Y-103209497D01*
X145195607Y-103227503D01*
X145240823Y-103294273D01*
X145265330Y-103281077D01*
X145291809Y-103270765D01*
X145319287Y-103264151D01*
X145346733Y-103261972D01*
X145374360Y-103264575D01*
X145390250Y-103270879D01*
X145398537Y-103279665D01*
X145401290Y-103291403D01*
X145399551Y-103300413D01*
X145394299Y-103308103D01*
X145385444Y-103314491D01*
X145367921Y-103322452D01*
X145311195Y-103340587D01*
X145275647Y-103352166D01*
X145246776Y-103364645D01*
X145222094Y-103380844D01*
X145204217Y-103401099D01*
X145196181Y-103416974D01*
X145191008Y-103436705D01*
X145189135Y-103461213D01*
X145192015Y-103488036D01*
X145200295Y-103511033D01*
X145213926Y-103531036D01*
X145231803Y-103547917D01*
X145253500Y-103561985D01*
X145279596Y-103573229D01*
X145321812Y-103583610D01*
X145369325Y-103587212D01*
X145405945Y-103585332D01*
X145438323Y-103579965D01*
X145466992Y-103571427D01*
X145506808Y-103552750D01*
X145539135Y-103529754D01*
X145482043Y-103465884D01*
X145458546Y-103481531D01*
X145431607Y-103494583D01*
X145402478Y-103503127D01*
X145370058Y-103506062D01*
G37*
G36*
X153546820Y-104346062D02*
G01*
X153520091Y-104343603D01*
X153501055Y-104337117D01*
X153491173Y-104329912D01*
X153485570Y-104321117D01*
X153483653Y-104310189D01*
X153485413Y-104298796D01*
X153490461Y-104289733D01*
X153499280Y-104282344D01*
X153516656Y-104273919D01*
X153574114Y-104255967D01*
X153608249Y-104244741D01*
X153636378Y-104231275D01*
X153659355Y-104215789D01*
X153673433Y-104201535D01*
X153683581Y-104184412D01*
X153689943Y-104163832D01*
X153692206Y-104138944D01*
X153689540Y-104114532D01*
X153681739Y-104092716D01*
X153668676Y-104072871D01*
X153649677Y-104054619D01*
X153627853Y-104040899D01*
X153600841Y-104030463D01*
X153567563Y-104023677D01*
X153526731Y-104021219D01*
X153492881Y-104022801D01*
X153463453Y-104027277D01*
X153437888Y-104034316D01*
X153401906Y-104049497D01*
X153372370Y-104067503D01*
X153417585Y-104134273D01*
X153442092Y-104121077D01*
X153468571Y-104110765D01*
X153496049Y-104104151D01*
X153523495Y-104101972D01*
X153551122Y-104104575D01*
X153567012Y-104110879D01*
X153575299Y-104119665D01*
X153578053Y-104131403D01*
X153576313Y-104140413D01*
X153571061Y-104148103D01*
X153562206Y-104154491D01*
X153544683Y-104162452D01*
X153487957Y-104180587D01*
X153452409Y-104192166D01*
X153423538Y-104204645D01*
X153398856Y-104220844D01*
X153380979Y-104241099D01*
X153372943Y-104256974D01*
X153367770Y-104276705D01*
X153365897Y-104301213D01*
X153368777Y-104328036D01*
X153377057Y-104351033D01*
X153390688Y-104371036D01*
X153408565Y-104387917D01*
X153430262Y-104401985D01*
X153456359Y-104413229D01*
X153498574Y-104423610D01*
X153546087Y-104427212D01*
X153582707Y-104425332D01*
X153615085Y-104419965D01*
X153643754Y-104411427D01*
X153683570Y-104392750D01*
X153715897Y-104369754D01*
X153658805Y-104305884D01*
X153635308Y-104321531D01*
X153608369Y-104334583D01*
X153579240Y-104343127D01*
X153546820Y-104346062D01*
G37*
G36*
X153155940Y-104033767D02*
G01*
X153155940Y-104294740D01*
X153152921Y-104319680D01*
X153145712Y-104332781D01*
X153133889Y-104340433D01*
X153117197Y-104343192D01*
X153099957Y-104340529D01*
X153081995Y-104332079D01*
X153065977Y-104319102D01*
X153052564Y-104301915D01*
X153052564Y-104033767D01*
X152939144Y-104033767D01*
X152939144Y-104415000D01*
X153038215Y-104415000D01*
X153043222Y-104370486D01*
X153057494Y-104387629D01*
X153074392Y-104401690D01*
X153094207Y-104412862D01*
X153126547Y-104423631D01*
X153160245Y-104427212D01*
X153187732Y-104424925D01*
X153209954Y-104418578D01*
X153227947Y-104408629D01*
X153242463Y-104395094D01*
X153256945Y-104372249D01*
X153266100Y-104343950D01*
X153269391Y-104308754D01*
X153269391Y-104033767D01*
X153155940Y-104033767D01*
G37*
G36*
X152654644Y-104024306D02*
G01*
X152682536Y-104033950D01*
X152699872Y-104043911D01*
X152716819Y-104057887D01*
X152733491Y-104076479D01*
X152738529Y-104033767D01*
X152839035Y-104033767D01*
X152839035Y-104574032D01*
X152725584Y-104562186D01*
X152725584Y-104387370D01*
X152706846Y-104404825D01*
X152685867Y-104417118D01*
X152662187Y-104424614D01*
X152635122Y-104427212D01*
X152604960Y-104424150D01*
X152578801Y-104415329D01*
X152555805Y-104400833D01*
X152536180Y-104381561D01*
X152519549Y-104357634D01*
X152505918Y-104328324D01*
X152496557Y-104297115D01*
X152490706Y-104262278D01*
X152488743Y-104224734D01*
X152605691Y-104224734D01*
X152608068Y-104267781D01*
X152614119Y-104297183D01*
X152622575Y-104316478D01*
X152635601Y-104331993D01*
X152650991Y-104340886D01*
X152669591Y-104343925D01*
X152686618Y-104341787D01*
X152700641Y-104335682D01*
X152712916Y-104325604D01*
X152725584Y-104309822D01*
X152725584Y-104148989D01*
X152712006Y-104130225D01*
X152697954Y-104116687D01*
X152681769Y-104107825D01*
X152663119Y-104104842D01*
X152646285Y-104107453D01*
X152632283Y-104115069D01*
X152621522Y-104128086D01*
X152612530Y-104151339D01*
X152607662Y-104180024D01*
X152605691Y-104224734D01*
X152488743Y-104224734D01*
X152488668Y-104223299D01*
X152490401Y-104181975D01*
X152495272Y-104146448D01*
X152502865Y-104115985D01*
X152514585Y-104087209D01*
X152529502Y-104064167D01*
X152547561Y-104045979D01*
X152569151Y-104032629D01*
X152595535Y-104024225D01*
X152627948Y-104021219D01*
X152654644Y-104024306D01*
G37*
G36*
X152224288Y-104024306D02*
G01*
X152252180Y-104033950D01*
X152269516Y-104043911D01*
X152286463Y-104057887D01*
X152303135Y-104076479D01*
X152308173Y-104033767D01*
X152408679Y-104033767D01*
X152408679Y-104574032D01*
X152295228Y-104562186D01*
X152295228Y-104387370D01*
X152276490Y-104404825D01*
X152255511Y-104417118D01*
X152231831Y-104424614D01*
X152204767Y-104427212D01*
X152174604Y-104424150D01*
X152148445Y-104415329D01*
X152125449Y-104400833D01*
X152105824Y-104381561D01*
X152089193Y-104357634D01*
X152075562Y-104328324D01*
X152066201Y-104297115D01*
X152060351Y-104262278D01*
X152058387Y-104224734D01*
X152175335Y-104224734D01*
X152177712Y-104267781D01*
X152183764Y-104297183D01*
X152192219Y-104316478D01*
X152205245Y-104331993D01*
X152220636Y-104340886D01*
X152239235Y-104343925D01*
X152256262Y-104341787D01*
X152270285Y-104335682D01*
X152282560Y-104325604D01*
X152295228Y-104309822D01*
X152295228Y-104148989D01*
X152281650Y-104130225D01*
X152267598Y-104116687D01*
X152251413Y-104107825D01*
X152232763Y-104104842D01*
X152215929Y-104107453D01*
X152201927Y-104115069D01*
X152191166Y-104128086D01*
X152182174Y-104151339D01*
X152177306Y-104180024D01*
X152175335Y-104224734D01*
X152058387Y-104224734D01*
X152058312Y-104223299D01*
X152060045Y-104181975D01*
X152064916Y-104146448D01*
X152072509Y-104115985D01*
X152084229Y-104087209D01*
X152099146Y-104064167D01*
X152117206Y-104045979D01*
X152138795Y-104032629D01*
X152165179Y-104024225D01*
X152197592Y-104021219D01*
X152224288Y-104024306D01*
G37*
G36*
X151851247Y-104024240D02*
G01*
X151884155Y-104032857D01*
X151912805Y-104046712D01*
X151938203Y-104065845D01*
X151959285Y-104089367D01*
X151976338Y-104117786D01*
X151988323Y-104148899D01*
X151995799Y-104184078D01*
X151998412Y-104224032D01*
X151994957Y-104272195D01*
X151985285Y-104312318D01*
X151970095Y-104345793D01*
X151949594Y-104373722D01*
X151929090Y-104392542D01*
X151905690Y-104407272D01*
X151878978Y-104418070D01*
X151848379Y-104424836D01*
X151813184Y-104427212D01*
X151778029Y-104424811D01*
X151747450Y-104417969D01*
X151720738Y-104407041D01*
X151697317Y-104392116D01*
X151676775Y-104373020D01*
X151656221Y-104344732D01*
X151641032Y-104311092D01*
X151631391Y-104271055D01*
X151627957Y-104223299D01*
X151744979Y-104223299D01*
X151747310Y-104266082D01*
X151753281Y-104295738D01*
X151761680Y-104315562D01*
X151774830Y-104331323D01*
X151791597Y-104340642D01*
X151813184Y-104343925D01*
X151834792Y-104340641D01*
X151851568Y-104331321D01*
X151864719Y-104315562D01*
X151873118Y-104295752D01*
X151879071Y-104266304D01*
X151881389Y-104224032D01*
X151879087Y-104182512D01*
X151873149Y-104153296D01*
X151864719Y-104133387D01*
X151851554Y-104117515D01*
X151834776Y-104108142D01*
X151813184Y-104104842D01*
X151791597Y-104108125D01*
X151774830Y-104117443D01*
X151761680Y-104133204D01*
X151753233Y-104152996D01*
X151747285Y-104182034D01*
X151744979Y-104223299D01*
X151627957Y-104223299D01*
X151630560Y-104183089D01*
X151637995Y-104147860D01*
X151649877Y-104116871D01*
X151666813Y-104088601D01*
X151687773Y-104065265D01*
X151713045Y-104046345D01*
X151741564Y-104032728D01*
X151774627Y-104024215D01*
X151813184Y-104021219D01*
X151851247Y-104024240D01*
G37*
G36*
X151544364Y-104415000D02*
G01*
X151544364Y-104338887D01*
X151494112Y-104338887D01*
X151494112Y-104109146D01*
X151544364Y-104109146D01*
X151544364Y-104033767D01*
X151407619Y-104033767D01*
X151386797Y-104119557D01*
X151371034Y-104088138D01*
X151353592Y-104064145D01*
X151334560Y-104046345D01*
X151312285Y-104033195D01*
X151286652Y-104025112D01*
X151256830Y-104022288D01*
X151222391Y-104025341D01*
X151194029Y-104033767D01*
X151215186Y-104193166D01*
X151286261Y-104193166D01*
X151286261Y-104122793D01*
X151306524Y-104129048D01*
X151325314Y-104140482D01*
X151343017Y-104157812D01*
X151357695Y-104178239D01*
X151370282Y-104202076D01*
X151380691Y-104229772D01*
X151380691Y-104338887D01*
X151305312Y-104338887D01*
X151305312Y-104415000D01*
X151544364Y-104415000D01*
G37*
G36*
X150774419Y-104392743D02*
G01*
X150798228Y-104405659D01*
X150828275Y-104417137D01*
X150861062Y-104424581D01*
X150899350Y-104427212D01*
X150936868Y-104424426D01*
X150966976Y-104416749D01*
X150991089Y-104404868D01*
X151010297Y-104388988D01*
X151025695Y-104368900D01*
X151036951Y-104345361D01*
X151044031Y-104317704D01*
X151046536Y-104285062D01*
X151046536Y-104112016D01*
X151126587Y-104112016D01*
X151126587Y-104033767D01*
X151046536Y-104033767D01*
X151046536Y-103951213D01*
X150933086Y-103937566D01*
X150933086Y-104033767D01*
X150810323Y-104033767D01*
X150821467Y-104112016D01*
X150933086Y-104112016D01*
X150933086Y-104285062D01*
X150931381Y-104303542D01*
X150926895Y-104316594D01*
X150920171Y-104325637D01*
X150910770Y-104331976D01*
X150897449Y-104336214D01*
X150878894Y-104337819D01*
X150859296Y-104336568D01*
X150842105Y-104332995D01*
X150826016Y-104327368D01*
X150812124Y-104320600D01*
X150774419Y-104392743D01*
G37*
G36*
X150522849Y-103834190D02*
G01*
X150503979Y-103836333D01*
X150488180Y-103842452D01*
X150474764Y-103852508D01*
X150464396Y-103865680D01*
X150458211Y-103880679D01*
X150456079Y-103898090D01*
X150458206Y-103915487D01*
X150464387Y-103930553D01*
X150474764Y-103943855D01*
X150488191Y-103954002D01*
X150503990Y-103960168D01*
X150522849Y-103962326D01*
X150541958Y-103960163D01*
X150557937Y-103953991D01*
X150571484Y-103943855D01*
X150581952Y-103930542D01*
X150588180Y-103915477D01*
X150590321Y-103898090D01*
X150588175Y-103880690D01*
X150581943Y-103865691D01*
X150571484Y-103852508D01*
X150557948Y-103842462D01*
X150541969Y-103836337D01*
X150522849Y-103834190D01*
G37*
G36*
X150454278Y-104033767D02*
G01*
X150454278Y-104337452D01*
X150357344Y-104337452D01*
X150357344Y-104415000D01*
X150675776Y-104415000D01*
X150675776Y-104337452D01*
X150567698Y-104337452D01*
X150567698Y-104111314D01*
X150672173Y-104111314D01*
X150672173Y-104033767D01*
X150454278Y-104033767D01*
G37*
G36*
X150256899Y-104415000D02*
G01*
X150256899Y-104033767D01*
X150157828Y-104033767D01*
X150149921Y-104077914D01*
X150123052Y-104052375D01*
X150096065Y-104035232D01*
X150066278Y-104024841D01*
X150031463Y-104021219D01*
X150000198Y-104024780D01*
X149975057Y-104034789D01*
X149954649Y-104051017D01*
X149939646Y-104072478D01*
X149930113Y-104099903D01*
X149926653Y-104135006D01*
X149926653Y-104415000D01*
X150040073Y-104415000D01*
X150040073Y-104167673D01*
X150042435Y-104135286D01*
X150047797Y-104118672D01*
X150054098Y-104111251D01*
X150063355Y-104106583D01*
X150076679Y-104104842D01*
X150093995Y-104107642D01*
X150110964Y-104116352D01*
X150126686Y-104129521D01*
X150143449Y-104148286D01*
X150143449Y-104415000D01*
X150256899Y-104415000D01*
G37*
G36*
X149536139Y-103997711D02*
G01*
X149562330Y-104007942D01*
X149592864Y-104016029D01*
X149625842Y-104020702D01*
X149667144Y-104021921D01*
X149699835Y-104023906D01*
X149729055Y-104029617D01*
X149755286Y-104038804D01*
X149779591Y-104051902D01*
X149799579Y-104067836D01*
X149815766Y-104086707D01*
X149827756Y-104108333D01*
X149835103Y-104132814D01*
X149837657Y-104160834D01*
X149835783Y-104185055D01*
X149830443Y-104205995D01*
X149821872Y-104224215D01*
X149809761Y-104240246D01*
X149792625Y-104255492D01*
X149769452Y-104269980D01*
X149787817Y-104284599D01*
X149801234Y-104301915D01*
X149809736Y-104321584D01*
X149812530Y-104342124D01*
X149809555Y-104361207D01*
X149800544Y-104378769D01*
X149784534Y-104395460D01*
X149764468Y-104407172D01*
X149735546Y-104415173D01*
X149694805Y-104418236D01*
X149634141Y-104418236D01*
X149607800Y-104421222D01*
X149592131Y-104428647D01*
X149582170Y-104440670D01*
X149578851Y-104455910D01*
X149580603Y-104467549D01*
X149585842Y-104477984D01*
X149595001Y-104486316D01*
X149611885Y-104493615D01*
X149633070Y-104497686D01*
X149667144Y-104499355D01*
X149700918Y-104497889D01*
X149721916Y-104494317D01*
X149738451Y-104487448D01*
X149747409Y-104478716D01*
X149752257Y-104467126D01*
X149754034Y-104451605D01*
X149854540Y-104451605D01*
X149852693Y-104476337D01*
X149847416Y-104497878D01*
X149838939Y-104516757D01*
X149826553Y-104532938D01*
X149808454Y-104547076D01*
X149783282Y-104559133D01*
X149756076Y-104566774D01*
X149719116Y-104572042D01*
X149670014Y-104574032D01*
X149617910Y-104571456D01*
X149576272Y-104564433D01*
X149543313Y-104553838D01*
X149517485Y-104540266D01*
X149494524Y-104521335D01*
X149478800Y-104500032D01*
X149469381Y-104475891D01*
X149466133Y-104448033D01*
X149468171Y-104427308D01*
X149474141Y-104408547D01*
X149484084Y-104391308D01*
X149497329Y-104376275D01*
X149513974Y-104363249D01*
X149534521Y-104352199D01*
X149556627Y-104344445D01*
X149582105Y-104339546D01*
X149611518Y-104337819D01*
X149673983Y-104337819D01*
X149698464Y-104335522D01*
X149708605Y-104330644D01*
X149714187Y-104322877D01*
X149715963Y-104314494D01*
X149712757Y-104301915D01*
X149708802Y-104296533D01*
X149703415Y-104292603D01*
X149682499Y-104295798D01*
X149659268Y-104296908D01*
X149626552Y-104294928D01*
X149598165Y-104289307D01*
X149573477Y-104280391D01*
X149550636Y-104267669D01*
X149532153Y-104252559D01*
X149517485Y-104234993D01*
X149506561Y-104214943D01*
X149499981Y-104193142D01*
X149497732Y-104169108D01*
X149498789Y-104157964D01*
X149606145Y-104157964D01*
X149608922Y-104183963D01*
X149616244Y-104202026D01*
X149627414Y-104214311D01*
X149642913Y-104221937D01*
X149664275Y-104224734D01*
X149681038Y-104222762D01*
X149694946Y-104217139D01*
X149706651Y-104207882D01*
X149715281Y-104195672D01*
X149720791Y-104179863D01*
X149722801Y-104159399D01*
X149720873Y-104140130D01*
X149715518Y-104124806D01*
X149707017Y-104112566D01*
X149695486Y-104103229D01*
X149681483Y-104097518D01*
X149664275Y-104095499D01*
X149642604Y-104098203D01*
X149627048Y-104105511D01*
X149615993Y-104117125D01*
X149608838Y-104133967D01*
X149606145Y-104157964D01*
X149498789Y-104157964D01*
X149500007Y-104145118D01*
X149506388Y-104125491D01*
X149516569Y-104109330D01*
X149530284Y-104095564D01*
X149548271Y-104082801D01*
X149571310Y-104071106D01*
X149536508Y-104070146D01*
X149508478Y-104067534D01*
X149482555Y-104062681D01*
X149461461Y-104056024D01*
X149488023Y-103972737D01*
X149536139Y-103997711D01*
G37*
G36*
X148684036Y-104021219D02*
G01*
X148658295Y-104024427D01*
X148638767Y-104033290D01*
X148623922Y-104047597D01*
X148613940Y-104066351D01*
X148607022Y-104093788D01*
X148604352Y-104132838D01*
X148604352Y-104415000D01*
X148701622Y-104415000D01*
X148701622Y-104145783D01*
X148702776Y-104127184D01*
X148705408Y-104117420D01*
X148710843Y-104111355D01*
X148720642Y-104109146D01*
X148729534Y-104110390D01*
X148739144Y-104114367D01*
X148748403Y-104121175D01*
X148760149Y-104133937D01*
X148760149Y-104415000D01*
X148839833Y-104415000D01*
X148839833Y-104145783D01*
X148840987Y-104127184D01*
X148843619Y-104117420D01*
X148849054Y-104111355D01*
X148858853Y-104109146D01*
X148867745Y-104110390D01*
X148877355Y-104114367D01*
X148886609Y-104121176D01*
X148898329Y-104133937D01*
X148898329Y-104415000D01*
X148997064Y-104415000D01*
X148997064Y-104033767D01*
X148913777Y-104033767D01*
X148906236Y-104070739D01*
X148887460Y-104048557D01*
X148869997Y-104033797D01*
X148850311Y-104024461D01*
X148826552Y-104021219D01*
X148806257Y-104024056D01*
X148789763Y-104032179D01*
X148777055Y-104045649D01*
X148768025Y-104066434D01*
X148749709Y-104048062D01*
X148729985Y-104033797D01*
X148708179Y-104024389D01*
X148684036Y-104021219D01*
G37*
G36*
X148405907Y-104024484D02*
G01*
X148439359Y-104033764D01*
X148468156Y-104048666D01*
X148493557Y-104069013D01*
X148514465Y-104093389D01*
X148531171Y-104122244D01*
X148542985Y-104153641D01*
X148550214Y-104187648D01*
X148552695Y-104224734D01*
X148550084Y-104263711D01*
X148542567Y-104298446D01*
X148530438Y-104329576D01*
X148513141Y-104357828D01*
X148491152Y-104381563D01*
X148464035Y-104401200D01*
X148433561Y-104415201D01*
X148397458Y-104424062D01*
X148354553Y-104427212D01*
X148322260Y-104425475D01*
X148293390Y-104420487D01*
X148267511Y-104412496D01*
X148231500Y-104395366D01*
X148202359Y-104374791D01*
X148247941Y-104313059D01*
X148271110Y-104326020D01*
X148294988Y-104336017D01*
X148319794Y-104342468D01*
X148345577Y-104344627D01*
X148369010Y-104342259D01*
X148389123Y-104335467D01*
X148406607Y-104324355D01*
X148420228Y-104309100D01*
X148430563Y-104287430D01*
X148437107Y-104257402D01*
X148190147Y-104257402D01*
X148188529Y-104237679D01*
X148187979Y-104216857D01*
X148189793Y-104189197D01*
X148298560Y-104189197D01*
X148438542Y-104189197D01*
X148433702Y-104157569D01*
X148425933Y-104134955D01*
X148415949Y-104119221D01*
X148402224Y-104107072D01*
X148386087Y-104099820D01*
X148366765Y-104097301D01*
X148343956Y-104100357D01*
X148327112Y-104108766D01*
X148314711Y-104122427D01*
X148306287Y-104139885D01*
X148300736Y-104161794D01*
X148298560Y-104189197D01*
X148189793Y-104189197D01*
X148190632Y-104176403D01*
X148198145Y-104141639D01*
X148210053Y-104111680D01*
X148226997Y-104084441D01*
X148247609Y-104062241D01*
X148272151Y-104044544D01*
X148299712Y-104031844D01*
X148330998Y-104023968D01*
X148366765Y-104021219D01*
X148405907Y-104024484D01*
G37*
G36*
X147393671Y-103975271D02*
G01*
X147344151Y-104053520D01*
X147577128Y-104189563D01*
X147344151Y-104323103D01*
X147395472Y-104403886D01*
X147675130Y-104230138D01*
X147675130Y-104149721D01*
X147393671Y-103975271D01*
G37*
G36*
X147099389Y-103904898D02*
G01*
X147063791Y-103907012D01*
X147033487Y-103912961D01*
X147007676Y-103922301D01*
X146983747Y-103935628D01*
X146964701Y-103951056D01*
X146949882Y-103968615D01*
X146938763Y-103988644D01*
X146932169Y-104009744D01*
X146929945Y-104032332D01*
X146933242Y-104062814D01*
X146942581Y-104087981D01*
X146957759Y-104108994D01*
X146977736Y-104126306D01*
X147002080Y-104140509D01*
X147031520Y-104151523D01*
X146998357Y-104158742D01*
X146970542Y-104170473D01*
X146947195Y-104186510D01*
X146933407Y-104201651D01*
X146923161Y-104220791D01*
X146916558Y-104244831D01*
X146914161Y-104274987D01*
X146916759Y-104302291D01*
X146924434Y-104327619D01*
X146937303Y-104351466D01*
X146954536Y-104372496D01*
X146976391Y-104390840D01*
X147003524Y-104406573D01*
X147032935Y-104417701D01*
X147067005Y-104424730D01*
X147106564Y-104427212D01*
X147143235Y-104424928D01*
X147176336Y-104418324D01*
X147206367Y-104407642D01*
X147234496Y-104392738D01*
X147259529Y-104374419D01*
X147281747Y-104352534D01*
X147217847Y-104292939D01*
X147194684Y-104314658D01*
X147169914Y-104329026D01*
X147142858Y-104337481D01*
X147114105Y-104340322D01*
X147090108Y-104338058D01*
X147070291Y-104331685D01*
X147053807Y-104321485D01*
X147041064Y-104307432D01*
X147033244Y-104289692D01*
X147030451Y-104267110D01*
X147033254Y-104241764D01*
X147040789Y-104223391D01*
X147052525Y-104210202D01*
X147068174Y-104200989D01*
X147088505Y-104195000D01*
X147114807Y-104192800D01*
X147160053Y-104192800D01*
X147147108Y-104114550D01*
X147114807Y-104114550D01*
X147093338Y-104112604D01*
X147075580Y-104107131D01*
X147060799Y-104098400D01*
X147049402Y-104086199D01*
X147042343Y-104070311D01*
X147039794Y-104049551D01*
X147042128Y-104031852D01*
X147048796Y-104017397D01*
X147059913Y-104005404D01*
X147074106Y-103996665D01*
X147091202Y-103991198D01*
X147111937Y-103989254D01*
X147140694Y-103992206D01*
X147165976Y-104000764D01*
X147189193Y-104014230D01*
X147211374Y-104032332D01*
X147269535Y-103972035D01*
X147245694Y-103951647D01*
X147220268Y-103935025D01*
X147193087Y-103921965D01*
X147164378Y-103912619D01*
X147133268Y-103906873D01*
X147099389Y-103904898D01*
G37*
D11*
X158493549Y-88366391D02*
X158493549Y-88999698D01*
X158493549Y-88999698D02*
X158456296Y-89074204D01*
X158456296Y-89074204D02*
X158419042Y-89111458D01*
X158419042Y-89111458D02*
X158344536Y-89148711D01*
X158344536Y-89148711D02*
X158195522Y-89148711D01*
X158195522Y-89148711D02*
X158121016Y-89111458D01*
X158121016Y-89111458D02*
X158083762Y-89074204D01*
X158083762Y-89074204D02*
X158046509Y-88999698D01*
X158046509Y-88999698D02*
X158046509Y-88366391D01*
X157338696Y-88627164D02*
X157338696Y-89148711D01*
X157524963Y-88329138D02*
X157711229Y-88887938D01*
X157711229Y-88887938D02*
X157226936Y-88887938D01*
D12*
%TO.C,U4*%
X145551000Y-88453000D02*
X145551000Y-89463000D01*
D13*
X145551000Y-89463000D02*
X143070040Y-89463000D01*
D12*
X154046272Y-87953000D02*
X146051000Y-87953000D01*
X154550000Y-89463000D02*
X154546272Y-88452728D01*
D13*
X154550000Y-89463000D02*
X157040000Y-89463000D01*
X157040000Y-110418000D02*
X147600000Y-110400000D01*
X141312084Y-90595999D02*
G75*
G02*
X143070000Y-89463001I1757956J-797321D01*
G01*
X143070000Y-110418000D02*
G75*
G02*
X141294594Y-109203621I0J1905000D01*
G01*
D12*
X145551000Y-88453000D02*
G75*
G02*
X146051000Y-87953000I500100J-100D01*
G01*
X154046272Y-87953000D02*
G75*
G02*
X154546273Y-88452728I-18J-500019D01*
G01*
D13*
X157040000Y-89463000D02*
G75*
G02*
X158778957Y-90595999I-1J-1900999D01*
G01*
X158945000Y-109203621D02*
G75*
G02*
X157040000Y-110418000I-1905002J887003D01*
G01*
D14*
X158133000Y-90596000D02*
G75*
G02*
X157629000Y-90596000I-252000J0D01*
G01*
X157629000Y-90596000D02*
G75*
G02*
X158133000Y-90596000I252000J0D01*
G01*
X159407000Y-89879000D02*
G75*
G02*
X158903000Y-89879000I-252000J0D01*
G01*
X158903000Y-89879000D02*
G75*
G02*
X159407000Y-89879000I252000J0D01*
G01*
%TD*%
%LPC*%
D15*
%TO.C,SW1*%
X151500000Y-89500000D03*
X148500000Y-89500000D03*
%TD*%
D16*
%TO.C,U4*%
X158110000Y-92380000D03*
X158110000Y-94920000D03*
X158110000Y-97460000D03*
X158110000Y-100000000D03*
X158110000Y-102540000D03*
X158110000Y-105080000D03*
X158110000Y-107620000D03*
X141945000Y-107620000D03*
X141945000Y-105080000D03*
X141945000Y-102540000D03*
X141945000Y-100000000D03*
X141945000Y-97460000D03*
X141945000Y-94920000D03*
X141945000Y-92380000D03*
D17*
X154500000Y-99686500D03*
X154500000Y-97781500D03*
D18*
X146245000Y-109236900D03*
X144340000Y-109236900D03*
D19*
X151325000Y-91431500D03*
X148785000Y-91431500D03*
X151325000Y-93971500D03*
X148785000Y-93971500D03*
%TD*%
%LPD*%
M02*
