%TF.GenerationSoftware,KiCad,Pcbnew,9.0.4*%
%TF.CreationDate,2025-08-25T23:50:36+01:00*%
%TF.ProjectId,smol-slime-xiao,736d6f6c-2d73-46c6-996d-652d7869616f,1.0*%
%TF.SameCoordinates,Original*%
%TF.FileFunction,Drillmap*%
%TF.FilePolarity,Positive*%
%FSLAX45Y45*%
G04 Gerber Fmt 4.5, Leading zero omitted, Abs format (unit mm)*
G04 Created by KiCad (PCBNEW 9.0.4) date 2025-08-25 23:50:36*
%MOMM*%
%LPD*%
G01*
G04 APERTURE LIST*
%ADD10C,0.050000*%
%ADD11C,0.200000*%
%ADD12C,0.100000*%
G04 APERTURE END LIST*
D10*
X14000000Y-8875000D02*
X14000000Y-10975000D01*
X14000000Y-8875000D02*
G75*
G02*
X14125000Y-8750000I125000J0D01*
G01*
X14125000Y-11100000D02*
X15875000Y-11100000D01*
X15875000Y-8750000D02*
G75*
G02*
X16000000Y-8875000I0J-125000D01*
G01*
X16000000Y-10975000D02*
G75*
G02*
X15875000Y-11100000I-125000J0D01*
G01*
X16000000Y-10975000D02*
X16000000Y-8875000D01*
X14125000Y-11100000D02*
G75*
G02*
X14000000Y-10975000I0J125000D01*
G01*
X15875000Y-8750000D02*
X14125000Y-8750000D01*
D11*
D12*
X14090000Y-8840000D02*
X14110000Y-8860000D01*
X14110000Y-8840000D02*
X14090000Y-8860000D01*
X14315000Y-8840000D02*
X14335000Y-8860000D01*
X14335000Y-8840000D02*
X14315000Y-8860000D01*
X14340000Y-9040000D02*
X14360000Y-9060000D01*
X14360000Y-9040000D02*
X14340000Y-9060000D01*
X14367000Y-9740000D02*
X14387000Y-9760000D01*
X14387000Y-9740000D02*
X14367000Y-9760000D01*
X14390000Y-9990000D02*
X14410000Y-10010000D01*
X14410000Y-9990000D02*
X14390000Y-10010000D01*
X14415000Y-10565000D02*
X14435000Y-10585000D01*
X14435000Y-10565000D02*
X14415000Y-10585000D01*
X14490000Y-8840000D02*
X14510000Y-8860000D01*
X14510000Y-8840000D02*
X14490000Y-8860000D01*
X14490000Y-9040000D02*
X14510000Y-9060000D01*
X14510000Y-9040000D02*
X14490000Y-9060000D01*
X14490000Y-9190000D02*
X14510000Y-9210000D01*
X14510000Y-9190000D02*
X14490000Y-9210000D01*
X14490000Y-9990000D02*
X14510000Y-10010000D01*
X14510000Y-9990000D02*
X14490000Y-10010000D01*
X14515000Y-9337500D02*
X14535000Y-9357500D01*
X14535000Y-9337500D02*
X14515000Y-9357500D01*
X14515000Y-10498000D02*
X14535000Y-10518000D01*
X14535000Y-10498000D02*
X14515000Y-10518000D01*
X14640000Y-9190000D02*
X14660000Y-9210000D01*
X14660000Y-9190000D02*
X14640000Y-9210000D01*
X14640000Y-9340000D02*
X14660000Y-9360000D01*
X14660000Y-9340000D02*
X14640000Y-9360000D01*
X14640000Y-9990000D02*
X14660000Y-10010000D01*
X14660000Y-9990000D02*
X14640000Y-10010000D01*
X14740000Y-10365000D02*
X14760000Y-10385000D01*
X14760000Y-10365000D02*
X14740000Y-10385000D01*
X14765000Y-8840000D02*
X14785000Y-8860000D01*
X14785000Y-8840000D02*
X14765000Y-8860000D01*
X14815000Y-9715000D02*
X14835000Y-9735000D01*
X14835000Y-9715000D02*
X14815000Y-9735000D01*
X14890000Y-9865000D02*
X14910000Y-9885000D01*
X14910000Y-9865000D02*
X14890000Y-9885000D01*
X14890000Y-10140000D02*
X14910000Y-10160000D01*
X14910000Y-10140000D02*
X14890000Y-10160000D01*
X14940000Y-9715000D02*
X14960000Y-9735000D01*
X14960000Y-9715000D02*
X14940000Y-9735000D01*
X14965000Y-9290000D02*
X14985000Y-9310000D01*
X14985000Y-9290000D02*
X14965000Y-9310000D01*
X14990000Y-8840000D02*
X15010000Y-8860000D01*
X15010000Y-8840000D02*
X14990000Y-8860000D01*
X15090000Y-10540000D02*
X15110000Y-10560000D01*
X15110000Y-10540000D02*
X15090000Y-10560000D01*
X15165000Y-9740000D02*
X15185000Y-9760000D01*
X15185000Y-9740000D02*
X15165000Y-9760000D01*
X15215000Y-8840000D02*
X15235000Y-8860000D01*
X15235000Y-8840000D02*
X15215000Y-8860000D01*
X15255000Y-9550000D02*
X15275000Y-9570000D01*
X15275000Y-9550000D02*
X15255000Y-9570000D01*
X15290000Y-10365000D02*
X15310000Y-10385000D01*
X15310000Y-10365000D02*
X15290000Y-10385000D01*
X15290000Y-10697500D02*
X15310000Y-10717500D01*
X15310000Y-10697500D02*
X15290000Y-10717500D01*
X15365000Y-9215000D02*
X15385000Y-9235000D01*
X15385000Y-9215000D02*
X15365000Y-9235000D01*
X15465000Y-10090000D02*
X15485000Y-10110000D01*
X15485000Y-10090000D02*
X15465000Y-10110000D01*
X15465000Y-10697500D02*
X15485000Y-10717500D01*
X15485000Y-10697500D02*
X15465000Y-10717500D01*
X15490000Y-8840000D02*
X15510000Y-8860000D01*
X15510000Y-8840000D02*
X15490000Y-8860000D01*
X15590000Y-9215000D02*
X15610000Y-9235000D01*
X15610000Y-9215000D02*
X15590000Y-9235000D01*
X15590000Y-9465000D02*
X15610000Y-9485000D01*
X15610000Y-9465000D02*
X15590000Y-9485000D01*
X15590000Y-10190000D02*
X15610000Y-10210000D01*
X15610000Y-10190000D02*
X15590000Y-10210000D01*
X15590000Y-10540000D02*
X15610000Y-10560000D01*
X15610000Y-10540000D02*
X15590000Y-10560000D01*
X15665000Y-8840000D02*
X15685000Y-8860000D01*
X15685000Y-8840000D02*
X15665000Y-8860000D01*
X15890000Y-8840000D02*
X15910000Y-8860000D01*
X15910000Y-8840000D02*
X15890000Y-8860000D01*
X14209500Y-9238000D02*
G75*
G02*
X14179500Y-9238000I-15000J0D01*
G01*
X14179500Y-9238000D02*
G75*
G02*
X14209500Y-9238000I15000J0D01*
G01*
X14209500Y-9492000D02*
G75*
G02*
X14179500Y-9492000I-15000J0D01*
G01*
X14179500Y-9492000D02*
G75*
G02*
X14209500Y-9492000I15000J0D01*
G01*
X14209500Y-9746000D02*
G75*
G02*
X14179500Y-9746000I-15000J0D01*
G01*
X14179500Y-9746000D02*
G75*
G02*
X14209500Y-9746000I15000J0D01*
G01*
X14390000Y-10375000D02*
G75*
G02*
X14360000Y-10375000I-15000J0D01*
G01*
X14360000Y-10375000D02*
G75*
G02*
X14390000Y-10375000I15000J0D01*
G01*
X14540000Y-9502500D02*
G75*
G02*
X14510000Y-9502500I-15000J0D01*
G01*
X14510000Y-9502500D02*
G75*
G02*
X14540000Y-9502500I15000J0D01*
G01*
X14635000Y-10550000D02*
G75*
G02*
X14605000Y-10550000I-15000J0D01*
G01*
X14605000Y-10550000D02*
G75*
G02*
X14635000Y-10550000I15000J0D01*
G01*
X14665000Y-10150000D02*
G75*
G02*
X14635000Y-10150000I-15000J0D01*
G01*
X14635000Y-10150000D02*
G75*
G02*
X14665000Y-10150000I15000J0D01*
G01*
X14790000Y-9502500D02*
G75*
G02*
X14760000Y-9502500I-15000J0D01*
G01*
X14760000Y-9502500D02*
G75*
G02*
X14790000Y-9502500I15000J0D01*
G01*
X14790000Y-10550000D02*
G75*
G02*
X14760000Y-10550000I-15000J0D01*
G01*
X14760000Y-10550000D02*
G75*
G02*
X14790000Y-10550000I15000J0D01*
G01*
X14940000Y-10550000D02*
G75*
G02*
X14910000Y-10550000I-15000J0D01*
G01*
X14910000Y-10550000D02*
G75*
G02*
X14940000Y-10550000I15000J0D01*
G01*
X15220000Y-10105000D02*
G75*
G02*
X15190000Y-10105000I-15000J0D01*
G01*
X15190000Y-10105000D02*
G75*
G02*
X15220000Y-10105000I15000J0D01*
G01*
X15280000Y-9390000D02*
G75*
G02*
X15250000Y-9390000I-15000J0D01*
G01*
X15250000Y-9390000D02*
G75*
G02*
X15280000Y-9390000I15000J0D01*
G01*
X15315000Y-10542500D02*
G75*
G02*
X15285000Y-10542500I-15000J0D01*
G01*
X15285000Y-10542500D02*
G75*
G02*
X15315000Y-10542500I15000J0D01*
G01*
X15490000Y-10542500D02*
G75*
G02*
X15460000Y-10542500I-15000J0D01*
G01*
X15460000Y-10542500D02*
G75*
G02*
X15490000Y-10542500I15000J0D01*
G01*
X15500000Y-9560000D02*
G75*
G02*
X15470000Y-9560000I-15000J0D01*
G01*
X15470000Y-9560000D02*
G75*
G02*
X15500000Y-9560000I15000J0D01*
G01*
X15515000Y-9778150D02*
G75*
G02*
X15485000Y-9778150I-15000J0D01*
G01*
X15485000Y-9778150D02*
G75*
G02*
X15515000Y-9778150I15000J0D01*
G01*
X15515000Y-9968650D02*
G75*
G02*
X15485000Y-9968650I-15000J0D01*
G01*
X15485000Y-9968650D02*
G75*
G02*
X15515000Y-9968650I15000J0D01*
G01*
X15690000Y-8967500D02*
G75*
G02*
X15660000Y-8967500I-15000J0D01*
G01*
X15660000Y-8967500D02*
G75*
G02*
X15690000Y-8967500I15000J0D01*
G01*
X15826000Y-9492000D02*
G75*
G02*
X15796000Y-9492000I-15000J0D01*
G01*
X15796000Y-9492000D02*
G75*
G02*
X15826000Y-9492000I15000J0D01*
G01*
D11*
X14258277Y-11413984D02*
X14258277Y-11213984D01*
X14258277Y-11213984D02*
X14305896Y-11213984D01*
X14305896Y-11213984D02*
X14334467Y-11223508D01*
X14334467Y-11223508D02*
X14353515Y-11242555D01*
X14353515Y-11242555D02*
X14363039Y-11261603D01*
X14363039Y-11261603D02*
X14372562Y-11299698D01*
X14372562Y-11299698D02*
X14372562Y-11328269D01*
X14372562Y-11328269D02*
X14363039Y-11366365D01*
X14363039Y-11366365D02*
X14353515Y-11385412D01*
X14353515Y-11385412D02*
X14334467Y-11404460D01*
X14334467Y-11404460D02*
X14305896Y-11413984D01*
X14305896Y-11413984D02*
X14258277Y-11413984D01*
X14458277Y-11413984D02*
X14458277Y-11280650D01*
X14458277Y-11318746D02*
X14467801Y-11299698D01*
X14467801Y-11299698D02*
X14477324Y-11290174D01*
X14477324Y-11290174D02*
X14496372Y-11280650D01*
X14496372Y-11280650D02*
X14515420Y-11280650D01*
X14582086Y-11413984D02*
X14582086Y-11280650D01*
X14582086Y-11213984D02*
X14572562Y-11223508D01*
X14572562Y-11223508D02*
X14582086Y-11233031D01*
X14582086Y-11233031D02*
X14591610Y-11223508D01*
X14591610Y-11223508D02*
X14582086Y-11213984D01*
X14582086Y-11213984D02*
X14582086Y-11233031D01*
X14705896Y-11413984D02*
X14686848Y-11404460D01*
X14686848Y-11404460D02*
X14677324Y-11385412D01*
X14677324Y-11385412D02*
X14677324Y-11213984D01*
X14810658Y-11413984D02*
X14791610Y-11404460D01*
X14791610Y-11404460D02*
X14782086Y-11385412D01*
X14782086Y-11385412D02*
X14782086Y-11213984D01*
X15039229Y-11413984D02*
X15039229Y-11213984D01*
X15039229Y-11213984D02*
X15105896Y-11356841D01*
X15105896Y-11356841D02*
X15172562Y-11213984D01*
X15172562Y-11213984D02*
X15172562Y-11413984D01*
X15353515Y-11413984D02*
X15353515Y-11309222D01*
X15353515Y-11309222D02*
X15343991Y-11290174D01*
X15343991Y-11290174D02*
X15324943Y-11280650D01*
X15324943Y-11280650D02*
X15286848Y-11280650D01*
X15286848Y-11280650D02*
X15267801Y-11290174D01*
X15353515Y-11404460D02*
X15334467Y-11413984D01*
X15334467Y-11413984D02*
X15286848Y-11413984D01*
X15286848Y-11413984D02*
X15267801Y-11404460D01*
X15267801Y-11404460D02*
X15258277Y-11385412D01*
X15258277Y-11385412D02*
X15258277Y-11366365D01*
X15258277Y-11366365D02*
X15267801Y-11347317D01*
X15267801Y-11347317D02*
X15286848Y-11337793D01*
X15286848Y-11337793D02*
X15334467Y-11337793D01*
X15334467Y-11337793D02*
X15353515Y-11328269D01*
X15448753Y-11280650D02*
X15448753Y-11480650D01*
X15448753Y-11290174D02*
X15467801Y-11280650D01*
X15467801Y-11280650D02*
X15505896Y-11280650D01*
X15505896Y-11280650D02*
X15524943Y-11290174D01*
X15524943Y-11290174D02*
X15534467Y-11299698D01*
X15534467Y-11299698D02*
X15543991Y-11318746D01*
X15543991Y-11318746D02*
X15543991Y-11375888D01*
X15543991Y-11375888D02*
X15534467Y-11394936D01*
X15534467Y-11394936D02*
X15524943Y-11404460D01*
X15524943Y-11404460D02*
X15505896Y-11413984D01*
X15505896Y-11413984D02*
X15467801Y-11413984D01*
X15467801Y-11413984D02*
X15448753Y-11404460D01*
X15629705Y-11394936D02*
X15639229Y-11404460D01*
X15639229Y-11404460D02*
X15629705Y-11413984D01*
X15629705Y-11413984D02*
X15620182Y-11404460D01*
X15620182Y-11404460D02*
X15629705Y-11394936D01*
X15629705Y-11394936D02*
X15629705Y-11413984D01*
X15629705Y-11290174D02*
X15639229Y-11299698D01*
X15639229Y-11299698D02*
X15629705Y-11309222D01*
X15629705Y-11309222D02*
X15620182Y-11299698D01*
X15620182Y-11299698D02*
X15629705Y-11290174D01*
X15629705Y-11290174D02*
X15629705Y-11309222D01*
D12*
X13977500Y-11732500D02*
X13997500Y-11752500D01*
X13997500Y-11732500D02*
X13977500Y-11752500D01*
D11*
X14296372Y-11633984D02*
X14315420Y-11633984D01*
X14315420Y-11633984D02*
X14334467Y-11643508D01*
X14334467Y-11643508D02*
X14343991Y-11653031D01*
X14343991Y-11653031D02*
X14353515Y-11672079D01*
X14353515Y-11672079D02*
X14363039Y-11710174D01*
X14363039Y-11710174D02*
X14363039Y-11757793D01*
X14363039Y-11757793D02*
X14353515Y-11795888D01*
X14353515Y-11795888D02*
X14343991Y-11814936D01*
X14343991Y-11814936D02*
X14334467Y-11824460D01*
X14334467Y-11824460D02*
X14315420Y-11833984D01*
X14315420Y-11833984D02*
X14296372Y-11833984D01*
X14296372Y-11833984D02*
X14277324Y-11824460D01*
X14277324Y-11824460D02*
X14267801Y-11814936D01*
X14267801Y-11814936D02*
X14258277Y-11795888D01*
X14258277Y-11795888D02*
X14248753Y-11757793D01*
X14248753Y-11757793D02*
X14248753Y-11710174D01*
X14248753Y-11710174D02*
X14258277Y-11672079D01*
X14258277Y-11672079D02*
X14267801Y-11653031D01*
X14267801Y-11653031D02*
X14277324Y-11643508D01*
X14277324Y-11643508D02*
X14296372Y-11633984D01*
X14448753Y-11814936D02*
X14458277Y-11824460D01*
X14458277Y-11824460D02*
X14448753Y-11833984D01*
X14448753Y-11833984D02*
X14439229Y-11824460D01*
X14439229Y-11824460D02*
X14448753Y-11814936D01*
X14448753Y-11814936D02*
X14448753Y-11833984D01*
X14534467Y-11653031D02*
X14543991Y-11643508D01*
X14543991Y-11643508D02*
X14563039Y-11633984D01*
X14563039Y-11633984D02*
X14610658Y-11633984D01*
X14610658Y-11633984D02*
X14629705Y-11643508D01*
X14629705Y-11643508D02*
X14639229Y-11653031D01*
X14639229Y-11653031D02*
X14648753Y-11672079D01*
X14648753Y-11672079D02*
X14648753Y-11691127D01*
X14648753Y-11691127D02*
X14639229Y-11719698D01*
X14639229Y-11719698D02*
X14524943Y-11833984D01*
X14524943Y-11833984D02*
X14648753Y-11833984D01*
X14772562Y-11633984D02*
X14791610Y-11633984D01*
X14791610Y-11633984D02*
X14810658Y-11643508D01*
X14810658Y-11643508D02*
X14820182Y-11653031D01*
X14820182Y-11653031D02*
X14829705Y-11672079D01*
X14829705Y-11672079D02*
X14839229Y-11710174D01*
X14839229Y-11710174D02*
X14839229Y-11757793D01*
X14839229Y-11757793D02*
X14829705Y-11795888D01*
X14829705Y-11795888D02*
X14820182Y-11814936D01*
X14820182Y-11814936D02*
X14810658Y-11824460D01*
X14810658Y-11824460D02*
X14791610Y-11833984D01*
X14791610Y-11833984D02*
X14772562Y-11833984D01*
X14772562Y-11833984D02*
X14753515Y-11824460D01*
X14753515Y-11824460D02*
X14743991Y-11814936D01*
X14743991Y-11814936D02*
X14734467Y-11795888D01*
X14734467Y-11795888D02*
X14724943Y-11757793D01*
X14724943Y-11757793D02*
X14724943Y-11710174D01*
X14724943Y-11710174D02*
X14734467Y-11672079D01*
X14734467Y-11672079D02*
X14743991Y-11653031D01*
X14743991Y-11653031D02*
X14753515Y-11643508D01*
X14753515Y-11643508D02*
X14772562Y-11633984D01*
X14963039Y-11633984D02*
X14982086Y-11633984D01*
X14982086Y-11633984D02*
X15001134Y-11643508D01*
X15001134Y-11643508D02*
X15010658Y-11653031D01*
X15010658Y-11653031D02*
X15020182Y-11672079D01*
X15020182Y-11672079D02*
X15029705Y-11710174D01*
X15029705Y-11710174D02*
X15029705Y-11757793D01*
X15029705Y-11757793D02*
X15020182Y-11795888D01*
X15020182Y-11795888D02*
X15010658Y-11814936D01*
X15010658Y-11814936D02*
X15001134Y-11824460D01*
X15001134Y-11824460D02*
X14982086Y-11833984D01*
X14982086Y-11833984D02*
X14963039Y-11833984D01*
X14963039Y-11833984D02*
X14943991Y-11824460D01*
X14943991Y-11824460D02*
X14934467Y-11814936D01*
X14934467Y-11814936D02*
X14924943Y-11795888D01*
X14924943Y-11795888D02*
X14915420Y-11757793D01*
X14915420Y-11757793D02*
X14915420Y-11710174D01*
X14915420Y-11710174D02*
X14924943Y-11672079D01*
X14924943Y-11672079D02*
X14934467Y-11653031D01*
X14934467Y-11653031D02*
X14943991Y-11643508D01*
X14943991Y-11643508D02*
X14963039Y-11633984D01*
X15115420Y-11833984D02*
X15115420Y-11700650D01*
X15115420Y-11719698D02*
X15124943Y-11710174D01*
X15124943Y-11710174D02*
X15143991Y-11700650D01*
X15143991Y-11700650D02*
X15172563Y-11700650D01*
X15172563Y-11700650D02*
X15191610Y-11710174D01*
X15191610Y-11710174D02*
X15201134Y-11729222D01*
X15201134Y-11729222D02*
X15201134Y-11833984D01*
X15201134Y-11729222D02*
X15210658Y-11710174D01*
X15210658Y-11710174D02*
X15229705Y-11700650D01*
X15229705Y-11700650D02*
X15258277Y-11700650D01*
X15258277Y-11700650D02*
X15277324Y-11710174D01*
X15277324Y-11710174D02*
X15286848Y-11729222D01*
X15286848Y-11729222D02*
X15286848Y-11833984D01*
X15382086Y-11833984D02*
X15382086Y-11700650D01*
X15382086Y-11719698D02*
X15391610Y-11710174D01*
X15391610Y-11710174D02*
X15410658Y-11700650D01*
X15410658Y-11700650D02*
X15439229Y-11700650D01*
X15439229Y-11700650D02*
X15458277Y-11710174D01*
X15458277Y-11710174D02*
X15467801Y-11729222D01*
X15467801Y-11729222D02*
X15467801Y-11833984D01*
X15467801Y-11729222D02*
X15477324Y-11710174D01*
X15477324Y-11710174D02*
X15496372Y-11700650D01*
X15496372Y-11700650D02*
X15524943Y-11700650D01*
X15524943Y-11700650D02*
X15543991Y-11710174D01*
X15543991Y-11710174D02*
X15553515Y-11729222D01*
X15553515Y-11729222D02*
X15553515Y-11833984D01*
X15943991Y-11624460D02*
X15772563Y-11881603D01*
X16201134Y-11633984D02*
X16220182Y-11633984D01*
X16220182Y-11633984D02*
X16239229Y-11643508D01*
X16239229Y-11643508D02*
X16248753Y-11653031D01*
X16248753Y-11653031D02*
X16258277Y-11672079D01*
X16258277Y-11672079D02*
X16267801Y-11710174D01*
X16267801Y-11710174D02*
X16267801Y-11757793D01*
X16267801Y-11757793D02*
X16258277Y-11795888D01*
X16258277Y-11795888D02*
X16248753Y-11814936D01*
X16248753Y-11814936D02*
X16239229Y-11824460D01*
X16239229Y-11824460D02*
X16220182Y-11833984D01*
X16220182Y-11833984D02*
X16201134Y-11833984D01*
X16201134Y-11833984D02*
X16182086Y-11824460D01*
X16182086Y-11824460D02*
X16172563Y-11814936D01*
X16172563Y-11814936D02*
X16163039Y-11795888D01*
X16163039Y-11795888D02*
X16153515Y-11757793D01*
X16153515Y-11757793D02*
X16153515Y-11710174D01*
X16153515Y-11710174D02*
X16163039Y-11672079D01*
X16163039Y-11672079D02*
X16172563Y-11653031D01*
X16172563Y-11653031D02*
X16182086Y-11643508D01*
X16182086Y-11643508D02*
X16201134Y-11633984D01*
X16353515Y-11814936D02*
X16363039Y-11824460D01*
X16363039Y-11824460D02*
X16353515Y-11833984D01*
X16353515Y-11833984D02*
X16343991Y-11824460D01*
X16343991Y-11824460D02*
X16353515Y-11814936D01*
X16353515Y-11814936D02*
X16353515Y-11833984D01*
X16486848Y-11633984D02*
X16505896Y-11633984D01*
X16505896Y-11633984D02*
X16524944Y-11643508D01*
X16524944Y-11643508D02*
X16534467Y-11653031D01*
X16534467Y-11653031D02*
X16543991Y-11672079D01*
X16543991Y-11672079D02*
X16553515Y-11710174D01*
X16553515Y-11710174D02*
X16553515Y-11757793D01*
X16553515Y-11757793D02*
X16543991Y-11795888D01*
X16543991Y-11795888D02*
X16534467Y-11814936D01*
X16534467Y-11814936D02*
X16524944Y-11824460D01*
X16524944Y-11824460D02*
X16505896Y-11833984D01*
X16505896Y-11833984D02*
X16486848Y-11833984D01*
X16486848Y-11833984D02*
X16467801Y-11824460D01*
X16467801Y-11824460D02*
X16458277Y-11814936D01*
X16458277Y-11814936D02*
X16448753Y-11795888D01*
X16448753Y-11795888D02*
X16439229Y-11757793D01*
X16439229Y-11757793D02*
X16439229Y-11710174D01*
X16439229Y-11710174D02*
X16448753Y-11672079D01*
X16448753Y-11672079D02*
X16458277Y-11653031D01*
X16458277Y-11653031D02*
X16467801Y-11643508D01*
X16467801Y-11643508D02*
X16486848Y-11633984D01*
X16677325Y-11633984D02*
X16696372Y-11633984D01*
X16696372Y-11633984D02*
X16715420Y-11643508D01*
X16715420Y-11643508D02*
X16724944Y-11653031D01*
X16724944Y-11653031D02*
X16734467Y-11672079D01*
X16734467Y-11672079D02*
X16743991Y-11710174D01*
X16743991Y-11710174D02*
X16743991Y-11757793D01*
X16743991Y-11757793D02*
X16734467Y-11795888D01*
X16734467Y-11795888D02*
X16724944Y-11814936D01*
X16724944Y-11814936D02*
X16715420Y-11824460D01*
X16715420Y-11824460D02*
X16696372Y-11833984D01*
X16696372Y-11833984D02*
X16677325Y-11833984D01*
X16677325Y-11833984D02*
X16658277Y-11824460D01*
X16658277Y-11824460D02*
X16648753Y-11814936D01*
X16648753Y-11814936D02*
X16639229Y-11795888D01*
X16639229Y-11795888D02*
X16629706Y-11757793D01*
X16629706Y-11757793D02*
X16629706Y-11710174D01*
X16629706Y-11710174D02*
X16639229Y-11672079D01*
X16639229Y-11672079D02*
X16648753Y-11653031D01*
X16648753Y-11653031D02*
X16658277Y-11643508D01*
X16658277Y-11643508D02*
X16677325Y-11633984D01*
X16810658Y-11633984D02*
X16943991Y-11633984D01*
X16943991Y-11633984D02*
X16858277Y-11833984D01*
X17029706Y-11833984D02*
X17067801Y-11833984D01*
X17067801Y-11833984D02*
X17086849Y-11824460D01*
X17086849Y-11824460D02*
X17096372Y-11814936D01*
X17096372Y-11814936D02*
X17115420Y-11786365D01*
X17115420Y-11786365D02*
X17124944Y-11748269D01*
X17124944Y-11748269D02*
X17124944Y-11672079D01*
X17124944Y-11672079D02*
X17115420Y-11653031D01*
X17115420Y-11653031D02*
X17105896Y-11643508D01*
X17105896Y-11643508D02*
X17086849Y-11633984D01*
X17086849Y-11633984D02*
X17048753Y-11633984D01*
X17048753Y-11633984D02*
X17029706Y-11643508D01*
X17029706Y-11643508D02*
X17020182Y-11653031D01*
X17020182Y-11653031D02*
X17010658Y-11672079D01*
X17010658Y-11672079D02*
X17010658Y-11719698D01*
X17010658Y-11719698D02*
X17020182Y-11738746D01*
X17020182Y-11738746D02*
X17029706Y-11748269D01*
X17029706Y-11748269D02*
X17048753Y-11757793D01*
X17048753Y-11757793D02*
X17086849Y-11757793D01*
X17086849Y-11757793D02*
X17105896Y-11748269D01*
X17105896Y-11748269D02*
X17115420Y-11738746D01*
X17115420Y-11738746D02*
X17124944Y-11719698D01*
X17201134Y-11633984D02*
X17201134Y-11672079D01*
X17277325Y-11633984D02*
X17277325Y-11672079D01*
X17572563Y-11910174D02*
X17563039Y-11900650D01*
X17563039Y-11900650D02*
X17543991Y-11872079D01*
X17543991Y-11872079D02*
X17534468Y-11853031D01*
X17534468Y-11853031D02*
X17524944Y-11824460D01*
X17524944Y-11824460D02*
X17515420Y-11776841D01*
X17515420Y-11776841D02*
X17515420Y-11738746D01*
X17515420Y-11738746D02*
X17524944Y-11691127D01*
X17524944Y-11691127D02*
X17534468Y-11662555D01*
X17534468Y-11662555D02*
X17543991Y-11643508D01*
X17543991Y-11643508D02*
X17563039Y-11614936D01*
X17563039Y-11614936D02*
X17572563Y-11605412D01*
X17629706Y-11633984D02*
X17753515Y-11633984D01*
X17753515Y-11633984D02*
X17686849Y-11710174D01*
X17686849Y-11710174D02*
X17715420Y-11710174D01*
X17715420Y-11710174D02*
X17734468Y-11719698D01*
X17734468Y-11719698D02*
X17743991Y-11729222D01*
X17743991Y-11729222D02*
X17753515Y-11748269D01*
X17753515Y-11748269D02*
X17753515Y-11795888D01*
X17753515Y-11795888D02*
X17743991Y-11814936D01*
X17743991Y-11814936D02*
X17734468Y-11824460D01*
X17734468Y-11824460D02*
X17715420Y-11833984D01*
X17715420Y-11833984D02*
X17658277Y-11833984D01*
X17658277Y-11833984D02*
X17639230Y-11824460D01*
X17639230Y-11824460D02*
X17629706Y-11814936D01*
X17848753Y-11833984D02*
X17886849Y-11833984D01*
X17886849Y-11833984D02*
X17905896Y-11824460D01*
X17905896Y-11824460D02*
X17915420Y-11814936D01*
X17915420Y-11814936D02*
X17934468Y-11786365D01*
X17934468Y-11786365D02*
X17943991Y-11748269D01*
X17943991Y-11748269D02*
X17943991Y-11672079D01*
X17943991Y-11672079D02*
X17934468Y-11653031D01*
X17934468Y-11653031D02*
X17924944Y-11643508D01*
X17924944Y-11643508D02*
X17905896Y-11633984D01*
X17905896Y-11633984D02*
X17867801Y-11633984D01*
X17867801Y-11633984D02*
X17848753Y-11643508D01*
X17848753Y-11643508D02*
X17839230Y-11653031D01*
X17839230Y-11653031D02*
X17829706Y-11672079D01*
X17829706Y-11672079D02*
X17829706Y-11719698D01*
X17829706Y-11719698D02*
X17839230Y-11738746D01*
X17839230Y-11738746D02*
X17848753Y-11748269D01*
X17848753Y-11748269D02*
X17867801Y-11757793D01*
X17867801Y-11757793D02*
X17905896Y-11757793D01*
X17905896Y-11757793D02*
X17924944Y-11748269D01*
X17924944Y-11748269D02*
X17934468Y-11738746D01*
X17934468Y-11738746D02*
X17943991Y-11719698D01*
X18182087Y-11833984D02*
X18182087Y-11633984D01*
X18267801Y-11833984D02*
X18267801Y-11729222D01*
X18267801Y-11729222D02*
X18258277Y-11710174D01*
X18258277Y-11710174D02*
X18239230Y-11700650D01*
X18239230Y-11700650D02*
X18210658Y-11700650D01*
X18210658Y-11700650D02*
X18191611Y-11710174D01*
X18191611Y-11710174D02*
X18182087Y-11719698D01*
X18391611Y-11833984D02*
X18372563Y-11824460D01*
X18372563Y-11824460D02*
X18363039Y-11814936D01*
X18363039Y-11814936D02*
X18353515Y-11795888D01*
X18353515Y-11795888D02*
X18353515Y-11738746D01*
X18353515Y-11738746D02*
X18363039Y-11719698D01*
X18363039Y-11719698D02*
X18372563Y-11710174D01*
X18372563Y-11710174D02*
X18391611Y-11700650D01*
X18391611Y-11700650D02*
X18420182Y-11700650D01*
X18420182Y-11700650D02*
X18439230Y-11710174D01*
X18439230Y-11710174D02*
X18448753Y-11719698D01*
X18448753Y-11719698D02*
X18458277Y-11738746D01*
X18458277Y-11738746D02*
X18458277Y-11795888D01*
X18458277Y-11795888D02*
X18448753Y-11814936D01*
X18448753Y-11814936D02*
X18439230Y-11824460D01*
X18439230Y-11824460D02*
X18420182Y-11833984D01*
X18420182Y-11833984D02*
X18391611Y-11833984D01*
X18572563Y-11833984D02*
X18553515Y-11824460D01*
X18553515Y-11824460D02*
X18543992Y-11805412D01*
X18543992Y-11805412D02*
X18543992Y-11633984D01*
X18724944Y-11824460D02*
X18705896Y-11833984D01*
X18705896Y-11833984D02*
X18667801Y-11833984D01*
X18667801Y-11833984D02*
X18648753Y-11824460D01*
X18648753Y-11824460D02*
X18639230Y-11805412D01*
X18639230Y-11805412D02*
X18639230Y-11729222D01*
X18639230Y-11729222D02*
X18648753Y-11710174D01*
X18648753Y-11710174D02*
X18667801Y-11700650D01*
X18667801Y-11700650D02*
X18705896Y-11700650D01*
X18705896Y-11700650D02*
X18724944Y-11710174D01*
X18724944Y-11710174D02*
X18734468Y-11729222D01*
X18734468Y-11729222D02*
X18734468Y-11748269D01*
X18734468Y-11748269D02*
X18639230Y-11767317D01*
X18810658Y-11824460D02*
X18829706Y-11833984D01*
X18829706Y-11833984D02*
X18867801Y-11833984D01*
X18867801Y-11833984D02*
X18886849Y-11824460D01*
X18886849Y-11824460D02*
X18896373Y-11805412D01*
X18896373Y-11805412D02*
X18896373Y-11795888D01*
X18896373Y-11795888D02*
X18886849Y-11776841D01*
X18886849Y-11776841D02*
X18867801Y-11767317D01*
X18867801Y-11767317D02*
X18839230Y-11767317D01*
X18839230Y-11767317D02*
X18820182Y-11757793D01*
X18820182Y-11757793D02*
X18810658Y-11738746D01*
X18810658Y-11738746D02*
X18810658Y-11729222D01*
X18810658Y-11729222D02*
X18820182Y-11710174D01*
X18820182Y-11710174D02*
X18839230Y-11700650D01*
X18839230Y-11700650D02*
X18867801Y-11700650D01*
X18867801Y-11700650D02*
X18886849Y-11710174D01*
X18963039Y-11910174D02*
X18972563Y-11900650D01*
X18972563Y-11900650D02*
X18991611Y-11872079D01*
X18991611Y-11872079D02*
X19001134Y-11853031D01*
X19001134Y-11853031D02*
X19010658Y-11824460D01*
X19010658Y-11824460D02*
X19020182Y-11776841D01*
X19020182Y-11776841D02*
X19020182Y-11738746D01*
X19020182Y-11738746D02*
X19010658Y-11691127D01*
X19010658Y-11691127D02*
X19001134Y-11662555D01*
X19001134Y-11662555D02*
X18991611Y-11643508D01*
X18991611Y-11643508D02*
X18972563Y-11614936D01*
X18972563Y-11614936D02*
X18963039Y-11605412D01*
D12*
X13997500Y-12006500D02*
G75*
G02*
X13967500Y-12006500I-15000J0D01*
G01*
X13967500Y-12006500D02*
G75*
G02*
X13997500Y-12006500I15000J0D01*
G01*
D11*
X14296372Y-11897984D02*
X14315420Y-11897984D01*
X14315420Y-11897984D02*
X14334467Y-11907508D01*
X14334467Y-11907508D02*
X14343991Y-11917031D01*
X14343991Y-11917031D02*
X14353515Y-11936079D01*
X14353515Y-11936079D02*
X14363039Y-11974174D01*
X14363039Y-11974174D02*
X14363039Y-12021793D01*
X14363039Y-12021793D02*
X14353515Y-12059888D01*
X14353515Y-12059888D02*
X14343991Y-12078936D01*
X14343991Y-12078936D02*
X14334467Y-12088460D01*
X14334467Y-12088460D02*
X14315420Y-12097984D01*
X14315420Y-12097984D02*
X14296372Y-12097984D01*
X14296372Y-12097984D02*
X14277324Y-12088460D01*
X14277324Y-12088460D02*
X14267801Y-12078936D01*
X14267801Y-12078936D02*
X14258277Y-12059888D01*
X14258277Y-12059888D02*
X14248753Y-12021793D01*
X14248753Y-12021793D02*
X14248753Y-11974174D01*
X14248753Y-11974174D02*
X14258277Y-11936079D01*
X14258277Y-11936079D02*
X14267801Y-11917031D01*
X14267801Y-11917031D02*
X14277324Y-11907508D01*
X14277324Y-11907508D02*
X14296372Y-11897984D01*
X14448753Y-12078936D02*
X14458277Y-12088460D01*
X14458277Y-12088460D02*
X14448753Y-12097984D01*
X14448753Y-12097984D02*
X14439229Y-12088460D01*
X14439229Y-12088460D02*
X14448753Y-12078936D01*
X14448753Y-12078936D02*
X14448753Y-12097984D01*
X14524943Y-11897984D02*
X14648753Y-11897984D01*
X14648753Y-11897984D02*
X14582086Y-11974174D01*
X14582086Y-11974174D02*
X14610658Y-11974174D01*
X14610658Y-11974174D02*
X14629705Y-11983698D01*
X14629705Y-11983698D02*
X14639229Y-11993222D01*
X14639229Y-11993222D02*
X14648753Y-12012269D01*
X14648753Y-12012269D02*
X14648753Y-12059888D01*
X14648753Y-12059888D02*
X14639229Y-12078936D01*
X14639229Y-12078936D02*
X14629705Y-12088460D01*
X14629705Y-12088460D02*
X14610658Y-12097984D01*
X14610658Y-12097984D02*
X14553515Y-12097984D01*
X14553515Y-12097984D02*
X14534467Y-12088460D01*
X14534467Y-12088460D02*
X14524943Y-12078936D01*
X14772562Y-11897984D02*
X14791610Y-11897984D01*
X14791610Y-11897984D02*
X14810658Y-11907508D01*
X14810658Y-11907508D02*
X14820182Y-11917031D01*
X14820182Y-11917031D02*
X14829705Y-11936079D01*
X14829705Y-11936079D02*
X14839229Y-11974174D01*
X14839229Y-11974174D02*
X14839229Y-12021793D01*
X14839229Y-12021793D02*
X14829705Y-12059888D01*
X14829705Y-12059888D02*
X14820182Y-12078936D01*
X14820182Y-12078936D02*
X14810658Y-12088460D01*
X14810658Y-12088460D02*
X14791610Y-12097984D01*
X14791610Y-12097984D02*
X14772562Y-12097984D01*
X14772562Y-12097984D02*
X14753515Y-12088460D01*
X14753515Y-12088460D02*
X14743991Y-12078936D01*
X14743991Y-12078936D02*
X14734467Y-12059888D01*
X14734467Y-12059888D02*
X14724943Y-12021793D01*
X14724943Y-12021793D02*
X14724943Y-11974174D01*
X14724943Y-11974174D02*
X14734467Y-11936079D01*
X14734467Y-11936079D02*
X14743991Y-11917031D01*
X14743991Y-11917031D02*
X14753515Y-11907508D01*
X14753515Y-11907508D02*
X14772562Y-11897984D01*
X14963039Y-11897984D02*
X14982086Y-11897984D01*
X14982086Y-11897984D02*
X15001134Y-11907508D01*
X15001134Y-11907508D02*
X15010658Y-11917031D01*
X15010658Y-11917031D02*
X15020182Y-11936079D01*
X15020182Y-11936079D02*
X15029705Y-11974174D01*
X15029705Y-11974174D02*
X15029705Y-12021793D01*
X15029705Y-12021793D02*
X15020182Y-12059888D01*
X15020182Y-12059888D02*
X15010658Y-12078936D01*
X15010658Y-12078936D02*
X15001134Y-12088460D01*
X15001134Y-12088460D02*
X14982086Y-12097984D01*
X14982086Y-12097984D02*
X14963039Y-12097984D01*
X14963039Y-12097984D02*
X14943991Y-12088460D01*
X14943991Y-12088460D02*
X14934467Y-12078936D01*
X14934467Y-12078936D02*
X14924943Y-12059888D01*
X14924943Y-12059888D02*
X14915420Y-12021793D01*
X14915420Y-12021793D02*
X14915420Y-11974174D01*
X14915420Y-11974174D02*
X14924943Y-11936079D01*
X14924943Y-11936079D02*
X14934467Y-11917031D01*
X14934467Y-11917031D02*
X14943991Y-11907508D01*
X14943991Y-11907508D02*
X14963039Y-11897984D01*
X15115420Y-12097984D02*
X15115420Y-11964650D01*
X15115420Y-11983698D02*
X15124943Y-11974174D01*
X15124943Y-11974174D02*
X15143991Y-11964650D01*
X15143991Y-11964650D02*
X15172563Y-11964650D01*
X15172563Y-11964650D02*
X15191610Y-11974174D01*
X15191610Y-11974174D02*
X15201134Y-11993222D01*
X15201134Y-11993222D02*
X15201134Y-12097984D01*
X15201134Y-11993222D02*
X15210658Y-11974174D01*
X15210658Y-11974174D02*
X15229705Y-11964650D01*
X15229705Y-11964650D02*
X15258277Y-11964650D01*
X15258277Y-11964650D02*
X15277324Y-11974174D01*
X15277324Y-11974174D02*
X15286848Y-11993222D01*
X15286848Y-11993222D02*
X15286848Y-12097984D01*
X15382086Y-12097984D02*
X15382086Y-11964650D01*
X15382086Y-11983698D02*
X15391610Y-11974174D01*
X15391610Y-11974174D02*
X15410658Y-11964650D01*
X15410658Y-11964650D02*
X15439229Y-11964650D01*
X15439229Y-11964650D02*
X15458277Y-11974174D01*
X15458277Y-11974174D02*
X15467801Y-11993222D01*
X15467801Y-11993222D02*
X15467801Y-12097984D01*
X15467801Y-11993222D02*
X15477324Y-11974174D01*
X15477324Y-11974174D02*
X15496372Y-11964650D01*
X15496372Y-11964650D02*
X15524943Y-11964650D01*
X15524943Y-11964650D02*
X15543991Y-11974174D01*
X15543991Y-11974174D02*
X15553515Y-11993222D01*
X15553515Y-11993222D02*
X15553515Y-12097984D01*
X15943991Y-11888460D02*
X15772563Y-12145603D01*
X16201134Y-11897984D02*
X16220182Y-11897984D01*
X16220182Y-11897984D02*
X16239229Y-11907508D01*
X16239229Y-11907508D02*
X16248753Y-11917031D01*
X16248753Y-11917031D02*
X16258277Y-11936079D01*
X16258277Y-11936079D02*
X16267801Y-11974174D01*
X16267801Y-11974174D02*
X16267801Y-12021793D01*
X16267801Y-12021793D02*
X16258277Y-12059888D01*
X16258277Y-12059888D02*
X16248753Y-12078936D01*
X16248753Y-12078936D02*
X16239229Y-12088460D01*
X16239229Y-12088460D02*
X16220182Y-12097984D01*
X16220182Y-12097984D02*
X16201134Y-12097984D01*
X16201134Y-12097984D02*
X16182086Y-12088460D01*
X16182086Y-12088460D02*
X16172563Y-12078936D01*
X16172563Y-12078936D02*
X16163039Y-12059888D01*
X16163039Y-12059888D02*
X16153515Y-12021793D01*
X16153515Y-12021793D02*
X16153515Y-11974174D01*
X16153515Y-11974174D02*
X16163039Y-11936079D01*
X16163039Y-11936079D02*
X16172563Y-11917031D01*
X16172563Y-11917031D02*
X16182086Y-11907508D01*
X16182086Y-11907508D02*
X16201134Y-11897984D01*
X16353515Y-12078936D02*
X16363039Y-12088460D01*
X16363039Y-12088460D02*
X16353515Y-12097984D01*
X16353515Y-12097984D02*
X16343991Y-12088460D01*
X16343991Y-12088460D02*
X16353515Y-12078936D01*
X16353515Y-12078936D02*
X16353515Y-12097984D01*
X16486848Y-11897984D02*
X16505896Y-11897984D01*
X16505896Y-11897984D02*
X16524944Y-11907508D01*
X16524944Y-11907508D02*
X16534467Y-11917031D01*
X16534467Y-11917031D02*
X16543991Y-11936079D01*
X16543991Y-11936079D02*
X16553515Y-11974174D01*
X16553515Y-11974174D02*
X16553515Y-12021793D01*
X16553515Y-12021793D02*
X16543991Y-12059888D01*
X16543991Y-12059888D02*
X16534467Y-12078936D01*
X16534467Y-12078936D02*
X16524944Y-12088460D01*
X16524944Y-12088460D02*
X16505896Y-12097984D01*
X16505896Y-12097984D02*
X16486848Y-12097984D01*
X16486848Y-12097984D02*
X16467801Y-12088460D01*
X16467801Y-12088460D02*
X16458277Y-12078936D01*
X16458277Y-12078936D02*
X16448753Y-12059888D01*
X16448753Y-12059888D02*
X16439229Y-12021793D01*
X16439229Y-12021793D02*
X16439229Y-11974174D01*
X16439229Y-11974174D02*
X16448753Y-11936079D01*
X16448753Y-11936079D02*
X16458277Y-11917031D01*
X16458277Y-11917031D02*
X16467801Y-11907508D01*
X16467801Y-11907508D02*
X16486848Y-11897984D01*
X16743991Y-12097984D02*
X16629706Y-12097984D01*
X16686848Y-12097984D02*
X16686848Y-11897984D01*
X16686848Y-11897984D02*
X16667801Y-11926555D01*
X16667801Y-11926555D02*
X16648753Y-11945603D01*
X16648753Y-11945603D02*
X16629706Y-11955127D01*
X16934468Y-12097984D02*
X16820182Y-12097984D01*
X16877325Y-12097984D02*
X16877325Y-11897984D01*
X16877325Y-11897984D02*
X16858277Y-11926555D01*
X16858277Y-11926555D02*
X16839229Y-11945603D01*
X16839229Y-11945603D02*
X16820182Y-11955127D01*
X17048753Y-11983698D02*
X17029706Y-11974174D01*
X17029706Y-11974174D02*
X17020182Y-11964650D01*
X17020182Y-11964650D02*
X17010658Y-11945603D01*
X17010658Y-11945603D02*
X17010658Y-11936079D01*
X17010658Y-11936079D02*
X17020182Y-11917031D01*
X17020182Y-11917031D02*
X17029706Y-11907508D01*
X17029706Y-11907508D02*
X17048753Y-11897984D01*
X17048753Y-11897984D02*
X17086849Y-11897984D01*
X17086849Y-11897984D02*
X17105896Y-11907508D01*
X17105896Y-11907508D02*
X17115420Y-11917031D01*
X17115420Y-11917031D02*
X17124944Y-11936079D01*
X17124944Y-11936079D02*
X17124944Y-11945603D01*
X17124944Y-11945603D02*
X17115420Y-11964650D01*
X17115420Y-11964650D02*
X17105896Y-11974174D01*
X17105896Y-11974174D02*
X17086849Y-11983698D01*
X17086849Y-11983698D02*
X17048753Y-11983698D01*
X17048753Y-11983698D02*
X17029706Y-11993222D01*
X17029706Y-11993222D02*
X17020182Y-12002746D01*
X17020182Y-12002746D02*
X17010658Y-12021793D01*
X17010658Y-12021793D02*
X17010658Y-12059888D01*
X17010658Y-12059888D02*
X17020182Y-12078936D01*
X17020182Y-12078936D02*
X17029706Y-12088460D01*
X17029706Y-12088460D02*
X17048753Y-12097984D01*
X17048753Y-12097984D02*
X17086849Y-12097984D01*
X17086849Y-12097984D02*
X17105896Y-12088460D01*
X17105896Y-12088460D02*
X17115420Y-12078936D01*
X17115420Y-12078936D02*
X17124944Y-12059888D01*
X17124944Y-12059888D02*
X17124944Y-12021793D01*
X17124944Y-12021793D02*
X17115420Y-12002746D01*
X17115420Y-12002746D02*
X17105896Y-11993222D01*
X17105896Y-11993222D02*
X17086849Y-11983698D01*
X17201134Y-11897984D02*
X17201134Y-11936079D01*
X17277325Y-11897984D02*
X17277325Y-11936079D01*
X17572563Y-12174174D02*
X17563039Y-12164650D01*
X17563039Y-12164650D02*
X17543991Y-12136079D01*
X17543991Y-12136079D02*
X17534468Y-12117031D01*
X17534468Y-12117031D02*
X17524944Y-12088460D01*
X17524944Y-12088460D02*
X17515420Y-12040841D01*
X17515420Y-12040841D02*
X17515420Y-12002746D01*
X17515420Y-12002746D02*
X17524944Y-11955127D01*
X17524944Y-11955127D02*
X17534468Y-11926555D01*
X17534468Y-11926555D02*
X17543991Y-11907508D01*
X17543991Y-11907508D02*
X17563039Y-11878936D01*
X17563039Y-11878936D02*
X17572563Y-11869412D01*
X17753515Y-12097984D02*
X17639230Y-12097984D01*
X17696372Y-12097984D02*
X17696372Y-11897984D01*
X17696372Y-11897984D02*
X17677325Y-11926555D01*
X17677325Y-11926555D02*
X17658277Y-11945603D01*
X17658277Y-11945603D02*
X17639230Y-11955127D01*
X17848753Y-12097984D02*
X17886849Y-12097984D01*
X17886849Y-12097984D02*
X17905896Y-12088460D01*
X17905896Y-12088460D02*
X17915420Y-12078936D01*
X17915420Y-12078936D02*
X17934468Y-12050365D01*
X17934468Y-12050365D02*
X17943991Y-12012269D01*
X17943991Y-12012269D02*
X17943991Y-11936079D01*
X17943991Y-11936079D02*
X17934468Y-11917031D01*
X17934468Y-11917031D02*
X17924944Y-11907508D01*
X17924944Y-11907508D02*
X17905896Y-11897984D01*
X17905896Y-11897984D02*
X17867801Y-11897984D01*
X17867801Y-11897984D02*
X17848753Y-11907508D01*
X17848753Y-11907508D02*
X17839230Y-11917031D01*
X17839230Y-11917031D02*
X17829706Y-11936079D01*
X17829706Y-11936079D02*
X17829706Y-11983698D01*
X17829706Y-11983698D02*
X17839230Y-12002746D01*
X17839230Y-12002746D02*
X17848753Y-12012269D01*
X17848753Y-12012269D02*
X17867801Y-12021793D01*
X17867801Y-12021793D02*
X17905896Y-12021793D01*
X17905896Y-12021793D02*
X17924944Y-12012269D01*
X17924944Y-12012269D02*
X17934468Y-12002746D01*
X17934468Y-12002746D02*
X17943991Y-11983698D01*
X18182087Y-12097984D02*
X18182087Y-11897984D01*
X18267801Y-12097984D02*
X18267801Y-11993222D01*
X18267801Y-11993222D02*
X18258277Y-11974174D01*
X18258277Y-11974174D02*
X18239230Y-11964650D01*
X18239230Y-11964650D02*
X18210658Y-11964650D01*
X18210658Y-11964650D02*
X18191611Y-11974174D01*
X18191611Y-11974174D02*
X18182087Y-11983698D01*
X18391611Y-12097984D02*
X18372563Y-12088460D01*
X18372563Y-12088460D02*
X18363039Y-12078936D01*
X18363039Y-12078936D02*
X18353515Y-12059888D01*
X18353515Y-12059888D02*
X18353515Y-12002746D01*
X18353515Y-12002746D02*
X18363039Y-11983698D01*
X18363039Y-11983698D02*
X18372563Y-11974174D01*
X18372563Y-11974174D02*
X18391611Y-11964650D01*
X18391611Y-11964650D02*
X18420182Y-11964650D01*
X18420182Y-11964650D02*
X18439230Y-11974174D01*
X18439230Y-11974174D02*
X18448753Y-11983698D01*
X18448753Y-11983698D02*
X18458277Y-12002746D01*
X18458277Y-12002746D02*
X18458277Y-12059888D01*
X18458277Y-12059888D02*
X18448753Y-12078936D01*
X18448753Y-12078936D02*
X18439230Y-12088460D01*
X18439230Y-12088460D02*
X18420182Y-12097984D01*
X18420182Y-12097984D02*
X18391611Y-12097984D01*
X18572563Y-12097984D02*
X18553515Y-12088460D01*
X18553515Y-12088460D02*
X18543992Y-12069412D01*
X18543992Y-12069412D02*
X18543992Y-11897984D01*
X18724944Y-12088460D02*
X18705896Y-12097984D01*
X18705896Y-12097984D02*
X18667801Y-12097984D01*
X18667801Y-12097984D02*
X18648753Y-12088460D01*
X18648753Y-12088460D02*
X18639230Y-12069412D01*
X18639230Y-12069412D02*
X18639230Y-11993222D01*
X18639230Y-11993222D02*
X18648753Y-11974174D01*
X18648753Y-11974174D02*
X18667801Y-11964650D01*
X18667801Y-11964650D02*
X18705896Y-11964650D01*
X18705896Y-11964650D02*
X18724944Y-11974174D01*
X18724944Y-11974174D02*
X18734468Y-11993222D01*
X18734468Y-11993222D02*
X18734468Y-12012269D01*
X18734468Y-12012269D02*
X18639230Y-12031317D01*
X18810658Y-12088460D02*
X18829706Y-12097984D01*
X18829706Y-12097984D02*
X18867801Y-12097984D01*
X18867801Y-12097984D02*
X18886849Y-12088460D01*
X18886849Y-12088460D02*
X18896373Y-12069412D01*
X18896373Y-12069412D02*
X18896373Y-12059888D01*
X18896373Y-12059888D02*
X18886849Y-12040841D01*
X18886849Y-12040841D02*
X18867801Y-12031317D01*
X18867801Y-12031317D02*
X18839230Y-12031317D01*
X18839230Y-12031317D02*
X18820182Y-12021793D01*
X18820182Y-12021793D02*
X18810658Y-12002746D01*
X18810658Y-12002746D02*
X18810658Y-11993222D01*
X18810658Y-11993222D02*
X18820182Y-11974174D01*
X18820182Y-11974174D02*
X18839230Y-11964650D01*
X18839230Y-11964650D02*
X18867801Y-11964650D01*
X18867801Y-11964650D02*
X18886849Y-11974174D01*
X18963039Y-12174174D02*
X18972563Y-12164650D01*
X18972563Y-12164650D02*
X18991611Y-12136079D01*
X18991611Y-12136079D02*
X19001134Y-12117031D01*
X19001134Y-12117031D02*
X19010658Y-12088460D01*
X19010658Y-12088460D02*
X19020182Y-12040841D01*
X19020182Y-12040841D02*
X19020182Y-12002746D01*
X19020182Y-12002746D02*
X19010658Y-11955127D01*
X19010658Y-11955127D02*
X19001134Y-11926555D01*
X19001134Y-11926555D02*
X18991611Y-11907508D01*
X18991611Y-11907508D02*
X18972563Y-11878936D01*
X18972563Y-11878936D02*
X18963039Y-11869412D01*
M02*
